<svg version="1.1" viewBox="0.0 0.0 858.6509186351706 674.6561679790026" fill="none" stroke="none" stroke-linecap="square" stroke-miterlimit="10" xmlns:xlink="http://www.w3.org/1999/xlink" xmlns="http://www.w3.org/2000/svg"><clipPath id="p.0"><path d="m0 0l858.65094 0l0 674.6562l-858.65094 0l0 -674.6562z" clip-rule="nonzero"/></clipPath><g clip-path="url(#p.0)"><path fill="#000000" fill-opacity="0.0" d="m0 0l858.65094 0l0 674.6562l-858.65094 0z" fill-rule="evenodd"/><path fill="#fa4c67" d="m149.0971 107.67716l0 0c0 -10.202042 8.270401 -18.472435 18.472443 -18.472435l0 0c4.8992004 0 9.597733 1.9461975 13.061996 5.410446c3.4642487 3.4642563 5.410446 8.162796 5.410446 13.061989l0 0c0 10.202049 -8.270386 18.472443 -18.472443 18.472443l0 0c-10.202042 0 -18.472443 -8.270393 -18.472443 -18.472443z" fill-rule="evenodd"/><path stroke="#000000" stroke-width="1.0" stroke-linejoin="round" stroke-linecap="butt" d="m149.0971 107.67716l0 0c0 -10.202042 8.270401 -18.472435 18.472443 -18.472435l0 0c4.8992004 0 9.597733 1.9461975 13.061996 5.410446c3.4642487 3.4642563 5.410446 8.162796 5.410446 13.061989l0 0c0 10.202049 -8.270386 18.472443 -18.472443 18.472443l0 0c-10.202042 0 -18.472443 -8.270393 -18.472443 -18.472443z" fill-rule="evenodd"/><path fill="#000000" fill-opacity="0.0" d="m599.3543 623.8294l192.0 0l0 42.04724l-192.0 0z" fill-rule="evenodd"/><path fill="#000000" d="m625.01056 654.7444q0.09375 0.1875 0.09375 0.40625q0 0.359375 -0.28125 0.609375q-0.265625 0.234375 -0.65625 0.234375q-0.59375 0 -0.84375 -0.578125l-1.703125 -3.890625l-9.046875 0l-1.71875 3.890625q-0.25 0.578125 -0.84375 0.578125q-0.390625 0 -0.671875 -0.25q-0.28125 -0.265625 -0.28125 -0.625q0 -0.1875 0.09375 -0.375l6.859375 -15.265625q0.140625 -0.34375 0.421875 -0.5q0.296875 -0.171875 0.640625 -0.171875q0.359375 0 0.640625 0.1875q0.28125 0.171875 0.4375 0.484375l6.859375 15.265625zm-11.71875 -4.84375l7.609375 0l-3.8125 -8.625l-3.796875 8.625zm23.697998 -11.078125q0.453125 0 0.71875 0.265625q0.265625 0.265625 0.265625 0.671875l0 15.265625q0 0.4375 -0.265625 0.703125q-0.265625 0.265625 -0.71875 0.265625q-0.453125 0 -0.71875 -0.265625q-0.25 -0.265625 -0.25 -0.703125l0 -1.296875q-0.515625 1.109375 -1.546875 1.71875q-1.015625 0.59375 -2.390625 0.59375q-1.53125 0 -2.703125 -0.765625q-1.171875 -0.78125 -1.828125 -2.15625q-0.640625 -1.375 -0.640625 -3.203125q0 -1.796875 0.640625 -3.15625q0.65625 -1.375 1.828125 -2.109375q1.171875 -0.75 2.703125 -0.75q1.375 0 2.390625 0.59375q1.03125 0.59375 1.546875 1.703125l0 -6.4375q0 -0.421875 0.25 -0.671875q0.265625 -0.265625 0.71875 -0.265625zm-4.515625 15.609375q1.703125 0 2.625 -1.15625q0.921875 -1.171875 0.921875 -3.3125q0 -2.140625 -0.921875 -3.28125q-0.921875 -1.15625 -2.625 -1.15625q-1.703125 0 -2.65625 1.15625q-0.9375 1.140625 -0.9375 3.234375q0 2.140625 0.9375 3.328125q0.953125 1.1875 2.65625 1.1875zm6.6710815 5.8125q-0.59375 0.046875 -0.890625 -0.15625q-0.3125 -0.203125 -0.3125 -0.625q0 -0.640625 0.84375 -0.734375l0.671875 -0.046875q1.078125 -0.078125 1.59375 -0.65625q0.515625 -0.578125 0.515625 -1.890625l0 -11.234375q0 -0.453125 0.28125 -0.703125q0.28125 -0.25 0.703125 -0.25q0.4375 0 0.703125 0.25q0.265625 0.25 0.265625 0.703125l0 11.109375q0 2.015625 -0.90625 3.015625q-0.90625 1.015625 -2.796875 1.15625l-0.671875 0.0625zm3.421875 -18.828125q-0.578125 0 -0.9375 -0.328125q-0.359375 -0.34375 -0.359375 -0.890625q0 -0.53125 0.359375 -0.859375q0.359375 -0.34375 0.9375 -0.34375q0.5625 0 0.921875 0.34375q0.375 0.328125 0.375 0.859375q0 0.546875 -0.375 0.890625q-0.359375 0.328125 -0.921875 0.328125zm9.411682 14.625q-1.65625 0 -2.921875 -0.734375q-1.25 -0.75 -1.9375 -2.125q-0.671875 -1.390625 -0.671875 -3.21875q0 -1.828125 0.671875 -3.203125q0.6875 -1.375 1.9375 -2.109375q1.265625 -0.75 2.921875 -0.75q1.65625 0 2.921875 0.75q1.28125 0.734375 1.96875 2.109375q0.6875 1.375 0.6875 3.203125q0 1.828125 -0.6875 3.21875q-0.6875 1.375 -1.96875 2.125q-1.265625 0.734375 -2.921875 0.734375zm0 -1.609375q1.734375 0 2.65625 -1.140625q0.921875 -1.140625 0.921875 -3.328125q0 -2.140625 -0.9375 -3.296875q-0.921875 -1.171875 -2.640625 -1.171875q-1.703125 0 -2.640625 1.171875q-0.921875 1.15625 -0.921875 3.296875q0 2.15625 0.921875 3.3125q0.921875 1.15625 2.640625 1.15625zm9.460632 1.5625q-0.421875 0 -0.703125 -0.25q-0.28125 -0.265625 -0.28125 -0.71875l0 -10.125q0 -0.453125 0.28125 -0.703125q0.28125 -0.25 0.703125 -0.25q0.4375 0 0.703125 0.25q0.265625 0.25 0.265625 0.703125l0 10.125q0 0.484375 -0.265625 0.734375q-0.265625 0.234375 -0.703125 0.234375zm0.015625 -14.578125q-0.578125 0 -0.9375 -0.328125q-0.359375 -0.34375 -0.359375 -0.890625q0 -0.53125 0.359375 -0.859375q0.359375 -0.34375 0.9375 -0.34375q0.5625 0 0.921875 0.34375q0.375 0.328125 0.375 0.859375q0 0.546875 -0.375 0.890625q-0.359375 0.328125 -0.921875 0.328125zm10.458557 2.484375q4.1875 0 4.1875 4.625l0 6.5q0 0.453125 -0.25 0.71875q-0.25 0.25 -0.703125 0.25q-0.453125 0 -0.71875 -0.25q-0.265625 -0.265625 -0.265625 -0.71875l0 -6.375q0 -1.640625 -0.640625 -2.375q-0.640625 -0.75 -2.03125 -0.75q-1.609375 0 -2.5625 0.984375q-0.953125 0.984375 -0.953125 2.65625l0 5.859375q0 0.453125 -0.265625 0.71875q-0.25 0.25 -0.703125 0.25q-0.453125 0 -0.71875 -0.25q-0.265625 -0.265625 -0.265625 -0.71875l0 -10.125q0 -0.4375 0.265625 -0.6875q0.265625 -0.265625 0.71875 -0.265625q0.4375 0 0.6875 0.265625q0.25 0.25 0.25 0.671875l0 1.21875q0.578125 -1.078125 1.609375 -1.640625q1.03125 -0.5625 2.359375 -0.5625zm13.147583 10.546875q0.84375 0.078125 0.84375 0.78125q0 0.40625 -0.3125 0.609375q-0.296875 0.203125 -0.890625 0.15625l-0.65625 -0.046875q-1.921875 -0.15625 -2.828125 -1.15625q-0.90625 -1.015625 -0.90625 -3.046875l0 -6.03125l-1.609375 0q-0.40625 0 -0.640625 -0.203125q-0.234375 -0.203125 -0.234375 -0.53125q0 -0.359375 0.234375 -0.578125q0.234375 -0.21875 0.640625 -0.21875l1.609375 0l0 -2.71875q0 -0.453125 0.25 -0.703125q0.265625 -0.25 0.734375 -0.25q0.421875 0 0.6875 0.25q0.265625 0.25 0.265625 0.703125l0 2.71875l2.671875 0q0.375 0 0.59375 0.21875q0.234375 0.21875 0.234375 0.578125q0 0.328125 -0.234375 0.53125q-0.21875 0.203125 -0.59375 0.203125l-2.671875 0l0 6.125q0 1.3125 0.53125 1.90625q0.546875 0.59375 1.625 0.65625l0.65625 0.046875zm14.63324 1.609375q-1.796875 0 -3.4375 -0.53125q-1.640625 -0.546875 -2.625 -1.453125q-0.359375 -0.34375 -0.359375 -0.84375q0 -0.328125 0.1875 -0.578125q0.1875 -0.265625 0.453125 -0.265625q0.3125 0 0.671875 0.265625q2.234375 1.734375 5.09375 1.734375q2.0625 0 3.15625 -0.796875q1.109375 -0.796875 1.109375 -2.25q0 -0.84375 -0.53125 -1.359375q-0.515625 -0.515625 -1.390625 -0.828125q-0.859375 -0.3125 -2.328125 -0.65625q-1.96875 -0.453125 -3.234375 -0.953125q-1.25 -0.5 -2.03125 -1.4375q-0.78125 -0.9375 -0.78125 -2.453125q0 -1.4375 0.78125 -2.546875q0.78125 -1.125 2.1875 -1.734375q1.40625 -0.609375 3.203125 -0.609375q1.671875 0 3.125 0.515625q1.453125 0.515625 2.4375 1.46875q0.390625 0.390625 0.390625 0.84375q0 0.34375 -0.203125 0.59375q-0.1875 0.25 -0.453125 0.25q-0.265625 0 -0.6875 -0.265625q-1.171875 -0.953125 -2.1875 -1.34375q-1.0 -0.390625 -2.421875 -0.390625q-2.0 0 -3.109375 0.828125q-1.09375 0.828125 -1.09375 2.328125q0 1.265625 0.96875 1.90625q0.984375 0.625 3.0 1.109375q2.171875 0.53125 3.421875 0.984375q1.25 0.4375 2.078125 1.328125q0.828125 0.875 0.828125 2.375q0 1.40625 -0.78125 2.484375q-0.78125 1.078125 -2.203125 1.6875q-1.40625 0.59375 -3.234375 0.59375zm13.964172 -0.015625q-1.65625 0 -2.921875 -0.734375q-1.25 -0.75 -1.9375 -2.125q-0.671875 -1.390625 -0.671875 -3.21875q0 -1.828125 0.671875 -3.203125q0.6875 -1.375 1.9375 -2.109375q1.265625 -0.75 2.921875 -0.75q1.65625 0 2.921875 0.75q1.28125 0.734375 1.96875 2.109375q0.6875 1.375 0.6875 3.203125q0 1.828125 -0.6875 3.21875q-0.6875 1.375 -1.96875 2.125q-1.265625 0.734375 -2.921875 0.734375zm0 -1.609375q1.734375 0 2.65625 -1.140625q0.921875 -1.140625 0.921875 -3.328125q0 -2.140625 -0.9375 -3.296875q-0.921875 -1.171875 -2.640625 -1.171875q-1.703125 0 -2.640625 1.171875q-0.921875 1.15625 -0.921875 3.296875q0 2.15625 0.921875 3.3125q0.921875 1.15625 2.640625 1.15625zm17.366882 -10.484375q0.453125 0 0.703125 0.265625q0.25 0.25 0.25 0.6875l0 10.15625q0 0.40625 -0.25 0.671875q-0.25 0.265625 -0.703125 0.265625q-0.4375 0 -0.6875 -0.25q-0.25 -0.265625 -0.25 -0.671875l0 -1.1875q-0.5625 1.046875 -1.5625 1.609375q-0.984375 0.546875 -2.234375 0.546875q-2.09375 0 -3.15625 -1.15625q-1.046875 -1.171875 -1.046875 -3.453125l0 -6.53125q0 -0.4375 0.265625 -0.6875q0.265625 -0.265625 0.71875 -0.265625q0.453125 0 0.703125 0.265625q0.265625 0.25 0.265625 0.6875l0 6.484375q0 1.5625 0.609375 2.296875q0.625 0.71875 1.96875 0.71875q1.546875 0 2.484375 -0.984375q0.9375 -1.0 0.9375 -2.640625l0 -5.875q0 -0.4375 0.25 -0.6875q0.265625 -0.265625 0.734375 -0.265625zm10.354553 0q1.015625 -0.078125 1.015625 0.8125q0 0.375 -0.21875 0.609375q-0.21875 0.234375 -0.75 0.28125l-0.71875 0.0625q-1.609375 0.140625 -2.390625 1.140625q-0.765625 1.0 -0.765625 2.34375l0 5.828125q0 0.484375 -0.265625 0.734375q-0.265625 0.234375 -0.703125 0.234375q-0.421875 0 -0.703125 -0.25q-0.28125 -0.265625 -0.28125 -0.71875l0 -10.125q0 -0.453125 0.28125 -0.703125q0.296875 -0.25 0.703125 -0.25q0.390625 0 0.65625 0.25q0.265625 0.25 0.265625 0.6875l0 1.34375q0.5 -1.0625 1.421875 -1.609375q0.921875 -0.5625 2.125 -0.65625l0.328125 -0.015625zm7.51886 12.09375q-1.640625 0 -2.90625 -0.734375q-1.25 -0.75 -1.9375 -2.125q-0.671875 -1.375 -0.671875 -3.171875q0 -1.796875 0.703125 -3.1875q0.703125 -1.390625 1.96875 -2.15625q1.28125 -0.765625 2.9375 -0.765625q0.90625 0 1.8125 0.25q0.90625 0.25 1.578125 0.734375q0.421875 0.28125 0.59375 0.5625q0.1875 0.265625 0.1875 0.609375q0 0.328125 -0.1875 0.546875q-0.171875 0.21875 -0.453125 0.21875q-0.171875 0 -0.359375 -0.09375q-0.1875 -0.09375 -0.328125 -0.1875q-0.125 -0.109375 -0.171875 -0.125q-0.625 -0.40625 -1.203125 -0.640625q-0.5625 -0.25 -1.375 -0.25q-1.75 0 -2.71875 1.1875q-0.96875 1.1875 -0.96875 3.296875q0 2.109375 0.96875 3.265625q0.96875 1.15625 2.71875 1.15625q0.8125 0 1.40625 -0.234375q0.59375 -0.25 1.1875 -0.65625q0.265625 -0.171875 0.5 -0.28125q0.25 -0.125 0.40625 -0.125q0.265625 0 0.4375 0.21875q0.1875 0.21875 0.1875 0.546875q0 0.3125 -0.171875 0.5625q-0.15625 0.25 -0.609375 0.5625q-0.671875 0.453125 -1.625 0.734375q-0.953125 0.28125 -1.90625 0.28125zm15.714722 -2.890625q0.265625 0 0.453125 0.21875q0.203125 0.21875 0.203125 0.5625q0 0.59375 -0.84375 1.09375q-0.859375 0.5 -1.828125 0.765625q-0.953125 0.25 -1.875 0.25q-2.703125 0 -4.28125 -1.609375q-1.5625 -1.609375 -1.5625 -4.4375q0 -1.8125 0.6875 -3.1875q0.703125 -1.375 1.953125 -2.140625q1.265625 -0.765625 2.875 -0.765625q2.28125 0 3.625 1.484375q1.34375 1.484375 1.34375 4.03125q0 0.484375 -0.203125 0.703125q-0.1875 0.203125 -0.609375 0.203125l-7.734375 0q0.21875 4.125 3.90625 4.125q0.9375 0 1.609375 -0.25q0.671875 -0.25 1.453125 -0.6875q0.609375 -0.359375 0.828125 -0.359375zm-4.203125 -7.75q-1.53125 0 -2.453125 0.96875q-0.921875 0.953125 -1.09375 2.703125l6.796875 0q-0.046875 -1.765625 -0.890625 -2.71875q-0.84375 -0.953125 -2.359375 -0.953125z" fill-rule="nonzero"/><path fill="#f19167" d="m721.2756 545.4147l70.078735 0l0 64.97638l-70.078735 0z" fill-rule="evenodd"/><path stroke="#000000" stroke-width="1.0" stroke-linejoin="round" stroke-linecap="butt" d="m721.2756 545.4147l70.078735 0l0 64.97638l-70.078735 0z" fill-rule="evenodd"/><path fill="#e6ab9d" d="m310.93866 206.9442l25.973145 -2.8876953l-5.771637 7.2126007l285.53867 228.30502l-11.543335 14.425171l-285.53864 -228.305l-5.7716675 7.2125854z" fill-rule="evenodd"/><path stroke="#000000" stroke-width="1.0" stroke-linejoin="round" stroke-linecap="butt" d="m310.93866 206.9442l25.973145 -2.8876953l-5.771637 7.2126007l285.53867 228.30502l-11.543335 14.425171l-285.53864 -228.305l-5.7716675 7.2125854z" fill-rule="evenodd"/><path fill="#e6ab9d" d="m339.3966 570.75287l17.181091 -17.192871l0 8.590515l212.42523 -0.14569092l0 17.181152l-212.42523 0.14569092l0 8.590515z" fill-rule="evenodd"/><path stroke="#000000" stroke-width="1.0" stroke-linejoin="round" stroke-linecap="butt" d="m339.3966 570.75287l17.181091 -17.192871l0 8.590515l212.42523 -0.14569092l0 17.181152l-212.42523 0.14569092l0 8.590515z" fill-rule="evenodd"/><path fill="#e6ab9d" d="m756.2365 215.6059l17.192871 17.181091l-8.590515 0l0.14569092 212.4252l-17.181152 0l-0.14569092 -212.4252l-8.590515 0z" fill-rule="evenodd"/><path stroke="#000000" stroke-width="1.0" stroke-linejoin="round" stroke-linecap="butt" d="m756.2365 215.6059l17.192871 17.181091l-8.590515 0l0.14569092 212.4252l-17.181152 0l-0.14569092 -212.4252l-8.590515 0z" fill-rule="evenodd"/><path fill="#000000" fill-opacity="0.0" d="m343.61426 148.17584l310.6142 244.18896l-25.984253 33.039368l-310.6142 -244.18896z" fill-rule="evenodd"/><path fill="#000000" d="m333.31512 180.83466q-0.35620117 -0.28004456 -0.41311646 -0.6626587q-0.0446167 -0.37295532 0.21618652 -0.7045593l9.272766 -11.790497q0.2704773 -0.34388733 0.64349365 -0.38850403q0.38531494 -0.034973145 0.74154663 0.24507141l3.685089 2.8970337q3.1814575 2.5010986 3.5637817 5.60408q0.3919983 3.0907135 -2.1193848 6.283966q-2.501709 3.1809692 -5.629883 3.5440674q-3.1062012 0.36047363 -6.2753906 -2.1309814l-3.685089 -2.8970184zm4.6300354 1.4933472q5.1713867 4.0654907 9.363464 -1.2647858q4.1824036 -5.3180084 -0.98898315 -9.383499l-2.8252563 -2.221054l-8.374481 10.64827l2.8252563 2.2210693zm8.990173 9.373169q-0.33163452 -0.2607422 -0.39819336 -0.631073q-0.056915283 -0.38261414 0.22320557 -0.7387848l6.2591248 -7.9585724q0.28012085 -0.35617065 0.6557617 -0.37886047q0.3756714 -0.02267456 0.7073059 0.23805237q0.34396362 0.27038574 0.39822388 0.63105774q0.05429077 0.360672 -0.22583008 0.71684265l-6.2591248 7.9585876q-0.29943848 0.38072205 -0.6628113 0.41307068q-0.35369873 0.020065308 -0.69766235 -0.25032043zm9.024292 -11.449219q-0.4544983 -0.3572998 -0.5341797 -0.83732605q-0.07003784 -0.49230957 0.2680359 -0.9221649q0.32843018 -0.41758728 0.81378174 -0.45339966q0.49502563 -0.048095703 0.9495239 0.30921936q0.4421997 0.347641 0.51223755 0.8399353q0.09194946 0.48968506 -0.2364502 0.9072571q-0.33807373 0.4298706 -0.84536743 0.4683075q-0.48538208 0.035812378 -0.9275818 -0.3118286zm6.571289 8.385803q0.8467102 0.5662842 0.29614258 1.2663422q-0.23181152 0.29475403 -0.54867554 0.34378052q-0.316864 0.049041748 -0.76345825 -0.2424469l-0.60369873 -0.39508057q-1.3521423 -0.8841095 -2.5845032 -0.58091736q-1.2200928 0.31285095 -2.0507812 1.3690796l-3.6028748 4.5811005q-0.29940796 0.38072205 -0.66278076 0.41307068q-0.35372925 0.020065308 -0.69766235 -0.25032043q-0.33166504 -0.2607422 -0.39822388 -0.631073q-0.056884766 -0.38261414 0.22323608 -0.7387848l6.2591248 -7.9585724q0.28012085 -0.35617065 0.6557617 -0.37886047q0.38793945 -0.013031006 0.7073059 0.23805237q0.3070984 0.24142456 0.36135864 0.60209656q0.05429077 0.360672 -0.216156 0.7045593l-0.8306885 1.0562286q1.0498962 -0.5261383 2.1127014 -0.386261q1.0724487 0.12760925 2.076233 0.79748535l0.26763916 0.19052124zm3.5382996 14.488174q0.20880127 0.16415405 0.22097778 0.4519806q0.024475098 0.29748535 -0.1880188 0.567688q-0.36706543 0.46670532 -1.3394775 0.33825684q-0.9846802 -0.1381073 -1.9104614 -0.52804565q-0.9038696 -0.3925476 -1.6286011 -0.96229553q-2.125061 -1.6706238 -2.370819 -3.9109802q-0.23345947 -2.2306976 1.5148315 -4.4536896q1.1204529 -1.4246826 2.5109558 -2.0805817q1.402771 -0.64624023 2.8587646 -0.47550964q1.4682617 0.18040466 2.7334595 1.1750488q1.7934265 1.4098816 1.93219 3.407135q0.13879395 1.9972382 -1.435669 3.999176q-0.29943848 0.38072205 -0.59432983 0.42713928q-0.27297974 0.043777466 -0.6046448 -0.21694946l-6.0803833 -4.7801056q-2.3780518 3.3775787 0.520874 5.6565704q0.73703 0.57940674 1.4197693 0.7981415q0.68273926 0.21873474 1.5673828 0.35768127q0.7012329 0.09413147 0.87319946 0.2293396zm1.4866333 -8.689423q-1.2037964 -0.94636536 -2.5274048 -0.75465393q-1.3139343 0.17944336 -2.5308838 1.4487762l5.343384 4.200699q1.0546265 -1.4168091 0.9805298 -2.6874695q-0.0741272 -1.2706451 -1.265625 -2.2073517zm3.3530579 16.171066q-1.2897644 -1.0139618 -1.83078 -2.3733978q-0.51904297 -1.3620605 -0.20953369 -2.867752q0.32183838 -1.4960327 1.4326172 -2.9084473q1.1108093 -1.4123993 2.5232239 -2.0709229q1.4124451 -0.6585083 2.8807068 -0.4781189q1.4805603 0.19004822 2.7826233 1.2136536q0.7124634 0.56010437 1.2703552 1.3166962q0.55792236 0.75660706 0.7866821 1.5525818q0.15777588 0.48179626 0.11904907 0.8090973q-0.016815186 0.3246765 -0.22930908 0.5948639q-0.20285034 0.2579193 -0.48547363 0.3139801q-0.27035522 0.065719604 -0.49145508 -0.10809326q-0.13513184 -0.10623169 -0.22457886 -0.29579163q-0.08944702 -0.1895752 -0.14202881 -0.35017395q-0.030670166 -0.16323853 -0.057861328 -0.20448303q-0.24020386 -0.7055969 -0.5498047 -1.2471313q-0.2876587 -0.5441437 -0.9264221 -1.0462952q-1.3757629 -1.0815582 -2.8714294 -0.7468567q-1.495697 0.33468628 -2.7996826 1.9927216q-1.3039856 1.6580353 -1.2571716 3.1656036q0.046813965 1.5075684 1.4225769 2.5891266q0.6387329 0.5021515 1.2503967 0.68489075q0.6213379 0.17044067 1.3392639 0.21807861q0.31506348 0.029067993 0.56692505 0.0879364q0.2738037 0.056259155 0.39663696 0.15283203q0.20883179 0.16415405 0.20874023 0.44232178q0.012176514 0.28782654 -0.19067383 0.54574585q-0.19317627 0.24563599 -0.48284912 0.33592224q-0.27737427 0.09994507 -0.8267822 0.0655365q-0.8083191 -0.05908203 -1.7315063 -0.427063q-0.92315674 -0.36799622 -1.6724548 -0.95706177zm10.477325 6.2094574q0.61502075 0.5828705 0.18035889 1.1355438q-0.25115967 0.31933594 -0.6223755 0.28585815q-0.35897827 -0.02381897 -0.79678345 -0.4276123l-0.48693848 -0.4424286q-1.4142761 -1.3106079 -1.5085449 -2.6567383q-0.08459473 -1.3583984 1.1710815 -2.9550323l3.728424 -4.740753l-1.2651978 -0.99464417q-0.31939697 -0.25108337 -0.37808228 -0.55558777q-0.058685303 -0.30451965 0.14416504 -0.56243896q0.22216797 -0.2824707 0.5416565 -0.3095703q0.31948853 -0.02708435 0.638855 0.22398376l1.2651978 0.99464417l1.6806946 -2.137024q0.28012085 -0.35617065 0.63119507 -0.39816284q0.3633728 -0.032348633 0.7319031 0.25735474q0.33163452 0.26072693 0.3859253 0.6213989q0.054260254 0.360672 -0.2258606 0.71684265l-1.6806641 2.1370392l2.1004944 1.6513062q0.2947998 0.23175049 0.33154297 0.53889465q0.049041748 0.31680298 -0.17312622 0.5992737q-0.20285034 0.2579193 -0.5126648 0.2727356q-0.2975464 0.024459839 -0.5923462 -0.20730591l-2.100525 -1.6513062l-3.786377 4.814453q-0.81137085 1.031662 -0.7607727 1.8267059q0.06289673 0.8046875 0.8718262 1.5201416l0.48693848 0.4424286zm1.9824524 3.5261536q-0.33166504 -0.26072693 -0.39822388 -0.63105774q-0.056884766 -0.38261414 0.22320557 -0.7387848l6.2591553 -7.9585724q0.28009033 -0.35617065 0.6557617 -0.37886047q0.37564087 -0.02268982 0.7073059 0.23805237q0.3439331 0.27038574 0.39822388 0.63105774q0.054260254 0.360672 -0.2258606 0.71684265l-6.2591248 7.9585724q-0.29943848 0.3807373 -0.6628113 0.41308594q-0.35369873 0.020050049 -0.69763184 -0.2503357zm9.024261 -11.449219q-0.4544983 -0.3572998 -0.5341797 -0.83732605q-0.070007324 -0.4922943 0.2680664 -0.9221649q0.32839966 -0.41757202 0.8137512 -0.4533844q0.49502563 -0.048095703 0.9495239 0.3092041q0.44223022 0.347641 0.51223755 0.83995056q0.09197998 0.4896698 -0.2364502 0.9072571q-0.33807373 0.42985535 -0.84536743 0.46829224q-0.48538208 0.035812378 -0.9275818 -0.3118286zm-1.6419067 17.312485q-1.302063 -1.0236206 -1.8430481 -2.3830566q-0.5190735 -1.3620758 -0.20953369 -2.8677673q0.33145142 -1.508316 1.4615784 -2.945282q1.130127 -1.436966 2.5083313 -2.1025085q1.3904724 -0.65589905 2.8271484 -0.4606018q1.4586182 0.19267273 2.7606812 1.2162933q1.302063 1.0236053 1.8334045 2.39534q0.5532837 1.3690948 0.2437439 2.8747864q-0.30950928 1.5056915 -1.4396362 2.9426575q-1.130127 1.436966 -2.5302734 2.105133q-1.3904724 0.65589905 -2.8613892 0.4535675q-1.4489441 -0.20495605 -2.751007 -1.2285614zm0.99490356 -1.2650299q1.3634644 1.0718994 2.793335 0.74508667q1.4298401 -0.326828 2.782135 -2.0462646q1.3233032 -1.6826019 1.3010559 -3.1708527q-3.0517578E-4 -1.4908905 -1.3515015 -2.553131q-1.3389282 -1.0525818 -2.8003845 -0.7108612q-1.4395142 0.33909607 -2.7628174 2.021698q-1.3329468 1.6948853 -1.322998 3.1734924q0.009979248 1.4785919 1.3611755 2.5408325zm17.80478 0.6012726q3.2920227 2.5880127 0.43289185 6.223419l-4.0181885 5.109207q-0.28012085 0.35617065 -0.64086914 0.41044617q-0.35107422 0.042007446 -0.7073059 -0.23803711q-0.3562317 -0.28004456 -0.41049194 -0.64071655q-0.0446167 -0.37295532 0.23550415 -0.729126l3.940918 -5.010956q1.0142212 -1.2895966 0.9645691 -2.2627563q-0.040008545 -0.9854584 -1.1332397 -1.8449097q-1.2652283 -0.99464417 -2.6230469 -0.8099518q-1.3578186 0.18469238 -2.3913574 1.4988251l-3.6221619 4.605667q-0.28012085 0.35617065 -0.6531677 0.40078735q-0.35107422 0.042007446 -0.7073059 -0.23803711q-0.3562317 -0.28004456 -0.41049194 -0.64071655q-0.0446167 -0.37295532 0.23550415 -0.729126l6.2591248 -7.9585876q0.27044678 -0.34388733 0.6338196 -0.3762207q0.37301636 -0.044631958 0.72924805 0.2354126q0.34396362 0.27038574 0.37628174 0.6336975q0.041992188 0.35101318 -0.21881104 0.6826172l-0.75341797 0.9579773q1.1209717 -0.49014282 2.2794495 -0.29493713q1.1584473 0.19520569 2.2025452 1.0160217zm7.2564697 21.147766q-1.302063 -1.0236053 -1.8430481 -2.3830566q-0.51904297 -1.3620605 -0.20953369 -2.867752q0.33148193 -1.508316 1.4615784 -2.945282q1.130127 -1.436966 2.5083313 -2.1025238q1.3905029 -0.65589905 2.8271484 -0.46058655q1.4586182 0.19267273 2.7606812 1.2162781q1.302063 1.0236206 1.8334045 2.39534q0.5532837 1.3690948 0.2437439 2.8747864q-0.30950928 1.5056915 -1.4396362 2.9426575q-1.130127 1.436966 -2.5302734 2.1051483q-1.3904724 0.65589905 -2.8613586 0.4535675q-1.4489746 -0.20495605 -2.7510376 -1.2285767zm0.99490356 -1.2650146q1.3634644 1.0718994 2.793335 0.74508667q1.4298401 -0.326828 2.782135 -2.0462646q1.3233032 -1.6826019 1.3010559 -3.170868q-3.0517578E-4 -1.4908752 -1.3515015 -2.5531158q-1.3388977 -1.0525818 -2.800354 -0.7108612q-1.4395142 0.33909607 -2.7628174 2.021698q-1.3329773 1.6948853 -1.3230286 3.1734772q0.009979248 1.4786072 1.3611755 2.5408478zm19.342804 -2.5422974q-1.0625916 -0.696228 -2.013153 -0.5491333q-0.93829346 0.15675354 -1.8172913 1.2743988l-0.47329712 0.60180664l2.100525 1.6513062q0.31936646 0.25106812 0.34381104 0.54855347q0.036743164 0.30714417 -0.18539429 0.58961487q-0.22216797 0.28248596 -0.5100708 0.29466248q-0.27557373 0.021850586 -0.5949707 -0.22923279l-2.1004944 -1.6513062l-5.756836 7.319931q-0.28012085 0.35617065 -0.6654358 0.3911438q-0.3633728 0.032333374 -0.68273926 -0.21873474q-0.3439331 -0.27038574 -0.41049194 -0.64071655q-0.0446167 -0.37295532 0.23547363 -0.729126l5.7568665 -7.319931l-1.2652283 -0.99464417q-0.31936646 -0.25108337 -0.37805176 -0.55558777q-0.058685303 -0.30451965 0.14416504 -0.56243896q0.22216797 -0.2824707 0.541626 -0.3095703q0.31948853 -0.02708435 0.6388855 0.22398376l1.2651978 0.99464417l0.27044678 -0.34388733q1.3329773 -1.6948853 2.9436035 -1.9988251q1.6106567 -0.30393982 3.2821655 0.83125305l0.5203247 0.34942627q0.5203247 0.349411 0.6228943 0.64868164q0.12451172 0.29664612 -0.14593506 0.64053345q-0.4249878 0.54039 -1.1462708 0.09262085l-0.5203247 -0.34942627zm9.865753 25.90207q-0.04220581 0.20532227 -0.1774292 0.37728882q-0.22216797 0.2824707 -0.59780884 0.30514526q-0.35372925 0.020080566 -0.6607971 -0.221344q-0.46679688 -0.36697388 -0.30593872 -0.9758911l1.0662231 -4.1107483l-7.1122437 -5.591278l-3.7563171 1.9959412q-0.55392456 0.29989624 -1.0206909 -0.06704712q-0.3070984 -0.24142456 -0.37365723 -0.6117554q-0.056915283 -0.38259888 0.16525269 -0.6651001q0.11590576 -0.14736938 0.30551147 -0.2368164l14.829498 -7.7599487q0.32305908 -0.18328857 0.6407776 -0.1322937q0.33963013 0.04838562 0.6098633 0.26083374q0.28253174 0.22210693 0.38772583 0.54330444q0.11483765 0.30892944 0.04449463 0.65112305l-4.044464 16.238586zm-6.218384 -11.049896l5.9821167 4.70282l2.3346558 -9.135757l-8.316772 4.4329376zm25.478546 5.938324q0.35620117 0.2800598 0.40081787 0.65301514q0.0446167 0.37295532 -0.20651245 0.69229126l-9.436981 11.999268q-0.27044678 0.34387207 -0.64349365 0.3885193q-0.37301636 0.0446167 -0.72924805 -0.23544312q-0.3562317 -0.2800293 -0.4008484 -0.6529846q-0.032318115 -0.36331177 0.23812866 -0.70718384l0.8016968 -1.0193787q-1.091156 0.5533142 -2.2785645 0.3949585q-1.1654968 -0.16098022 -2.24646 -1.0107727q-1.2037964 -0.9463806 -1.6517639 -2.2724304q-0.43832397 -1.3383484 -0.10421753 -2.8247375q0.3463745 -1.4767151 1.4765015 -2.9136658q1.1108093 -1.4124146 2.454773 -2.0849915q1.3659058 -0.6752014 2.7411804 -0.52819824q1.3848877 0.1347351 2.588684 1.0810852q1.0809631 0.8497925 1.5123596 1.9442139q0.44366455 1.1040344 0.16323853 2.2947083l3.9795532 -5.0600586q0.26080322 -0.33163452 0.61187744 -0.3736267q0.37304688 -0.0446167 0.72927856 0.2354126zm-13.199463 9.478668q1.3388977 1.0526123 2.7784119 0.713501q1.4491882 -0.3513794 2.7724915 -2.0339966q1.3233032 -1.6825867 1.3036804 -3.1488953q-0.0099487305 -1.4786072 -1.348877 -2.531189q-1.3389282 -1.0525818 -2.803009 -0.7328186q-1.4421082 0.3171692 -2.7364502 1.9629211q-1.3233032 1.6826172 -1.3203735 3.1954346q0.015197754 1.5224609 1.354126 2.5750427zm1.6512756 8.691772q-0.49575806 -0.33010864 -0.60357666 -0.6732483q-0.12011719 -0.35281372 0.14068604 -0.6844177q0.3960266 -0.50354004 1.1173096 -0.055755615l0.5571594 0.37838745q0.895874 0.6048889 1.6586304 0.46914673q0.76272583 -0.13574219 1.5740967 -1.1674194l6.9449463 -8.830566q0.28012085 -0.35617065 0.6557617 -0.37887573q0.37564087 -0.02267456 0.7073059 0.23806763q0.3439331 0.27038574 0.39822388 0.6310425q0.054260254 0.36068726 -0.22583008 0.7168579l-6.867676 8.73233q-1.2460327 1.5843506 -2.5766602 1.8102722q-1.3403015 0.23822021 -2.9135437 -0.81970215l-0.5668335 -0.36611938zm14.329376 -12.684692q-0.45446777 -0.3572998 -0.53414917 -0.8373108q-0.07003784 -0.49230957 0.2680359 -0.9221802q0.32839966 -0.41757202 0.81378174 -0.45336914q0.49502563 -0.048095703 0.9495239 0.3092041q0.4421997 0.34762573 0.51220703 0.8399353q0.09197998 0.48968506 -0.23641968 0.9072571q-0.33807373 0.4298706 -0.84539795 0.46829224q-0.48535156 0.035827637 -0.9275818 -0.3118286zm-1.6419067 17.3125q-1.302063 -1.0236206 -1.8430481 -2.3830566q-0.51904297 -1.3620911 -0.20953369 -2.8677673q0.33148193 -1.5083313 1.4615784 -2.945282q1.130127 -1.4369507 2.5083313 -2.1025085q1.3905029 -0.6559143 2.8271484 -0.4606018q1.4586182 0.19265747 2.7606812 1.2162781q1.302063 1.0236206 1.8334045 2.3953552q0.5532837 1.3690796 0.2437439 2.8747864q-0.30950928 1.5056763 -1.4396362 2.9426575q-1.130127 1.4369507 -2.5302734 2.105133q-1.3904724 0.6558838 -2.8613586 0.45358276q-1.4489746 -0.20495605 -2.7510376 -1.2285767zm0.99490356 -1.2650452q1.3634644 1.0718994 2.793335 0.74508667q1.4298401 -0.32681274 2.782135 -2.0462646q1.3233032 -1.6825867 1.3010559 -3.1708374q-3.0517578E-4 -1.4908752 -1.3515015 -2.553131q-1.3388977 -1.0525818 -2.800354 -0.71087646q-1.4395142 0.33911133 -2.7628174 2.0217285q-1.3329773 1.6948547 -1.322998 3.173462q0.0099487305 1.4786072 1.361145 2.5408325zm6.4715576 7.0751343q-0.33166504 -0.26071167 -0.39822388 -0.6310425q-0.056915283 -0.3826294 0.22320557 -0.73880005l6.2591248 -7.958557q0.28012085 -0.35617065 0.6557617 -0.37887573q0.3756714 -0.02267456 0.7073364 0.23803711q0.3439331 0.27041626 0.39819336 0.631073q0.05429077 0.36068726 -0.22583008 0.7168579l-6.2591248 7.958557q-0.29943848 0.3807373 -0.6628113 0.41308594q-0.35369873 0.020050049 -0.69763184 -0.2503357zm9.024261 -11.449219q-0.4544983 -0.3572998 -0.5341797 -0.8373108q-0.07003784 -0.49230957 0.2680359 -0.9221802q0.32843018 -0.41757202 0.81378174 -0.45336914q0.49502563 -0.048095703 0.9495239 0.3092041q0.4421997 0.34762573 0.51223755 0.8399353q0.09194946 0.48968506 -0.2364502 0.9072571q-0.33807373 0.4298706 -0.84536743 0.46829224q-0.48538208 0.035827637 -0.9275818 -0.3118286zm6.686249 8.416565q3.2920227 2.5880127 0.43289185 6.223419l-4.0181885 5.109192q-0.28012085 0.35617065 -0.64086914 0.41046143q-0.35107422 0.041992188 -0.7073059 -0.23803711q-0.3562317 -0.2800598 -0.41049194 -0.64071655q-0.0446167 -0.37295532 0.23547363 -0.729126l3.9409485 -5.010956q1.0142212 -1.2895813 0.9645691 -2.2627563q-0.040008545 -0.98547363 -1.1332397 -1.8449097q-1.2652283 -0.9946594 -2.6230469 -0.80996704q-1.3578186 0.18469238 -2.3913574 1.4988403l-3.6221619 4.605652q-0.28012085 0.35617065 -0.6531677 0.40081787q-0.35107422 0.041992188 -0.7073059 -0.23806763q-0.3562317 -0.2800293 -0.41049194 -0.64071655q-0.0446167 -0.37295532 0.23550415 -0.729126l6.2591248 -7.958557q0.27044678 -0.3439026 0.6338196 -0.37625122q0.37301636 -0.0446167 0.72924805 0.2354126q0.3439331 0.27041626 0.37628174 0.6336975q0.041992188 0.35101318 -0.21881104 0.6826172l-0.75341797 0.9579773q1.1209717 -0.49014282 2.279419 -0.29492188q1.1584778 0.19519043 2.2025757 1.0160217zm3.8160706 16.415833q0.61502075 0.5828552 0.18035889 1.1355286q-0.25112915 0.31933594 -0.6223755 0.28585815q-0.35894775 -0.023803711 -0.7967529 -0.4276123l-0.48693848 -0.44241333q-1.4143066 -1.3106079 -1.5085754 -2.6567383q-0.08459473 -1.3583984 1.1710815 -2.9550476l3.7284546 -4.740753l-1.2652283 -0.9946289q-0.31936646 -0.25106812 -0.37805176 -0.555603q-0.058685303 -0.3045044 0.14416504 -0.56243896q0.22213745 -0.2824707 0.541626 -0.3095703q0.31948853 -0.027069092 0.638855 0.22399902l1.2652283 0.9946289l1.6806946 -2.137024q0.28012085 -0.35617065 0.63119507 -0.39816284q0.3633728 -0.032348633 0.73187256 0.25735474q0.33166504 0.2607422 0.3859253 0.6213989q0.05429077 0.36068726 -0.22583008 0.7168579l-1.6806946 2.137024l2.1004944 1.6513062q0.2947998 0.23175049 0.33154297 0.5389099q0.049041748 0.31680298 -0.17312622 0.5992737q-0.20285034 0.25790405 -0.5126648 0.2727356q-0.2975464 0.02444458 -0.5923462 -0.20730591l-2.1004944 -1.6513062l-3.786377 4.814453q-0.81137085 1.0316467 -0.7607727 1.8266907q0.06286621 0.8046875 0.87179565 1.5201416l0.48693848 0.44244385zm7.0837097 7.5364685q-0.36853027 -0.28970337 -0.4034729 -0.67492676q-0.02267456 -0.37557983 0.2574463 -0.7317505l9.311401 -11.8396q0.2704773 -0.3439026 0.64349365 -0.3885193q0.38531494 -0.034973145 0.7415161 0.24505615l4.4712524 3.5150757q2.100525 1.6513062 2.4534302 3.5784302q0.36523438 1.9367676 -1.1029053 3.8035889q-1.4682007 1.8668518 -3.4684448 1.9837341q-1.9783325 0.11428833 -4.0542603 -1.5177002l-3.7096558 -2.9163513l-3.7380981 4.7530212q-0.28012085 0.35617065 -0.6628113 0.41308594q-0.38269043 0.056915283 -0.7388916 -0.22314453zm9.706604 -3.4197998q3.034027 2.3852234 5.1300964 -0.27993774q2.057373 -2.6159973 -0.9766846 -5.0012207l-3.5622559 -2.800476l-4.153412 5.2811584l3.5622559 2.800476zm12.690704 5.6439514q3.4516602 2.713562 0.61187744 6.324402l-4.0374756 5.1337585q-0.2705078 0.3439026 -0.6312256 0.39819336q-0.36071777 0.054260254 -0.7047119 -0.21612549q-0.3439331 -0.27038574 -0.3885498 -0.64334106q-0.032287598 -0.36328125 0.23815918 -0.70718384l0.7050781 -0.8965759q-1.0059814 0.52090454 -2.0907593 0.38363647q-1.0724487 -0.127594 -2.0428467 -0.8905029q-0.8843994 -0.695282 -1.3536377 -1.6405029q-0.4472046 -0.947876 -0.387146 -1.9341431q0.07232666 -0.97665405 0.68084717 -1.7503967q0.8210449 -1.0439453 1.7935791 -1.1936646q0.98217773 -0.16201782 2.388794 0.5264282q1.4189453 0.6981201 3.5685425 2.388031l0.41766357 0.32833862l0.4829712 -0.6140747q0.8983154 -1.1422119 0.8468628 -2.0372925q-0.051452637 -0.89508057 -1.083252 -1.7062378q-1.2897949 -1.0139465 -3.1547241 -1.347168q-0.7670288 -0.08627319 -0.963562 -0.24078369q-0.23339844 -0.18347168 -0.25524902 -0.4590149q-0.012145996 -0.28781128 0.20031738 -0.5580139q0.20288086 -0.25793457 0.51708984 -0.32888794q0.32391357 -0.08325195 0.83465576 2.746582E-4q0.96276855 0.14074707 1.9622803 0.58862305q1.0091553 0.4355774 1.8444214 1.0922241zm-7.175354 7.8345337q1.1300659 0.88842773 2.4536743 0.6967163q1.3358765 -0.18206787 2.2824707 -1.3856812l0.43469238 -0.55267334l-0.34399414 -0.27038574q-1.6582642 -1.3036804 -2.6463013 -1.841919q-0.97839355 -0.5505371 -1.607727 -0.5086365q-0.6170044 0.051574707 -1.1192627 0.69021606q-0.5795288 0.73690796 -0.42803955 1.631134q0.16375732 0.90390015 0.9744873 1.5412292zm17.932312 0.68170166q0.8467407 0.5662842 0.2962036 1.2663574q-0.23181152 0.29473877 -0.54870605 0.34378052q-0.3168335 0.049041748 -0.76348877 -0.24246216l-0.6036377 -0.39508057q-1.3521729 -0.88409424 -2.5845337 -0.5809021q-1.2200928 0.3128357 -2.0507812 1.3690796l-3.6028442 4.581085q-0.29943848 0.3807373 -0.66278076 0.41308594q-0.35375977 0.020050049 -0.6976929 -0.2503357q-0.33166504 -0.2607422 -0.39819336 -0.631073q-0.056884766 -0.38259888 0.22320557 -0.73876953l6.2591553 -7.9585876q0.28009033 -0.35617065 0.6557617 -0.3788452q0.38793945 -0.013031006 0.7072754 0.23803711q0.3071289 0.24142456 0.36138916 0.6021118q0.054260254 0.36065674 -0.21618652 0.7045593l-0.8306885 1.0562134q1.0498657 -0.52612305 2.112671 -0.386261q1.0725098 0.12762451 2.076294 0.79748535l0.26757812 0.19052124zm-0.12542725 13.257538q0.61499023 0.58288574 0.18035889 1.1355591q-0.25115967 0.31933594 -0.6224365 0.28585815q-0.35894775 -0.023834229 -0.7967529 -0.4276123l-0.48693848 -0.44244385q-1.4142456 -1.3106079 -1.5085449 -2.6567078q-0.08459473 -1.358429 1.1710815 -2.9550476l3.7284546 -4.740753l-1.2651978 -0.9946594q-0.31939697 -0.25106812 -0.3781128 -0.5555725q-0.058654785 -0.3045349 0.14416504 -0.56243896q0.22216797 -0.2824707 0.541687 -0.3095703q0.319458 -0.02709961 0.638855 0.2239685l1.2651978 0.9946594l1.6806641 -2.137024q0.28015137 -0.35617065 0.6312256 -0.39816284q0.3633423 -0.032348633 0.73187256 0.25735474q0.33166504 0.26071167 0.3859253 0.6213989q0.054260254 0.36068726 -0.22583008 0.7168579l-1.6806641 2.137024l2.1004639 1.6513062q0.2947998 0.23175049 0.33154297 0.5388794q0.04901123 0.31680298 -0.1730957 0.5992737q-0.20288086 0.25793457 -0.5126953 0.2727356q-0.2975464 0.024475098 -0.5923462 -0.20727539l-2.100525 -1.6513062l-3.786377 4.8144226q-0.81134033 1.0316772 -0.7607422 1.8267212q0.06286621 0.8046875 0.8718262 1.5201416l0.48693848 0.44241333zm1.9824219 3.5261536q-0.33166504 -0.26071167 -0.39819336 -0.6310425q-0.056884766 -0.3826294 0.22320557 -0.73880005l6.259094 -7.958557q0.28015137 -0.35617065 0.65582275 -0.37887573q0.37561035 -0.02267456 0.7072754 0.23806763q0.3439331 0.27038574 0.3982544 0.6310425q0.054260254 0.36068726 -0.22589111 0.7168579l-6.259094 7.958557q-0.29943848 0.3807373 -0.6628418 0.41308594q-0.35369873 0.020080566 -0.69763184 -0.2503357zm9.024292 -11.449219q-0.4545288 -0.3572998 -0.5341797 -0.8373108q-0.070007324 -0.49230957 0.2680664 -0.9221802q0.32836914 -0.41757202 0.8137207 -0.45336914q0.49505615 -0.048095703 0.9495239 0.3092041q0.44226074 0.34762573 0.51226807 0.8399353q0.09197998 0.48968506 -0.2364502 0.9072571q-0.33807373 0.4298706 -0.84539795 0.46832275q-0.48535156 0.03579712 -0.92755127 -0.31185913zm-1.6541748 17.302856q-1.2897949 -1.013977 -1.8308105 -2.373413q-0.51904297 -1.3620605 -0.20953369 -2.8677673q0.32183838 -1.4960327 1.4326172 -2.9084167q1.1108398 -1.4124146 2.5232544 -2.0709229q1.4124146 -0.6585388 2.8806763 -0.4781494q1.4805908 0.19006348 2.7826538 1.2136841q0.71240234 0.5600891 1.2703247 1.3166809q0.55792236 0.7565918 0.7866821 1.5525818q0.15777588 0.48181152 0.119018555 0.80908203q-0.016784668 0.3246765 -0.22924805 0.59487915q-0.20288086 0.25793457 -0.48547363 0.31399536q-0.27038574 0.065704346 -0.49145508 -0.10812378q-0.13513184 -0.10620117 -0.22460938 -0.29577637q-0.089416504 -0.1895752 -0.14202881 -0.3501892q-0.030639648 -0.16320801 -0.057861328 -0.20446777q-0.24017334 -0.7055969 -0.5498047 -1.2471313q-0.2876587 -0.54415894 -0.9263916 -1.0462952q-1.3757935 -1.0815735 -2.87146 -0.7468567q-1.4956665 0.33468628 -2.7996826 1.9927063q-1.3039551 1.6580505 -1.2571411 3.165619q0.04675293 1.5075684 1.4225464 2.5891418q0.6387329 0.50213623 1.2504272 0.6848755q0.6213379 0.17044067 1.3392334 0.21807861q0.31506348 0.029052734 0.56695557 0.08795166q0.2738037 0.056243896 0.39660645 0.15280151q0.2088623 0.16418457 0.20874023 0.4423523q0.012145996 0.28781128 -0.19067383 0.54574585q-0.19317627 0.24563599 -0.48284912 0.33590698q-0.2774048 0.09994507 -0.8267822 0.06552124q-0.8082886 -0.059051514 -1.7315063 -0.427063q-0.92315674 -0.36798096 -1.6724243 -0.95703125zm6.044739 4.6924744q-0.331604 -0.2607422 -0.39819336 -0.631073q-0.056884766 -0.38259888 0.22320557 -0.73876953l9.417664 -11.974731q0.28015137 -0.35617065 0.6557617 -0.3788452q0.38531494 -0.034973145 0.71698 0.22576904q0.31939697 0.25106812 0.37628174 0.633667q0.066589355 0.3703308 -0.21356201 0.72650146l-9.417664 11.974731q-0.28009033 0.35617065 -0.6654053 0.3911438q-0.3756714 0.02267456 -0.69506836 -0.22839355zm12.473633 6.1888123q0.20880127 0.16415405 0.2210083 0.45196533q0.024475098 0.29748535 -0.18804932 0.567688q-0.36706543 0.46670532 -1.3394775 0.33825684q-0.9846802 -0.13809204 -1.9104614 -0.52801514q-0.9038696 -0.39257812 -1.6286011 -0.9623108q-2.125061 -1.6706238 -2.3707886 -3.9109802q-0.23345947 -2.2306824 1.5148315 -4.453705q1.1204224 -1.4246826 2.5109253 -2.0805664q1.402771 -0.64624023 2.8587646 -0.47549438q1.4682617 0.1803894 2.7335205 1.1750183q1.793396 1.4098816 1.9321289 3.407135q0.13879395 1.9972534 -1.435669 3.999176q-0.29943848 0.3807373 -0.5942993 0.42715454q-0.27301025 0.043762207 -0.6046753 -0.21694946l-6.0803833 -4.7800903q-2.3780518 3.3775635 0.520874 5.656555q0.73706055 0.57940674 1.4197998 0.79815674q0.68273926 0.21871948 1.5673828 0.35766602q0.7012329 0.09414673 0.87316895 0.2293396zm1.4866333 -8.689423q-1.2037964 -0.9463806 -2.5274048 -0.7546387q-1.3139038 0.17941284 -2.5308838 1.448761l5.343384 4.2006836q1.0546265 -1.4168091 0.9805298 -2.6874695q-0.07409668 -1.2706299 -1.265625 -2.2073364zm5.461487 17.768982q-0.36846924 -0.28970337 -0.40344238 -0.6749573q-0.022705078 -0.37557983 0.2574463 -0.7317505l9.311401 -11.8396q0.27044678 -0.34387207 0.64349365 -0.3885193q0.38531494 -0.034973145 0.7415161 0.24508667l6.866577 5.3981323q0.3439331 0.27038574 0.39294434 0.5871887q0.061340332 0.32644653 -0.18981934 0.6457825q-0.23181152 0.29473877 -0.56359863 0.31219482q-0.319458 0.02709961 -0.6633911 -0.24331665l-6.1295776 -4.8187256l-3.6028442 4.5811157l5.7610474 4.529022q0.33166504 0.26071167 0.38067627 0.57751465q0.061279297 0.32644653 -0.18981934 0.6457825q-0.24151611 0.30703735 -0.5732422 0.3244934q-0.30981445 0.014801025 -0.6414795 -0.24594116l-5.7610474 -4.529022l-4.2597046 5.41626q-0.28009033 0.35617065 -0.6505127 0.4227295q-0.37036133 0.06655884 -0.72662354 -0.21347046zm10.275879 8.078339q-0.33166504 -0.26071167 -0.39819336 -0.6310425q-0.0569458 -0.3826294 0.22320557 -0.73880005l9.417664 -11.974701q0.28009033 -0.35617065 0.6557617 -0.3788452q0.38531494 -0.034973145 0.71698 0.22573853q0.31933594 0.25109863 0.37628174 0.6336975q0.06652832 0.3703308 -0.21356201 0.72650146l-9.417664 11.974701q-0.28015137 0.35617065 -0.6654663 0.3911438q-0.37561035 0.022705078 -0.6950073 -0.22839355zm7.3823853 5.8632812q-1.302063 -1.0236206 -1.8430786 -2.3830566q-0.51904297 -1.3620605 -0.20953369 -2.8677673q0.33148193 -1.5083008 1.4616089 -2.945282q1.130127 -1.4369507 2.5083008 -2.1025085q1.3905029 -0.6559143 2.8271484 -0.4606018q1.4586182 0.19268799 2.7606812 1.2162781q1.302063 1.0236206 1.833435 2.3953552q0.55322266 1.3690796 0.24371338 2.8747864q-0.30950928 1.5056763 -1.4396362 2.9426575q-1.130127 1.4369507 -2.5302734 2.105133q-1.3904419 0.6559143 -2.8613892 0.45358276q-1.4489136 -0.20495605 -2.7509766 -1.2285767zm0.99487305 -1.2650146q1.3634644 1.0718994 2.793335 0.74508667q1.4298706 -0.32684326 2.7821045 -2.0462646q1.3233032 -1.6826172 1.3010864 -3.170868q-3.0517578E-4 -1.4908752 -1.3515015 -2.553131q-1.3389282 -1.0525818 -2.800354 -0.71084595q-1.4395142 0.3390808 -2.7628174 2.021698q-1.3329468 1.6948853 -1.322998 3.173462q0.0099487305 1.4786072 1.361145 2.540863zm25.324646 7.3676453q0.5539551 -0.29992676 0.9838867 0.03805542q0.2824707 0.22210693 0.3587036 0.5801697q0.08850098 0.3677063 -0.13366699 0.650177q-0.10620117 0.13510132 -0.28356934 0.2341919l-9.372131 5.4715576q-0.30371094 0.15872192 -0.6407471 0.13226318q-0.31506348 -0.029052734 -0.58532715 -0.24151611q-0.2456665 -0.19311523 -0.36053467 -0.5020447q-0.09289551 -0.31155396 -0.010253906 -0.644104l2.6118164 -8.679382l-7.8078003 4.594574q-0.2791748 0.17803955 -0.628479 0.14193726q-0.32733154 -0.038726807 -0.5975952 -0.25115967q-0.2456665 -0.19314575 -0.37280273 -0.51171875q-0.105163574 -0.3211975 -0.022583008 -0.65374756l3.0881958 -10.371918q0.06677246 -0.18600464 0.15368652 -0.2965393q0.24151611 -0.30703735 0.6513672 -0.32269287q0.42218018 -0.006011963 0.72924805 0.2354126q0.4421997 0.34762573 0.28137207 0.9565735l-2.8971558 8.991669l8.093994 -4.8068237q0.30371094 -0.15872192 0.60650635 -0.13931274q0.3027954 0.01940918 0.53619385 0.20288086q0.2456665 0.19314575 0.3359375 0.48275757q0.090270996 0.2895813 -0.004638672 0.6124878l-2.7558594 8.963654l8.042236 -4.867401z" fill-rule="nonzero"/><path fill="#000000" fill-opacity="0.0" d="m750.937 518.08923l0 -25.480316" fill-rule="evenodd"/><path stroke="#f19167" stroke-width="2.0" stroke-linejoin="round" stroke-linecap="butt" d="m750.937 518.08923l0 -25.480316" fill-rule="evenodd"/><path fill="#000000" fill-opacity="0.0" d="m797.52234 527.0079l20.37793 -21.669281" fill-rule="evenodd"/><path stroke="#f19167" stroke-width="2.0" stroke-linejoin="round" stroke-linecap="butt" d="m797.52234 527.0079l20.37793 -21.669281" fill-rule="evenodd"/><path fill="#000000" fill-opacity="0.0" d="m806.44354 571.6772l31.874023 0" fill-rule="evenodd"/><path stroke="#f19167" stroke-width="2.0" stroke-linejoin="round" stroke-linecap="butt" d="m806.44354 571.6772l31.874023 0" fill-rule="evenodd"/><path fill="#000000" fill-opacity="0.0" d="m665.5591 571.6772l31.873962 0" fill-rule="evenodd"/><path stroke="#f19167" stroke-width="2.0" stroke-linejoin="round" stroke-linecap="butt" d="m665.5591 571.6772l31.873962 0" fill-rule="evenodd"/><path fill="#000000" fill-opacity="0.0" d="m689.76904 643.82153l20.37793 -21.669312" fill-rule="evenodd"/><path stroke="#f19167" stroke-width="2.0" stroke-linejoin="round" stroke-linecap="butt" d="m689.76904 643.82153l20.37793 -21.669312" fill-rule="evenodd"/><path fill="#000000" fill-opacity="0.0" d="m750.937 655.2913l0 -25.480286" fill-rule="evenodd"/><path stroke="#f19167" stroke-width="2.0" stroke-linejoin="round" stroke-linecap="butt" d="m750.937 655.2913l0 -25.480286" fill-rule="evenodd"/><path fill="#000000" fill-opacity="0.0" d="m798.7953 620.17584l21.66925 22.929138" fill-rule="evenodd"/><path stroke="#f19167" stroke-width="2.0" stroke-linejoin="round" stroke-linecap="butt" d="m798.7953 620.17584l21.66925 22.929138" fill-rule="evenodd"/><path fill="#000000" fill-opacity="0.0" d="m689.12335 504.70865l21.669312 22.929169" fill-rule="evenodd"/><path stroke="#f19167" stroke-width="2.0" stroke-linejoin="round" stroke-linecap="butt" d="m689.12335 504.70865l21.669312 22.929169" fill-rule="evenodd"/></g></svg>