<svg version="1.1" viewBox="0.0 0.0 336.0 734.5774278215223" fill="none" stroke="none" stroke-linecap="square" stroke-miterlimit="10" xmlns:xlink="http://www.w3.org/1999/xlink" xmlns="http://www.w3.org/2000/svg"><clipPath id="p.0"><path d="m0 0l336.0 0l0 734.57745l-336.0 0l0 -734.57745z" clip-rule="nonzero"/></clipPath><g clip-path="url(#p.0)"><path fill="#000000" fill-opacity="0.0" d="m0 0l336.0 0l0 734.57745l-336.0 0z" fill-rule="evenodd"/><path fill="#000000" fill-opacity="0.0" d="m84.47244 496.43045l167.05511 0l0 51.811005l-167.05511 0z" fill-rule="evenodd"/><path fill="#000000" d="m93.42557 536.15045l8.796875 -22.90625l3.265625 0l9.375 22.90625l-3.453125 0l-2.671875 -6.9375l-9.578125 0l-2.515625 6.9375l-3.21875 0zm6.609375 -9.40625l7.765625 0l-2.390625 -6.34375q-1.09375 -2.890625 -1.625 -4.75q-0.4375 2.203125 -1.234375 4.375l-2.515625 6.71875zm16.890625 9.40625l0 -16.59375l2.53125 0l0 2.359375q1.828125 -2.734375 5.28125 -2.734375q1.5 0 2.75 0.546875q1.265625 0.53125 1.890625 1.40625q0.625 0.875 0.875 2.078125q0.15625 0.78125 0.15625 2.734375l0 10.203125l-2.8125 0l0 -10.09375q0 -1.71875 -0.328125 -2.5625q-0.328125 -0.859375 -1.171875 -1.359375q-0.828125 -0.515625 -1.953125 -0.515625q-1.796875 0 -3.109375 1.140625q-1.296875 1.140625 -1.296875 4.328125l0 9.0625l-2.8125 0zm17.28125 1.375l2.734375 0.40625q0.171875 1.265625 0.953125 1.84375q1.046875 0.78125 2.859375 0.78125q1.953125 0 3.015625 -0.78125q1.0625 -0.78125 1.4375 -2.1875q0.21875 -0.859375 0.203125 -3.609375q-1.84375 2.171875 -4.59375 2.171875q-3.421875 0 -5.296875 -2.46875q-1.875 -2.46875 -1.875 -5.921875q0 -2.375 0.859375 -4.375q0.859375 -2.015625 2.484375 -3.109375q1.640625 -1.09375 3.84375 -1.09375q2.9375 0 4.84375 2.375l0 -2.0l2.59375 0l0 14.34375q0 3.875 -0.796875 5.484375q-0.78125 1.625 -2.5 2.5625q-1.703125 0.9375 -4.203125 0.9375q-2.96875 0 -4.796875 -1.34375q-1.828125 -1.328125 -1.765625 -4.015625zm2.328125 -9.96875q0 3.265625 1.296875 4.765625q1.296875 1.5 3.25 1.5q1.9375 0 3.25 -1.484375q1.3125 -1.5 1.3125 -4.6875q0 -3.046875 -1.359375 -4.59375q-1.34375 -1.546875 -3.25 -1.546875q-1.875 0 -3.1875 1.53125q-1.3125 1.515625 -1.3125 4.515625zm15.921875 8.59375l0 -22.90625l2.8125 0l0 22.90625l-2.8125 0zm18.53125 -5.34375l2.90625 0.359375q-0.6875 2.546875 -2.546875 3.953125q-1.859375 1.40625 -4.75 1.40625q-3.640625 0 -5.78125 -2.234375q-2.125 -2.25 -2.125 -6.296875q0 -4.1875 2.15625 -6.5q2.15625 -2.3125 5.59375 -2.3125q3.328125 0 5.4375 2.265625q2.109375 2.265625 2.109375 6.375q0 0.25 -0.015625 0.75l-12.375 0q0.15625 2.734375 1.546875 4.1875q1.390625 1.453125 3.46875 1.453125q1.546875 0 2.640625 -0.8125q1.09375 -0.8125 1.734375 -2.59375zm-9.234375 -4.546875l9.265625 0q-0.1875 -2.09375 -1.0625 -3.140625q-1.34375 -1.625 -3.484375 -1.625q-1.9375 0 -3.265625 1.296875q-1.3125 1.296875 -1.453125 3.46875z" fill-rule="nonzero"/><path fill="#e8aa9d" fill-opacity="0.1346" d="m221.0041 464.72922l-177.35432 -120.566956l203.68503 67.14963z" fill-rule="evenodd"/><path stroke="#000000" stroke-width="1.0" stroke-linejoin="round" stroke-linecap="butt" d="m221.0041 464.72922l-177.35432 -120.566956l203.68503 67.14963z" fill-rule="evenodd"/><path fill="#e8aa9d" fill-opacity="0.4192" d="m249.38321 410.81955l-204.33072 -66.06299l214.75592 3.1653442z" fill-rule="evenodd"/><path stroke="#000000" stroke-width="1.0" stroke-linejoin="round" stroke-linecap="butt" d="m249.38321 410.81955l-204.33072 -66.06299l214.75592 3.1653442z" fill-rule="evenodd"/><path fill="#e8aa9d" fill-opacity="0.6192" d="m259.24258 348.41232l-214.70866 -4.047241l206.4567 -59.165375z" fill-rule="evenodd"/><path stroke="#000000" stroke-width="1.0" stroke-linejoin="round" stroke-linecap="butt" d="m259.24258 348.41232l-214.70866 -4.047241l206.4567 -59.165375z" fill-rule="evenodd"/><path fill="#e8aa9d" fill-opacity="0.8192" d="m249.85542 285.79825l-205.82677 61.322815l178.74016 -119.02362z" fill-rule="evenodd"/><path stroke="#000000" stroke-width="1.0" stroke-linejoin="round" stroke-linecap="butt" d="m249.85542 285.79825l-205.82677 61.322815l178.74016 -119.02362z" fill-rule="evenodd"/><path fill="#e8aa9d" d="m222.8642 226.4303l-178.4567 119.46457l135.49606 -166.58267z" fill-rule="evenodd"/><path stroke="#000000" stroke-width="1.0" stroke-linejoin="round" stroke-linecap="butt" d="m222.8642 226.4303l-178.4567 119.46457l135.49606 -166.58267z" fill-rule="evenodd"/><path fill="#d56b5c" d="m251.57027 251.26778l23.522507 8.792892c10.694366 3.9976501 16.118805 15.90625 12.115814 26.598602l-5.1771545 13.828735l6.656952 2.4884338l-15.206787 6.9267883l-6.92334 -15.199219l6.6569824 2.4884338l5.1771545 -13.828735l0 0c2.1804504 -5.8242188 -0.774292 -12.310944 -6.5996094 -14.488495l-23.522476 -8.792877z" fill-rule="evenodd"/><path stroke="#000000" stroke-width="1.0" stroke-linejoin="round" stroke-linecap="butt" d="m251.57027 251.26778l23.522507 8.792892c10.694366 3.9976501 16.118805 15.90625 12.115814 26.598602l-5.1771545 13.828735l6.656952 2.4884338l-15.206787 6.9267883l-6.92334 -15.199219l6.6569824 2.4884338l5.1771545 -13.828735l0 0c2.1804504 -5.8242188 -0.774292 -12.310944 -6.5996094 -14.488495l-23.522476 -8.792877z" fill-rule="evenodd"/></g></svg>