<svg version="1.1" viewBox="0.0 0.0 849.0813648293963 486.5223097112861" fill="none" stroke="none" stroke-linecap="square" stroke-miterlimit="10" xmlns:xlink="http://www.w3.org/1999/xlink" xmlns="http://www.w3.org/2000/svg"><clipPath id="p.0"><path d="m0 0l849.08136 0l0 486.5223l-849.08136 0l0 -486.5223z" clip-rule="nonzero"/></clipPath><g clip-path="url(#p.0)"><path fill="#000000" fill-opacity="0.0" d="m0 0l849.08136 0l0 486.5223l-849.08136 0z" fill-rule="evenodd"/><path fill="#f19167" d="m2.9737532 116.95276l0 0c0 -60.525192 76.45002 -109.59055 170.7559 -109.59055l0 0c94.30589 0 170.7559 49.06536 170.7559 109.59055l0 0c0 60.525192 -76.45001 109.590546 -170.7559 109.590546l0 0c-94.305885 0 -170.7559 -49.065353 -170.7559 -109.590546z" fill-rule="evenodd"/><path stroke="#000000" stroke-width="1.0" stroke-linejoin="round" stroke-linecap="butt" d="m2.9737532 116.95276l0 0c0 -60.525192 76.45002 -109.59055 170.7559 -109.59055l0 0c94.30589 0 170.7559 49.06536 170.7559 109.59055l0 0c0 60.525192 -76.45001 109.590546 -170.7559 109.590546l0 0c-94.305885 0 -170.7559 -49.065353 -170.7559 -109.590546z" fill-rule="evenodd"/><path fill="#f19167" d="m505.76904 116.95276l0 0c0 -60.525192 76.45001 -109.59055 170.75592 -109.59055l0 0c94.30585 0 170.75586 49.06536 170.75586 109.59055l0 0c0 60.525192 -76.45001 109.590546 -170.75586 109.590546l0 0c-94.30591 0 -170.75592 -49.065353 -170.75592 -109.590546z" fill-rule="evenodd"/><path stroke="#000000" stroke-width="1.0" stroke-linejoin="round" stroke-linecap="butt" d="m505.76904 116.95276l0 0c0 -60.525192 76.45001 -109.59055 170.75592 -109.59055l0 0c94.30585 0 170.75586 49.06536 170.75586 109.59055l0 0c0 60.525192 -76.45001 109.590546 -170.75586 109.590546l0 0c-94.30591 0 -170.75592 -49.065353 -170.75592 -109.590546z" fill-rule="evenodd"/><path fill="#fa4c67" d="m261.24408 373.59055l0 0c0 -60.525177 76.45004 -109.590546 170.75592 -109.590546l0 0c94.30591 0 170.75592 49.06537 170.75592 109.590546l0 0c0 60.525208 -76.45001 109.590546 -170.75592 109.590546l0 0c-94.30588 0 -170.75592 -49.06534 -170.75592 -109.590546z" fill-rule="evenodd"/><path stroke="#000000" stroke-width="1.0" stroke-linejoin="round" stroke-linecap="butt" d="m261.24408 373.59055l0 0c0 -60.525177 76.45004 -109.590546 170.75592 -109.590546l0 0c94.30591 0 170.75592 49.06537 170.75592 109.590546l0 0c0 60.525208 -76.45001 109.590546 -170.75592 109.590546l0 0c-94.30588 0 -170.75592 -49.06534 -170.75592 -109.590546z" fill-rule="evenodd"/><path fill="#000000" fill-opacity="0.0" d="m40.595802 54.745407l266.26773 0l0 48.409447l-266.26773 0z" fill-rule="evenodd"/><path fill="#000000" d="m77.97966 82.85603q0 3.25 -1.484375 5.828125q-1.484375 2.5625 -3.75 3.9375q-1.703125 1.03125 -3.734375 1.4375q-2.03125 0.40625 -4.8125 0.40625l-8.203125 0l0 -23.265625l8.4375 0q2.84375 0 4.90625 0.484375q2.0625 0.46875 3.46875 1.34375q2.40625 1.46875 3.78125 3.96875q1.390625 2.484375 1.390625 5.859375zm-6.203125 -0.046875q0 -2.296875 -0.84375 -3.921875q-0.828125 -1.640625 -2.640625 -2.5625q-0.921875 -0.453125 -1.890625 -0.609375q-0.953125 -0.171875 -2.890625 -0.171875l-1.515625 0l0 14.5625l1.515625 0q2.140625 0 3.140625 -0.1875q1.0 -0.203125 1.953125 -0.71875q1.640625 -0.9375 2.40625 -2.5q0.765625 -1.578125 0.765625 -3.890625zm27.75 3.921875l-12.875 0q0.125 2.0625 1.5625 3.15625q1.453125 1.09375 4.265625 1.09375q1.78125 0 3.453125 -0.640625q1.671875 -0.640625 2.640625 -1.375l0.625 0l0 4.515625q-1.90625 0.765625 -3.59375 1.109375q-1.6875 0.34375 -3.734375 0.34375q-5.28125 0 -8.09375 -2.375q-2.8125 -2.375 -2.8125 -6.765625q0 -4.34375 2.65625 -6.875q2.671875 -2.546875 7.3125 -2.546875q4.28125 0 6.4375 2.171875q2.15625 2.15625 2.15625 6.21875l0 1.96875zm-5.59375 -3.296875q-0.046875 -1.765625 -0.875 -2.65625q-0.828125 -0.890625 -2.578125 -0.890625q-1.625 0 -2.671875 0.84375q-1.046875 0.84375 -1.171875 2.703125l7.296875 0zm20.78125 10.875q-0.90625 0.234375 -1.921875 0.359375q-1.015625 0.140625 -2.484375 0.140625q-3.28125 0 -4.890625 -1.328125q-1.59375 -1.328125 -1.59375 -4.546875l0 -8.203125l-2.3125 0l0 -3.8125l2.3125 0l0 -5.015625l5.625 0l0 5.015625l5.265625 0l0 3.8125l-5.265625 0l0 6.21875q0 0.921875 0.015625 1.609375q0.015625 0.6875 0.25 1.234375q0.21875 0.546875 0.765625 0.875q0.5625 0.3125 1.625 0.3125q0.4375 0 1.140625 -0.1875q0.71875 -0.1875 1.0 -0.34375l0.46875 0l0 3.859375zm20.640625 -7.578125l-12.875 0q0.125 2.0625 1.5625 3.15625q1.453125 1.09375 4.265625 1.09375q1.78125 0 3.453125 -0.640625q1.671875 -0.640625 2.640625 -1.375l0.625 0l0 4.515625q-1.90625 0.765625 -3.59375 1.109375q-1.6875 0.34375 -3.734375 0.34375q-5.28125 0 -8.09375 -2.375q-2.8125 -2.375 -2.8125 -6.765625q0 -4.34375 2.65625 -6.875q2.671875 -2.546875 7.3125 -2.546875q4.28125 0 6.4375 2.171875q2.15625 2.15625 2.15625 6.21875l0 1.96875zm-5.59375 -3.296875q-0.046875 -1.765625 -0.875 -2.65625q-0.828125 -0.890625 -2.578125 -0.890625q-1.625 0 -2.671875 0.84375q-1.046875 0.84375 -1.171875 2.703125l7.296875 0zm22.28125 -1.15625l-0.5 0q-0.359375 -0.125 -1.15625 -0.1875q-0.796875 -0.0625 -1.328125 -0.0625q-1.203125 0 -2.125 0.15625q-0.921875 0.15625 -1.984375 0.53125l0 11.75l-5.625 0l0 -17.546875l5.625 0l0 2.578125q1.859375 -1.59375 3.234375 -2.109375q1.375 -0.53125 2.53125 -0.53125q0.296875 0 0.671875 0.015625q0.375 0.015625 0.65625 0.046875l0 5.359375zm20.343735 -0.25l0 12.4375l-5.6562347 0l0 -8.765625q0 -1.28125 -0.0625 -2.171875q-0.0625 -0.90625 -0.34375 -1.46875q-0.28125 -0.5625 -0.859375 -0.8125q-0.5625 -0.265625 -1.59375 -0.265625q-0.828125 0 -1.609375 0.34375q-0.78125 0.328125 -1.40625 0.703125l0 12.4375l-5.625 0l0 -17.546875l5.625 0l0 1.9375q1.453125 -1.140625 2.78125 -1.78125q1.328125 -0.640625 2.9375 -0.640625q1.734375 0 3.0624847 0.78125q1.328125 0.765625 2.078125 2.265625q1.6875 -1.421875 3.28125 -2.234375q1.59375 -0.8125 3.125 -0.8125q2.84375 0 4.3125 1.703125q1.484375 1.703125 1.484375 4.90625l0 11.421875l-5.65625 0l0 -8.765625q0 -1.296875 -0.0625 -2.1875q-0.046875 -0.890625 -0.328125 -1.453125q-0.265625 -0.5625 -0.84375 -0.8125q-0.578125 -0.265625 -1.625 -0.265625q-0.703125 0 -1.375 0.25q-0.671875 0.234375 -1.640625 0.796875zm22.328125 12.4375l-5.625 0l0 -17.546875l5.625 0l0 17.546875zm0.15625 -20.046875l-5.9375 0l0 -4.265625l5.9375 0l0 4.265625zm22.78125 20.046875l-5.65625 0l0 -8.703125q0 -1.0625 -0.109375 -2.109375q-0.109375 -1.0625 -0.375 -1.5625q-0.3125 -0.578125 -0.921875 -0.84375q-0.59375 -0.265625 -1.671875 -0.265625q-0.765625 0 -1.5625 0.25q-0.78125 0.25 -1.703125 0.796875l0 12.4375l-5.625 0l0 -17.546875l5.625 0l0 1.9375q1.5 -1.171875 2.875 -1.796875q1.390625 -0.625 3.078125 -0.625q2.84375 0 4.4375 1.65625q1.609375 1.65625 1.609375 4.953125l0 11.421875zm10.796875 0l-5.625 0l0 -17.546875l5.625 0l0 17.546875zm0.15625 -20.046875l-5.9375 0l0 -4.265625l5.9375 0l0 4.265625zm20.40625 14.484375q0 2.71875 -2.4375 4.390625q-2.4375 1.65625 -6.671875 1.65625q-2.34375 0 -4.25 -0.4375q-1.90625 -0.4375 -3.0625 -0.96875l0 -4.625l0.515625 0q0.421875 0.296875 0.96875 0.65625q0.5625 0.34375 1.578125 0.75q0.875 0.359375 1.984375 0.625q1.109375 0.25 2.375 0.25q1.65625 0 2.453125 -0.359375q0.796875 -0.375 0.796875 -1.09375q0 -0.640625 -0.46875 -0.921875q-0.46875 -0.296875 -1.78125 -0.5625q-0.625 -0.140625 -1.703125 -0.296875q-1.0625 -0.171875 -1.9375 -0.40625q-2.390625 -0.625 -3.546875 -1.9375q-1.15625 -1.328125 -1.15625 -3.296875q0 -2.53125 2.390625 -4.203125q2.40625 -1.6875 6.5625 -1.6875q1.96875 0 3.765625 0.40625q1.8125 0.390625 2.828125 0.84375l0 4.4375l-0.484375 0q-1.25 -0.859375 -2.859375 -1.390625q-1.59375 -0.546875 -3.234375 -0.546875q-1.359375 0 -2.296875 0.375q-0.921875 0.375 -0.921875 1.0625q0 0.625 0.421875 0.953125q0.421875 0.328125 1.984375 0.65625q0.859375 0.171875 1.84375 0.34375q1.0 0.15625 2.0 0.40625q2.21875 0.578125 3.28125 1.828125q1.0625 1.234375 1.0625 3.09375zm14.953125 5.40625q-0.90625 0.234375 -1.921875 0.359375q-1.015625 0.140625 -2.484375 0.140625q-3.28125 0 -4.890625 -1.328125q-1.59375 -1.328125 -1.59375 -4.546875l0 -8.203125l-2.3125 0l0 -3.8125l2.3125 0l0 -5.015625l5.625 0l0 5.015625l5.265625 0l0 3.8125l-5.265625 0l0 6.21875q0 0.921875 0.015625 1.609375q0.015625 0.6875 0.25 1.234375q0.21875 0.546875 0.765625 0.875q0.5625 0.3125 1.625 0.3125q0.4375 0 1.140625 -0.1875q0.71875 -0.1875 1.0 -0.34375l0.46875 0l0 3.859375zm8.984375 0.15625l-5.625 0l0 -17.546875l5.625 0l0 17.546875zm0.15625 -20.046875l-5.9375 0l0 -4.265625l5.9375 0l0 4.265625zm14.296875 20.515625q-2.296875 0 -4.203125 -0.546875q-1.890625 -0.546875 -3.296875 -1.6875q-1.390625 -1.140625 -2.15625 -2.875q-0.765625 -1.734375 -0.765625 -4.0625q0 -2.453125 0.8125 -4.234375q0.828125 -1.78125 2.296875 -2.953125q1.421875 -1.109375 3.28125 -1.625q1.859375 -0.515625 3.859375 -0.515625q1.796875 0 3.3125 0.390625q1.515625 0.390625 2.828125 1.015625l0 4.796875l-0.796875 0q-0.328125 -0.28125 -0.796875 -0.65625q-0.453125 -0.375 -1.125 -0.734375q-0.640625 -0.34375 -1.40625 -0.5625q-0.765625 -0.234375 -1.78125 -0.234375q-2.25 0 -3.46875 1.4375q-1.203125 1.421875 -1.203125 3.875q0 2.53125 1.234375 3.84375q1.25 1.3125 3.53125 1.3125q1.0625 0 1.90625 -0.234375q0.859375 -0.25 1.421875 -0.578125q0.53125 -0.3125 0.9375 -0.65625q0.40625 -0.34375 0.75 -0.671875l0.796875 0l0 4.796875q-1.328125 0.625 -2.78125 0.984375q-1.4375 0.375 -3.1875 0.375z" fill-rule="nonzero"/><path fill="#000000" fill-opacity="0.0" d="m559.9265 57.27559l253.57483 0l0 48.409447l-253.57483 0z" fill-rule="evenodd"/><path fill="#000000" d="m606.47174 96.99559l-5.96875 0l0 -15.578125l-4.3125 10.109375l-4.140625 0l-4.3125 -10.109375l0 15.578125l-5.65625 0l0 -23.265625l6.96875 0l5.234375 11.671875l5.21875 -11.671875l6.96875 0l0 23.265625zm23.5625 -8.765625q0 4.328125 -2.53125 6.828125q-2.515625 2.484375 -7.078125 2.484375q-4.5625 0 -7.09375 -2.484375q-2.515625 -2.5 -2.515625 -6.828125q0 -4.359375 2.53125 -6.84375q2.546875 -2.484375 7.078125 -2.484375q4.59375 0 7.09375 2.5q2.515625 2.5 2.515625 6.828125zm-6.921875 4.265625q0.546875 -0.671875 0.8125 -1.609375q0.28125 -0.953125 0.28125 -2.625q0 -1.546875 -0.28125 -2.59375q-0.28125 -1.046875 -0.78125 -1.671875q-0.5 -0.640625 -1.203125 -0.90625q-0.703125 -0.265625 -1.515625 -0.265625q-0.8125 0 -1.453125 0.21875q-0.625 0.21875 -1.203125 0.875q-0.515625 0.609375 -0.828125 1.671875q-0.296875 1.0625 -0.296875 2.671875q0 1.4375 0.265625 2.5q0.265625 1.046875 0.78125 1.6875q0.5 0.609375 1.1875 0.890625q0.703125 0.28125 1.59375 0.28125q0.765625 0 1.453125 -0.25q0.703125 -0.265625 1.1875 -0.875zm28.578125 4.5l-5.65625 0l0 -8.703125q0 -1.0625 -0.109375 -2.109375q-0.109375 -1.0625 -0.375 -1.5625q-0.3125 -0.578125 -0.921875 -0.84375q-0.59375 -0.265625 -1.671875 -0.265625q-0.765625 0 -1.5625 0.25q-0.78125 0.25 -1.703125 0.796875l0 12.4375l-5.625 0l0 -17.546875l5.625 0l0 1.9375q1.5 -1.171875 2.875 -1.796875q1.390625 -0.625 3.078125 -0.625q2.84375 0 4.4375 1.65625q1.609375 1.65625 1.609375 4.953125l0 11.421875zm16.390625 -0.15625q-0.90625 0.234375 -1.921875 0.359375q-1.015625 0.140625 -2.484375 0.140625q-3.28125 0 -4.890625 -1.328125q-1.59375 -1.328125 -1.59375 -4.546875l0 -8.203125l-2.3125 0l0 -3.8125l2.3125 0l0 -5.015625l5.625 0l0 5.015625l5.265625 0l0 3.8125l-5.265625 0l0 6.21875q0 0.921875 0.015625 1.609375q0.015625 0.6875 0.25 1.234375q0.21875 0.546875 0.765625 0.875q0.5625 0.3125 1.625 0.3125q0.4375 0 1.140625 -0.1875q0.71875 -0.1875 1.0 -0.34375l0.46875 0l0 3.859375zm20.640625 -7.578125l-12.875 0q0.125 2.0625 1.5625 3.15625q1.453125 1.09375 4.265625 1.09375q1.78125 0 3.453125 -0.640625q1.671875 -0.640625 2.640625 -1.375l0.625 0l0 4.515625q-1.90625 0.765625 -3.59375 1.109375q-1.6875 0.34375 -3.734375 0.34375q-5.28125 0 -8.09375 -2.375q-2.8125 -2.375 -2.8125 -6.765625q0 -4.34375 2.65625 -6.875q2.671875 -2.546875 7.3125 -2.546875q4.28125 0 6.4375 2.171875q2.15625 2.15625 2.15625 6.21875l0 1.96875zm-5.59375 -3.296875q-0.046875 -1.765625 -0.875 -2.65625q-0.828125 -0.890625 -2.578125 -0.890625q-1.625 0 -2.671875 0.84375q-1.046875 0.84375 -1.171875 2.703125l7.296875 0zm31.328125 11.484375q-2.59375 0 -4.796875 -0.765625q-2.1875 -0.765625 -3.765625 -2.28125q-1.578125 -1.515625 -2.453125 -3.78125q-0.859375 -2.265625 -0.859375 -5.234375q0 -2.765625 0.828125 -5.015625q0.828125 -2.25 2.40625 -3.859375q1.515625 -1.546875 3.75 -2.390625q2.25 -0.84375 4.90625 -0.84375q1.46875 0 2.640625 0.171875q1.1875 0.15625 2.1875 0.421875q1.046875 0.296875 1.890625 0.671875q0.859375 0.359375 1.5 0.671875l0 5.640625l-0.6875 0q-0.4375 -0.375 -1.109375 -0.890625q-0.65625 -0.515625 -1.5 -1.015625q-0.859375 -0.5 -1.859375 -0.84375q-1.0 -0.34375 -2.140625 -0.34375q-1.265625 0 -2.40625 0.40625q-1.140625 0.390625 -2.109375 1.3125q-0.921875 0.890625 -1.5 2.359375q-0.5625 1.46875 -0.5625 3.5625q0 2.1875 0.609375 3.65625q0.625 1.46875 1.5625 2.3125q0.953125 0.859375 2.125 1.234375q1.171875 0.359375 2.3125 0.359375q1.09375 0 2.15625 -0.328125q1.078125 -0.328125 1.984375 -0.890625q0.765625 -0.453125 1.421875 -0.96875q0.65625 -0.515625 1.078125 -0.890625l0.625 0l0 5.5625q-0.875 0.390625 -1.671875 0.734375q-0.796875 0.34375 -1.671875 0.59375q-1.140625 0.328125 -2.140625 0.5q-1.0 0.171875 -2.75 0.171875zm22.953125 -5.03125l0 -3.65625q-1.140625 0.09375 -2.46875 0.265625q-1.328125 0.15625 -2.015625 0.375q-0.84375 0.265625 -1.296875 0.78125q-0.4375 0.5 -0.4375 1.328125q0 0.546875 0.09375 0.890625q0.09375 0.34375 0.46875 0.65625q0.359375 0.3125 0.859375 0.46875q0.5 0.140625 1.5625 0.140625q0.84375 0 1.703125 -0.34375q0.875 -0.34375 1.53125 -0.90625zm0 2.71875q-0.453125 0.34375 -1.125 0.828125q-0.671875 0.484375 -1.265625 0.765625q-0.828125 0.375 -1.71875 0.546875q-0.890625 0.1875 -1.953125 0.1875q-2.5 0 -4.1875 -1.546875q-1.6875 -1.546875 -1.6875 -3.953125q0 -1.921875 0.859375 -3.140625q0.859375 -1.21875 2.4375 -1.921875q1.5625 -0.703125 3.875 -1.0q2.3125 -0.296875 4.796875 -0.4375l0 -0.09375q0 -1.453125 -1.1875 -2.0q-1.1875 -0.5625 -3.5 -0.5625q-1.390625 0 -2.96875 0.5q-1.578125 0.484375 -2.265625 0.75l-0.515625 0l0 -4.234375q0.890625 -0.234375 2.890625 -0.546875q2.015625 -0.328125 4.03125 -0.328125q4.796875 0 6.921875 1.484375q2.140625 1.46875 2.140625 4.625l0 11.9375l-5.578125 0l0 -1.859375zm23.46875 -10.328125l-0.5 0q-0.359375 -0.125 -1.15625 -0.1875q-0.796875 -0.0625 -1.328125 -0.0625q-1.203125 0 -2.125 0.15625q-0.921875 0.15625 -1.984375 0.53125l0 11.75l-5.625 0l0 -17.546875l5.625 0l0 2.578125q1.859375 -1.59375 3.234375 -2.109375q1.375 -0.53125 2.53125 -0.53125q0.296875 0 0.671875 0.015625q0.375 0.015625 0.65625 0.046875l0 5.359375zm8.8125 12.1875l-5.625 0l0 -24.3125l5.625 0l0 24.3125zm23.25 -8.765625q0 4.328125 -2.53125 6.828125q-2.515625 2.484375 -7.078125 2.484375q-4.5625 0 -7.09375 -2.484375q-2.515625 -2.5 -2.515625 -6.828125q0 -4.359375 2.53125 -6.84375q2.546875 -2.484375 7.078125 -2.484375q4.59375 0 7.09375 2.5q2.515625 2.5 2.515625 6.828125zm-6.921875 4.265625q0.546875 -0.671875 0.8125 -1.609375q0.28125 -0.953125 0.28125 -2.625q0 -1.546875 -0.28125 -2.59375q-0.28125 -1.046875 -0.78125 -1.671875q-0.5 -0.640625 -1.203125 -0.90625q-0.703125 -0.265625 -1.515625 -0.265625q-0.8125 0 -1.453125 0.21875q-0.625 0.21875 -1.203125 0.875q-0.515625 0.609375 -0.828125 1.671875q-0.296875 1.0625 -0.296875 2.671875q0 1.4375 0.265625 2.5q0.265625 1.046875 0.78125 1.6875q0.5 0.609375 1.1875 0.890625q0.703125 0.28125 1.59375 0.28125q0.765625 0 1.453125 -0.25q0.703125 -0.265625 1.1875 -0.875z" fill-rule="nonzero"/><path fill="#000000" fill-opacity="0.0" d="m272.14172 320.0l319.71655 0l0 48.409454l-319.71655 0z" fill-rule="evenodd"/><path fill="#000000" d="m314.60938 359.72l-6.0 0l0 -10.25l-8.859375 0l0 10.25l-6.0 0l0 -23.265625l6.0 0l0 8.515625l8.859375 0l0 -8.515625l6.0 0l0 23.265625zm13.546875 -6.203125l4.0 -11.34375l5.78125 0l-9.75 23.984375l-6.09375 0l2.78125 -6.5625l-6.828125 -17.421875l5.90625 0l4.203125 11.34375zm31.21875 -2.8125q0 4.140625 -2.296875 6.75q-2.28125 2.609375 -5.703125 2.609375q-1.46875 0 -2.578125 -0.3125q-1.109375 -0.3125 -2.109375 -0.90625l-0.234375 0.875l-5.390625 0l0 -24.3125l5.625 0l0 8.59375q1.296875 -1.03125 2.640625 -1.671875q1.359375 -0.640625 3.125 -0.640625q3.328125 0 5.125 2.40625q1.796875 2.390625 1.796875 6.609375zm-5.796875 0.109375q0 -2.34375 -0.796875 -3.609375q-0.796875 -1.265625 -2.84375 -1.265625q-0.796875 0 -1.640625 0.25q-0.84375 0.234375 -1.609375 0.6875l0 8.8125q0.609375 0.21875 1.15625 0.296875q0.546875 0.078125 1.3125 0.078125q2.234375 0 3.328125 -1.3125q1.09375 -1.3125 1.09375 -3.9375zm22.578125 -3.28125l-0.5 0q-0.359375 -0.125 -1.15625 -0.1875q-0.796875 -0.0625 -1.328125 -0.0625q-1.203125 0 -2.125 0.15625q-0.921875 0.15625 -1.984375 0.53125l0 11.75l-5.625 0l0 -17.546875l5.625 0l0 2.578125q1.859375 -1.59375 3.234375 -2.109375q1.375 -0.53125 2.53125 -0.53125q0.296875 0 0.671875 0.015625q0.375 0.015625 0.65625 0.046875l0 5.359375zm8.8125 12.1875l-5.625 0l0 -17.546875l5.625 0l0 17.546875zm0.15625 -20.046875l-5.9375 0l0 -4.265625l5.9375 0l0 4.265625zm22.21875 20.046875l-5.625 0l0 -1.828125q-1.453125 1.1875 -2.71875 1.75q-1.265625 0.5625 -2.921875 0.5625q-3.203125 0 -5.125 -2.46875q-1.921875 -2.46875 -1.921875 -6.65625q0 -2.234375 0.640625 -3.953125q0.65625 -1.734375 1.78125 -2.96875q1.0625 -1.171875 2.578125 -1.8125q1.515625 -0.65625 3.03125 -0.65625q1.578125 0 2.578125 0.34375q1.015625 0.328125 2.078125 0.84375l0 -7.46875l5.625 0l0 24.3125zm-5.625 -4.84375l0 -8.609375q-0.59375 -0.25 -1.25 -0.359375q-0.65625 -0.109375 -1.203125 -0.109375q-2.21875 0 -3.328125 1.390625q-1.109375 1.375 -1.109375 3.828125q0 2.578125 0.890625 3.75q0.890625 1.15625 2.859375 1.15625q0.765625 0 1.625 -0.28125q0.859375 -0.296875 1.515625 -0.765625zm46.578125 4.84375l-5.96875 0l0 -15.578125l-4.3125 10.109375l-4.140625 0l-4.3125 -10.109375l0 15.578125l-5.65625 0l0 -23.265625l6.96875 0l5.234375 11.671875l5.21875 -11.671875l6.96875 0l0 23.265625zm22.90625 -7.734375l-12.875 0q0.125 2.0625 1.5625 3.15625q1.453125 1.09375 4.265625 1.09375q1.78125 0 3.453125 -0.640625q1.671875 -0.640625 2.640625 -1.375l0.625 0l0 4.515625q-1.90625 0.765625 -3.59375 1.109375q-1.6875 0.34375 -3.734375 0.34375q-5.28125 0 -8.09375 -2.375q-2.8125 -2.375 -2.8125 -6.765625q0 -4.34375 2.65625 -6.875q2.671875 -2.546875 7.3125 -2.546875q4.28125 0 6.4375 2.171875q2.15625 2.15625 2.15625 6.21875l0 1.96875zm-5.59375 -3.296875q-0.046875 -1.765625 -0.875 -2.65625q-0.828125 -0.890625 -2.578125 -0.890625q-1.625 0 -2.671875 0.84375q-1.046875 0.84375 -1.171875 2.703125l7.296875 0zm20.78125 10.875q-0.90625 0.234375 -1.921875 0.359375q-1.015625 0.140625 -2.484375 0.140625q-3.28125 0 -4.890625 -1.328125q-1.59375 -1.328125 -1.59375 -4.546875l0 -8.203125l-2.3125 0l0 -3.8125l2.3125 0l0 -5.015625l5.625 0l0 5.015625l5.265625 0l0 3.8125l-5.265625 0l0 6.21875q0 0.921875 0.015625 1.609375q0.015625 0.6875 0.25 1.234375q0.21875 0.546875 0.765625 0.875q0.5625 0.3125 1.625 0.3125q0.4375 0 1.140625 -0.1875q0.71875 -0.1875 1.0 -0.34375l0.46875 0l0 3.859375zm20.984375 0.15625l-5.65625 0l0 -8.703125q0 -1.0625 -0.109375 -2.109375q-0.109375 -1.0625 -0.375 -1.5625q-0.3125 -0.578125 -0.921875 -0.84375q-0.59375 -0.265625 -1.671875 -0.265625q-0.765625 0 -1.5625 0.25q-0.78125 0.25 -1.703125 0.796875l0 12.4375l-5.625 0l0 -24.3125l5.625 0l0 8.703125q1.5 -1.171875 2.875 -1.796875q1.390625 -0.625 3.078125 -0.625q2.84375 0 4.4375 1.65625q1.609375 1.65625 1.609375 4.953125l0 11.421875zm23.109375 -8.765625q0 4.328125 -2.53125 6.828125q-2.515625 2.484375 -7.078125 2.484375q-4.5625 0 -7.09375 -2.484375q-2.515625 -2.5 -2.515625 -6.828125q0 -4.359375 2.53125 -6.84375q2.546875 -2.484375 7.078125 -2.484375q4.59375 0 7.09375 2.5q2.515625 2.5 2.515625 6.828125zm-6.921875 4.265625q0.546875 -0.671875 0.8125 -1.609375q0.28125 -0.953125 0.28125 -2.625q0 -1.546875 -0.28125 -2.59375q-0.28125 -1.046875 -0.78125 -1.671875q-0.5 -0.640625 -1.203125 -0.90625q-0.703125 -0.265625 -1.515625 -0.265625q-0.8125 0 -1.453125 0.21875q-0.625 0.21875 -1.203125 0.875q-0.515625 0.609375 -0.828125 1.671875q-0.296875 1.0625 -0.296875 2.671875q0 1.4375 0.265625 2.5q0.265625 1.046875 0.78125 1.6875q0.5 0.609375 1.1875 0.890625q0.703125 0.28125 1.59375 0.28125q0.765625 0 1.453125 -0.25q0.703125 -0.265625 1.1875 -0.875zm28.015625 4.5l-5.625 0l0 -1.828125q-1.453125 1.1875 -2.71875 1.75q-1.265625 0.5625 -2.921875 0.5625q-3.203125 0 -5.125 -2.46875q-1.921875 -2.46875 -1.921875 -6.65625q0 -2.234375 0.640625 -3.953125q0.65625 -1.734375 1.78125 -2.96875q1.0625 -1.171875 2.578125 -1.8125q1.515625 -0.65625 3.03125 -0.65625q1.578125 0 2.578125 0.34375q1.015625 0.328125 2.078125 0.84375l0 -7.46875l5.625 0l0 24.3125zm-5.625 -4.84375l0 -8.609375q-0.59375 -0.25 -1.25 -0.359375q-0.65625 -0.109375 -1.203125 -0.109375q-2.21875 0 -3.328125 1.390625q-1.109375 1.375 -1.109375 3.828125q0 2.578125 0.890625 3.75q0.890625 1.15625 2.859375 1.15625q0.765625 0 1.625 -0.28125q0.859375 -0.296875 1.515625 -0.765625zm26.1875 -0.71875q0 2.71875 -2.4375 4.390625q-2.4375 1.65625 -6.671875 1.65625q-2.34375 0 -4.25 -0.4375q-1.90625 -0.4375 -3.0625 -0.96875l0 -4.625l0.515625 0q0.421875 0.296875 0.96875 0.65625q0.5625 0.34375 1.578125 0.75q0.875 0.359375 1.984375 0.625q1.109375 0.25 2.375 0.25q1.65625 0 2.453125 -0.359375q0.796875 -0.375 0.796875 -1.09375q0 -0.640625 -0.46875 -0.921875q-0.46875 -0.296875 -1.78125 -0.5625q-0.625 -0.140625 -1.703125 -0.296875q-1.0625 -0.171875 -1.9375 -0.40625q-2.390625 -0.625 -3.546875 -1.9375q-1.15625 -1.328125 -1.15625 -3.296875q0 -2.53125 2.390625 -4.203125q2.40625 -1.6875 6.5625 -1.6875q1.96875 0 3.765625 0.40625q1.8125 0.390625 2.828125 0.84375l0 4.4375l-0.484375 0q-1.25 -0.859375 -2.859375 -1.390625q-1.59375 -0.546875 -3.234375 -0.546875q-1.359375 0 -2.296875 0.375q-0.921875 0.375 -0.921875 1.0625q0 0.625 0.421875 0.953125q0.421875 0.328125 1.984375 0.65625q0.859375 0.171875 1.84375 0.34375q1.0 0.15625 2.0 0.40625q2.21875 0.578125 3.28125 1.828125q1.0625 1.234375 1.0625 3.09375z" fill-rule="nonzero"/><path fill="#000000" fill-opacity="0.0" d="m2.9737532 111.154854l161.82677 0l0 48.409447l-161.82677 0z" fill-rule="evenodd"/><path fill="#000000" d="m57.351616 143.38235q-1.796875 0 -3.4375 -0.53125q-1.640625 -0.546875 -2.625 -1.453125q-0.359375 -0.34375 -0.359375 -0.84375q0 -0.328125 0.1875 -0.578125q0.1875 -0.265625 0.453125 -0.265625q0.3125 0 0.671875 0.265625q2.234375 1.734375 5.09375 1.734375q2.0625 0 3.15625 -0.796875q1.109375 -0.796875 1.109375 -2.25q0 -0.84375 -0.53125 -1.359375q-0.515625 -0.515625 -1.390625 -0.828125q-0.859375 -0.3125 -2.328125 -0.65625q-1.96875 -0.453125 -3.234375 -0.953125q-1.25 -0.5 -2.03125 -1.4375q-0.78125 -0.9375 -0.78125 -2.453125q0 -1.4375 0.78125 -2.546875q0.78125 -1.125 2.1875 -1.734375q1.40625 -0.609375 3.203125 -0.609375q1.671875 0 3.125 0.515625q1.453125 0.515625 2.4375 1.46875q0.390625 0.390625 0.390625 0.84375q0 0.34375 -0.203125 0.59375q-0.1875 0.25 -0.453125 0.25q-0.265625 0 -0.6875 -0.265625q-1.171875 -0.953125 -2.1875 -1.34375q-1.0 -0.390625 -2.421875 -0.390625q-2.0 0 -3.109375 0.828125q-1.09375 0.828125 -1.09375 2.328125q0 1.265625 0.96875 1.90625q0.984375 0.625 3.0 1.109375q2.171875 0.53125 3.421875 0.984375q1.25 0.4375 2.078125 1.328125q0.828125 0.875 0.828125 2.375q0 1.40625 -0.78125 2.484375q-0.78125 1.078125 -2.203125 1.6875q-1.40625 0.59375 -3.234375 0.59375zm15.011078 -12.15625q1.53125 0 2.703125 0.765625q1.171875 0.765625 1.8125 2.140625q0.65625 1.375 0.65625 3.203125q0 1.828125 -0.65625 3.1875q-0.640625 1.359375 -1.8125 2.109375q-1.15625 0.734375 -2.703125 0.734375q-1.375 0 -2.40625 -0.59375q-1.015625 -0.609375 -1.53125 -1.71875l0 5.640625q0 0.4375 -0.265625 0.6875q-0.25 0.25 -0.703125 0.25q-0.453125 0 -0.71875 -0.265625q-0.265625 -0.265625 -0.265625 -0.671875l0 -14.46875q0 -0.4375 0.265625 -0.6875q0.265625 -0.265625 0.71875 -0.265625q0.453125 0 0.703125 0.265625q0.265625 0.25 0.265625 0.6875l0 1.296875q0.515625 -1.109375 1.53125 -1.703125q1.03125 -0.59375 2.40625 -0.59375zm-0.390625 10.53125q1.703125 0 2.640625 -1.15625q0.9375 -1.15625 0.9375 -3.265625q0 -2.109375 -0.9375 -3.296875q-0.9375 -1.1875 -2.640625 -1.1875q-1.703125 0 -2.625 1.15625q-0.921875 1.140625 -0.921875 3.28125q0 2.140625 0.921875 3.3125q0.921875 1.15625 2.625 1.15625zm17.514832 -1.28125q0.265625 0 0.453125 0.21875q0.203125 0.21875 0.203125 0.5625q0 0.59375 -0.84375 1.09375q-0.859375 0.5 -1.828125 0.765625q-0.953125 0.25 -1.875 0.25q-2.703125 0 -4.28125 -1.609375q-1.5625 -1.609375 -1.5625 -4.4375q0 -1.8125 0.6875 -3.1875q0.703125 -1.375 1.953125 -2.140625q1.265625 -0.765625 2.875 -0.765625q2.28125 0 3.625 1.484375q1.34375 1.484375 1.34375 4.03125q0 0.484375 -0.203125 0.703125q-0.1875 0.203125 -0.609375 0.203125l-7.734375 0q0.21875 4.125 3.90625 4.125q0.9375 0 1.609375 -0.25q0.671875 -0.25 1.453125 -0.6875q0.609375 -0.359375 0.828125 -0.359375zm-4.203125 -7.75q-1.53125 0 -2.453125 0.96875q-0.921875 0.953125 -1.09375 2.703125l6.796875 0q-0.046875 -1.765625 -0.890625 -2.71875q-0.84375 -0.953125 -2.359375 -0.953125zm16.85109 7.75q0.265625 0 0.453125 0.21875q0.203125 0.21875 0.203125 0.5625q0 0.59375 -0.84375 1.09375q-0.859375 0.5 -1.828125 0.765625q-0.953125 0.25 -1.875 0.25q-2.703125 0 -4.28125 -1.609375q-1.5625 -1.609375 -1.5625 -4.4375q0 -1.8125 0.6875 -3.1875q0.703125 -1.375 1.953125 -2.140625q1.265625 -0.765625 2.875 -0.765625q2.28125 0 3.625 1.484375q1.34375 1.484375 1.34375 4.03125q0 0.484375 -0.203125 0.703125q-0.1875 0.203125 -0.609375 0.203125l-7.734375 0q0.21875 4.125 3.90625 4.125q0.9375 0 1.609375 -0.25q0.671875 -0.25 1.453125 -0.6875q0.609375 -0.359375 0.828125 -0.359375zm-4.203125 -7.75q-1.53125 0 -2.453125 0.96875q-0.921875 0.953125 -1.09375 2.703125l6.796875 0q-0.046875 -1.765625 -0.890625 -2.71875q-0.84375 -0.953125 -2.359375 -0.953125zm17.19484 -6.578125q0.453125 0 0.71875 0.265625q0.265625 0.265625 0.265625 0.671875l0 15.265625q0 0.4375 -0.265625 0.703125q-0.265625 0.265625 -0.71875 0.265625q-0.453125 0 -0.71875 -0.265625q-0.25 -0.265625 -0.25 -0.703125l0 -1.296875q-0.515625 1.109375 -1.546875 1.71875q-1.015625 0.59375 -2.390625 0.59375q-1.53125 0 -2.703125 -0.765625q-1.171875 -0.78125 -1.828125 -2.15625q-0.640625 -1.375 -0.640625 -3.203125q0 -1.796875 0.640625 -3.15625q0.65625 -1.375 1.828125 -2.109375q1.171875 -0.75 2.703125 -0.75q1.375 0 2.390625 0.59375q1.03125 0.59375 1.546875 1.703125l0 -6.4375q0 -0.421875 0.25 -0.671875q0.265625 -0.265625 0.71875 -0.265625zm-4.515625 15.609375q1.703125 0 2.625 -1.15625q0.921875 -1.171875 0.921875 -3.3125q0 -2.140625 -0.921875 -3.28125q-0.921875 -1.15625 -2.625 -1.15625q-1.703125 0 -2.65625 1.15625q-0.9375 1.140625 -0.9375 3.234375q0 2.140625 0.9375 3.328125q0.953125 1.1875 2.65625 1.1875z" fill-rule="nonzero"/><path fill="#000000" fill-opacity="0.0" d="m164.80052 95.154854l161.82677 0l0 48.409447l-161.82677 0z" fill-rule="evenodd"/><path fill="#000000" d="m192.3016 127.382355q-3.3125 0 -5.015625 -1.71875q-1.703125 -1.734375 -1.703125 -5.09375l0 -9.40625q0 -0.453125 0.265625 -0.734375q0.265625 -0.28125 0.71875 -0.28125q0.4375 0 0.6875 0.28125q0.265625 0.28125 0.265625 0.734375l0 9.578125q0 2.46875 1.21875 3.71875q1.21875 1.25 3.5625 1.25q2.359375 0 3.546875 -1.25q1.203125 -1.25 1.203125 -3.71875l0 -9.578125q0 -0.453125 0.265625 -0.734375q0.28125 -0.28125 0.71875 -0.28125q0.453125 0 0.71875 0.28125q0.265625 0.28125 0.265625 0.734375l0 9.40625q0 3.34375 -1.71875 5.078125q-1.71875 1.734375 -5.0 1.734375zm16.375946 -12.15625q4.1875 0 4.1875 4.625l0 6.5q0 0.453125 -0.25 0.71875q-0.25 0.25 -0.703125 0.25q-0.453125 0 -0.71875 -0.25q-0.265625 -0.265625 -0.265625 -0.71875l0 -6.375q0 -1.640625 -0.640625 -2.375q-0.640625 -0.75 -2.03125 -0.75q-1.609375 0 -2.5625 0.984375q-0.953125 0.984375 -0.953125 2.65625l0 5.859375q0 0.453125 -0.265625 0.71875q-0.25 0.25 -0.703125 0.25q-0.453125 0 -0.71875 -0.25q-0.265625 -0.265625 -0.265625 -0.71875l0 -10.125q0 -0.4375 0.265625 -0.6875q0.265625 -0.265625 0.71875 -0.265625q0.4375 0 0.6875 0.265625q0.25 0.25 0.25 0.671875l0 1.21875q0.578125 -1.078125 1.609375 -1.640625q1.03125 -0.5625 2.359375 -0.5625zm12.569458 12.140625q-1.640625 0 -2.90625 -0.734375q-1.25 -0.75 -1.9375 -2.125q-0.671875 -1.375 -0.671875 -3.171875q0 -1.796875 0.703125 -3.1875q0.703125 -1.390625 1.96875 -2.15625q1.28125 -0.765625 2.9375 -0.765625q0.90625 0 1.8125 0.25q0.90625 0.25 1.578125 0.734375q0.421875 0.28125 0.59375 0.5625q0.1875 0.265625 0.1875 0.609375q0 0.328125 -0.1875 0.546875q-0.171875 0.21875 -0.453125 0.21875q-0.171875 0 -0.359375 -0.09375q-0.1875 -0.09375 -0.328125 -0.1875q-0.125 -0.109375 -0.171875 -0.125q-0.625 -0.40625 -1.203125 -0.640625q-0.5625 -0.25 -1.375 -0.25q-1.75 0 -2.71875 1.1875q-0.96875 1.1875 -0.96875 3.296875q0 2.109375 0.96875 3.265625q0.96875 1.15625 2.71875 1.15625q0.8125 0 1.40625 -0.234375q0.59375 -0.25 1.1875 -0.65625q0.265625 -0.171875 0.5 -0.28125q0.25 -0.125 0.40625 -0.125q0.265625 0 0.4375 0.21875q0.1875 0.21875 0.1875 0.546875q0 0.3125 -0.171875 0.5625q-0.15625 0.25 -0.609375 0.5625q-0.671875 0.453125 -1.625 0.734375q-0.953125 0.28125 -1.90625 0.28125zm15.714722 -2.890625q0.265625 0 0.453125 0.21875q0.203125 0.21875 0.203125 0.5625q0 0.59375 -0.84375 1.09375q-0.859375 0.5 -1.828125 0.765625q-0.953125 0.25 -1.875 0.25q-2.703125 0 -4.28125 -1.609375q-1.5625 -1.609375 -1.5625 -4.4375q0 -1.8125 0.6875 -3.1875q0.703125 -1.375 1.953125 -2.140625q1.265625 -0.765625 2.875 -0.765625q2.28125 0 3.625 1.484375q1.34375 1.484375 1.34375 4.03125q0 0.484375 -0.203125 0.703125q-0.1875 0.203125 -0.609375 0.203125l-7.734375 0q0.21875 4.125 3.90625 4.125q0.9375 0 1.609375 -0.25q0.671875 -0.25 1.453125 -0.6875q0.609375 -0.359375 0.828125 -0.359375zm-4.203125 -7.75q-1.53125 0 -2.453125 0.96875q-0.921875 0.953125 -1.09375 2.703125l6.796875 0q-0.046875 -1.765625 -0.890625 -2.71875q-0.84375 -0.953125 -2.359375 -0.953125zm13.5854645 -1.453125q1.015625 -0.078125 1.015625 0.8125q0 0.375 -0.21875 0.609375q-0.21875 0.234375 -0.75 0.28125l-0.71875 0.0625q-1.609375 0.140625 -2.390625 1.140625q-0.765625 1.0 -0.765625 2.34375l0 5.828125q0 0.484375 -0.265625 0.734375q-0.265625 0.234375 -0.703125 0.234375q-0.421875 0 -0.703125 -0.25q-0.28125 -0.265625 -0.28125 -0.71875l0 -10.125q0 -0.453125 0.28125 -0.703125q0.296875 -0.25 0.703125 -0.25q0.390625 0 0.65625 0.25q0.265625 0.25 0.265625 0.6875l0 1.34375q0.5 -1.0625 1.421875 -1.609375q0.921875 -0.5625 2.125 -0.65625l0.328125 -0.015625zm8.09697 10.5q0.84375 0.078125 0.84375 0.78125q0 0.40625 -0.3125 0.609375q-0.296875 0.203125 -0.890625 0.15625l-0.65625 -0.046875q-1.921875 -0.15625 -2.828125 -1.15625q-0.90625 -1.015625 -0.90625 -3.046875l0 -6.03125l-1.609375 0q-0.40625 0 -0.640625 -0.203125q-0.234375 -0.203125 -0.234375 -0.53125q0 -0.359375 0.234375 -0.578125q0.234375 -0.21875 0.640625 -0.21875l1.609375 0l0 -2.71875q0 -0.453125 0.25 -0.703125q0.265625 -0.25 0.734375 -0.25q0.421875 0 0.6875 0.25q0.265625 0.25 0.265625 0.703125l0 2.71875l2.671875 0q0.375 0 0.59375 0.21875q0.234375 0.21875 0.234375 0.578125q0 0.328125 -0.234375 0.53125q-0.21875 0.203125 -0.59375 0.203125l-2.671875 0l0 6.125q0 1.3125 0.53125 1.90625q0.546875 0.59375 1.625 0.65625l0.65625 0.046875zm7.534973 -10.546875q4.390625 0 4.390625 4.59375l0 6.53125q0 0.4375 -0.25 0.703125q-0.25 0.265625 -0.6875 0.265625q-0.4375 0 -0.703125 -0.265625q-0.25 -0.265625 -0.25 -0.703125l0 -1.140625q-0.46875 1.03125 -1.40625 1.59375q-0.921875 0.5625 -2.15625 0.5625q-1.125 0 -2.078125 -0.453125q-0.9375 -0.46875 -1.5 -1.28125q-0.546875 -0.8125 -0.546875 -1.796875q0 -1.328125 0.671875 -2.046875q0.671875 -0.734375 2.203125 -1.0625q1.546875 -0.328125 4.28125 -0.328125l0.53125 0l0 -0.78125q0 -1.453125 -0.59375 -2.125q-0.59375 -0.671875 -1.90625 -0.671875q-1.640625 0 -3.3125 0.890625q-0.65625 0.40625 -0.90625 0.40625q-0.296875 0 -0.484375 -0.203125q-0.1875 -0.21875 -0.1875 -0.5625q0 -0.328125 0.203125 -0.578125q0.203125 -0.265625 0.65625 -0.515625q0.84375 -0.484375 1.90625 -0.75q1.0625 -0.28125 2.125 -0.28125zm-0.796875 10.59375q1.4375 0 2.359375 -0.96875q0.9375 -0.96875 0.9375 -2.5l0 -0.703125l-0.4375 0q-2.109375 0 -3.21875 0.1875q-1.109375 0.171875 -1.578125 0.59375q-0.453125 0.421875 -0.453125 1.234375q0 0.9375 0.671875 1.546875q0.6875 0.609375 1.71875 0.609375zm9.71994 1.5q-0.421875 0 -0.703125 -0.25q-0.28125 -0.265625 -0.28125 -0.71875l0 -10.125q0 -0.453125 0.28125 -0.703125q0.28125 -0.25 0.703125 -0.25q0.4375 0 0.703125 0.25q0.265625 0.25 0.265625 0.703125l0 10.125q0 0.484375 -0.265625 0.734375q-0.265625 0.234375 -0.703125 0.234375zm0.015625 -14.578125q-0.578125 0 -0.9375 -0.328125q-0.359375 -0.34375 -0.359375 -0.890625q0 -0.53125 0.359375 -0.859375q0.359375 -0.34375 0.9375 -0.34375q0.5625 0 0.921875 0.34375q0.375 0.328125 0.375 0.859375q0 0.546875 -0.375 0.890625q-0.359375 0.328125 -0.921875 0.328125zm10.458618 2.484375q4.1875 0 4.1875 4.625l0 6.5q0 0.453125 -0.25 0.71875q-0.25 0.25 -0.703125 0.25q-0.453125 0 -0.71875 -0.25q-0.265625 -0.265625 -0.265625 -0.71875l0 -6.375q0 -1.640625 -0.640625 -2.375q-0.640625 -0.75 -2.03125 -0.75q-1.609375 0 -2.5625 0.984375q-0.953125 0.984375 -0.953125 2.65625l0 5.859375q0 0.453125 -0.265625 0.71875q-0.25 0.25 -0.703125 0.25q-0.453125 0 -0.71875 -0.25q-0.265625 -0.265625 -0.265625 -0.71875l0 -10.125q0 -0.4375 0.265625 -0.6875q0.265625 -0.265625 0.71875 -0.265625q0.4375 0 0.6875 0.265625q0.25 0.25 0.25 0.671875l0 1.21875q0.578125 -1.078125 1.609375 -1.640625q1.03125 -0.5625 2.359375 -0.5625zm13.147583 10.546875q0.84375 0.078125 0.84375 0.78125q0 0.40625 -0.3125 0.609375q-0.296875 0.203125 -0.890625 0.15625l-0.65625 -0.046875q-1.921875 -0.15625 -2.828125 -1.15625q-0.90625 -1.015625 -0.90625 -3.046875l0 -6.03125l-1.609375 0q-0.40625 0 -0.640625 -0.203125q-0.234375 -0.203125 -0.234375 -0.53125q0 -0.359375 0.234375 -0.578125q0.234375 -0.21875 0.640625 -0.21875l1.609375 0l0 -2.71875q0 -0.453125 0.25 -0.703125q0.265625 -0.25 0.734375 -0.25q0.421875 0 0.6875 0.25q0.265625 0.25 0.265625 0.703125l0 2.71875l2.671875 0q0.375 0 0.59375 0.21875q0.234375 0.21875 0.234375 0.578125q0 0.328125 -0.234375 0.53125q-0.21875 0.203125 -0.59375 0.203125l-2.671875 0l0 6.125q0 1.3125 0.53125 1.90625q0.546875 0.59375 1.625 0.65625l0.65625 0.046875zm11.175598 -9.90625q0.265625 -0.578125 0.84375 -0.578125q0.359375 0 0.640625 0.25q0.296875 0.234375 0.296875 0.59375q0 0.21875 -0.09375 0.375l-6.75 14.546875q-0.109375 0.265625 -0.34375 0.40625q-0.234375 0.15625 -0.46875 0.15625q-0.359375 0 -0.640625 -0.234375q-0.265625 -0.234375 -0.265625 -0.59375q0 -0.1875 0.09375 -0.375l1.671875 -3.625l-4.75 -10.28125q-0.09375 -0.15625 -0.09375 -0.359375q0 -0.359375 0.328125 -0.609375q0.328125 -0.265625 0.703125 -0.265625q0.234375 0 0.46875 0.140625q0.234375 0.140625 0.34375 0.40625l4.015625 9.0l4.0 -8.953125z" fill-rule="nonzero"/><path fill="#000000" d="m186.23985 156.19485q-0.453125 0 -0.734375 -0.265625q-0.265625 -0.265625 -0.265625 -0.6875l0 -15.0q0 -0.4375 0.265625 -0.703125q0.28125 -0.265625 0.734375 -0.265625l4.6875 0q4.046875 0 6.265625 2.203125q2.21875 2.1875 2.21875 6.25q0 4.046875 -2.234375 6.265625q-2.21875 2.203125 -6.25 2.203125l-4.6875 0zm4.5625 -1.6875q6.578125 0 6.578125 -6.78125q0 -6.765625 -6.578125 -6.765625l-3.59375 0l0 13.546875l3.59375 0zm12.860947 1.8125q-0.421875 0 -0.703125 -0.25q-0.28125 -0.265625 -0.28125 -0.71875l0 -10.125q0 -0.453125 0.28125 -0.703125q0.28125 -0.25 0.703125 -0.25q0.4375 0 0.703125 0.25q0.265625 0.25 0.265625 0.703125l0 10.125q0 0.484375 -0.265625 0.734375q-0.265625 0.234375 -0.703125 0.234375zm0.015625 -14.578125q-0.578125 0 -0.9375 -0.328125q-0.359375 -0.34375 -0.359375 -0.890625q0 -0.53125 0.359375 -0.859375q0.359375 -0.34375 0.9375 -0.34375q0.5625 0 0.921875 0.34375q0.375 0.328125 0.375 0.859375q0 0.546875 -0.375 0.890625q-0.359375 0.328125 -0.921875 0.328125zm8.505478 14.625q-1.109375 0 -2.109375 -0.265625q-0.984375 -0.265625 -1.75 -0.75q-0.4375 -0.28125 -0.625 -0.53125q-0.171875 -0.25 -0.171875 -0.609375q0 -0.3125 0.171875 -0.515625q0.1875 -0.21875 0.484375 -0.21875q0.28125 0 0.828125 0.359375q0.71875 0.4375 1.421875 0.6875q0.71875 0.25 1.78125 0.25q1.296875 0 2.015625 -0.453125q0.71875 -0.453125 0.71875 -1.3125q0 -0.53125 -0.265625 -0.859375q-0.265625 -0.328125 -0.921875 -0.578125q-0.640625 -0.25 -1.890625 -0.515625q-2.109375 -0.453125 -3.03125 -1.21875q-0.90625 -0.765625 -0.90625 -2.09375q0 -1.03125 0.578125 -1.8125q0.578125 -0.796875 1.59375 -1.25q1.03125 -0.453125 2.3125 -0.453125q0.9375 0 1.8125 0.25q0.875 0.25 1.5625 0.703125q0.8125 0.578125 0.8125 1.203125q0 0.3125 -0.203125 0.53125q-0.1875 0.203125 -0.453125 0.203125q-0.28125 0 -0.859375 -0.40625q-0.671875 -0.421875 -1.28125 -0.65625q-0.59375 -0.25 -1.484375 -0.25q-1.125 0 -1.8125 0.5q-0.671875 0.5 -0.671875 1.34375q0 0.53125 0.25 0.859375q0.25 0.3125 0.828125 0.578125q0.59375 0.25 1.703125 0.484375q1.625 0.359375 2.515625 0.796875q0.90625 0.421875 1.296875 1.046875q0.390625 0.625 0.390625 1.59375q0 1.5 -1.28125 2.4375q-1.265625 0.921875 -3.359375 0.921875zm12.988724 -1.59375q0.84375 0.078125 0.84375 0.78125q0 0.40625 -0.3125 0.609375q-0.296875 0.203125 -0.890625 0.15625l-0.65625 -0.046875q-1.921875 -0.15625 -2.828125 -1.15625q-0.90625 -1.015625 -0.90625 -3.046875l0 -6.03125l-1.609375 0q-0.40625 0 -0.640625 -0.203125q-0.234375 -0.203125 -0.234375 -0.53125q0 -0.359375 0.234375 -0.578125q0.234375 -0.21875 0.640625 -0.21875l1.609375 0l0 -2.71875q0 -0.453125 0.25 -0.703125q0.265625 -0.25 0.734375 -0.25q0.421875 0 0.6875 0.25q0.265625 0.25 0.265625 0.703125l0 2.71875l2.671875 0q0.375 0 0.59375 0.21875q0.234375 0.21875 0.234375 0.578125q0 0.328125 -0.234375 0.53125q-0.21875 0.203125 -0.59375 0.203125l-2.671875 0l0 6.125q0 1.3125 0.53125 1.90625q0.546875 0.59375 1.625 0.65625l0.65625 0.046875zm8.534973 -10.5q1.015625 -0.078125 1.015625 0.8125q0 0.375 -0.21875 0.609375q-0.21875 0.234375 -0.75 0.28125l-0.71875 0.0625q-1.609375 0.140625 -2.390625 1.140625q-0.765625 1.0 -0.765625 2.34375l0 5.828125q0 0.484375 -0.265625 0.734375q-0.265625 0.234375 -0.703125 0.234375q-0.421875 0 -0.703125 -0.25q-0.28125 -0.265625 -0.28125 -0.71875l0 -10.125q0 -0.453125 0.28125 -0.703125q0.296875 -0.25 0.703125 -0.25q0.390625 0 0.65625 0.25q0.265625 0.25 0.265625 0.6875l0 1.34375q0.5 -1.0625 1.421875 -1.609375q0.921875 -0.5625 2.125 -0.65625l0.328125 -0.015625zm3.6750946 12.046875q-0.421875 0 -0.703125 -0.25q-0.28125 -0.265625 -0.28125 -0.71875l0 -10.125q0 -0.453125 0.28125 -0.703125q0.28125 -0.25 0.703125 -0.25q0.4375 0 0.703125 0.25q0.265625 0.25 0.265625 0.703125l0 10.125q0 0.484375 -0.265625 0.734375q-0.265625 0.234375 -0.703125 0.234375zm0.015625 -14.578125q-0.578125 0 -0.9375 -0.328125q-0.359375 -0.34375 -0.359375 -0.890625q0 -0.53125 0.359375 -0.859375q0.359375 -0.34375 0.9375 -0.34375q0.5625 0 0.921875 0.34375q0.375 0.328125 0.375 0.859375q0 0.546875 -0.375 0.890625q-0.359375 0.328125 -0.921875 0.328125zm10.458603 2.484375q1.53125 0 2.703125 0.75q1.171875 0.734375 1.8125 2.109375q0.65625 1.359375 0.65625 3.15625q0 1.828125 -0.65625 3.203125q-0.640625 1.375 -1.8125 2.15625q-1.171875 0.765625 -2.703125 0.765625q-1.375 0 -2.40625 -0.59375q-1.015625 -0.609375 -1.53125 -1.71875l0 1.296875q0 0.4375 -0.265625 0.703125q-0.25 0.265625 -0.703125 0.265625q-0.453125 0 -0.71875 -0.265625q-0.265625 -0.265625 -0.265625 -0.703125l0 -15.265625q0 -0.40625 0.265625 -0.671875q0.265625 -0.265625 0.71875 -0.265625q0.453125 0 0.703125 0.265625q0.265625 0.25 0.265625 0.671875l0 6.4375q0.515625 -1.109375 1.53125 -1.703125q1.03125 -0.59375 2.40625 -0.59375zm-0.390625 10.53125q1.703125 0 2.640625 -1.1875q0.9375 -1.1875 0.9375 -3.328125q0 -2.09375 -0.9375 -3.234375q-0.9375 -1.15625 -2.640625 -1.15625q-1.703125 0 -2.625 1.15625q-0.921875 1.140625 -0.921875 3.28125q0 2.140625 0.921875 3.3125q0.921875 1.15625 2.625 1.15625zm17.358582 -10.484375q0.453125 0 0.703125 0.265625q0.25 0.25 0.25 0.6875l0 10.15625q0 0.40625 -0.25 0.671875q-0.25 0.265625 -0.703125 0.265625q-0.4375 0 -0.6875 -0.25q-0.25 -0.265625 -0.25 -0.671875l0 -1.1875q-0.5625 1.046875 -1.5625 1.609375q-0.984375 0.546875 -2.234375 0.546875q-2.09375 0 -3.15625 -1.15625q-1.046875 -1.171875 -1.046875 -3.453125l0 -6.53125q0 -0.4375 0.265625 -0.6875q0.265625 -0.265625 0.71875 -0.265625q0.453125 0 0.703125 0.265625q0.265625 0.25 0.265625 0.6875l0 6.484375q0 1.5625 0.609375 2.296875q0.625 0.71875 1.96875 0.71875q1.546875 0 2.484375 -0.984375q0.9375 -1.0 0.9375 -2.640625l0 -5.875q0 -0.4375 0.25 -0.6875q0.265625 -0.265625 0.734375 -0.265625zm9.979584 10.5q0.84375 0.078125 0.84375 0.78125q0 0.40625 -0.3125 0.609375q-0.296875 0.203125 -0.890625 0.15625l-0.65625 -0.046875q-1.921875 -0.15625 -2.828125 -1.15625q-0.90625 -1.015625 -0.90625 -3.046875l0 -6.03125l-1.609375 0q-0.40625 0 -0.640625 -0.203125q-0.234375 -0.203125 -0.234375 -0.53125q0 -0.359375 0.234375 -0.578125q0.234375 -0.21875 0.640625 -0.21875l1.609375 0l0 -2.71875q0 -0.453125 0.25 -0.703125q0.265625 -0.25 0.734375 -0.25q0.421875 0 0.6875 0.25q0.265625 0.25 0.265625 0.703125l0 2.71875l2.671875 0q0.375 0 0.59375 0.21875q0.234375 0.21875 0.234375 0.578125q0 0.328125 -0.234375 0.53125q-0.21875 0.203125 -0.59375 0.203125l-2.671875 0l0 6.125q0 1.3125 0.53125 1.90625q0.546875 0.59375 1.625 0.65625l0.65625 0.046875zm3.7380981 1.546875q-0.421875 0 -0.703125 -0.25q-0.28125 -0.265625 -0.28125 -0.71875l0 -10.125q0 -0.453125 0.28125 -0.703125q0.28125 -0.25 0.703125 -0.25q0.4375 0 0.703125 0.25q0.265625 0.25 0.265625 0.703125l0 10.125q0 0.484375 -0.265625 0.734375q-0.265625 0.234375 -0.703125 0.234375zm0.015625 -14.578125q-0.578125 0 -0.9375 -0.328125q-0.359375 -0.34375 -0.359375 -0.890625q0 -0.53125 0.359375 -0.859375q0.359375 -0.34375 0.9375 -0.34375q0.5625 0 0.921875 0.34375q0.375 0.328125 0.375 0.859375q0 0.546875 -0.375 0.890625q-0.359375 0.328125 -0.921875 0.328125zm9.411743 14.625q-1.65625 0 -2.921875 -0.734375q-1.25 -0.75 -1.9375 -2.125q-0.671875 -1.390625 -0.671875 -3.21875q0 -1.828125 0.671875 -3.203125q0.6875 -1.375 1.9375 -2.109375q1.265625 -0.75 2.921875 -0.75q1.65625 0 2.921875 0.75q1.28125 0.734375 1.96875 2.109375q0.6875 1.375 0.6875 3.203125q0 1.828125 -0.6875 3.21875q-0.6875 1.375 -1.96875 2.125q-1.265625 0.734375 -2.921875 0.734375zm0 -1.609375q1.734375 0 2.65625 -1.140625q0.921875 -1.140625 0.921875 -3.328125q0 -2.140625 -0.9375 -3.296875q-0.921875 -1.171875 -2.640625 -1.171875q-1.703125 0 -2.640625 1.171875q-0.921875 1.15625 -0.921875 3.296875q0 2.15625 0.921875 3.3125q0.921875 1.15625 2.640625 1.15625zm14.366821 -10.53125q4.1875 0 4.1875 4.625l0 6.5q0 0.453125 -0.25 0.71875q-0.25 0.25 -0.703125 0.25q-0.453125 0 -0.71875 -0.25q-0.265625 -0.265625 -0.265625 -0.71875l0 -6.375q0 -1.640625 -0.640625 -2.375q-0.640625 -0.75 -2.03125 -0.75q-1.609375 0 -2.5625 0.984375q-0.953125 0.984375 -0.953125 2.65625l0 5.859375q0 0.453125 -0.265625 0.71875q-0.25 0.25 -0.703125 0.25q-0.453125 0 -0.71875 -0.25q-0.265625 -0.265625 -0.265625 -0.71875l0 -10.125q0 -0.4375 0.265625 -0.6875q0.265625 -0.265625 0.71875 -0.265625q0.4375 0 0.6875 0.265625q0.25 0.25 0.25 0.671875l0 1.21875q0.578125 -1.078125 1.609375 -1.640625q1.03125 -0.5625 2.359375 -0.5625z" fill-rule="nonzero"/><path fill="#000000" fill-opacity="0.0" d="m595.6116 111.154854l161.82672 0l0 48.409447l-161.82672 0z" fill-rule="evenodd"/><path fill="#000000" d="m634.6931 141.9761q0.171875 0.265625 0.171875 0.546875q0 0.359375 -0.28125 0.59375q-0.28125 0.21875 -0.640625 0.21875q-0.546875 0 -0.859375 -0.484375l-3.21875 -5.078125q-0.625 -0.984375 -1.296875 -1.359375q-0.671875 -0.375 -1.8125 -0.375l-3.03125 0l0 6.265625q0 0.453125 -0.265625 0.734375q-0.265625 0.28125 -0.6875 0.28125q-0.46875 0 -0.734375 -0.28125q-0.25 -0.28125 -0.25 -0.734375l0 -15.0625q0 -0.4375 0.265625 -0.703125q0.28125 -0.265625 0.734375 -0.265625l5.953125 0q2.765625 0 4.21875 1.234375q1.453125 1.21875 1.453125 3.59375q0 2.015625 -1.171875 3.25q-1.15625 1.21875 -3.328125 1.46875q0.609375 0.203125 1.078125 0.640625q0.484375 0.421875 0.96875 1.1875l2.734375 4.328125zm-6.125 -7.5625q1.96875 0 2.9375 -0.8125q0.984375 -0.828125 0.984375 -2.484375q0 -1.625 -0.96875 -2.40625q-0.953125 -0.796875 -2.953125 -0.796875l-4.84375 0l0 6.5l4.84375 0zm18.432678 6.0625q0.265625 0 0.453125 0.21875q0.203125 0.21875 0.203125 0.5625q0 0.59375 -0.84375 1.09375q-0.859375 0.5 -1.828125 0.765625q-0.953125 0.25 -1.875 0.25q-2.703125 0 -4.28125 -1.609375q-1.5625 -1.609375 -1.5625 -4.4375q0 -1.8125 0.6875 -3.1875q0.703125 -1.375 1.953125 -2.140625q1.265625 -0.765625 2.875 -0.765625q2.28125 0 3.625 1.484375q1.34375 1.484375 1.34375 4.03125q0 0.484375 -0.203125 0.703125q-0.1875 0.203125 -0.609375 0.203125l-7.734375 0q0.21875 4.125 3.90625 4.125q0.9375 0 1.609375 -0.25q0.671875 -0.25 1.453125 -0.6875q0.609375 -0.359375 0.828125 -0.359375zm-4.203125 -7.75q-1.53125 0 -2.453125 0.96875q-0.921875 0.953125 -1.09375 2.703125l6.796875 0q-0.046875 -1.765625 -0.890625 -2.71875q-0.84375 -0.953125 -2.359375 -0.953125zm11.741699 10.640625q-1.109375 0 -2.109375 -0.265625q-0.984375 -0.265625 -1.75 -0.75q-0.4375 -0.28125 -0.625 -0.53125q-0.171875 -0.25 -0.171875 -0.609375q0 -0.3125 0.171875 -0.515625q0.1875 -0.21875 0.484375 -0.21875q0.28125 0 0.828125 0.359375q0.71875 0.4375 1.421875 0.6875q0.71875 0.25 1.78125 0.25q1.296875 0 2.015625 -0.453125q0.71875 -0.453125 0.71875 -1.3125q0 -0.53125 -0.265625 -0.859375q-0.265625 -0.328125 -0.921875 -0.578125q-0.640625 -0.25 -1.890625 -0.515625q-2.109375 -0.453125 -3.03125 -1.21875q-0.90625 -0.765625 -0.90625 -2.09375q0 -1.03125 0.578125 -1.8125q0.578125 -0.796875 1.59375 -1.25q1.03125 -0.453125 2.3125 -0.453125q0.9375 0 1.8125 0.25q0.875 0.25 1.5625 0.703125q0.8125 0.578125 0.8125 1.203125q0 0.3125 -0.203125 0.53125q-0.1875 0.203125 -0.453125 0.203125q-0.28125 0 -0.859375 -0.40625q-0.671875 -0.421875 -1.28125 -0.65625q-0.59375 -0.25 -1.484375 -0.25q-1.125 0 -1.8125 0.5q-0.671875 0.5 -0.671875 1.34375q0 0.53125 0.25 0.859375q0.25 0.3125 0.828125 0.578125q0.59375 0.25 1.703125 0.484375q1.625 0.359375 2.515625 0.796875q0.90625 0.421875 1.296875 1.046875q0.390625 0.625 0.390625 1.59375q0 1.5 -1.28125 2.4375q-1.265625 0.921875 -3.359375 0.921875zm12.42627 0q-1.65625 0 -2.921875 -0.734375q-1.25 -0.75 -1.9375 -2.125q-0.671875 -1.390625 -0.671875 -3.21875q0 -1.828125 0.671875 -3.203125q0.6875 -1.375 1.9375 -2.109375q1.265625 -0.75 2.921875 -0.75q1.65625 0 2.921875 0.75q1.28125 0.734375 1.96875 2.109375q0.6875 1.375 0.6875 3.203125q0 1.828125 -0.6875 3.21875q-0.6875 1.375 -1.96875 2.125q-1.265625 0.734375 -2.921875 0.734375zm0 -1.609375q1.734375 0 2.65625 -1.140625q0.921875 -1.140625 0.921875 -3.328125q0 -2.140625 -0.9375 -3.296875q-0.921875 -1.171875 -2.640625 -1.171875q-1.703125 0 -2.640625 1.171875q-0.921875 1.15625 -0.921875 3.296875q0 2.15625 0.921875 3.3125q0.921875 1.15625 2.640625 1.15625zm9.460571 1.5625q-0.421875 0 -0.703125 -0.25q-0.28125 -0.265625 -0.28125 -0.71875l0 -15.234375q0 -0.453125 0.28125 -0.703125q0.28125 -0.265625 0.703125 -0.265625q0.40625 0 0.6875 0.265625q0.28125 0.25 0.28125 0.703125l0 15.234375q0 0.453125 -0.28125 0.71875q-0.28125 0.25 -0.6875 0.25zm13.474243 -12.046875q0.453125 0 0.703125 0.265625q0.25 0.25 0.25 0.6875l0 10.15625q0 0.40625 -0.25 0.671875q-0.25 0.265625 -0.703125 0.265625q-0.4375 0 -0.6875 -0.25q-0.25 -0.265625 -0.25 -0.671875l0 -1.1875q-0.5625 1.046875 -1.5625 1.609375q-0.984375 0.546875 -2.234375 0.546875q-2.09375 0 -3.15625 -1.15625q-1.046875 -1.171875 -1.046875 -3.453125l0 -6.53125q0 -0.4375 0.265625 -0.6875q0.265625 -0.265625 0.71875 -0.265625q0.453125 0 0.703125 0.265625q0.265625 0.25 0.265625 0.6875l0 6.484375q0 1.5625 0.609375 2.296875q0.625 0.71875 1.96875 0.71875q1.546875 0 2.484375 -0.984375q0.9375 -1.0 0.9375 -2.640625l0 -5.875q0 -0.4375 0.25 -0.6875q0.265625 -0.265625 0.734375 -0.265625zm9.979553 10.5q0.84375 0.078125 0.84375 0.78125q0 0.40625 -0.3125 0.609375q-0.296875 0.203125 -0.890625 0.15625l-0.65625 -0.046875q-1.921875 -0.15625 -2.828125 -1.15625q-0.90625 -1.015625 -0.90625 -3.046875l0 -6.03125l-1.609375 0q-0.40625 0 -0.640625 -0.203125q-0.234375 -0.203125 -0.234375 -0.53125q0 -0.359375 0.234375 -0.578125q0.234375 -0.21875 0.640625 -0.21875l1.609375 0l0 -2.71875q0 -0.453125 0.25 -0.703125q0.265625 -0.25 0.734375 -0.25q0.421875 0 0.6875 0.25q0.265625 0.25 0.265625 0.703125l0 2.71875l2.671875 0q0.375 0 0.59375 0.21875q0.234375 0.21875 0.234375 0.578125q0 0.328125 -0.234375 0.53125q-0.21875 0.203125 -0.59375 0.203125l-2.671875 0l0 6.125q0 1.3125 0.53125 1.90625q0.546875 0.59375 1.625 0.65625l0.65625 0.046875zm3.7380981 1.546875q-0.421875 0 -0.703125 -0.25q-0.28125 -0.265625 -0.28125 -0.71875l0 -10.125q0 -0.453125 0.28125 -0.703125q0.28125 -0.25 0.703125 -0.25q0.4375 0 0.703125 0.25q0.265625 0.25 0.265625 0.703125l0 10.125q0 0.484375 -0.265625 0.734375q-0.265625 0.234375 -0.703125 0.234375zm0.015625 -14.578125q-0.578125 0 -0.9375 -0.328125q-0.359375 -0.34375 -0.359375 -0.890625q0 -0.53125 0.359375 -0.859375q0.359375 -0.34375 0.9375 -0.34375q0.5625 0 0.921875 0.34375q0.375 0.328125 0.375 0.859375q0 0.546875 -0.375 0.890625q-0.359375 0.328125 -0.921875 0.328125zm9.411743 14.625q-1.65625 0 -2.921875 -0.734375q-1.25 -0.75 -1.9375 -2.125q-0.671875 -1.390625 -0.671875 -3.21875q0 -1.828125 0.671875 -3.203125q0.6875 -1.375 1.9375 -2.109375q1.265625 -0.75 2.921875 -0.75q1.65625 0 2.921875 0.75q1.28125 0.734375 1.96875 2.109375q0.6875 1.375 0.6875 3.203125q0 1.828125 -0.6875 3.21875q-0.6875 1.375 -1.96875 2.125q-1.265625 0.734375 -2.921875 0.734375zm0 -1.609375q1.734375 0 2.65625 -1.140625q0.921875 -1.140625 0.921875 -3.328125q0 -2.140625 -0.9375 -3.296875q-0.921875 -1.171875 -2.640625 -1.171875q-1.703125 0 -2.640625 1.171875q-0.921875 1.15625 -0.921875 3.296875q0 2.15625 0.921875 3.3125q0.921875 1.15625 2.640625 1.15625zm14.366821 -10.53125q4.1875 0 4.1875 4.625l0 6.5q0 0.453125 -0.25 0.71875q-0.25 0.25 -0.703125 0.25q-0.453125 0 -0.71875 -0.25q-0.265625 -0.265625 -0.265625 -0.71875l0 -6.375q0 -1.640625 -0.640625 -2.375q-0.640625 -0.75 -2.03125 -0.75q-1.609375 0 -2.5625 0.984375q-0.953125 0.984375 -0.953125 2.65625l0 5.859375q0 0.453125 -0.265625 0.71875q-0.25 0.25 -0.703125 0.25q-0.453125 0 -0.71875 -0.25q-0.265625 -0.265625 -0.265625 -0.71875l0 -10.125q0 -0.4375 0.265625 -0.6875q0.265625 -0.265625 0.71875 -0.265625q0.4375 0 0.6875 0.265625q0.25 0.25 0.25 0.671875l0 1.21875q0.578125 -1.078125 1.609375 -1.640625q1.03125 -0.5625 2.359375 -0.5625z" fill-rule="nonzero"/><path fill="#000000" fill-opacity="0.0" d="m351.0866 375.6509l161.82678 0l0 48.409454l-161.82678 0z" fill-rule="evenodd"/><path fill="#000000" d="m375.35968 399.00342q1.46875 0.390625 2.265625 1.453125q0.8125 1.046875 0.8125 2.625q0 2.234375 -1.46875 3.421875q-1.46875 1.1875 -4.15625 1.1875l-6.046875 0q-0.453125 0 -0.734375 -0.265625q-0.265625 -0.265625 -0.265625 -0.6875l0 -15.0q0 -0.4375 0.265625 -0.703125q0.28125 -0.265625 0.734375 -0.265625l5.78125 0q2.625 0 4.0625 1.15625q1.4375 1.15625 1.4375 3.265625q0 1.359375 -0.71875 2.34375q-0.703125 0.984375 -1.96875 1.46875zm-7.65625 -0.71875l4.5625 0q1.890625 0 2.859375 -0.765625q0.984375 -0.765625 0.984375 -2.234375q0 -2.875 -3.84375 -2.875l-4.5625 0l0 5.875zm4.921875 7.78125q1.984375 0 2.9375 -0.734375q0.953125 -0.734375 0.953125 -2.296875q0 -3.125 -3.890625 -3.125l-4.921875 0l0 6.15625l4.921875 0zm18.06659 -1.09375q0.265625 0 0.453125 0.21875q0.203125 0.21875 0.203125 0.5625q0 0.59375 -0.84375 1.09375q-0.859375 0.5 -1.828125 0.765625q-0.953125 0.25 -1.875 0.25q-2.703125 0 -4.28125 -1.609375q-1.5625 -1.609375 -1.5625 -4.4375q0 -1.8125 0.6875 -3.1875q0.703125 -1.375 1.953125 -2.140625q1.265625 -0.765625 2.875 -0.765625q2.28125 0 3.625 1.484375q1.34375 1.484375 1.34375 4.03125q0 0.484375 -0.203125 0.703125q-0.1875 0.203125 -0.609375 0.203125l-7.734375 0q0.21875 4.125 3.90625 4.125q0.9375 0 1.609375 -0.25q0.671875 -0.25 1.453125 -0.6875q0.609375 -0.359375 0.828125 -0.359375zm-4.203125 -7.75q-1.53125 0 -2.453125 0.96875q-0.921875 0.953125 -1.09375 2.703125l6.796875 0q-0.046875 -1.765625 -0.890625 -2.71875q-0.84375 -0.953125 -2.359375 -0.953125zm11.741699 10.640625q-1.109375 0 -2.109375 -0.265625q-0.984375 -0.265625 -1.75 -0.75q-0.4375 -0.28125 -0.625 -0.53125q-0.171875 -0.25 -0.171875 -0.609375q0 -0.3125 0.171875 -0.515625q0.1875 -0.21875 0.484375 -0.21875q0.28125 0 0.828125 0.359375q0.71875 0.4375 1.421875 0.6875q0.71875 0.25 1.78125 0.25q1.296875 0 2.015625 -0.453125q0.71875 -0.453125 0.71875 -1.3125q0 -0.53125 -0.265625 -0.859375q-0.265625 -0.328125 -0.921875 -0.578125q-0.640625 -0.25 -1.890625 -0.515625q-2.109375 -0.453125 -3.03125 -1.21875q-0.90625 -0.765625 -0.90625 -2.09375q0 -1.03125 0.578125 -1.8125q0.578125 -0.796875 1.59375 -1.25q1.03125 -0.453125 2.3125 -0.453125q0.9375 0 1.8125 0.25q0.875 0.25 1.5625 0.703125q0.8125 0.578125 0.8125 1.203125q0 0.3125 -0.203125 0.53125q-0.1875 0.203125 -0.453125 0.203125q-0.28125 0 -0.859375 -0.40625q-0.671875 -0.421875 -1.28125 -0.65625q-0.59375 -0.25 -1.484375 -0.25q-1.125 0 -1.8125 0.5q-0.671875 0.5 -0.671875 1.34375q0 0.53125 0.25 0.859375q0.25 0.3125 0.828125 0.578125q0.59375 0.25 1.703125 0.484375q1.625 0.359375 2.515625 0.796875q0.90625 0.421875 1.296875 1.046875q0.390625 0.625 0.390625 1.59375q0 1.5 -1.28125 2.4375q-1.265625 0.921875 -3.359375 0.921875zm12.988739 -1.59375q0.84375 0.078125 0.84375 0.78125q0 0.40625 -0.3125 0.609375q-0.296875 0.203125 -0.890625 0.15625l-0.65625 -0.046875q-1.921875 -0.15625 -2.828125 -1.15625q-0.90625 -1.015625 -0.90625 -3.046875l0 -6.03125l-1.609375 0q-0.40625 0 -0.640625 -0.203125q-0.234375 -0.203125 -0.234375 -0.53125q0 -0.359375 0.234375 -0.578125q0.234375 -0.21875 0.640625 -0.21875l1.609375 0l0 -2.71875q0 -0.453125 0.25 -0.703125q0.265625 -0.25 0.734375 -0.25q0.421875 0 0.6875 0.25q0.265625 0.25 0.265625 0.703125l0 2.71875l2.671875 0q0.375 0 0.59375 0.21875q0.234375 0.21875 0.234375 0.578125q0 0.328125 -0.234375 0.53125q-0.21875 0.203125 -0.59375 0.203125l-2.671875 0l0 6.125q0 1.3125 0.53125 1.90625q0.546875 0.59375 1.625 0.65625l0.65625 0.046875zm13.789459 1.59375q-1.65625 0 -2.921875 -0.734375q-1.25 -0.75 -1.9375 -2.125q-0.671875 -1.390625 -0.671875 -3.21875q0 -1.828125 0.671875 -3.203125q0.6875 -1.375 1.9375 -2.109375q1.265625 -0.75 2.921875 -0.75q1.65625 0 2.921875 0.75q1.28125 0.734375 1.96875 2.109375q0.6875 1.375 0.6875 3.203125q0 1.828125 -0.6875 3.21875q-0.6875 1.375 -1.96875 2.125q-1.265625 0.734375 -2.921875 0.734375zm0 -1.609375q1.734375 0 2.65625 -1.140625q0.921875 -1.140625 0.921875 -3.328125q0 -2.140625 -0.9375 -3.296875q-0.921875 -1.171875 -2.640625 -1.171875q-1.703125 0 -2.640625 1.171875q-0.921875 1.15625 -0.921875 3.296875q0 2.15625 0.921875 3.3125q0.921875 1.15625 2.640625 1.15625zm13.632446 -13.953125q-1.265625 0.109375 -1.921875 0.8125q-0.640625 0.703125 -0.640625 2.125l0 0.765625l2.671875 0q0.40625 0 0.609375 0.21875q0.21875 0.21875 0.21875 0.578125q0 0.359375 -0.21875 0.546875q-0.203125 0.1875 -0.609375 0.1875l-2.671875 0l0 9.3125q0 0.453125 -0.28125 0.71875q-0.265625 0.25 -0.671875 0.25q-0.4375 0 -0.71875 -0.25q-0.265625 -0.265625 -0.265625 -0.71875l0 -9.3125l-1.609375 0q-0.40625 0 -0.640625 -0.203125q-0.234375 -0.203125 -0.234375 -0.53125q0 -0.359375 0.234375 -0.578125q0.234375 -0.21875 0.640625 -0.21875l1.609375 0l0 -0.4375q0 -2.15625 1.078125 -3.390625q1.078125 -1.234375 3.09375 -1.375l0.625 -0.046875q0.625 -0.046875 0.890625 0.125q0.28125 0.15625 0.28125 0.59375q0 0.6875 -0.84375 0.78125l-0.625 0.046875zm14.79834 3.421875q1.53125 0 2.703125 0.75q1.171875 0.734375 1.8125 2.109375q0.65625 1.359375 0.65625 3.15625q0 1.828125 -0.65625 3.203125q-0.640625 1.375 -1.8125 2.15625q-1.171875 0.765625 -2.703125 0.765625q-1.375 0 -2.40625 -0.59375q-1.015625 -0.609375 -1.53125 -1.71875l0 1.296875q0 0.4375 -0.265625 0.703125q-0.25 0.265625 -0.703125 0.265625q-0.453125 0 -0.71875 -0.265625q-0.265625 -0.265625 -0.265625 -0.703125l0 -15.265625q0 -0.40625 0.265625 -0.671875q0.265625 -0.265625 0.71875 -0.265625q0.453125 0 0.703125 0.265625q0.265625 0.25 0.265625 0.671875l0 6.4375q0.515625 -1.109375 1.53125 -1.703125q1.03125 -0.59375 2.40625 -0.59375zm-0.390625 10.53125q1.703125 0 2.640625 -1.1875q0.9375 -1.1875 0.9375 -3.328125q0 -2.09375 -0.9375 -3.234375q-0.9375 -1.15625 -2.640625 -1.15625q-1.703125 0 -2.625 1.15625q-0.921875 1.140625 -0.921875 3.28125q0 2.140625 0.921875 3.3125q0.921875 1.15625 2.625 1.15625zm13.311707 1.609375q-1.65625 0 -2.921875 -0.734375q-1.25 -0.75 -1.9375 -2.125q-0.671875 -1.390625 -0.671875 -3.21875q0 -1.828125 0.671875 -3.203125q0.6875 -1.375 1.9375 -2.109375q1.265625 -0.75 2.921875 -0.75q1.65625 0 2.921875 0.75q1.28125 0.734375 1.96875 2.109375q0.6875 1.375 0.6875 3.203125q0 1.828125 -0.6875 3.21875q-0.6875 1.375 -1.96875 2.125q-1.265625 0.734375 -2.921875 0.734375zm0 -1.609375q1.734375 0 2.65625 -1.140625q0.921875 -1.140625 0.921875 -3.328125q0 -2.140625 -0.9375 -3.296875q-0.921875 -1.171875 -2.640625 -1.171875q-1.703125 0 -2.640625 1.171875q-0.921875 1.15625 -0.921875 3.296875q0 2.15625 0.921875 3.3125q0.921875 1.15625 2.640625 1.15625zm13.882477 0.015625q0.84375 0.078125 0.84375 0.78125q0 0.40625 -0.3125 0.609375q-0.296875 0.203125 -0.890625 0.15625l-0.65625 -0.046875q-1.921875 -0.15625 -2.828125 -1.15625q-0.90625 -1.015625 -0.90625 -3.046875l0 -6.03125l-1.609375 0q-0.40625 0 -0.640625 -0.203125q-0.234375 -0.203125 -0.234375 -0.53125q0 -0.359375 0.234375 -0.578125q0.234375 -0.21875 0.640625 -0.21875l1.609375 0l0 -2.71875q0 -0.453125 0.25 -0.703125q0.265625 -0.25 0.734375 -0.25q0.421875 0 0.6875 0.25q0.265625 0.25 0.265625 0.703125l0 2.71875l2.671875 0q0.375 0 0.59375 0.21875q0.234375 0.21875 0.234375 0.578125q0 0.328125 -0.234375 0.53125q-0.21875 0.203125 -0.59375 0.203125l-2.671875 0l0 6.125q0 1.3125 0.53125 1.90625q0.546875 0.59375 1.625 0.65625l0.65625 0.046875zm8.659973 -10.546875q2.0625 0 3.109375 1.171875q1.0625 1.15625 1.0625 3.453125l0 6.5q0 0.453125 -0.265625 0.71875q-0.25 0.25 -0.6875 0.25q-0.453125 0 -0.71875 -0.25q-0.265625 -0.265625 -0.265625 -0.71875l0 -6.453125q0 -1.5625 -0.640625 -2.296875q-0.640625 -0.75 -2.03125 -0.75q-1.609375 0 -2.5625 0.984375q-0.953125 0.984375 -0.953125 2.65625l0 5.859375q0 0.453125 -0.265625 0.71875q-0.25 0.25 -0.703125 0.25q-0.453125 0 -0.71875 -0.25q-0.265625 -0.265625 -0.265625 -0.71875l0 -15.265625q0 -0.40625 0.28125 -0.671875q0.28125 -0.265625 0.703125 -0.265625q0.453125 0 0.703125 0.265625q0.265625 0.25 0.265625 0.671875l0 6.296875q0.5625 -1.0625 1.59375 -1.609375q1.046875 -0.546875 2.359375 -0.546875zm8.663208 7.671875q-0.234375 0 -0.40625 -0.171875q-0.171875 -0.1875 -0.1875 -0.5l-0.578125 -10.875q-0.046875 -0.546875 0.28125 -0.875q0.34375 -0.328125 0.890625 -0.328125q0.546875 0 0.875 0.328125q0.34375 0.328125 0.296875 0.875l-0.5625 10.875q-0.03125 0.34375 -0.203125 0.515625q-0.171875 0.15625 -0.40625 0.15625zm0.03125 4.421875q-0.578125 0 -0.96875 -0.375q-0.375 -0.375 -0.375 -0.96875q0 -0.609375 0.375 -0.984375q0.390625 -0.390625 0.96875 -0.390625q0.546875 0 0.921875 0.390625q0.375 0.375 0.375 0.984375q0 0.59375 -0.375 0.96875q-0.375 0.375 -0.921875 0.375z" fill-rule="nonzero"/><path fill="#000000" fill-opacity="0.0" d="m233.4147 230.75328l67.52756 57.354324" fill-rule="evenodd"/><path stroke="#000000" stroke-width="3.0" stroke-linejoin="round" stroke-linecap="butt" d="m233.4147 230.75328l53.808228 45.70186" fill-rule="evenodd"/><path fill="#000000" stroke="#000000" stroke-width="3.0" stroke-linecap="butt" d="m284.01514 280.23193l13.584412 5.03656l-7.1688232 -12.590118z" fill-rule="evenodd"/><path fill="#000000" fill-opacity="0.0" d="m615.43304 225.30183l-75.18109 58.61418" fill-rule="evenodd"/><path stroke="#000000" stroke-width="3.0" stroke-linejoin="round" stroke-linecap="butt" d="m615.43304 225.30183l-60.985535 47.54677" fill-rule="evenodd"/><path fill="#000000" stroke="#000000" stroke-width="3.0" stroke-linecap="butt" d="m551.40076 268.94077l-7.6900635 12.278656l13.783508 -4.462921z" fill-rule="evenodd"/></g></svg>