<svg version="1.1" viewBox="0.0 0.0 240.78740157480314 732.9475065616798" fill="none" stroke="none" stroke-linecap="square" stroke-miterlimit="10" xmlns:xlink="http://www.w3.org/1999/xlink" xmlns="http://www.w3.org/2000/svg"><clipPath id="p.0"><path d="m0 0l240.7874 0l0 732.9475l-240.7874 0l0 -732.9475z" clip-rule="nonzero"/></clipPath><g clip-path="url(#p.0)"><path fill="#000000" fill-opacity="0.0" d="m0 0l240.7874 0l0 732.9475l-240.7874 0z" fill-rule="evenodd"/><path fill="#f3f3f3" d="m56.262466 13.099737l78.01575 0l0 628.34644l-78.01575 0z" fill-rule="evenodd"/><path stroke="#000000" stroke-width="1.0" stroke-linejoin="round" stroke-linecap="butt" d="m56.262466 13.099737l78.01575 0l0 628.34644l-78.01575 0z" fill-rule="evenodd"/><path fill="#fe6d7e" d="m55.842518 13.556431l78.01575 0l0 69.76378l-78.01575 0z" fill-rule="evenodd"/><path stroke="#000000" stroke-width="1.0" stroke-linejoin="round" stroke-linecap="butt" d="m55.842518 13.556431l78.01575 0l0 69.76378l-78.01575 0z" fill-rule="evenodd"/><path fill="#fe6d7e" fill-opacity="0.9077" d="m55.842518 83.32021l78.01575 0l0 69.76377l-78.01575 0z" fill-rule="evenodd"/><path stroke="#000000" stroke-width="1.0" stroke-linejoin="round" stroke-linecap="butt" d="m55.842518 83.32021l78.01575 0l0 69.76377l-78.01575 0z" fill-rule="evenodd"/><path fill="#fe6d7e" fill-opacity="0.8462" d="m55.842518 153.08398l78.01575 0l0 69.76378l-78.01575 0z" fill-rule="evenodd"/><path stroke="#000000" stroke-width="1.0" stroke-linejoin="round" stroke-linecap="butt" d="m55.842518 153.08398l78.01575 0l0 69.76378l-78.01575 0z" fill-rule="evenodd"/><path fill="#fe6d7e" fill-opacity="0.7385" d="m55.842518 222.84776l78.01575 0l0 69.76378l-78.01575 0z" fill-rule="evenodd"/><path stroke="#000000" stroke-width="1.0" stroke-linejoin="round" stroke-linecap="butt" d="m55.842518 222.84776l78.01575 0l0 69.76378l-78.01575 0z" fill-rule="evenodd"/><path fill="#fe6d7e" fill-opacity="0.5" d="m55.842518 292.61154l78.01575 0l0 69.763794l-78.01575 0z" fill-rule="evenodd"/><path stroke="#000000" stroke-width="1.0" stroke-linejoin="round" stroke-linecap="butt" d="m55.842518 292.61154l78.01575 0l0 69.763794l-78.01575 0z" fill-rule="evenodd"/><path fill="#fe6d7e" fill-opacity="0.3923" d="m55.842518 362.37534l78.01575 0l0 69.76376l-78.01575 0z" fill-rule="evenodd"/><path stroke="#000000" stroke-width="1.0" stroke-linejoin="round" stroke-linecap="butt" d="m55.842518 362.37534l78.01575 0l0 69.76376l-78.01575 0z" fill-rule="evenodd"/><path fill="#fe6d7e" fill-opacity="0.2462" d="m55.842518 432.1391l78.01575 0l0 69.763794l-78.01575 0z" fill-rule="evenodd"/><path stroke="#000000" stroke-width="1.0" stroke-linejoin="round" stroke-linecap="butt" d="m55.842518 432.1391l78.01575 0l0 69.763794l-78.01575 0z" fill-rule="evenodd"/><path fill="#fe6d7e" fill-opacity="0.1923" d="m55.842518 501.9029l78.01575 0l0 69.763794l-78.01575 0z" fill-rule="evenodd"/><path stroke="#000000" stroke-width="1.0" stroke-linejoin="round" stroke-linecap="butt" d="m55.842518 501.9029l78.01575 0l0 69.763794l-78.01575 0z" fill-rule="evenodd"/><path fill="#fe6d7e" fill-opacity="0.0769" d="m55.842518 571.6667l78.01575 0l0 69.76373l-78.01575 0z" fill-rule="evenodd"/><path stroke="#000000" stroke-width="1.0" stroke-linejoin="round" stroke-linecap="butt" d="m55.842518 571.6667l78.01575 0l0 69.76373l-78.01575 0z" fill-rule="evenodd"/><path fill="#d56b5c" d="m143.94226 108.35143l34.228348 0l0 0c14.702942 0 26.62204 11.919098 26.62204 26.622047l0 30.519684l0 0c0 7.060608 -2.8048096 13.832031 -7.797409 18.82463c-4.9926147 4.9925995 -11.764023 7.7974243 -18.82463 7.7974243l-3.8031616 0l0 7.6062927l-15.212585 -15.212601l15.212585 -15.212601l0 7.606308l3.8031616 0c6.3012543 0 11.409439 -5.108185 11.409439 -11.409454l0 -30.519684l0 0c0 -6.3012695 -5.108185 -11.409447 -11.409439 -11.409447l-34.228348 0z" fill-rule="evenodd"/><path stroke="#000000" stroke-width="1.0" stroke-linejoin="round" stroke-linecap="butt" d="m143.94226 108.35143l34.228348 0l0 0c14.702942 0 26.62204 11.919098 26.62204 26.622047l0 30.519684l0 0c0 7.060608 -2.8048096 13.832031 -7.797409 18.82463c-4.9926147 4.9925995 -11.764023 7.7974243 -18.82463 7.7974243l-3.8031616 0l0 7.6062927l-15.212585 -15.212601l15.212585 -15.212601l0 7.606308l3.8031616 0c6.3012543 0 11.409439 -5.108185 11.409439 -11.409454l0 -30.519684l0 0c0 -6.3012695 -5.108185 -11.409447 -11.409439 -11.409447l-34.228348 0z" fill-rule="evenodd"/><path fill="#000000" fill-opacity="0.0" d="m39.07874 645.17847l167.05513 0l0 51.811035l-167.05513 0z" fill-rule="evenodd"/><path fill="#000000" d="m50.60999 684.8985l0 -22.90625l16.562504 0l0 2.703125l-13.531254 0l0 7.015625l12.671879 0l0 2.6875l-12.671879 0l0 7.796875l14.062504 0l0 2.703125l-17.093754 0zm20.921879 0l0 -16.59375l2.53125 0l0 2.359375q1.828125 -2.734375 5.28125 -2.734375q1.5 0 2.75 0.546875q1.265625 0.53125 1.890625 1.40625q0.625 0.875 0.875 2.078125q0.15625 0.78125 0.15625 2.734375l0 10.203125l-2.8125 0l0 -10.09375q0 -1.71875 -0.328125 -2.5625q-0.328125 -0.859375 -1.171875 -1.359375q-0.828125 -0.515625 -1.953125 -0.515625q-1.796875 0 -3.109375 1.140625q-1.296875 1.140625 -1.296875 4.328125l0 9.0625l-2.8125 0zm29.15625 -5.34375l2.90625 0.359375q-0.6875 2.546875 -2.546875 3.953125q-1.859375 1.40625 -4.75 1.40625q-3.640625 0 -5.78125 -2.234375q-2.125 -2.25 -2.125 -6.296875q0 -4.1875 2.15625 -6.5q2.15625 -2.3125 5.59375 -2.3125q3.328125 0 5.4375 2.265625q2.109375 2.265625 2.109375 6.375q0 0.25 -0.015625 0.75l-12.375 0q0.15625 2.734375 1.546875 4.1875q1.390625 1.453125 3.46875 1.453125q1.546875 0 2.640625 -0.8125q1.09375 -0.8125 1.734375 -2.59375zm-9.234375 -4.546875l9.265625 0q-0.1875 -2.09375 -1.0625 -3.140625q-1.34375 -1.625 -3.484375 -1.625q-1.9375 0 -3.265625 1.296875q-1.3125 1.296875 -1.453125 3.46875zm15.640625 9.890625l0 -16.59375l2.53125 0l0 2.515625q0.96875 -1.765625 1.78125 -2.328125q0.828125 -0.5625 1.8125 -0.5625q1.421875 0 2.890625 0.90625l-0.96875 2.609375q-1.03125 -0.609375 -2.0625 -0.609375q-0.921875 0 -1.65625 0.5625q-0.734375 0.546875 -1.046875 1.53125q-0.46875 1.5 -0.46875 3.28125l0 8.6875l-2.8125 0zm10.171875 1.375l2.734375 0.40625q0.171875 1.265625 0.953125 1.84375q1.046875 0.78125 2.859375 0.78125q1.953125 0 3.015625 -0.78125q1.0625 -0.78125 1.4374924 -2.1875q0.21875 -0.859375 0.203125 -3.609375q-1.8437424 2.171875 -4.5937424 2.171875q-3.421875 0 -5.296875 -2.46875q-1.875 -2.46875 -1.875 -5.921875q0 -2.375 0.859375 -4.375q0.859375 -2.015625 2.484375 -3.109375q1.640625 -1.09375 3.84375 -1.09375q2.9375 0 4.8437424 2.375l0 -2.0l2.59375 0l0 14.34375q0 3.875 -0.796875 5.484375q-0.78125 1.625 -2.5 2.5625q-1.7031174 0.9375 -4.2031174 0.9375q-2.96875 0 -4.796875 -1.34375q-1.828125 -1.328125 -1.765625 -4.015625zm2.328125 -9.96875q0 3.265625 1.296875 4.765625q1.296875 1.5 3.25 1.5q1.9375 0 3.25 -1.484375q1.3124924 -1.5 1.3124924 -4.6875q0 -3.046875 -1.3593674 -4.59375q-1.34375 -1.546875 -3.25 -1.546875q-1.875 0 -3.1875 1.53125q-1.3125 1.515625 -1.3125 4.515625zm15.859367 14.984375l-0.3125 -2.640625q0.921875 0.25 1.609375 0.25q0.9375 0 1.5 -0.3125q0.5625 -0.3125 0.921875 -0.875q0.265625 -0.421875 0.859375 -2.09375q0.078125 -0.234375 0.25 -0.6875l-6.296875 -16.625l3.03125 0l3.453125 9.609375q0.671875 1.828125 1.203125 3.84375q0.484375 -1.9375 1.15625 -3.78125l3.546875 -9.671875l2.8125 0l-6.3125 16.875q-1.015625 2.734375 -1.578125 3.765625q-0.75 1.390625 -1.71875 2.03125q-0.96875 0.65625 -2.3125 0.65625q-0.8125 0 -1.8125 -0.34375z" fill-rule="nonzero"/></g></svg>