<svg version="1.1" viewBox="0.0 0.0 1128.0 874.0" fill="none" stroke="none" stroke-linecap="square" stroke-miterlimit="10" xmlns:xlink="http://www.w3.org/1999/xlink" xmlns="http://www.w3.org/2000/svg"><clipPath id="p.0"><path d="m0 0l1128.0 0l0 874.0l-1128.0 0l0 -874.0z" clip-rule="nonzero"/></clipPath><g clip-path="url(#p.0)"><path fill="#000000" fill-opacity="0.0" d="m0 0l1128.0 0l0 874.0l-1128.0 0z" fill-rule="evenodd"/><path fill="#fa4c67" d="m81.55643 47.149605l405.22836 0l0 330.04724l-405.22836 0z" fill-rule="evenodd"/><path stroke="#000000" stroke-width="1.0" stroke-linejoin="round" stroke-linecap="butt" d="m81.55643 47.149605l405.22836 0l0 330.04724l-405.22836 0z" fill-rule="evenodd"/><path fill="#000000" fill-opacity="0.0" d="m284.1706 47.149605l0 330.04724" fill-rule="evenodd"/><path stroke="#000000" stroke-width="1.0" stroke-linejoin="round" stroke-linecap="butt" d="m284.1706 47.149605l0 330.04724" fill-rule="evenodd"/><path fill="#000000" fill-opacity="0.0" d="m390.6483 47.149605l0 330.04724" fill-rule="evenodd"/><path stroke="#000000" stroke-width="1.0" stroke-linejoin="round" stroke-linecap="butt" d="m390.6483 47.149605l0 330.04724" fill-rule="evenodd"/><path fill="#000000" fill-opacity="0.0" d="m177.69292 47.149605l0 330.04724" fill-rule="evenodd"/><path stroke="#000000" stroke-width="1.0" stroke-linejoin="round" stroke-linecap="butt" d="m177.69292 47.149605l0 330.04724" fill-rule="evenodd"/><path fill="#000000" fill-opacity="0.0" d="m81.55643 212.17323l405.22836 0" fill-rule="evenodd"/><path stroke="#000000" stroke-width="1.0" stroke-linejoin="round" stroke-linecap="butt" d="m81.55643 212.17323l405.22836 0" fill-rule="evenodd"/><path fill="#000000" fill-opacity="0.0" d="m81.55643 295.71127l405.22836 0" fill-rule="evenodd"/><path stroke="#000000" stroke-width="1.0" stroke-linejoin="round" stroke-linecap="butt" d="m81.55643 295.71127l405.22836 0" fill-rule="evenodd"/><path fill="#000000" fill-opacity="0.0" d="m81.55643 128.63518l405.22836 0" fill-rule="evenodd"/><path stroke="#000000" stroke-width="1.0" stroke-linejoin="round" stroke-linecap="butt" d="m81.55643 128.63518l405.22836 0" fill-rule="evenodd"/><path fill="#000000" fill-opacity="0.0" d="m234.04462 47.149605l0 330.04724" fill-rule="evenodd"/><path stroke="#000000" stroke-width="1.0" stroke-linejoin="round" stroke-linecap="butt" d="m234.04462 47.149605l0 330.04724" fill-rule="evenodd"/><path fill="#000000" fill-opacity="0.0" d="m338.2152 47.149605l0 330.04724" fill-rule="evenodd"/><path stroke="#000000" stroke-width="1.0" stroke-linejoin="round" stroke-linecap="butt" d="m338.2152 47.149605l0 330.04724" fill-rule="evenodd"/><path fill="#000000" fill-opacity="0.0" d="m437.82416 47.149605l0 330.04724" fill-rule="evenodd"/><path stroke="#000000" stroke-width="1.0" stroke-linejoin="round" stroke-linecap="butt" d="m437.82416 47.149605l0 330.04724" fill-rule="evenodd"/><path fill="#000000" fill-opacity="0.0" d="m129.87401 47.149605l0 330.04724" fill-rule="evenodd"/><path stroke="#000000" stroke-width="1.0" stroke-linejoin="round" stroke-linecap="butt" d="m129.87401 47.149605l0 330.04724" fill-rule="evenodd"/><path fill="#000000" fill-opacity="0.0" d="m81.55643 168.12599l405.22836 0" fill-rule="evenodd"/><path stroke="#000000" stroke-width="1.0" stroke-linejoin="round" stroke-linecap="butt" d="m81.55643 168.12599l405.22836 0" fill-rule="evenodd"/><path fill="#000000" fill-opacity="0.0" d="m81.55643 333.10236l405.22836 0" fill-rule="evenodd"/><path stroke="#000000" stroke-width="1.0" stroke-linejoin="round" stroke-linecap="butt" d="m81.55643 333.10236l405.22836 0" fill-rule="evenodd"/><path fill="#000000" fill-opacity="0.0" d="m81.55643 254.09186l405.22836 0" fill-rule="evenodd"/><path stroke="#000000" stroke-width="1.0" stroke-linejoin="round" stroke-linecap="butt" d="m81.55643 254.09186l405.22836 0" fill-rule="evenodd"/><path fill="#000000" fill-opacity="0.0" d="m81.55643 82.1601l405.22836 0" fill-rule="evenodd"/><path stroke="#000000" stroke-width="1.0" stroke-linejoin="round" stroke-linecap="butt" d="m81.55643 82.1601l405.22836 0" fill-rule="evenodd"/><path fill="#f19167" d="m593.55646 47.149605l405.22833 0l0 330.04724l-405.22833 0z" fill-rule="evenodd"/><path stroke="#000000" stroke-width="1.0" stroke-linejoin="round" stroke-linecap="butt" d="m593.55646 47.149605l405.22833 0l0 330.04724l-405.22833 0z" fill-rule="evenodd"/><path fill="#000000" fill-opacity="0.0" d="m796.1706 47.149605l0 330.04724" fill-rule="evenodd"/><path stroke="#000000" stroke-width="1.0" stroke-linejoin="round" stroke-linecap="butt" d="m796.1706 47.149605l0 330.04724" fill-rule="evenodd"/><path fill="#000000" fill-opacity="0.0" d="m902.6483 47.149605l0 330.04724" fill-rule="evenodd"/><path stroke="#000000" stroke-width="1.0" stroke-linejoin="round" stroke-linecap="butt" d="m902.6483 47.149605l0 330.04724" fill-rule="evenodd"/><path fill="#000000" fill-opacity="0.0" d="m689.69293 47.149605l0 330.04724" fill-rule="evenodd"/><path stroke="#000000" stroke-width="1.0" stroke-linejoin="round" stroke-linecap="butt" d="m689.69293 47.149605l0 330.04724" fill-rule="evenodd"/><path fill="#000000" fill-opacity="0.0" d="m593.55646 212.17323l405.22833 0" fill-rule="evenodd"/><path stroke="#000000" stroke-width="1.0" stroke-linejoin="round" stroke-linecap="butt" d="m593.55646 212.17323l405.22833 0" fill-rule="evenodd"/><path fill="#000000" fill-opacity="0.0" d="m593.55646 295.71127l405.22833 0" fill-rule="evenodd"/><path stroke="#000000" stroke-width="1.0" stroke-linejoin="round" stroke-linecap="butt" d="m593.55646 295.71127l405.22833 0" fill-rule="evenodd"/><path fill="#000000" fill-opacity="0.0" d="m593.55646 128.63518l405.22833 0" fill-rule="evenodd"/><path stroke="#000000" stroke-width="1.0" stroke-linejoin="round" stroke-linecap="butt" d="m593.55646 128.63518l405.22833 0" fill-rule="evenodd"/><path fill="#000000" fill-opacity="0.0" d="m746.0446 47.149605l0 330.04724" fill-rule="evenodd"/><path stroke="#000000" stroke-width="1.0" stroke-linejoin="round" stroke-linecap="butt" d="m746.0446 47.149605l0 330.04724" fill-rule="evenodd"/><path fill="#000000" fill-opacity="0.0" d="m850.2152 47.149605l0 330.04724" fill-rule="evenodd"/><path stroke="#000000" stroke-width="1.0" stroke-linejoin="round" stroke-linecap="butt" d="m850.2152 47.149605l0 330.04724" fill-rule="evenodd"/><path fill="#000000" fill-opacity="0.0" d="m949.82416 47.149605l0 330.04724" fill-rule="evenodd"/><path stroke="#000000" stroke-width="1.0" stroke-linejoin="round" stroke-linecap="butt" d="m949.82416 47.149605l0 330.04724" fill-rule="evenodd"/><path fill="#000000" fill-opacity="0.0" d="m641.874 47.149605l0 330.04724" fill-rule="evenodd"/><path stroke="#000000" stroke-width="1.0" stroke-linejoin="round" stroke-linecap="butt" d="m641.874 47.149605l0 330.04724" fill-rule="evenodd"/><path fill="#000000" fill-opacity="0.0" d="m593.55646 168.12599l405.22833 0" fill-rule="evenodd"/><path stroke="#000000" stroke-width="1.0" stroke-linejoin="round" stroke-linecap="butt" d="m593.55646 168.12599l405.22833 0" fill-rule="evenodd"/><path fill="#000000" fill-opacity="0.0" d="m593.55646 333.10236l405.22833 0" fill-rule="evenodd"/><path stroke="#000000" stroke-width="1.0" stroke-linejoin="round" stroke-linecap="butt" d="m593.55646 333.10236l405.22833 0" fill-rule="evenodd"/><path fill="#000000" fill-opacity="0.0" d="m593.55646 254.09186l405.22833 0" fill-rule="evenodd"/><path stroke="#000000" stroke-width="1.0" stroke-linejoin="round" stroke-linecap="butt" d="m593.55646 254.09186l405.22833 0" fill-rule="evenodd"/><path fill="#000000" fill-opacity="0.0" d="m593.55646 82.1601l405.22833 0" fill-rule="evenodd"/><path stroke="#000000" stroke-width="1.0" stroke-linejoin="round" stroke-linecap="butt" d="m593.55646 82.1601l405.22833 0" fill-rule="evenodd"/><path fill="#e8aa9d" d="m601.55646 447.1496l405.22833 0l0 330.04724l-405.22833 0z" fill-rule="evenodd"/><path stroke="#000000" stroke-width="1.0" stroke-linejoin="round" stroke-linecap="butt" d="m601.55646 447.1496l405.22833 0l0 330.04724l-405.22833 0z" fill-rule="evenodd"/><path fill="#000000" fill-opacity="0.0" d="m804.1706 447.1496l0 330.04724" fill-rule="evenodd"/><path stroke="#000000" stroke-width="1.0" stroke-linejoin="round" stroke-linecap="butt" d="m804.1706 447.1496l0 330.04724" fill-rule="evenodd"/><path fill="#000000" fill-opacity="0.0" d="m910.6483 447.1496l0 330.04724" fill-rule="evenodd"/><path stroke="#000000" stroke-width="1.0" stroke-linejoin="round" stroke-linecap="butt" d="m910.6483 447.1496l0 330.04724" fill-rule="evenodd"/><path fill="#000000" fill-opacity="0.0" d="m697.69293 447.1496l0 330.04724" fill-rule="evenodd"/><path stroke="#000000" stroke-width="1.0" stroke-linejoin="round" stroke-linecap="butt" d="m697.69293 447.1496l0 330.04724" fill-rule="evenodd"/><path fill="#000000" fill-opacity="0.0" d="m601.55646 612.1732l405.22833 0" fill-rule="evenodd"/><path stroke="#000000" stroke-width="1.0" stroke-linejoin="round" stroke-linecap="butt" d="m601.55646 612.1732l405.22833 0" fill-rule="evenodd"/><path fill="#000000" fill-opacity="0.0" d="m601.55646 695.7113l405.22833 0" fill-rule="evenodd"/><path stroke="#000000" stroke-width="1.0" stroke-linejoin="round" stroke-linecap="butt" d="m601.55646 695.7113l405.22833 0" fill-rule="evenodd"/><path fill="#000000" fill-opacity="0.0" d="m601.55646 528.6352l405.22833 0" fill-rule="evenodd"/><path stroke="#000000" stroke-width="1.0" stroke-linejoin="round" stroke-linecap="butt" d="m601.55646 528.6352l405.22833 0" fill-rule="evenodd"/><path fill="#000000" fill-opacity="0.0" d="m754.0446 447.1496l0 330.04724" fill-rule="evenodd"/><path stroke="#000000" stroke-width="1.0" stroke-linejoin="round" stroke-linecap="butt" d="m754.0446 447.1496l0 330.04724" fill-rule="evenodd"/><path fill="#000000" fill-opacity="0.0" d="m858.2152 447.1496l0 330.04724" fill-rule="evenodd"/><path stroke="#000000" stroke-width="1.0" stroke-linejoin="round" stroke-linecap="butt" d="m858.2152 447.1496l0 330.04724" fill-rule="evenodd"/><path fill="#000000" fill-opacity="0.0" d="m957.82416 447.1496l0 330.04724" fill-rule="evenodd"/><path stroke="#000000" stroke-width="1.0" stroke-linejoin="round" stroke-linecap="butt" d="m957.82416 447.1496l0 330.04724" fill-rule="evenodd"/><path fill="#000000" fill-opacity="0.0" d="m649.874 447.1496l0 330.04724" fill-rule="evenodd"/><path stroke="#000000" stroke-width="1.0" stroke-linejoin="round" stroke-linecap="butt" d="m649.874 447.1496l0 330.04724" fill-rule="evenodd"/><path fill="#000000" fill-opacity="0.0" d="m601.55646 568.126l405.22833 0" fill-rule="evenodd"/><path stroke="#000000" stroke-width="1.0" stroke-linejoin="round" stroke-linecap="butt" d="m601.55646 568.126l405.22833 0" fill-rule="evenodd"/><path fill="#000000" fill-opacity="0.0" d="m601.55646 733.10236l405.22833 0" fill-rule="evenodd"/><path stroke="#000000" stroke-width="1.0" stroke-linejoin="round" stroke-linecap="butt" d="m601.55646 733.10236l405.22833 0" fill-rule="evenodd"/><path fill="#000000" fill-opacity="0.0" d="m601.55646 654.09186l405.22833 0" fill-rule="evenodd"/><path stroke="#000000" stroke-width="1.0" stroke-linejoin="round" stroke-linecap="butt" d="m601.55646 654.09186l405.22833 0" fill-rule="evenodd"/><path fill="#000000" fill-opacity="0.0" d="m601.55646 482.1601l405.22833 0" fill-rule="evenodd"/><path stroke="#000000" stroke-width="1.0" stroke-linejoin="round" stroke-linecap="butt" d="m601.55646 482.1601l405.22833 0" fill-rule="evenodd"/><path fill="#d56b5c" d="m81.55643 447.1496l405.22836 0l0 330.04724l-405.22836 0z" fill-rule="evenodd"/><path stroke="#000000" stroke-width="1.0" stroke-linejoin="round" stroke-linecap="butt" d="m81.55643 447.1496l405.22836 0l0 330.04724l-405.22836 0z" fill-rule="evenodd"/><path fill="#000000" fill-opacity="0.0" d="m284.1706 447.1496l0 330.04724" fill-rule="evenodd"/><path stroke="#000000" stroke-width="1.0" stroke-linejoin="round" stroke-linecap="butt" d="m284.1706 447.1496l0 330.04724" fill-rule="evenodd"/><path fill="#000000" fill-opacity="0.0" d="m390.6483 447.1496l0 330.04724" fill-rule="evenodd"/><path stroke="#000000" stroke-width="1.0" stroke-linejoin="round" stroke-linecap="butt" d="m390.6483 447.1496l0 330.04724" fill-rule="evenodd"/><path fill="#000000" fill-opacity="0.0" d="m177.69292 447.1496l0 330.04724" fill-rule="evenodd"/><path stroke="#000000" stroke-width="1.0" stroke-linejoin="round" stroke-linecap="butt" d="m177.69292 447.1496l0 330.04724" fill-rule="evenodd"/><path fill="#000000" fill-opacity="0.0" d="m81.55643 612.1732l405.22836 0" fill-rule="evenodd"/><path stroke="#000000" stroke-width="1.0" stroke-linejoin="round" stroke-linecap="butt" d="m81.55643 612.1732l405.22836 0" fill-rule="evenodd"/><path fill="#000000" fill-opacity="0.0" d="m81.55643 695.7113l405.22836 0" fill-rule="evenodd"/><path stroke="#000000" stroke-width="1.0" stroke-linejoin="round" stroke-linecap="butt" d="m81.55643 695.7113l405.22836 0" fill-rule="evenodd"/><path fill="#000000" fill-opacity="0.0" d="m81.55643 528.6352l405.22836 0" fill-rule="evenodd"/><path stroke="#000000" stroke-width="1.0" stroke-linejoin="round" stroke-linecap="butt" d="m81.55643 528.6352l405.22836 0" fill-rule="evenodd"/><path fill="#000000" fill-opacity="0.0" d="m234.04462 447.1496l0 330.04724" fill-rule="evenodd"/><path stroke="#000000" stroke-width="1.0" stroke-linejoin="round" stroke-linecap="butt" d="m234.04462 447.1496l0 330.04724" fill-rule="evenodd"/><path fill="#000000" fill-opacity="0.0" d="m338.2152 447.1496l0 330.04724" fill-rule="evenodd"/><path stroke="#000000" stroke-width="1.0" stroke-linejoin="round" stroke-linecap="butt" d="m338.2152 447.1496l0 330.04724" fill-rule="evenodd"/><path fill="#000000" fill-opacity="0.0" d="m437.82416 447.1496l0 330.04724" fill-rule="evenodd"/><path stroke="#000000" stroke-width="1.0" stroke-linejoin="round" stroke-linecap="butt" d="m437.82416 447.1496l0 330.04724" fill-rule="evenodd"/><path fill="#000000" fill-opacity="0.0" d="m129.87401 447.1496l0 330.04724" fill-rule="evenodd"/><path stroke="#000000" stroke-width="1.0" stroke-linejoin="round" stroke-linecap="butt" d="m129.87401 447.1496l0 330.04724" fill-rule="evenodd"/><path fill="#000000" fill-opacity="0.0" d="m81.55643 568.126l405.22836 0" fill-rule="evenodd"/><path stroke="#000000" stroke-width="1.0" stroke-linejoin="round" stroke-linecap="butt" d="m81.55643 568.126l405.22836 0" fill-rule="evenodd"/><path fill="#000000" fill-opacity="0.0" d="m81.55643 733.10236l405.22836 0" fill-rule="evenodd"/><path stroke="#000000" stroke-width="1.0" stroke-linejoin="round" stroke-linecap="butt" d="m81.55643 733.10236l405.22836 0" fill-rule="evenodd"/><path fill="#000000" fill-opacity="0.0" d="m81.55643 654.09186l405.22836 0" fill-rule="evenodd"/><path stroke="#000000" stroke-width="1.0" stroke-linejoin="round" stroke-linecap="butt" d="m81.55643 654.09186l405.22836 0" fill-rule="evenodd"/><path fill="#000000" fill-opacity="0.0" d="m81.55643 482.1601l405.22836 0" fill-rule="evenodd"/><path stroke="#000000" stroke-width="1.0" stroke-linejoin="round" stroke-linecap="butt" d="m81.55643 482.1601l405.22836 0" fill-rule="evenodd"/></g></svg>