<svg version="1.1" viewBox="0.0 0.0 113.08661417322834 655.6902887139107" fill="none" stroke="none" stroke-linecap="square" stroke-miterlimit="10" xmlns:xlink="http://www.w3.org/1999/xlink" xmlns="http://www.w3.org/2000/svg"><clipPath id="p.0"><path d="m0 0l113.08662 0l0 655.6903l-113.08662 0l0 -655.6903z" clip-rule="nonzero"/></clipPath><g clip-path="url(#p.0)"><path fill="#000000" fill-opacity="0.0" d="m0 0l113.08662 0l0 655.6903l-113.08662 0z" fill-rule="evenodd"/><path fill="#f3f3f3" d="m16.262466 13.099737l78.01575 0l0 628.34644l-78.01575 0z" fill-rule="evenodd"/><path stroke="#000000" stroke-width="1.0" stroke-linejoin="round" stroke-linecap="butt" d="m16.262466 13.099737l78.01575 0l0 628.34644l-78.01575 0z" fill-rule="evenodd"/><path fill="#fe6d7e" d="m15.84252 13.556431l78.01575 0l0 69.76378l-78.01575 0z" fill-rule="evenodd"/><path stroke="#000000" stroke-width="1.0" stroke-linejoin="round" stroke-linecap="butt" d="m15.84252 13.556431l78.01575 0l0 69.76378l-78.01575 0z" fill-rule="evenodd"/><path fill="#fe6d7e" fill-opacity="0.9077" d="m15.84252 83.32021l78.01575 0l0 69.76377l-78.01575 0z" fill-rule="evenodd"/><path stroke="#000000" stroke-width="1.0" stroke-linejoin="round" stroke-linecap="butt" d="m15.84252 83.32021l78.01575 0l0 69.76377l-78.01575 0z" fill-rule="evenodd"/><path fill="#fe6d7e" fill-opacity="0.8462" d="m15.84252 153.08398l78.01575 0l0 69.76378l-78.01575 0z" fill-rule="evenodd"/><path stroke="#000000" stroke-width="1.0" stroke-linejoin="round" stroke-linecap="butt" d="m15.84252 153.08398l78.01575 0l0 69.76378l-78.01575 0z" fill-rule="evenodd"/><path fill="#fe6d7e" fill-opacity="0.7385" d="m15.84252 222.84776l78.01575 0l0 69.76378l-78.01575 0z" fill-rule="evenodd"/><path stroke="#000000" stroke-width="1.0" stroke-linejoin="round" stroke-linecap="butt" d="m15.84252 222.84776l78.01575 0l0 69.76378l-78.01575 0z" fill-rule="evenodd"/><path fill="#fe6d7e" fill-opacity="0.5" d="m15.84252 292.61154l78.01575 0l0 69.763794l-78.01575 0z" fill-rule="evenodd"/><path stroke="#000000" stroke-width="1.0" stroke-linejoin="round" stroke-linecap="butt" d="m15.84252 292.61154l78.01575 0l0 69.763794l-78.01575 0z" fill-rule="evenodd"/><path fill="#fe6d7e" fill-opacity="0.3923" d="m15.84252 362.37534l78.01575 0l0 69.76376l-78.01575 0z" fill-rule="evenodd"/><path stroke="#000000" stroke-width="1.0" stroke-linejoin="round" stroke-linecap="butt" d="m15.84252 362.37534l78.01575 0l0 69.76376l-78.01575 0z" fill-rule="evenodd"/><path fill="#fe6d7e" fill-opacity="0.2462" d="m15.84252 432.1391l78.01575 0l0 69.763794l-78.01575 0z" fill-rule="evenodd"/><path stroke="#000000" stroke-width="1.0" stroke-linejoin="round" stroke-linecap="butt" d="m15.84252 432.1391l78.01575 0l0 69.763794l-78.01575 0z" fill-rule="evenodd"/><path fill="#fe6d7e" fill-opacity="0.1923" d="m15.84252 501.9029l78.01575 0l0 69.763794l-78.01575 0z" fill-rule="evenodd"/><path stroke="#000000" stroke-width="1.0" stroke-linejoin="round" stroke-linecap="butt" d="m15.84252 501.9029l78.01575 0l0 69.763794l-78.01575 0z" fill-rule="evenodd"/><path fill="#fe6d7e" fill-opacity="0.0769" d="m15.84252 571.6667l78.01575 0l0 69.76373l-78.01575 0z" fill-rule="evenodd"/><path stroke="#000000" stroke-width="1.0" stroke-linejoin="round" stroke-linecap="butt" d="m15.84252 571.6667l78.01575 0l0 69.76373l-78.01575 0z" fill-rule="evenodd"/></g></svg>