<svg version="1.1" viewBox="0.0 0.0 858.6509186351706 674.6561679790026" fill="none" stroke="none" stroke-linecap="square" stroke-miterlimit="10" xmlns:xlink="http://www.w3.org/1999/xlink" xmlns="http://www.w3.org/2000/svg"><clipPath id="p.0"><path d="m0 0l858.65094 0l0 674.6562l-858.65094 0l0 -674.6562z" clip-rule="nonzero"/></clipPath><g clip-path="url(#p.0)"><path fill="#000000" fill-opacity="0.0" d="m0 0l858.65094 0l0 674.6562l-858.65094 0z" fill-rule="evenodd"/><path fill="#fa4c67" d="m149.0971 107.67716l0 0c0 -10.202042 8.270401 -18.472435 18.472443 -18.472435l0 0c4.8992004 0 9.597733 1.9461975 13.061996 5.410446c3.4642487 3.4642563 5.410446 8.162796 5.410446 13.061989l0 0c0 10.202049 -8.270386 18.472443 -18.472443 18.472443l0 0c-10.202042 0 -18.472443 -8.270393 -18.472443 -18.472443z" fill-rule="evenodd"/><path stroke="#000000" stroke-width="1.0" stroke-linejoin="round" stroke-linecap="butt" d="m149.0971 107.67716l0 0c0 -10.202042 8.270401 -18.472435 18.472443 -18.472435l0 0c4.8992004 0 9.597733 1.9461975 13.061996 5.410446c3.4642487 3.4642563 5.410446 8.162796 5.410446 13.061989l0 0c0 10.202049 -8.270386 18.472443 -18.472443 18.472443l0 0c-10.202042 0 -18.472443 -8.270393 -18.472443 -18.472443z" fill-rule="evenodd"/><path fill="#000000" fill-opacity="0.0" d="m166.93701 70.08924l0 -25.480316" fill-rule="evenodd"/><path stroke="#fa4c67" stroke-width="2.0" stroke-linejoin="round" stroke-linecap="butt" d="m166.93701 70.08924l0 -25.480316" fill-rule="evenodd"/><path fill="#000000" fill-opacity="0.0" d="m197.52231 79.00787l20.37796 -21.669292" fill-rule="evenodd"/><path stroke="#fa4c67" stroke-width="2.0" stroke-linejoin="round" stroke-linecap="butt" d="m197.52231 79.00787l20.37796 -21.669292" fill-rule="evenodd"/><path fill="#000000" fill-opacity="0.0" d="m206.44357 107.67716l31.874008 0" fill-rule="evenodd"/><path stroke="#fa4c67" stroke-width="2.0" stroke-linejoin="round" stroke-linecap="butt" d="m206.44357 107.67716l31.874008 0" fill-rule="evenodd"/><path fill="#000000" fill-opacity="0.0" d="m97.55905 107.67716l31.874023 0" fill-rule="evenodd"/><path stroke="#fa4c67" stroke-width="2.0" stroke-linejoin="round" stroke-linecap="butt" d="m97.55905 107.67716l31.874023 0" fill-rule="evenodd"/><path fill="#000000" fill-opacity="0.0" d="m121.76903 163.82152l20.37796 -21.669281" fill-rule="evenodd"/><path stroke="#fa4c67" stroke-width="2.0" stroke-linejoin="round" stroke-linecap="butt" d="m121.76903 163.82152l20.37796 -21.669281" fill-rule="evenodd"/><path fill="#000000" fill-opacity="0.0" d="m166.93701 175.29134l0 -25.480316" fill-rule="evenodd"/><path stroke="#fa4c67" stroke-width="2.0" stroke-linejoin="round" stroke-linecap="butt" d="m166.93701 175.29134l0 -25.480316" fill-rule="evenodd"/><path fill="#000000" fill-opacity="0.0" d="m198.79527 140.17586l21.669296 22.929123" fill-rule="evenodd"/><path stroke="#fa4c67" stroke-width="2.0" stroke-linejoin="round" stroke-linecap="butt" d="m198.79527 140.17586l21.669296 22.929123" fill-rule="evenodd"/><path fill="#000000" fill-opacity="0.0" d="m121.12336 56.70866l21.669289 22.929134" fill-rule="evenodd"/><path stroke="#fa4c67" stroke-width="2.0" stroke-linejoin="round" stroke-linecap="butt" d="m121.12336 56.70866l21.669289 22.929134" fill-rule="evenodd"/><path fill="#000000" fill-opacity="0.0" d="m264.0 84.10499l192.0 0l0 42.04724l-192.0 0z" fill-rule="evenodd"/><path fill="#000000" d="m276.07812 116.26999q-0.46875 0 -0.734375 -0.28125q-0.25 -0.28125 -0.25 -0.734375l0 -15.0625q0 -0.4375 0.265625 -0.703125q0.28125 -0.265625 0.734375 -0.265625l8.734375 0q0.4375 0 0.671875 0.21875q0.25 0.21875 0.25 0.625q0 0.375 -0.25 0.59375q-0.234375 0.21875 -0.671875 0.21875l-7.796875 0l0 5.828125l7.328125 0q0.421875 0 0.65625 0.21875q0.25 0.21875 0.25 0.625q0 0.390625 -0.25 0.609375q-0.234375 0.203125 -0.65625 0.203125l-7.328125 0l0 6.890625q0 0.453125 -0.25 0.734375q-0.25 0.28125 -0.703125 0.28125zm16.930481 0.046875q-1.65625 0 -2.921875 -0.734375q-1.25 -0.75 -1.9375 -2.125q-0.671875 -1.390625 -0.671875 -3.21875q0 -1.828125 0.671875 -3.203125q0.6875 -1.375 1.9375 -2.109375q1.265625 -0.75 2.921875 -0.75q1.65625 0 2.921875 0.75q1.28125 0.734375 1.96875 2.109375q0.6875 1.375 0.6875 3.203125q0 1.828125 -0.6875 3.21875q-0.6875 1.375 -1.96875 2.125q-1.265625 0.734375 -2.921875 0.734375zm0 -1.609375q1.734375 0 2.65625 -1.140625q0.921875 -1.140625 0.921875 -3.328125q0 -2.140625 -0.9375 -3.296875q-0.921875 -1.171875 -2.640625 -1.171875q-1.703125 0 -2.640625 1.171875q-0.921875 1.15625 -0.921875 3.296875q0 2.15625 0.921875 3.3125q0.921875 1.15625 2.640625 1.15625zm14.257446 -10.484375q1.015625 -0.078125 1.015625 0.8125q0 0.375 -0.21875 0.609375q-0.21875 0.234375 -0.75 0.28125l-0.71875 0.0625q-1.609375 0.140625 -2.390625 1.140625q-0.765625 1.0 -0.765625 2.34375l0 5.828125q0 0.484375 -0.265625 0.734375q-0.265625 0.234375 -0.703125 0.234375q-0.421875 0 -0.703125 -0.25q-0.28125 -0.265625 -0.28125 -0.71875l0 -10.125q0 -0.453125 0.28125 -0.703125q0.296875 -0.25 0.703125 -0.25q0.390625 0 0.65625 0.25q0.265625 0.25 0.265625 0.6875l0 1.34375q0.5 -1.0625 1.421875 -1.609375q0.921875 -0.5625 2.125 -0.65625l0.328125 -0.015625zm18.67511 0.625q0.25 -0.578125 0.796875 -0.578125q0.359375 0 0.640625 0.234375q0.296875 0.234375 0.296875 0.59375q0 0.171875 -0.078125 0.359375l-3.984375 10.09375q-0.140625 0.3125 -0.421875 0.5q-0.265625 0.171875 -0.609375 0.171875q-0.3125 0 -0.59375 -0.171875q-0.265625 -0.1875 -0.40625 -0.5l-3.3125 -8.4375l-3.296875 8.4375q-0.109375 0.3125 -0.40625 0.5q-0.28125 0.171875 -0.625 0.171875q-0.3125 0 -0.609375 -0.171875q-0.28125 -0.1875 -0.421875 -0.5l-3.984375 -10.0625q-0.0625 -0.1875 -0.0625 -0.328125q0 -0.390625 0.3125 -0.65625q0.328125 -0.265625 0.71875 -0.265625q0.5625 0 0.8125 0.578125l3.28125 8.859375l3.390625 -8.78125q0.140625 -0.3125 0.390625 -0.484375q0.25 -0.171875 0.546875 -0.171875q0.3125 0 0.5625 0.171875q0.25 0.171875 0.375 0.484375l3.375 8.75l3.3125 -8.796875zm9.004822 -0.671875q4.390625 0 4.390625 4.59375l0 6.53125q0 0.4375 -0.25 0.703125q-0.25 0.265625 -0.6875 0.265625q-0.4375 0 -0.703125 -0.265625q-0.25 -0.265625 -0.25 -0.703125l0 -1.140625q-0.46875 1.03125 -1.40625 1.59375q-0.921875 0.5625 -2.15625 0.5625q-1.125 0 -2.078125 -0.453125q-0.9375 -0.46875 -1.5 -1.28125q-0.546875 -0.8125 -0.546875 -1.796875q0 -1.328125 0.671875 -2.046875q0.671875 -0.734375 2.203125 -1.0625q1.546875 -0.328125 4.28125 -0.328125l0.53125 0l0 -0.78125q0 -1.453125 -0.59375 -2.125q-0.59375 -0.671875 -1.90625 -0.671875q-1.640625 0 -3.3125 0.890625q-0.65625 0.40625 -0.90625 0.40625q-0.296875 0 -0.484375 -0.203125q-0.1875 -0.21875 -0.1875 -0.5625q0 -0.328125 0.203125 -0.578125q0.203125 -0.265625 0.65625 -0.515625q0.84375 -0.484375 1.90625 -0.75q1.0625 -0.28125 2.125 -0.28125zm-0.796875 10.59375q1.4375 0 2.359375 -0.96875q0.9375 -0.96875 0.9375 -2.5l0 -0.703125l-0.4375 0q-2.109375 0 -3.21875 0.1875q-1.109375 0.171875 -1.578125 0.59375q-0.453125 0.421875 -0.453125 1.234375q0 0.9375 0.671875 1.546875q0.6875 0.609375 1.71875 0.609375zm14.516815 -10.546875q1.015625 -0.078125 1.015625 0.8125q0 0.375 -0.21875 0.609375q-0.21875 0.234375 -0.75 0.28125l-0.71875 0.0625q-1.609375 0.140625 -2.390625 1.140625q-0.765625 1.0 -0.765625 2.34375l0 5.828125q0 0.484375 -0.265625 0.734375q-0.265625 0.234375 -0.703125 0.234375q-0.421875 0 -0.703125 -0.25q-0.28125 -0.265625 -0.28125 -0.71875l0 -10.125q0 -0.453125 0.28125 -0.703125q0.296875 -0.25 0.703125 -0.25q0.390625 0 0.65625 0.25q0.265625 0.25 0.265625 0.6875l0 1.34375q0.5 -1.0625 1.421875 -1.609375q0.921875 -0.5625 2.125 -0.65625l0.328125 -0.015625zm12.081329 -5.125q0.453125 0 0.71875 0.265625q0.265625 0.265625 0.265625 0.671875l0 15.265625q0 0.4375 -0.265625 0.703125q-0.265625 0.265625 -0.71875 0.265625q-0.453125 0 -0.71875 -0.265625q-0.25 -0.265625 -0.25 -0.703125l0 -1.296875q-0.515625 1.109375 -1.546875 1.71875q-1.015625 0.59375 -2.390625 0.59375q-1.53125 0 -2.703125 -0.765625q-1.171875 -0.78125 -1.828125 -2.15625q-0.640625 -1.375 -0.640625 -3.203125q0 -1.796875 0.640625 -3.15625q0.65625 -1.375 1.828125 -2.109375q1.171875 -0.75 2.703125 -0.75q1.375 0 2.390625 0.59375q1.03125 0.59375 1.546875 1.703125l0 -6.4375q0 -0.421875 0.25 -0.671875q0.265625 -0.265625 0.71875 -0.265625zm-4.515625 15.609375q1.703125 0 2.625 -1.15625q0.921875 -1.171875 0.921875 -3.3125q0 -2.140625 -0.921875 -3.28125q-0.921875 -1.15625 -2.625 -1.15625q-1.703125 0 -2.65625 1.15625q-0.9375 1.140625 -0.9375 3.234375q0 2.140625 0.9375 3.328125q0.953125 1.1875 2.65625 1.1875zm20.972473 1.625q-1.796875 0 -3.4375 -0.53125q-1.640625 -0.546875 -2.625 -1.453125q-0.359375 -0.34375 -0.359375 -0.84375q0 -0.328125 0.1875 -0.578125q0.1875 -0.265625 0.453125 -0.265625q0.3125 0 0.671875 0.265625q2.234375 1.734375 5.09375 1.734375q2.0625 0 3.15625 -0.796875q1.109375 -0.796875 1.109375 -2.25q0 -0.84375 -0.53125 -1.359375q-0.515625 -0.515625 -1.390625 -0.828125q-0.859375 -0.3125 -2.328125 -0.65625q-1.96875 -0.453125 -3.234375 -0.953125q-1.25 -0.5 -2.03125 -1.4375q-0.78125 -0.9375 -0.78125 -2.453125q0 -1.4375 0.78125 -2.546875q0.78125 -1.125 2.1875 -1.734375q1.40625 -0.609375 3.203125 -0.609375q1.671875 0 3.125 0.515625q1.453125 0.515625 2.4375 1.46875q0.390625 0.390625 0.390625 0.84375q0 0.34375 -0.203125 0.59375q-0.1875 0.25 -0.453125 0.25q-0.265625 0 -0.6875 -0.265625q-1.171875 -0.953125 -2.1875 -1.34375q-1.0 -0.390625 -2.421875 -0.390625q-2.0 0 -3.109375 0.828125q-1.09375 0.828125 -1.09375 2.328125q0 1.265625 0.96875 1.90625q0.984375 0.625 3.0 1.109375q2.171875 0.53125 3.421875 0.984375q1.25 0.4375 2.078125 1.328125q0.828125 0.875 0.828125 2.375q0 1.40625 -0.78125 2.484375q-0.78125 1.078125 -2.203125 1.6875q-1.40625 0.59375 -3.234375 0.59375zm13.964172 -0.015625q-1.65625 0 -2.921875 -0.734375q-1.25 -0.75 -1.9375 -2.125q-0.671875 -1.390625 -0.671875 -3.21875q0 -1.828125 0.671875 -3.203125q0.6875 -1.375 1.9375 -2.109375q1.265625 -0.75 2.921875 -0.75q1.65625 0 2.921875 0.75q1.28125 0.734375 1.96875 2.109375q0.6875 1.375 0.6875 3.203125q0 1.828125 -0.6875 3.21875q-0.6875 1.375 -1.96875 2.125q-1.265625 0.734375 -2.921875 0.734375zm0 -1.609375q1.734375 0 2.65625 -1.140625q0.921875 -1.140625 0.921875 -3.328125q0 -2.140625 -0.9375 -3.296875q-0.921875 -1.171875 -2.640625 -1.171875q-1.703125 0 -2.640625 1.171875q-0.921875 1.15625 -0.921875 3.296875q0 2.15625 0.921875 3.3125q0.921875 1.15625 2.640625 1.15625zm17.366852 -10.484375q0.453125 0 0.703125 0.265625q0.25 0.25 0.25 0.6875l0 10.15625q0 0.40625 -0.25 0.671875q-0.25 0.265625 -0.703125 0.265625q-0.4375 0 -0.6875 -0.25q-0.25 -0.265625 -0.25 -0.671875l0 -1.1875q-0.5625 1.046875 -1.5625 1.609375q-0.984375 0.546875 -2.234375 0.546875q-2.09375 0 -3.15625 -1.15625q-1.046875 -1.171875 -1.046875 -3.453125l0 -6.53125q0 -0.4375 0.265625 -0.6875q0.265625 -0.265625 0.71875 -0.265625q0.453125 0 0.703125 0.265625q0.265625 0.25 0.265625 0.6875l0 6.484375q0 1.5625 0.609375 2.296875q0.625 0.71875 1.96875 0.71875q1.546875 0 2.484375 -0.984375q0.9375 -1.0 0.9375 -2.640625l0 -5.875q0 -0.4375 0.25 -0.6875q0.265625 -0.265625 0.734375 -0.265625zm10.354584 0q1.015625 -0.078125 1.015625 0.8125q0 0.375 -0.21875 0.609375q-0.21875 0.234375 -0.75 0.28125l-0.71875 0.0625q-1.609375 0.140625 -2.390625 1.140625q-0.765625 1.0 -0.765625 2.34375l0 5.828125q0 0.484375 -0.265625 0.734375q-0.265625 0.234375 -0.703125 0.234375q-0.421875 0 -0.703125 -0.25q-0.28125 -0.265625 -0.28125 -0.71875l0 -10.125q0 -0.453125 0.28125 -0.703125q0.296875 -0.25 0.703125 -0.25q0.390625 0 0.65625 0.25q0.265625 0.25 0.265625 0.6875l0 1.34375q0.5 -1.0625 1.421875 -1.609375q0.921875 -0.5625 2.125 -0.65625l0.328125 -0.015625zm7.51886 12.09375q-1.640625 0 -2.90625 -0.734375q-1.25 -0.75 -1.9375 -2.125q-0.671875 -1.375 -0.671875 -3.171875q0 -1.796875 0.703125 -3.1875q0.703125 -1.390625 1.96875 -2.15625q1.28125 -0.765625 2.9375 -0.765625q0.90625 0 1.8125 0.25q0.90625 0.25 1.578125 0.734375q0.421875 0.28125 0.59375 0.5625q0.1875 0.265625 0.1875 0.609375q0 0.328125 -0.1875 0.546875q-0.171875 0.21875 -0.453125 0.21875q-0.171875 0 -0.359375 -0.09375q-0.1875 -0.09375 -0.328125 -0.1875q-0.125 -0.109375 -0.171875 -0.125q-0.625 -0.40625 -1.203125 -0.640625q-0.5625 -0.25 -1.375 -0.25q-1.75 0 -2.71875 1.1875q-0.96875 1.1875 -0.96875 3.296875q0 2.109375 0.96875 3.265625q0.96875 1.15625 2.71875 1.15625q0.8125 0 1.40625 -0.234375q0.59375 -0.25 1.1875 -0.65625q0.265625 -0.171875 0.5 -0.28125q0.25 -0.125 0.40625 -0.125q0.265625 0 0.4375 0.21875q0.1875 0.21875 0.1875 0.546875q0 0.3125 -0.171875 0.5625q-0.15625 0.25 -0.609375 0.5625q-0.671875 0.453125 -1.625 0.734375q-0.953125 0.28125 -1.90625 0.28125zm15.714722 -2.890625q0.265625 0 0.453125 0.21875q0.203125 0.21875 0.203125 0.5625q0 0.59375 -0.84375 1.09375q-0.859375 0.5 -1.828125 0.765625q-0.953125 0.25 -1.875 0.25q-2.703125 0 -4.28125 -1.609375q-1.5625 -1.609375 -1.5625 -4.4375q0 -1.8125 0.6875 -3.1875q0.703125 -1.375 1.953125 -2.140625q1.265625 -0.765625 2.875 -0.765625q2.28125 0 3.625 1.484375q1.34375 1.484375 1.34375 4.03125q0 0.484375 -0.203125 0.703125q-0.1875 0.203125 -0.609375 0.203125l-7.734375 0q0.21875 4.125 3.90625 4.125q0.9375 0 1.609375 -0.25q0.671875 -0.25 1.453125 -0.6875q0.609375 -0.359375 0.828125 -0.359375zm-4.203125 -7.75q-1.53125 0 -2.453125 0.96875q-0.921875 0.953125 -1.09375 2.703125l6.796875 0q-0.046875 -1.765625 -0.890625 -2.71875q-0.84375 -0.953125 -2.359375 -0.953125z" fill-rule="nonzero"/><path fill="#f19167" d="m721.2756 545.4147l70.078735 0l0 64.97638l-70.078735 0z" fill-rule="evenodd"/><path stroke="#000000" stroke-width="1.0" stroke-linejoin="round" stroke-linecap="butt" d="m721.2756 545.4147l70.078735 0l0 64.97638l-70.078735 0z" fill-rule="evenodd"/><path fill="#000000" fill-opacity="0.0" d="m496.0 552.3438l214.2992 0l0 42.04724l-214.2992 0z" fill-rule="evenodd"/><path fill="#000000" d="m508.09375 584.38385q-0.453125 0 -0.734375 -0.265625q-0.265625 -0.265625 -0.265625 -0.6875l0 -15.0q0 -0.4375 0.265625 -0.703125q0.28125 -0.265625 0.734375 -0.265625l4.6875 0q4.046875 0 6.265625 2.203125q2.21875 2.1875 2.21875 6.25q0 4.046875 -2.234375 6.265625q-2.21875 2.203125 -6.25 2.203125l-4.6875 0zm4.5625 -1.6875q6.578125 0 6.578125 -6.78125q0 -6.765625 -6.578125 -6.765625l-3.59375 0l0 13.546875l3.59375 0zm20.923462 -1.03125q0.265625 0 0.453125 0.21875q0.203125 0.21875 0.203125 0.5625q0 0.59375 -0.84375 1.09375q-0.859375 0.5 -1.828125 0.765625q-0.953125 0.25 -1.875 0.25q-2.703125 0 -4.28125 -1.609375q-1.5625 -1.609375 -1.5625 -4.4375q0 -1.8125 0.6875 -3.1875q0.703125 -1.375 1.953125 -2.140625q1.265625 -0.765625 2.875 -0.765625q2.28125 0 3.625 1.484375q1.34375 1.484375 1.34375 4.03125q0 0.484375 -0.203125 0.703125q-0.1875 0.203125 -0.609375 0.203125l-7.734375 0q0.21875 4.125 3.90625 4.125q0.9375 0 1.609375 -0.25q0.671875 -0.25 1.453125 -0.6875q0.609375 -0.359375 0.828125 -0.359375zm-4.203125 -7.75q-1.53125 0 -2.453125 0.96875q-0.921875 0.953125 -1.09375 2.703125l6.796875 0q-0.046875 -1.765625 -0.890625 -2.71875q-0.84375 -0.953125 -2.359375 -0.953125zm13.210449 9.046875q0.84375 0.078125 0.84375 0.78125q0 0.40625 -0.3125 0.609375q-0.296875 0.203125 -0.890625 0.15625l-0.65625 -0.046875q-1.921875 -0.15625 -2.828125 -1.15625q-0.90625 -1.015625 -0.90625 -3.046875l0 -6.03125l-1.609375 0q-0.40625 0 -0.640625 -0.203125q-0.234375 -0.203125 -0.234375 -0.53125q0 -0.359375 0.234375 -0.578125q0.234375 -0.21875 0.640625 -0.21875l1.609375 0l0 -2.71875q0 -0.453125 0.25 -0.703125q0.265625 -0.25 0.734375 -0.25q0.421875 0 0.6875 0.25q0.265625 0.25 0.265625 0.703125l0 2.71875l2.671875 0q0.375 0 0.59375 0.21875q0.234375 0.21875 0.234375 0.578125q0 0.328125 -0.234375 0.53125q-0.21875 0.203125 -0.59375 0.203125l-2.671875 0l0 6.125q0 1.3125 0.53125 1.90625q0.546875 0.59375 1.625 0.65625l0.65625 0.046875zm11.800598 -1.296875q0.265625 0 0.453125 0.21875q0.203125 0.21875 0.203125 0.5625q0 0.59375 -0.84375 1.09375q-0.859375 0.5 -1.828125 0.765625q-0.953125 0.25 -1.875 0.25q-2.703125 0 -4.28125 -1.609375q-1.5625 -1.609375 -1.5625 -4.4375q0 -1.8125 0.6875 -3.1875q0.703125 -1.375 1.953125 -2.140625q1.265625 -0.765625 2.875 -0.765625q2.28125 0 3.625 1.484375q1.34375 1.484375 1.34375 4.03125q0 0.484375 -0.203125 0.703125q-0.1875 0.203125 -0.609375 0.203125l-7.734375 0q0.21875 4.125 3.90625 4.125q0.9375 0 1.609375 -0.25q0.671875 -0.25 1.453125 -0.6875q0.609375 -0.359375 0.828125 -0.359375zm-4.203125 -7.75q-1.53125 0 -2.453125 0.96875q-0.921875 0.953125 -1.09375 2.703125l6.796875 0q-0.046875 -1.765625 -0.890625 -2.71875q-0.84375 -0.953125 -2.359375 -0.953125zm12.632324 10.640625q-1.640625 0 -2.90625 -0.734375q-1.25 -0.75 -1.9375 -2.125q-0.671875 -1.375 -0.671875 -3.171875q0 -1.796875 0.703125 -3.1875q0.703125 -1.390625 1.96875 -2.15625q1.28125 -0.765625 2.9375 -0.765625q0.90625 0 1.8125 0.25q0.90625 0.25 1.578125 0.734375q0.421875 0.28125 0.59375 0.5625q0.1875 0.265625 0.1875 0.609375q0 0.328125 -0.1875 0.546875q-0.171875 0.21875 -0.453125 0.21875q-0.171875 0 -0.359375 -0.09375q-0.1875 -0.09375 -0.328125 -0.1875q-0.125 -0.109375 -0.171875 -0.125q-0.625 -0.40625 -1.203125 -0.640625q-0.5625 -0.25 -1.375 -0.25q-1.75 0 -2.71875 1.1875q-0.96875 1.1875 -0.96875 3.296875q0 2.109375 0.96875 3.265625q0.96875 1.15625 2.71875 1.15625q0.8125 0 1.40625 -0.234375q0.59375 -0.25 1.1875 -0.65625q0.265625 -0.171875 0.5 -0.28125q0.25 -0.125 0.40625 -0.125q0.265625 0 0.4375 0.21875q0.1875 0.21875 0.1875 0.546875q0 0.3125 -0.171875 0.5625q-0.15625 0.25 -0.609375 0.5625q-0.671875 0.453125 -1.625 0.734375q-0.953125 0.28125 -1.90625 0.28125zm12.074097 -1.59375q0.84375 0.078125 0.84375 0.78125q0 0.40625 -0.3125 0.609375q-0.296875 0.203125 -0.890625 0.15625l-0.65625 -0.046875q-1.921875 -0.15625 -2.828125 -1.15625q-0.90625 -1.015625 -0.90625 -3.046875l0 -6.03125l-1.609375 0q-0.40625 0 -0.640625 -0.203125q-0.234375 -0.203125 -0.234375 -0.53125q0 -0.359375 0.234375 -0.578125q0.234375 -0.21875 0.640625 -0.21875l1.609375 0l0 -2.71875q0 -0.453125 0.25 -0.703125q0.265625 -0.25 0.734375 -0.25q0.421875 0 0.6875 0.25q0.265625 0.25 0.265625 0.703125l0 2.71875l2.671875 0q0.375 0 0.59375 0.21875q0.234375 0.21875 0.234375 0.578125q0 0.328125 -0.234375 0.53125q-0.21875 0.203125 -0.59375 0.203125l-2.671875 0l0 6.125q0 1.3125 0.53125 1.90625q0.546875 0.59375 1.625 0.65625l0.65625 0.046875zm7.597473 1.59375q-1.65625 0 -2.921875 -0.734375q-1.25 -0.75 -1.9375 -2.125q-0.671875 -1.390625 -0.671875 -3.21875q0 -1.828125 0.671875 -3.203125q0.6875 -1.375 1.9375 -2.109375q1.265625 -0.75 2.921875 -0.75q1.65625 0 2.921875 0.75q1.28125 0.734375 1.96875 2.109375q0.6875 1.375 0.6875 3.203125q0 1.828125 -0.6875 3.21875q-0.6875 1.375 -1.96875 2.125q-1.265625 0.734375 -2.921875 0.734375zm0 -1.609375q1.734375 0 2.65625 -1.140625q0.921875 -1.140625 0.921875 -3.328125q0 -2.140625 -0.9375 -3.296875q-0.921875 -1.171875 -2.640625 -1.171875q-1.703125 0 -2.640625 1.171875q-0.921875 1.15625 -0.921875 3.296875q0 2.15625 0.921875 3.3125q0.921875 1.15625 2.640625 1.15625zm14.257446 -10.484375q1.015625 -0.078125 1.015625 0.8125q0 0.375 -0.21875 0.609375q-0.21875 0.234375 -0.75 0.28125l-0.71875 0.0625q-1.609375 0.140625 -2.390625 1.140625q-0.765625 1.0 -0.765625 2.34375l0 5.828125q0 0.484375 -0.265625 0.734375q-0.265625 0.234375 -0.703125 0.234375q-0.421875 0 -0.703125 -0.25q-0.28125 -0.265625 -0.28125 -0.71875l0 -10.125q0 -0.453125 0.28125 -0.703125q0.296875 -0.25 0.703125 -0.25q0.390625 0 0.65625 0.25q0.265625 0.25 0.265625 0.6875l0 1.34375q0.5 -1.0625 1.421875 -1.609375q0.921875 -0.5625 2.125 -0.65625l0.328125 -0.015625zm22.085876 10.703125q0.171875 0.265625 0.171875 0.546875q0 0.359375 -0.28125 0.59375q-0.28125 0.21875 -0.640625 0.21875q-0.546875 0 -0.859375 -0.484375l-3.21875 -5.078125q-0.625 -0.984375 -1.296875 -1.359375q-0.671875 -0.375 -1.8125 -0.375l-3.03125 0l0 6.265625q0 0.453125 -0.265625 0.734375q-0.265625 0.28125 -0.6875 0.28125q-0.46875 0 -0.734375 -0.28125q-0.25 -0.28125 -0.25 -0.734375l0 -15.0625q0 -0.4375 0.265625 -0.703125q0.28125 -0.265625 0.734375 -0.265625l5.953125 0q2.765625 0 4.21875 1.234375q1.453125 1.21875 1.453125 3.59375q0 2.015625 -1.171875 3.25q-1.15625 1.21875 -3.328125 1.46875q0.609375 0.203125 1.078125 0.640625q0.484375 0.421875 0.96875 1.1875l2.734375 4.328125zm-6.125 -7.5625q1.96875 0 2.9375 -0.8125q0.984375 -0.828125 0.984375 -2.484375q0 -1.625 -0.96875 -2.40625q-0.953125 -0.796875 -2.953125 -0.796875l-4.84375 0l0 6.5l4.84375 0zm18.432678 6.0625q0.265625 0 0.453125 0.21875q0.203125 0.21875 0.203125 0.5625q0 0.59375 -0.84375 1.09375q-0.859375 0.5 -1.828125 0.765625q-0.953125 0.25 -1.875 0.25q-2.703125 0 -4.28125 -1.609375q-1.5625 -1.609375 -1.5625 -4.4375q0 -1.8125 0.6875 -3.1875q0.703125 -1.375 1.953125 -2.140625q1.265625 -0.765625 2.875 -0.765625q2.28125 0 3.625 1.484375q1.34375 1.484375 1.34375 4.03125q0 0.484375 -0.203125 0.703125q-0.1875 0.203125 -0.609375 0.203125l-7.734375 0q0.21875 4.125 3.90625 4.125q0.9375 0 1.609375 -0.25q0.671875 -0.25 1.453125 -0.6875q0.609375 -0.359375 0.828125 -0.359375zm-4.203125 -7.75q-1.53125 0 -2.453125 0.96875q-0.921875 0.953125 -1.09375 2.703125l6.796875 0q-0.046875 -1.765625 -0.890625 -2.71875q-0.84375 -0.953125 -2.359375 -0.953125zm17.288574 -1.453125q0.453125 0 0.71875 0.265625q0.265625 0.25 0.265625 0.6875l0 10.171875q0 2.625 -1.34375 3.953125q-1.34375 1.328125 -3.984375 1.328125q-2.5625 0 -4.28125 -1.0q-0.859375 -0.484375 -0.859375 -1.109375q0 -0.328125 0.171875 -0.546875q0.1875 -0.21875 0.484375 -0.21875q0.234375 0 0.859375 0.328125q0.84375 0.4375 1.65625 0.703125q0.8125 0.265625 1.9375 0.265625q1.703125 0 2.5625 -0.90625q0.875 -0.890625 0.875 -2.625l0 -2.0625q-0.5 1.125 -1.546875 1.734375q-1.046875 0.59375 -2.453125 0.59375q-1.546875 0 -2.734375 -0.71875q-1.1875 -0.71875 -1.84375 -2.03125q-0.65625 -1.328125 -0.65625 -3.0625q0 -1.71875 0.65625 -3.03125q0.65625 -1.328125 1.84375 -2.046875q1.1875 -0.71875 2.734375 -0.71875q1.390625 0 2.421875 0.59375q1.03125 0.59375 1.546875 1.703125l0 -1.296875q0 -0.4375 0.25 -0.6875q0.265625 -0.265625 0.71875 -0.265625zm-4.5625 9.953125q1.6875 0 2.640625 -1.109375q0.953125 -1.125 0.953125 -3.09375q0 -1.9375 -0.953125 -3.046875q-0.9375 -1.125 -2.640625 -1.125q-1.703125 0 -2.671875 1.125q-0.96875 1.109375 -0.96875 3.046875q0 1.96875 0.96875 3.09375q0.96875 1.109375 2.671875 1.109375zm10.126465 2.09375q-0.421875 0 -0.703125 -0.25q-0.28125 -0.265625 -0.28125 -0.71875l0 -10.125q0 -0.453125 0.28125 -0.703125q0.28125 -0.25 0.703125 -0.25q0.4375 0 0.703125 0.25q0.265625 0.25 0.265625 0.703125l0 10.125q0 0.484375 -0.265625 0.734375q-0.265625 0.234375 -0.703125 0.234375zm0.015625 -14.578125q-0.578125 0 -0.9375 -0.328125q-0.359375 -0.34375 -0.359375 -0.890625q0 -0.53125 0.359375 -0.859375q0.359375 -0.34375 0.9375 -0.34375q0.5625 0 0.921875 0.34375q0.375 0.328125 0.375 0.859375q0 0.546875 -0.375 0.890625q-0.359375 0.328125 -0.921875 0.328125zm9.411743 14.625q-1.65625 0 -2.921875 -0.734375q-1.25 -0.75 -1.9375 -2.125q-0.671875 -1.390625 -0.671875 -3.21875q0 -1.828125 0.671875 -3.203125q0.6875 -1.375 1.9375 -2.109375q1.265625 -0.75 2.921875 -0.75q1.65625 0 2.921875 0.75q1.28125 0.734375 1.96875 2.109375q0.6875 1.375 0.6875 3.203125q0 1.828125 -0.6875 3.21875q-0.6875 1.375 -1.96875 2.125q-1.265625 0.734375 -2.921875 0.734375zm0 -1.609375q1.734375 0 2.65625 -1.140625q0.921875 -1.140625 0.921875 -3.328125q0 -2.140625 -0.9375 -3.296875q-0.921875 -1.171875 -2.640625 -1.171875q-1.703125 0 -2.640625 1.171875q-0.921875 1.15625 -0.921875 3.296875q0 2.15625 0.921875 3.3125q0.921875 1.15625 2.640625 1.15625zm14.366821 -10.53125q4.1875 0 4.1875 4.625l0 6.5q0 0.453125 -0.25 0.71875q-0.25 0.25 -0.703125 0.25q-0.453125 0 -0.71875 -0.25q-0.265625 -0.265625 -0.265625 -0.71875l0 -6.375q0 -1.640625 -0.640625 -2.375q-0.640625 -0.75 -2.03125 -0.75q-1.609375 0 -2.5625 0.984375q-0.953125 0.984375 -0.953125 2.65625l0 5.859375q0 0.453125 -0.265625 0.71875q-0.25 0.25 -0.703125 0.25q-0.453125 0 -0.71875 -0.25q-0.265625 -0.265625 -0.265625 -0.71875l0 -10.125q0 -0.4375 0.265625 -0.6875q0.265625 -0.265625 0.71875 -0.265625q0.4375 0 0.6875 0.265625q0.25 0.25 0.25 0.671875l0 1.21875q0.578125 -1.078125 1.609375 -1.640625q1.03125 -0.5625 2.359375 -0.5625z" fill-rule="nonzero"/><path fill="#e6ab9d" d="m612.707 444.49725l-25.925232 3.2807312l5.661377 -7.299225l-288.95663 -223.95789l11.322845 -14.598434l288.95667 223.9579l5.661377 -7.299225z" fill-rule="evenodd"/><path stroke="#000000" stroke-width="1.0" stroke-linejoin="round" stroke-linecap="butt" d="m612.707 444.49725l-25.925232 3.2807312l5.661377 -7.299225l-288.95663 -223.95789l11.322845 -14.598434l288.95667 223.9579l5.661377 -7.299225z" fill-rule="evenodd"/><path fill="#e6ab9d" d="m725.60657 107.59802l-17.181091 17.192886l0 -8.590553l-212.4252 0.14569855l0 -17.181107l212.4252 -0.14569092l0 -8.590553z" fill-rule="evenodd"/><path stroke="#000000" stroke-width="1.0" stroke-linejoin="round" stroke-linecap="butt" d="m725.60657 107.59802l-17.181091 17.192886l0 -8.590553l-212.4252 0.14569855l0 -17.181107l212.4252 -0.14569092l0 -8.590553z" fill-rule="evenodd"/><path fill="#e6ab9d" d="m167.64857 474.80273l-17.192886 -17.181091l8.590561 0l-0.14570618 -212.4252l17.181107 0l0.14569092 212.4252l8.590561 0z" fill-rule="evenodd"/><path stroke="#000000" stroke-width="1.0" stroke-linejoin="round" stroke-linecap="butt" d="m167.64857 474.80273l-17.192886 -17.181091l8.590561 0l-0.14570618 -212.4252l17.181107 0l0.14569092 212.4252l8.590561 0z" fill-rule="evenodd"/><path fill="#000000" fill-opacity="0.0" d="m343.61426 148.17584l310.6142 244.18896l-25.984253 33.039368l-310.6142 -244.18896z" fill-rule="evenodd"/><path fill="#000000" d="m333.31512 180.83466q-0.35620117 -0.28004456 -0.41311646 -0.6626587q-0.0446167 -0.37295532 0.21618652 -0.7045593l9.272766 -11.790497q0.2704773 -0.34388733 0.64349365 -0.38850403q0.38531494 -0.034973145 0.74154663 0.24507141l3.685089 2.8970337q3.1814575 2.5010986 3.5637817 5.60408q0.3919983 3.0907135 -2.1193848 6.283966q-2.501709 3.1809692 -5.629883 3.5440674q-3.1062012 0.36047363 -6.2753906 -2.1309814l-3.685089 -2.8970184zm4.6300354 1.4933472q5.1713867 4.0654907 9.363464 -1.2647858q4.1824036 -5.3180084 -0.98898315 -9.383499l-2.8252563 -2.221054l-8.374481 10.64827l2.8252563 2.2210693zm8.990173 9.373169q-0.33163452 -0.2607422 -0.39819336 -0.631073q-0.056915283 -0.38261414 0.22320557 -0.7387848l6.2591248 -7.9585724q0.28012085 -0.35617065 0.6557617 -0.37886047q0.3756714 -0.02267456 0.7073059 0.23805237q0.34396362 0.27038574 0.39822388 0.63105774q0.05429077 0.360672 -0.22583008 0.71684265l-6.2591248 7.9585876q-0.29943848 0.38072205 -0.6628113 0.41307068q-0.35369873 0.020065308 -0.69766235 -0.25032043zm9.024292 -11.449219q-0.4544983 -0.3572998 -0.5341797 -0.83732605q-0.07003784 -0.49230957 0.2680359 -0.9221649q0.32843018 -0.41758728 0.81378174 -0.45339966q0.49502563 -0.048095703 0.9495239 0.30921936q0.4421997 0.347641 0.51223755 0.8399353q0.09194946 0.48968506 -0.2364502 0.9072571q-0.33807373 0.4298706 -0.84536743 0.4683075q-0.48538208 0.035812378 -0.9275818 -0.3118286zm6.571289 8.385803q0.8467102 0.5662842 0.29614258 1.2663422q-0.23181152 0.29475403 -0.54867554 0.34378052q-0.316864 0.049041748 -0.76345825 -0.2424469l-0.60369873 -0.39508057q-1.3521423 -0.8841095 -2.5845032 -0.58091736q-1.2200928 0.31285095 -2.0507812 1.3690796l-3.6028748 4.5811005q-0.29940796 0.38072205 -0.66278076 0.41307068q-0.35372925 0.020065308 -0.69766235 -0.25032043q-0.33166504 -0.2607422 -0.39822388 -0.631073q-0.056884766 -0.38261414 0.22323608 -0.7387848l6.2591248 -7.9585724q0.28012085 -0.35617065 0.6557617 -0.37886047q0.38793945 -0.013031006 0.7073059 0.23805237q0.3070984 0.24142456 0.36135864 0.60209656q0.05429077 0.360672 -0.216156 0.7045593l-0.8306885 1.0562286q1.0498962 -0.5261383 2.1127014 -0.386261q1.0724487 0.12760925 2.076233 0.79748535l0.26763916 0.19052124zm3.5382996 14.488174q0.20880127 0.16415405 0.22097778 0.4519806q0.024475098 0.29748535 -0.1880188 0.567688q-0.36706543 0.46670532 -1.3394775 0.33825684q-0.9846802 -0.1381073 -1.9104614 -0.52804565q-0.9038696 -0.3925476 -1.6286011 -0.96229553q-2.125061 -1.6706238 -2.370819 -3.9109802q-0.23345947 -2.2306976 1.5148315 -4.4536896q1.1204529 -1.4246826 2.5109558 -2.0805817q1.402771 -0.64624023 2.8587646 -0.47550964q1.4682617 0.18040466 2.7334595 1.1750488q1.7934265 1.4098816 1.93219 3.407135q0.13879395 1.9972382 -1.435669 3.999176q-0.29943848 0.38072205 -0.59432983 0.42713928q-0.27297974 0.043777466 -0.6046448 -0.21694946l-6.0803833 -4.7801056q-2.3780518 3.3775787 0.520874 5.6565704q0.73703 0.57940674 1.4197693 0.7981415q0.68273926 0.21873474 1.5673828 0.35768127q0.7012329 0.09413147 0.87319946 0.2293396zm1.4866333 -8.689423q-1.2037964 -0.94636536 -2.5274048 -0.75465393q-1.3139343 0.17944336 -2.5308838 1.4487762l5.343384 4.200699q1.0546265 -1.4168091 0.9805298 -2.6874695q-0.0741272 -1.2706451 -1.265625 -2.2073517zm3.3530579 16.171066q-1.2897644 -1.0139618 -1.83078 -2.3733978q-0.51904297 -1.3620605 -0.20953369 -2.867752q0.32183838 -1.4960327 1.4326172 -2.9084473q1.1108093 -1.4123993 2.5232239 -2.0709229q1.4124451 -0.6585083 2.8807068 -0.4781189q1.4805603 0.19004822 2.7826233 1.2136536q0.7124634 0.56010437 1.2703552 1.3166962q0.55792236 0.75660706 0.7866821 1.5525818q0.15777588 0.48179626 0.11904907 0.8090973q-0.016815186 0.3246765 -0.22930908 0.5948639q-0.20285034 0.2579193 -0.48547363 0.3139801q-0.27035522 0.065719604 -0.49145508 -0.10809326q-0.13513184 -0.10623169 -0.22457886 -0.29579163q-0.08944702 -0.1895752 -0.14202881 -0.35017395q-0.030670166 -0.16323853 -0.057861328 -0.20448303q-0.24020386 -0.7055969 -0.5498047 -1.2471313q-0.2876587 -0.5441437 -0.9264221 -1.0462952q-1.3757629 -1.0815582 -2.8714294 -0.7468567q-1.495697 0.33468628 -2.7996826 1.9927216q-1.3039856 1.6580353 -1.2571716 3.1656036q0.046813965 1.5075684 1.4225769 2.5891266q0.6387329 0.5021515 1.2503967 0.68489075q0.6213379 0.17044067 1.3392639 0.21807861q0.31506348 0.029067993 0.56692505 0.0879364q0.2738037 0.056259155 0.39663696 0.15283203q0.20883179 0.16415405 0.20874023 0.44232178q0.012176514 0.28782654 -0.19067383 0.54574585q-0.19317627 0.24563599 -0.48284912 0.33592224q-0.27737427 0.09994507 -0.8267822 0.0655365q-0.8083191 -0.05908203 -1.7315063 -0.427063q-0.92315674 -0.36799622 -1.6724548 -0.95706177zm10.477325 6.2094574q0.61502075 0.5828705 0.18035889 1.1355438q-0.25115967 0.31933594 -0.6223755 0.28585815q-0.35897827 -0.02381897 -0.79678345 -0.4276123l-0.48693848 -0.4424286q-1.4142761 -1.3106079 -1.5085449 -2.6567383q-0.08459473 -1.3583984 1.1710815 -2.9550323l3.728424 -4.740753l-1.2651978 -0.99464417q-0.31939697 -0.25108337 -0.37808228 -0.55558777q-0.058685303 -0.30451965 0.14416504 -0.56243896q0.22216797 -0.2824707 0.5416565 -0.3095703q0.31948853 -0.02708435 0.638855 0.22398376l1.2651978 0.99464417l1.6806946 -2.137024q0.28012085 -0.35617065 0.63119507 -0.39816284q0.3633728 -0.032348633 0.7319031 0.25735474q0.33163452 0.26072693 0.3859253 0.6213989q0.054260254 0.360672 -0.2258606 0.71684265l-1.6806641 2.1370392l2.1004944 1.6513062q0.2947998 0.23175049 0.33154297 0.53889465q0.049041748 0.31680298 -0.17312622 0.5992737q-0.20285034 0.2579193 -0.5126648 0.2727356q-0.2975464 0.024459839 -0.5923462 -0.20730591l-2.100525 -1.6513062l-3.786377 4.814453q-0.81137085 1.031662 -0.7607727 1.8267059q0.06289673 0.8046875 0.8718262 1.5201416l0.48693848 0.4424286zm1.9824524 3.5261536q-0.33166504 -0.26072693 -0.39822388 -0.63105774q-0.056884766 -0.38261414 0.22320557 -0.7387848l6.2591553 -7.9585724q0.28009033 -0.35617065 0.6557617 -0.37886047q0.37564087 -0.02268982 0.7073059 0.23805237q0.3439331 0.27038574 0.39822388 0.63105774q0.054260254 0.360672 -0.2258606 0.71684265l-6.2591248 7.9585724q-0.29943848 0.3807373 -0.6628113 0.41308594q-0.35369873 0.020050049 -0.69763184 -0.2503357zm9.024261 -11.449219q-0.4544983 -0.3572998 -0.5341797 -0.83732605q-0.070007324 -0.4922943 0.2680664 -0.9221649q0.32839966 -0.41757202 0.8137512 -0.4533844q0.49502563 -0.048095703 0.9495239 0.3092041q0.44223022 0.347641 0.51223755 0.83995056q0.09197998 0.4896698 -0.2364502 0.9072571q-0.33807373 0.42985535 -0.84536743 0.46829224q-0.48538208 0.035812378 -0.9275818 -0.3118286zm-1.6419067 17.312485q-1.302063 -1.0236206 -1.8430481 -2.3830566q-0.5190735 -1.3620758 -0.20953369 -2.8677673q0.33145142 -1.508316 1.4615784 -2.945282q1.130127 -1.436966 2.5083313 -2.1025085q1.3904724 -0.65589905 2.8271484 -0.4606018q1.4586182 0.19267273 2.7606812 1.2162933q1.302063 1.0236053 1.8334045 2.39534q0.5532837 1.3690948 0.2437439 2.8747864q-0.30950928 1.5056915 -1.4396362 2.9426575q-1.130127 1.436966 -2.5302734 2.105133q-1.3904724 0.65589905 -2.8613892 0.4535675q-1.4489441 -0.20495605 -2.751007 -1.2285614zm0.99490356 -1.2650299q1.3634644 1.0718994 2.793335 0.74508667q1.4298401 -0.326828 2.782135 -2.0462646q1.3233032 -1.6826019 1.3010559 -3.1708527q-3.0517578E-4 -1.4908905 -1.3515015 -2.553131q-1.3389282 -1.0525818 -2.8003845 -0.7108612q-1.4395142 0.33909607 -2.7628174 2.021698q-1.3329468 1.6948853 -1.322998 3.1734924q0.009979248 1.4785919 1.3611755 2.5408325zm17.80478 0.6012726q3.2920227 2.5880127 0.43289185 6.223419l-4.0181885 5.109207q-0.28012085 0.35617065 -0.64086914 0.41044617q-0.35107422 0.042007446 -0.7073059 -0.23803711q-0.3562317 -0.28004456 -0.41049194 -0.64071655q-0.0446167 -0.37295532 0.23550415 -0.729126l3.940918 -5.010956q1.0142212 -1.2895966 0.9645691 -2.2627563q-0.040008545 -0.9854584 -1.1332397 -1.8449097q-1.2652283 -0.99464417 -2.6230469 -0.8099518q-1.3578186 0.18469238 -2.3913574 1.4988251l-3.6221619 4.605667q-0.28012085 0.35617065 -0.6531677 0.40078735q-0.35107422 0.042007446 -0.7073059 -0.23803711q-0.3562317 -0.28004456 -0.41049194 -0.64071655q-0.0446167 -0.37295532 0.23550415 -0.729126l6.2591248 -7.9585876q0.27044678 -0.34388733 0.6338196 -0.3762207q0.37301636 -0.044631958 0.72924805 0.2354126q0.34396362 0.27038574 0.37628174 0.6336975q0.041992188 0.35101318 -0.21881104 0.6826172l-0.75341797 0.9579773q1.1209717 -0.49014282 2.2794495 -0.29493713q1.1584473 0.19520569 2.2025452 1.0160217zm7.2564697 21.147766q-1.302063 -1.0236053 -1.8430481 -2.3830566q-0.51904297 -1.3620605 -0.20953369 -2.867752q0.33148193 -1.508316 1.4615784 -2.945282q1.130127 -1.436966 2.5083313 -2.1025238q1.3905029 -0.65589905 2.8271484 -0.46058655q1.4586182 0.19267273 2.7606812 1.2162781q1.302063 1.0236206 1.8334045 2.39534q0.5532837 1.3690948 0.2437439 2.8747864q-0.30950928 1.5056915 -1.4396362 2.9426575q-1.130127 1.436966 -2.5302734 2.1051483q-1.3904724 0.65589905 -2.8613586 0.4535675q-1.4489746 -0.20495605 -2.7510376 -1.2285767zm0.99490356 -1.2650146q1.3634644 1.0718994 2.793335 0.74508667q1.4298401 -0.326828 2.782135 -2.0462646q1.3233032 -1.6826019 1.3010559 -3.170868q-3.0517578E-4 -1.4908752 -1.3515015 -2.5531158q-1.3388977 -1.0525818 -2.800354 -0.7108612q-1.4395142 0.33909607 -2.7628174 2.021698q-1.3329773 1.6948853 -1.3230286 3.1734772q0.009979248 1.4786072 1.3611755 2.5408478zm19.342804 -2.5422974q-1.0625916 -0.696228 -2.013153 -0.5491333q-0.93829346 0.15675354 -1.8172913 1.2743988l-0.47329712 0.60180664l2.100525 1.6513062q0.31936646 0.25106812 0.34381104 0.54855347q0.036743164 0.30714417 -0.18539429 0.58961487q-0.22216797 0.28248596 -0.5100708 0.29466248q-0.27557373 0.021850586 -0.5949707 -0.22923279l-2.1004944 -1.6513062l-5.756836 7.319931q-0.28012085 0.35617065 -0.6654358 0.3911438q-0.3633728 0.032333374 -0.68273926 -0.21873474q-0.3439331 -0.27038574 -0.41049194 -0.64071655q-0.0446167 -0.37295532 0.23547363 -0.729126l5.7568665 -7.319931l-1.2652283 -0.99464417q-0.31936646 -0.25108337 -0.37805176 -0.55558777q-0.058685303 -0.30451965 0.14416504 -0.56243896q0.22216797 -0.2824707 0.541626 -0.3095703q0.31948853 -0.02708435 0.6388855 0.22398376l1.2651978 0.99464417l0.27044678 -0.34388733q1.3329773 -1.6948853 2.9436035 -1.9988251q1.6106567 -0.30393982 3.2821655 0.83125305l0.5203247 0.34942627q0.5203247 0.349411 0.6228943 0.64868164q0.12451172 0.29664612 -0.14593506 0.64053345q-0.4249878 0.54039 -1.1462708 0.09262085l-0.5203247 -0.34942627zm-1.5814514 18.49289q-0.36849976 -0.28970337 -0.4034729 -0.67492676q-0.02267456 -0.37557983 0.2574463 -0.7317505l9.311432 -11.839615q0.27044678 -0.34388733 0.64346313 -0.3885193q0.38531494 -0.034973145 0.74154663 0.24508667l6.8665466 5.398117q0.3439331 0.270401 0.39297485 0.5871887q0.061309814 0.3264618 -0.18984985 0.6457825q-0.23181152 0.29475403 -0.5635681 0.31219482q-0.31948853 0.02709961 -0.66342163 -0.24330139l-6.129547 -4.8187103l-3.6028442 4.581085l5.761017 4.529022q0.33166504 0.2607422 0.38067627 0.57751465q0.061309814 0.32647705 -0.18981934 0.6457825q-0.2414856 0.30706787 -0.5732422 0.3244934q-0.30981445 0.014801025 -0.6414795 -0.24591064l-5.761017 -4.5290375l-4.2597046 5.4162445q-0.28012085 0.35617065 -0.6505127 0.42276q-0.37039185 0.06655884 -0.72662354 -0.21350098zm13.280945 10.500427q-1.302063 -1.0236206 -1.8430481 -2.3830566q-0.5190735 -1.3620605 -0.20953369 -2.8677673q0.33145142 -1.5083008 1.4615784 -2.945282q1.130127 -1.4369507 2.5083313 -2.1025085q1.3904724 -0.6558838 2.8271484 -0.4606018q1.4586182 0.19268799 2.7606812 1.2163086q1.302063 1.0236206 1.8334045 2.3953247q0.5532837 1.3691101 0.2437439 2.8747864q-0.30950928 1.5057068 -1.4396362 2.9426575q-1.130127 1.4369812 -2.5302734 2.1051636q-1.3904724 0.6558838 -2.8613892 0.45355225q-1.4489441 -0.20495605 -2.751007 -1.2285767zm0.99490356 -1.2650146q1.3634644 1.0718994 2.793335 0.74508667q1.4298401 -0.32681274 2.782135 -2.0462646q1.3233032 -1.6826172 1.3010559 -3.170868q-3.0517578E-4 -1.4908752 -1.3515015 -2.553131q-1.3389282 -1.0525818 -2.8003845 -0.71084595q-1.4394836 0.33911133 -2.7627869 2.021698q-1.3329773 1.6948853 -1.3230286 3.1734924q0.009979248 1.4785767 1.3611755 2.5408325zm17.68982 0.5705261q0.8467407 0.5662842 0.29614258 1.2663269q-0.23181152 0.2947693 -0.54867554 0.34381104q-0.3168335 0.04901123 -0.76345825 -0.24246216l-0.60369873 -0.39508057q-1.3521423 -0.88412476 -2.5845032 -0.5809326q-1.2200928 0.3128662 -2.0507812 1.3690796l-3.6028442 4.5811157q-0.29943848 0.3807373 -0.6628113 0.41308594q-0.35369873 0.020050049 -0.69766235 -0.2503357q-0.33163452 -0.2607422 -0.39819336 -0.631073q-0.056915283 -0.38259888 0.22320557 -0.73876953l6.2591248 -7.9585876q0.28012085 -0.35617065 0.6557617 -0.3788452q0.38793945 -0.013031006 0.7073059 0.23803711q0.3070984 0.24142456 0.36138916 0.6020813q0.054260254 0.36068726 -0.21618652 0.7045593l-0.8306885 1.0562439q1.0498962 -0.52615356 2.1127014 -0.386261q1.0724487 0.12762451 2.0762634 0.79748535l0.26760864 0.19052124zm14.295105 12.033081q0.55392456 -0.29992676 0.9838562 0.038085938q0.28250122 0.22210693 0.35873413 0.58013916q0.08850098 0.3677063 -0.13366699 0.650177q-0.10623169 0.13510132 -0.28356934 0.2341919l-9.372131 5.4715576q-0.30374146 0.15872192 -0.6407471 0.1322937q-0.315094 -0.029083252 -0.58532715 -0.24151611q-0.2456665 -0.19314575 -0.36053467 -0.5020752q-0.09289551 -0.31155396 -0.010284424 -0.6440735l2.6118164 -8.679382l-7.80777 4.594574q-0.2791748 0.17800903 -0.628479 0.14193726q-0.32736206 -0.038726807 -0.5975952 -0.2511902q-0.2456665 -0.19311523 -0.37280273 -0.51171875q-0.10519409 -0.3211975 -0.022583008 -0.65374756l3.0881653 -10.371918q0.06680298 -0.18600464 0.15371704 -0.2965393q0.2414856 -0.30703735 0.6513672 -0.32269287q0.42214966 -0.006011963 0.72924805 0.2354126q0.4421997 0.34765625 0.28137207 0.9565735l-2.8971863 8.991669l8.093994 -4.8068237q0.30374146 -0.15872192 0.60650635 -0.13931274q0.3027954 0.01940918 0.53619385 0.20288086q0.2456665 0.19314575 0.33596802 0.48275757q0.090270996 0.28961182 -0.004638672 0.6124878l-2.7558594 8.963654l8.042236 -4.867401zm7.494507 5.0371704q3.4516907 2.7135315 0.61190796 6.3243713l-4.0375366 5.133789q-0.27044678 0.34387207 -0.63119507 0.39816284q-0.3607483 0.05429077 -0.7046814 -0.21609497q-0.3439331 -0.27041626 -0.3885498 -0.6433716q-0.032348633 -0.36328125 0.23812866 -0.70718384l0.70510864 -0.8965454q-1.006012 0.520874 -2.0907593 0.38360596q-1.0724792 -0.127594 -2.0428772 -0.8904724q-0.88442993 -0.695282 -1.3536072 -1.6405334q-0.4472351 -0.94784546 -0.3871765 -1.9341431q0.07235718 -0.97665405 0.6808777 -1.7503967q0.8210144 -1.0439453 1.7935486 -1.1936646q0.98217773 -0.1619873 2.388794 0.52645874q1.4189453 0.6980896 3.568573 2.388031l0.41763306 0.3283081l0.4829712 -0.6140747q0.8982849 -1.1422119 0.8468628 -2.037262q-0.051452637 -0.89508057 -1.083252 -1.7062378q-1.2897949 -1.013977 -3.1547241 -1.3471985q-0.7670288 -0.086242676 -0.963562 -0.24075317q-0.23339844 -0.18347168 -0.25524902 -0.4590149q-0.012176514 -0.2878418 0.2003479 -0.55804443q0.20281982 -0.25790405 0.5170593 -0.32888794q0.32388306 -0.08325195 0.83465576 3.0517578E-4q0.96276855 0.14071655 1.9622498 0.5885925q1.0091553 0.4355774 1.8444519 1.0922546zm-7.1753845 7.8345337q1.1300964 0.88842773 2.4537048 0.6966858q1.3358765 -0.18206787 2.2824707 -1.3856506l0.43466187 -0.55270386l-0.3439331 -0.27038574q-1.6582947 -1.3036499 -2.6463318 -1.841919q-0.97839355 -0.5505066 -1.6076965 -0.50860596q-0.6170349 0.05154419 -1.1192932 0.69021606q-0.5795593 0.73690796 -0.42807007 1.631134q0.16378784 0.9038696 0.9744873 1.5412292zm17.932373 0.68167114q0.8467407 0.5662842 0.2961731 1.2663574q-0.23184204 0.2947693 -0.54867554 0.34378052q-0.316864 0.049041748 -0.76348877 -0.24243164l-0.60369873 -0.39508057q-1.3521423 -0.88412476 -2.5845032 -0.5809326q-1.2200928 0.3128662 -2.0507812 1.3690796l-3.6028442 4.581085q-0.29943848 0.3807373 -0.6628113 0.41308594q-0.35369873 0.020080566 -0.69763184 -0.2503357q-0.33166504 -0.26071167 -0.39822388 -0.6310425q-0.056915283 -0.3826294 0.22320557 -0.73880005l6.2591248 -7.958557q0.28012085 -0.35617065 0.6557617 -0.37887573q0.38793945 -0.013031006 0.7073059 0.23806763q0.3070984 0.24139404 0.36138916 0.6020813q0.054260254 0.36068726 -0.21618652 0.7045593l-0.8306885 1.0562439q1.0498962 -0.52615356 2.1127014 -0.386261q1.0724487 0.127594 2.0762634 0.79748535l0.26760864 0.19049072zm12.665985 3.438263q0.35620117 0.2800598 0.40081787 0.65301514q0.0446167 0.37295532 -0.20648193 0.69226074l-9.437012 11.999268q-0.27044678 0.3439026 -0.64349365 0.3885193q-0.37301636 0.044647217 -0.72924805 -0.2354126q-0.3562317 -0.2800598 -0.4008484 -0.6529846q-0.032318115 -0.36331177 0.23812866 -0.70721436l0.8017273 -1.0193787q-1.091156 0.5533447 -2.278595 0.394989q-1.1654968 -0.16098022 -2.2464294 -1.0108032q-1.2037964 -0.9463501 -1.6517944 -2.2724q-0.43829346 -1.3383484 -0.10421753 -2.8247375q0.3463745 -1.4767151 1.4765015 -2.9136963q1.1108093 -1.412384 2.454773 -2.084961q1.3659363 -0.67523193 2.7411804 -0.52819824q1.3849182 0.1347351 2.5887146 1.0810852q1.0809326 0.8497925 1.5123291 1.9441833q0.44366455 1.104065 0.16323853 2.2947388l3.9795837 -5.060089q0.2607727 -0.331604 0.61187744 -0.3735962q0.37304688 -0.0446167 0.72924805 0.2354126zm-13.199463 9.478668q1.3389282 1.0525818 2.7784119 0.713501q1.4491882 -0.3513794 2.7724915 -2.0339966q1.3233032 -1.6825867 1.3036804 -3.1489258q-0.0099487305 -1.4785767 -1.348877 -2.531189q-1.3388977 -1.0525818 -2.8029785 -0.7327881q-1.4421387 0.3171692 -2.7364807 1.9629211q-1.3233032 1.6825867 -1.3203735 3.195404q0.015197754 1.5224915 1.354126 2.5750732zm12.057648 11.466614q-0.36853027 -0.28967285 -0.4034729 -0.67492676q-0.02267456 -0.37557983 0.2574463 -0.7317505l9.311401 -11.8396q0.27044678 -0.3439026 0.64349365 -0.3885193q0.38531494 -0.034973145 0.7415161 0.24508667l4.4712524 3.5150452q2.100525 1.6513062 2.4534302 3.5784302q0.36523438 1.9367676 -1.1029053 3.8036194q-1.4682007 1.8668213 -3.4684448 1.9837036q-1.9783325 0.11428833 -4.0542603 -1.5177002l-3.7096558 -2.9163513l-3.7380981 4.7530518q-0.28009033 0.35617065 -0.66278076 0.41305542q-0.38272095 0.056915283 -0.7389221 -0.22314453zm9.7065735 -3.4197998q3.0340576 2.3852234 5.130127 -0.27993774q2.057373 -2.6159973 -0.9766846 -5.0012207l-3.5622559 -2.8004456l-4.1534424 5.281128l3.5622559 2.800476zm12.690735 5.643982q3.4517212 2.7135315 0.61187744 6.3243713l-4.0374756 5.1337585q-0.2705078 0.3439026 -0.6312256 0.39819336q-0.36071777 0.054260254 -0.7047119 -0.21612549q-0.3439331 -0.27038574 -0.3885498 -0.64334106q-0.032287598 -0.36328125 0.23815918 -0.70718384l0.7050781 -0.8965759q-1.0059814 0.52090454 -2.0907593 0.38363647q-1.0724487 -0.127594 -2.0428467 -0.8904724q-0.8843994 -0.6953125 -1.3535767 -1.6405334q-0.44726562 -0.94784546 -0.38720703 -1.9341431q0.07232666 -0.97665405 0.68084717 -1.7503967q0.8210449 -1.0439453 1.7935791 -1.1936646q0.98217773 -0.16201782 2.388794 0.5264282q1.4189453 0.6981201 3.5685425 2.3880615l0.41766357 0.3283081l0.4829712 -0.6140747q0.8983154 -1.1422119 0.8468628 -2.0372925q-0.051452637 -0.89505005 -1.083252 -1.7062378q-1.2897949 -1.0139465 -3.1547241 -1.347168q-0.7670288 -0.086242676 -0.963562 -0.24075317q-0.23339844 -0.1835022 -0.25524902 -0.4590454q-0.012145996 -0.28781128 0.20031738 -0.5580139q0.20288086 -0.25790405 0.51708984 -0.32888794q0.32391357 -0.08325195 0.83465576 2.746582E-4q0.96276855 0.14074707 1.9622803 0.58862305q1.0091553 0.4355774 1.8444214 1.0922546zm-7.175354 7.8345337q1.1300659 0.8883972 2.4536743 0.6966858q1.3358765 -0.18206787 2.2824707 -1.3856812l0.43469238 -0.55267334l-0.3439331 -0.27038574q-1.6583252 -1.3036499 -2.6463623 -1.841919q-0.97839355 -0.5505371 -1.607727 -0.50860596q-0.6170044 0.05154419 -1.1192627 0.69018555q-0.5795288 0.73690796 -0.42803955 1.631134q0.16375732 0.90390015 0.9744873 1.5412598zm17.932312 0.68167114q0.8467407 0.5662842 0.2962036 1.2663269q-0.23187256 0.2947693 -0.54870605 0.34381104q-0.3168335 0.049041748 -0.76348877 -0.24246216l-0.60369873 -0.39508057q-1.3521118 -0.88409424 -2.5844727 -0.5809021q-1.2200928 0.3128357 -2.0507812 1.3690796l-3.6028442 4.581085q-0.29943848 0.3807373 -0.6628418 0.41308594q-0.35369873 0.020050049 -0.69763184 -0.2503357q-0.33166504 -0.2607422 -0.39819336 -0.631073q-0.0569458 -0.38259888 0.22320557 -0.73876953l6.259094 -7.9585876q0.28015137 -0.35617065 0.6557617 -0.3788452q0.38793945 -0.013031006 0.7073364 0.23803711q0.30706787 0.24142456 0.36138916 0.6020813q0.054260254 0.36068726 -0.21618652 0.70458984l-0.8306885 1.0562134q1.0498657 -0.52615356 2.112671 -0.386261q1.0725098 0.12762451 2.076294 0.79748535l0.26757812 0.19052124zm-0.12548828 13.257538q0.61505127 0.58288574 0.18035889 1.1355591q-0.25109863 0.31933594 -0.6223755 0.28585815q-0.35894775 -0.023834229 -0.7967529 -0.4276123l-0.48693848 -0.44244385q-1.4143066 -1.3106079 -1.5085449 -2.6567383q-0.08459473 -1.3583984 1.1710815 -2.955017l3.7284546 -4.740753l-1.2652588 -0.9946594q-0.31933594 -0.25106812 -0.37805176 -0.5555725q-0.058654785 -0.3045349 0.14416504 -0.56243896q0.22216797 -0.2824707 0.541626 -0.3095703q0.31951904 -0.02709961 0.638855 0.2239685l1.2652588 0.9946594l1.6806641 -2.137024q0.28015137 -0.35617065 0.6312256 -0.39816284q0.3633423 -0.032348633 0.73187256 0.25735474q0.33166504 0.26071167 0.3859253 0.6213989q0.054260254 0.36065674 -0.22583008 0.7168274l-1.6807251 2.137024l2.100525 1.6513062q0.2947998 0.231781 0.33154297 0.5389099q0.04901123 0.31680298 -0.17315674 0.5992737q-0.20281982 0.25793457 -0.5126343 0.2727356q-0.2975464 0.024475098 -0.5923462 -0.20730591l-2.100525 -1.6513062l-3.786377 4.814453q-0.81134033 1.0316772 -0.7607422 1.8267212q0.06286621 0.8046875 0.87176514 1.5201416l0.48693848 0.44241333zm1.9824829 3.5261536q-0.33166504 -0.26071167 -0.39819336 -0.6310425q-0.0569458 -0.3826294 0.22320557 -0.73880005l6.259094 -7.958557q0.28015137 -0.35617065 0.6557617 -0.37887573q0.3756714 -0.02267456 0.7073364 0.23803711q0.3439331 0.27041626 0.39819336 0.631073q0.05432129 0.36068726 -0.22583008 0.7168579l-6.259094 7.958557q-0.29943848 0.3807373 -0.6628418 0.41308594q-0.35369873 0.020050049 -0.69763184 -0.2503357zm9.024292 -11.449219q-0.4545288 -0.3572998 -0.5341797 -0.8373108q-0.07006836 -0.49230957 0.26800537 -0.9221802q0.32843018 -0.41757202 0.81378174 -0.45336914q0.49505615 -0.048095703 0.9495239 0.3092041q0.4421997 0.34762573 0.51226807 0.8399353q0.091918945 0.48968506 -0.2364502 0.9072571q-0.33807373 0.4298706 -0.84539795 0.46829224q-0.48535156 0.035827637 -0.92755127 -0.3118286zm-1.6542358 17.302826q-1.2897339 -1.0139465 -1.8307495 -2.3733826q-0.51904297 -1.3620605 -0.20953369 -2.8677673q0.32183838 -1.4960327 1.4326172 -2.9084167q1.1107788 -1.4124146 2.5232544 -2.0709229q1.4124146 -0.6585388 2.8806763 -0.4781494q1.4805908 0.19006348 2.7826538 1.2136841q0.71240234 0.5600891 1.2703247 1.3166809q0.55792236 0.7565918 0.7866821 1.5525818q0.15777588 0.481781 0.119018555 0.80908203q-0.016784668 0.3246765 -0.22930908 0.59487915q-0.20281982 0.25790405 -0.48547363 0.31396484q-0.2703247 0.06573486 -0.49145508 -0.10809326q-0.1350708 -0.10623169 -0.22454834 -0.29577637q-0.089416504 -0.1895752 -0.14202881 -0.3501892q-0.030639648 -0.16323853 -0.057861328 -0.20446777q-0.24023438 -0.7055969 -0.5498047 -1.2471313q-0.2876587 -0.54415894 -0.92645264 -1.0462952q-1.3757324 -1.0815735 -2.871399 -0.7468567q-1.4957275 0.33468628 -2.7996826 1.9927063q-1.3040161 1.6580505 -1.2572021 3.165619q0.046813965 1.5075684 1.4226074 2.5891113q0.6387329 0.50216675 1.2504272 0.684906q0.62127686 0.17044067 1.3392334 0.21807861q0.31506348 0.029052734 0.56695557 0.08792114q0.2738037 0.056274414 0.39660645 0.15283203q0.2088623 0.16415405 0.20874023 0.4423523q0.012145996 0.28781128 -0.19067383 0.54571533q-0.19317627 0.24563599 -0.48284912 0.3359375q-0.2774048 0.09994507 -0.8267822 0.06552124q-0.8083496 -0.05908203 -1.7315063 -0.427063q-0.92315674 -0.36798096 -1.6724854 -0.95706177zm6.0448 4.692505q-0.33166504 -0.2607422 -0.39819336 -0.631073q-0.056884766 -0.3826294 0.22320557 -0.73880005l9.417664 -11.974701q0.28015137 -0.35617065 0.6557617 -0.3788452q0.38531494 -0.034973145 0.71698 0.22576904q0.31939697 0.25106812 0.37628174 0.633667q0.06652832 0.3703308 -0.21356201 0.72650146l-9.417664 11.974731q-0.28009033 0.35617065 -0.6654053 0.39111328q-0.3756714 0.022705078 -0.69506836 -0.22836304zm12.473633 6.1888123q0.20880127 0.16415405 0.2210083 0.45196533q0.024414062 0.29748535 -0.18804932 0.567688q-0.36706543 0.46670532 -1.3394775 0.33825684q-0.9846802 -0.13809204 -1.9104614 -0.52801514q-0.9038696 -0.39257812 -1.6286011 -0.9623108q-2.125061 -1.6706238 -2.3707886 -3.9109802q-0.23352051 -2.2306824 1.5148315 -4.453705q1.1204224 -1.4246826 2.5109253 -2.0805664q1.402771 -0.64624023 2.8587646 -0.47549438q1.4682617 0.1803894 2.7334595 1.1750183q1.793457 1.4098816 1.93219 3.407135q0.13879395 1.9972534 -1.435669 3.999176q-0.29943848 0.3807373 -0.59436035 0.42715454q-0.27294922 0.043762207 -0.60461426 -0.21694946l-6.0803833 -4.780121q-2.3780518 3.377594 0.520874 5.6565857q0.73706055 0.57940674 1.4197998 0.7981262q0.68273926 0.21875 1.5673828 0.35769653q0.7011719 0.09411621 0.87316895 0.2293396zm1.4866333 -8.689423q-1.2037964 -0.9463806 -2.5274048 -0.7546387q-1.3139038 0.17941284 -2.5308838 1.448761l5.343384 4.2006836q1.0546265 -1.4168091 0.9805298 -2.6874695q-0.07409668 -1.2706299 -1.265625 -2.2073364zm5.461487 17.768982q-0.36853027 -0.28970337 -0.40344238 -0.6749573q-0.022705078 -0.37557983 0.2574463 -0.7317505l9.311401 -11.8396q0.27044678 -0.3439026 0.64349365 -0.3885193q0.38531494 -0.034973145 0.7415161 0.24508667l6.866577 5.3981323q0.3439331 0.27038574 0.39294434 0.5871887q0.061340332 0.32644653 -0.18981934 0.6457825q-0.23181152 0.29473877 -0.56359863 0.31219482q-0.319458 0.027069092 -0.6633911 -0.24331665l-6.1295776 -4.8187256l-3.6028442 4.5811157l5.7610474 4.529022q0.331604 0.26071167 0.38067627 0.57751465q0.061279297 0.32644653 -0.18981934 0.6457825q-0.24151611 0.30703735 -0.5732422 0.3244934q-0.3098755 0.014801025 -0.6414795 -0.24594116l-5.7610474 -4.529022l-4.2597046 5.41626q-0.28009033 0.35617065 -0.6505127 0.4227295q-0.37042236 0.06655884 -0.72662354 -0.21347046zm10.275879 8.078339q-0.33166504 -0.26071167 -0.3982544 -0.6310425q-0.056884766 -0.3826294 0.22320557 -0.73880005l9.417725 -11.974701q0.28009033 -0.35617065 0.6557617 -0.37887573q0.38531494 -0.034942627 0.71698 0.22576904q0.31933594 0.25109863 0.3762207 0.6336975q0.066589355 0.3703308 -0.21356201 0.72650146l-9.417664 11.974701q-0.28009033 0.35617065 -0.6654053 0.3911438q-0.3756714 0.02267456 -0.6950073 -0.22839355zm7.382324 5.8632812q-1.302063 -1.0236206 -1.8430176 -2.3830566q-0.51904297 -1.3620605 -0.20953369 -2.8677673q0.33148193 -1.5083008 1.4616089 -2.945282q1.1300659 -1.4369507 2.5083008 -2.1025085q1.3905029 -0.6559143 2.8271484 -0.4606018q1.4586182 0.19265747 2.7606812 1.2162781q1.302063 1.0236206 1.833374 2.3953552q0.5532837 1.3690796 0.24377441 2.8747864q-0.30950928 1.5056763 -1.4396362 2.9426575q-1.130127 1.4369507 -2.5302734 2.105133q-1.3905029 0.6559143 -2.8613892 0.45358276q-1.4489136 -0.20495605 -2.7510376 -1.2285767zm0.9949341 -1.2650146q1.3634644 1.0718994 2.793335 0.74505615q1.4298096 -0.32681274 2.7821045 -2.0462646q1.3233032 -1.6825867 1.3010864 -3.1708374q-3.0517578E-4 -1.4908752 -1.3515015 -2.553131q-1.3389282 -1.0525818 -2.800354 -0.71084595q-1.4395142 0.3390808 -2.7628174 2.021698q-1.3330078 1.6948853 -1.322998 3.173462q0.0099487305 1.4786072 1.361145 2.540863zm25.324646 7.3676453q0.5539551 -0.29992676 0.9838257 0.03805542q0.28253174 0.22210693 0.35876465 0.5801697q0.08850098 0.3677063 -0.13366699 0.650177q-0.10626221 0.13510132 -0.28356934 0.2341919l-9.372131 5.471527q-0.30371094 0.15872192 -0.6407471 0.1322937q-0.31506348 -0.029052734 -0.58532715 -0.24151611q-0.2456665 -0.19314575 -0.36053467 -0.5020447q-0.09289551 -0.31155396 -0.010253906 -0.644104l2.6118164 -8.679382l-7.8078003 4.594574q-0.2791748 0.17803955 -0.628479 0.14193726q-0.32733154 -0.038726807 -0.5975952 -0.25115967q-0.2456665 -0.19314575 -0.37280273 -0.51171875q-0.10522461 -0.3211975 -0.022583008 -0.65374756l3.0881958 -10.371918q0.06677246 -0.18600464 0.15368652 -0.2965393q0.24151611 -0.30706787 0.6513672 -0.3227234q0.42218018 -0.0059814453 0.72924805 0.23544312q0.4421997 0.34762573 0.28137207 0.9565735l-2.8971558 8.991669l8.093933 -4.8068237q0.30377197 -0.15872192 0.6065674 -0.13931274q0.3027954 0.01940918 0.53619385 0.20288086q0.2456665 0.19314575 0.3359375 0.48272705q0.090270996 0.28961182 -0.004638672 0.6125183l-2.7558594 8.963623l8.042236 -4.8673706z" fill-rule="nonzero"/></g></svg>