<svg version="1.1" viewBox="0.0 0.0 1179.286089238845 438.51443569553805" fill="none" stroke="none" stroke-linecap="square" stroke-miterlimit="10" xmlns:xlink="http://www.w3.org/1999/xlink" xmlns="http://www.w3.org/2000/svg"><clipPath id="p.0"><path d="m0 0l1179.2861 0l0 438.51443l-1179.2861 0l0 -438.51443z" clip-rule="nonzero"/></clipPath><g clip-path="url(#p.0)"><path fill="#000000" fill-opacity="0.0" d="m0 0l1179.2861 0l0 438.51443l-1179.2861 0z" fill-rule="evenodd"/><path fill="#fcded4" d="m21.343832 143.26607l0 0c0 -27.098732 21.967863 -49.06659 49.066597 -49.06659l199.78806 0l0 0c13.013275 0 25.49356 5.1695023 34.695343 14.371269c9.201752 9.201775 14.371277 21.68206 14.371277 34.69532l0 196.26051c0 27.098724 -21.967865 49.06659 -49.06662 49.06659l-199.78806 0c-27.098736 0 -49.066597 -21.967865 -49.066597 -49.06659z" fill-rule="evenodd"/><path stroke="#000000" stroke-width="1.0" stroke-linejoin="round" stroke-linecap="butt" d="m21.343832 143.26607l0 0c0 -27.098732 21.967863 -49.06659 49.066597 -49.06659l199.78806 0l0 0c13.013275 0 25.49356 5.1695023 34.695343 14.371269c9.201752 9.201775 14.371277 21.68206 14.371277 34.69532l0 196.26051c0 27.098724 -21.967865 49.06659 -49.06662 49.06659l-199.78806 0c-27.098736 0 -49.066597 -21.967865 -49.066597 -49.06659z" fill-rule="evenodd"/><path fill="#fcded4" d="m429.09186 148.2056l0 0c0 -24.298111 19.69751 -43.99562 43.995636 -43.99562l261.93002 0c11.668335 0 22.858826 4.6352386 31.109558 12.886017c8.250793 8.250786 12.886047 19.441238 12.886047 31.109604l0 175.97726c0 24.298096 -19.69751 43.995605 -43.995605 43.995605l-261.93002 0l0 0c-24.298126 0 -43.995636 -19.69751 -43.995636 -43.995605z" fill-rule="evenodd"/><path stroke="#000000" stroke-width="1.0" stroke-linejoin="round" stroke-linecap="butt" d="m429.09186 148.2056l0 0c0 -24.298111 19.69751 -43.99562 43.995636 -43.99562l261.93002 0c11.668335 0 22.858826 4.6352386 31.109558 12.886017c8.250793 8.250786 12.886047 19.441238 12.886047 31.109604l0 175.97726c0 24.298096 -19.69751 43.995605 -43.995605 43.995605l-261.93002 0l0 0c-24.298126 0 -43.995636 -19.69751 -43.995636 -43.995605z" fill-rule="evenodd"/><path fill="#f19167" d="m928.8399 91.36483l191.52753 0l0 127.685036l-191.52753 0z" fill-rule="evenodd"/><path stroke="#000000" stroke-width="1.0" stroke-linejoin="round" stroke-linecap="butt" d="m928.8399 91.36483l191.52753 0l0 127.685036l-191.52753 0z" fill-rule="evenodd"/><path fill="#000000" fill-opacity="0.0" d="m524.2402 104.20998l159.62201 0l0 42.551178l-159.62201 0z" fill-rule="evenodd"/><path fill="#000000" d="m561.3676 135.12497q0.09375 0.1875 0.09375 0.40625q0 0.359375 -0.28125 0.609375q-0.265625 0.234375 -0.65625 0.234375q-0.59375 0 -0.84375 -0.578125l-1.703125 -3.890625l-9.046875 0l-1.71875 3.890625q-0.25 0.578125 -0.84375 0.578125q-0.390625 0 -0.671875 -0.25q-0.28125 -0.265625 -0.28125 -0.625q0 -0.1875 0.09375 -0.375l6.859375 -15.265617q0.140625 -0.34375 0.421875 -0.5q0.296875 -0.171875 0.640625 -0.171875q0.359375 0 0.640625 0.1875q0.28125 0.171875 0.4375 0.484375l6.859375 15.265617zm-11.71875 -4.84375l7.609375 0l-3.8125 -8.624992l-3.796875 8.624992zm15.604187 5.96875q-0.453125 0 -0.734375 -0.265625q-0.265625 -0.265625 -0.265625 -0.6875l0 -14.999992q0 -0.4375 0.265625 -0.703125q0.28125 -0.265625 0.734375 -0.265625l4.6875 0q4.046875 0 6.265625 2.203125q2.21875 2.1875 2.21875 6.25q0 4.0468674 -2.234375 6.2656174q-2.21875 2.203125 -6.25 2.203125l-4.6875 0zm4.5625 -1.6875q6.578125 0 6.578125 -6.7812424q0 -6.765625 -6.578125 -6.765625l-3.59375 0l0 13.546867l3.59375 0zm24.579712 -14.843742q0.109375 -0.265625 0.34375 -0.40625q0.234375 -0.15625 0.5 -0.15625q0.375 0 0.671875 0.265625q0.296875 0.25 0.296875 0.609375q0 0.1875 -0.09375 0.375l-6.875 15.312492q-0.15625 0.3125 -0.453125 0.484375q-0.28125 0.171875 -0.609375 0.171875q-0.34375 0 -0.625 -0.171875q-0.28125 -0.171875 -0.4375 -0.484375l-6.859375 -15.312492q-0.078125 -0.1875 -0.078125 -0.359375q0 -0.375 0.3125 -0.625q0.3125 -0.265625 0.703125 -0.265625q0.578125 0 0.84375 0.5625l6.1875 13.984367l6.171875 -13.984367zm18.740173 15.406242q0.09375 0.1875 0.09375 0.40625q0 0.359375 -0.28125 0.609375q-0.265625 0.234375 -0.65625 0.234375q-0.59375 0 -0.84375 -0.578125l-1.703125 -3.890625l-9.046875 0l-1.71875 3.890625q-0.25 0.578125 -0.84375 0.578125q-0.390625 0 -0.671875 -0.25q-0.28125 -0.265625 -0.28125 -0.625q0 -0.1875 0.09375 -0.375l6.859375 -15.265617q0.140625 -0.34375 0.421875 -0.5q0.296875 -0.171875 0.640625 -0.171875q0.359375 0 0.640625 0.1875q0.28125 0.171875 0.4375 0.484375l6.859375 15.265617zm-11.71875 -4.84375l7.609375 0l-3.8125 -8.624992l-3.796875 8.624992zm27.244812 -11.078117q0.4375 0 0.671875 0.28125q0.234375 0.28125 0.234375 0.734375l0 15.140617q0 0.453125 -0.25 0.734375q-0.25 0.28125 -0.703125 0.28125q-0.453125 0 -0.796875 -0.40625l-9.953125 -13.328117l0 12.718742q0 0.453125 -0.25 0.734375q-0.25 0.28125 -0.6875 0.28125q-0.4375 0 -0.671875 -0.28125q-0.234375 -0.28125 -0.234375 -0.734375l0 -15.140617q0 -0.453125 0.25 -0.734375q0.25 -0.28125 0.703125 -0.28125q0.484375 0 0.8125 0.421875l9.9375 13.312492l0 -12.718742q0 -0.453125 0.25 -0.734375q0.25 -0.28125 0.6875 -0.28125zm10.173462 17.171867q-0.453125 0 -0.734375 -0.28125q-0.265625 -0.28125 -0.265625 -0.734375l0 -14.343742l-5.15625 0q-0.4375 0 -0.6875 -0.21875q-0.234375 -0.21875 -0.234375 -0.625q0 -0.40625 0.234375 -0.625q0.25 -0.21875 0.6875 -0.21875l12.296875 0q0.4375 0 0.671875 0.21875q0.25 0.21875 0.25 0.625q0 0.40625 -0.25 0.625q-0.234375 0.21875 -0.671875 0.21875l-5.15625 0l0 14.343742q0 0.453125 -0.265625 0.734375q-0.265625 0.28125 -0.71875 0.28125zm21.836365 -8.937492q0.375 0 0.59375 0.21875q0.234375 0.21875 0.234375 0.6093674l0 5.96875q0 0.578125 -0.1875 0.875q-0.171875 0.28125 -0.65625 0.4375q-0.953125 0.421875 -2.328125 0.65625q-1.375 0.234375 -2.734375 0.234375q-2.515625 0 -4.34375 -1.03125q-1.828125 -1.03125 -2.796875 -2.96875q-0.96875 -1.953125 -0.96875 -4.6562424q0 -2.671875 0.953125 -4.609375q0.96875 -1.953125 2.765625 -2.984375q1.796875 -1.046875 4.21875 -1.046875q1.6875 0 3.125 0.515625q1.4375 0.515625 2.421875 1.46875q0.40625 0.40625 0.40625 0.84375q0 0.34375 -0.203125 0.59375q-0.1875 0.25 -0.46875 0.25q-0.28125 0 -0.671875 -0.296875q-1.25 -0.953125 -2.265625 -1.328125q-1.0 -0.375 -2.3125 -0.375q-2.859375 0 -4.390625 1.8125q-1.515625 1.796875 -1.515625 5.15625q0 3.4218674 1.546875 5.2187424q1.546875 1.78125 4.546875 1.78125q2.234375 0 4.0625 -0.671875l0 -5.125l-3.515625 0q-0.40625 0 -0.65625 -0.21875q-0.234375 -0.21875 -0.234375 -0.5625q0 -0.35936737 0.234375 -0.5624924q0.25 -0.203125 0.65625 -0.203125l4.484375 0z" fill-rule="nonzero"/><path fill="#000000" fill-opacity="0.0" d="m104.61286 112.20998l159.62204 0l0 42.551178l-159.62204 0z" fill-rule="evenodd"/><path fill="#000000" d="m145.67377 144.24997q-0.453125 0 -0.734375 -0.265625q-0.265625 -0.265625 -0.265625 -0.6875l0 -15.0q0 -0.43749237 0.265625 -0.7031174q0.28125 -0.265625 0.734375 -0.265625l8.984375 0q0.421875 0 0.65625 0.21875q0.25 0.21875 0.25 0.5937424q0 0.390625 -0.25 0.609375q-0.234375 0.21875 -0.65625 0.21875l-8.046875 0l0 5.875l7.5625 0q0.4375 0 0.671875 0.21875q0.234375 0.21875 0.234375 0.59375q0 0.390625 -0.234375 0.609375q-0.234375 0.203125 -0.671875 0.203125l-7.5625 0l0 6.15625l8.046875 0q0.421875 0 0.65625 0.203125q0.25 0.203125 0.25 0.609375q0 0.375 -0.25 0.59375q-0.234375 0.21875 -0.65625 0.21875l-8.984375 0zm22.280457 -1.484375q0.28125 0.28125 0.28125 0.6875q0 0.359375 -0.265625 0.625q-0.265625 0.265625 -0.625 0.265625q-0.375 0 -0.6875 -0.328125l-3.890625 -4.453125l-3.859375 4.453125q-0.3125 0.328125 -0.703125 0.328125q-0.359375 0 -0.640625 -0.265625q-0.265625 -0.265625 -0.265625 -0.640625q0 -0.359375 0.28125 -0.671875l3.984375 -4.484375l-3.8125 -4.34375q-0.296875 -0.34375 -0.296875 -0.671875q0 -0.390625 0.28125 -0.65625q0.28125 -0.265625 0.609375 -0.265625q0.390625 0 0.703125 0.34375l3.71875 4.265625l3.71875 -4.265625q0.3125 -0.34375 0.6875 -0.34375q0.359375 0 0.625 0.265625q0.265625 0.265625 0.265625 0.625q0 0.40625 -0.28125 0.703125l-3.8125 4.34375l3.984375 4.484375zm8.713211 -10.484375q4.1875 0 4.1875 4.625l0 6.5q0 0.453125 -0.25 0.71875q-0.25 0.25 -0.703125 0.25q-0.453125 0 -0.71875 -0.25q-0.265625 -0.265625 -0.265625 -0.71875l0 -6.375q0 -1.640625 -0.640625 -2.375q-0.640625 -0.75 -2.03125 -0.75q-1.609375 0 -2.5625 0.984375q-0.953125 0.984375 -0.953125 2.65625l0 5.859375q0 0.453125 -0.265625 0.71875q-0.25 0.25 -0.703125 0.25q-0.453125 0 -0.71875 -0.25q-0.265625 -0.265625 -0.265625 -0.71875l0 -10.125q0 -0.4375 0.265625 -0.6875q0.265625 -0.265625 0.71875 -0.265625q0.4375 0 0.6875 0.265625q0.25 0.25 0.25 0.671875l0 1.21875q0.578125 -1.078125 1.609375 -1.640625q1.03125 -0.5625 2.359375 -0.5625zm8.725708 12.09375q-0.421875 0 -0.703125 -0.25q-0.28125 -0.265625 -0.28125 -0.71875l0 -10.125q0 -0.453125 0.28125 -0.703125q0.28125 -0.25 0.703125 -0.25q0.4375 0 0.703125 0.25q0.265625 0.25 0.265625 0.703125l0 10.125q0 0.484375 -0.265625 0.734375q-0.265625 0.234375 -0.703125 0.234375zm0.015625 -14.578125q-0.578125 0 -0.9375 -0.328125q-0.359375 -0.34375 -0.359375 -0.890625q0 -0.53125 0.359375 -0.8593674q0.359375 -0.34375 0.9375 -0.34375q0.5625 0 0.921875 0.34375q0.375 0.32811737 0.375 0.8593674q0 0.546875 -0.375 0.890625q-0.359375 0.328125 -0.921875 0.328125zm10.474228 2.484375q2.0625 0 3.109375 1.171875q1.0625 1.15625 1.0625 3.453125l0 6.5q0 0.453125 -0.265625 0.71875q-0.25 0.25 -0.6875 0.25q-0.453125 0 -0.71875 -0.25q-0.265625 -0.265625 -0.265625 -0.71875l0 -6.453125q0 -1.5625 -0.640625 -2.296875q-0.640625 -0.75 -2.03125 -0.75q-1.609375 0 -2.5625 0.984375q-0.953125 0.984375 -0.953125 2.65625l0 5.859375q0 0.453125 -0.265625 0.71875q-0.25 0.25 -0.703125 0.25q-0.453125 0 -0.71875 -0.25q-0.265625 -0.265625 -0.265625 -0.71875l0 -15.265625q0 -0.40624237 0.28125 -0.6718674q0.28125 -0.265625 0.703125 -0.265625q0.453125 0 0.703125 0.265625q0.265625 0.25 0.265625 0.6718674l0 6.296875q0.5625 -1.0625 1.59375 -1.609375q1.046875 -0.546875 2.359375 -0.546875zm8.710083 12.09375q-0.421875 0 -0.703125 -0.25q-0.28125 -0.265625 -0.28125 -0.71875l0 -10.125q0 -0.453125 0.28125 -0.703125q0.28125 -0.25 0.703125 -0.25q0.4375 0 0.703125 0.25q0.265625 0.25 0.265625 0.703125l0 10.125q0 0.484375 -0.265625 0.734375q-0.265625 0.234375 -0.703125 0.234375zm0.015625 -14.578125q-0.578125 0 -0.9375 -0.328125q-0.359375 -0.34375 -0.359375 -0.890625q0 -0.53125 0.359375 -0.8593674q0.359375 -0.34375 0.9375 -0.34375q0.5625 0 0.921875 0.34375q0.375 0.32811737 0.375 0.8593674q0 0.546875 -0.375 0.890625q-0.359375 0.328125 -0.921875 0.328125zm5.552353 14.578125q-0.421875 0 -0.703125 -0.25q-0.28125 -0.265625 -0.28125 -0.71875l0 -15.234375q0 -0.45311737 0.28125 -0.7031174q0.28125 -0.265625 0.703125 -0.265625q0.40625 0 0.6875 0.265625q0.28125 0.25 0.28125 0.7031174l0 15.234375q0 0.453125 -0.28125 0.71875q-0.28125 0.25 -0.6875 0.25zm9.427353 0.046875q-1.65625 0 -2.921875 -0.734375q-1.25 -0.75 -1.9375 -2.125q-0.671875 -1.390625 -0.671875 -3.21875q0 -1.828125 0.671875 -3.203125q0.6875 -1.375 1.9375 -2.109375q1.265625 -0.75 2.921875 -0.75q1.65625 0 2.921875 0.75q1.28125 0.734375 1.96875 2.109375q0.6875 1.375 0.6875 3.203125q0 1.828125 -0.6875 3.21875q-0.6875 1.375 -1.96875 2.125q-1.265625 0.734375 -2.921875 0.734375zm0 -1.609375q1.734375 0 2.65625 -1.140625q0.921875 -1.140625 0.921875 -3.328125q0 -2.140625 -0.9375 -3.296875q-0.921875 -1.171875 -2.640625 -1.171875q-1.703125 0 -2.640625 1.171875q-0.921875 1.15625 -0.921875 3.296875q0 2.15625 0.921875 3.3125q0.921875 1.15625 2.640625 1.15625z" fill-rule="nonzero"/><path fill="#fe6d7e" fill-opacity="0.4923" d="m448.82153 171.04987l148.34644 0l0 60.850403l-148.34644 0z" fill-rule="evenodd"/><path stroke="#000000" stroke-width="1.0" stroke-linejoin="round" stroke-linecap="butt" d="m448.82153 171.04987l148.34644 0l0 60.850403l-148.34644 0z" fill-rule="evenodd"/><path fill="#fe6d7e" fill-opacity="0.4923" d="m611.7743 171.04987l148.34644 0l0 60.850403l-148.34644 0z" fill-rule="evenodd"/><path stroke="#000000" stroke-width="1.0" stroke-linejoin="round" stroke-linecap="butt" d="m611.7743 171.04987l148.34644 0l0 60.850403l-148.34644 0z" fill-rule="evenodd"/><path fill="#fe6d7e" d="m448.82153 256.18896l148.34644 0l0 60.850403l-148.34644 0z" fill-rule="evenodd"/><path stroke="#000000" stroke-width="1.0" stroke-linejoin="round" stroke-linecap="butt" d="m448.82153 256.18896l148.34644 0l0 60.850403l-148.34644 0z" fill-rule="evenodd"/><path fill="#fe6d7e" d="m611.7743 256.18896l148.34644 0l0 60.850403l-148.34644 0z" fill-rule="evenodd"/><path stroke="#000000" stroke-width="1.0" stroke-linejoin="round" stroke-linecap="butt" d="m611.7743 256.18896l148.34644 0l0 60.850403l-148.34644 0z" fill-rule="evenodd"/><path fill="#000000" fill-opacity="0.0" d="m465.26212 180.19948l115.46457 0l0 42.551178l-115.46457 0z" fill-rule="evenodd"/><path fill="#000000" d="m496.0681 212.42697q-2.40625 0 -4.15625 -1.03125q-1.75 -1.046875 -2.703125 -3.0q-0.9375 -1.96875 -0.9375 -4.625q0 -2.640625 0.9375 -4.59375q0.953125 -1.96875 2.703125 -3.0q1.75 -1.046875 4.15625 -1.046875q1.609375 0 3.03125 0.515625q1.4375 0.515625 2.484375 1.46875q0.390625 0.359375 0.390625 0.84375q0 0.34375 -0.203125 0.59375q-0.1875 0.25 -0.453125 0.25q-0.28125 0 -0.6875 -0.265625q-1.234375 -0.953125 -2.234375 -1.34375q-0.984375 -0.390625 -2.28125 -0.390625q-2.78125 0 -4.28125 1.8125q-1.5 1.8125 -1.5 5.15625q0 3.359375 1.5 5.171875q1.5 1.8125 4.28125 1.8125q1.265625 0 2.265625 -0.375q1.015625 -0.390625 2.25 -1.359375q0.40625 -0.265625 0.6875 -0.265625q0.265625 0 0.453125 0.25q0.203125 0.234375 0.203125 0.59375q0 0.484375 -0.390625 0.84375q-1.046875 0.953125 -2.484375 1.46875q-1.421875 0.515625 -3.03125 0.515625zm23.63861 -1.3125q0.09375 0.1875 0.09375 0.40625q0 0.359375 -0.28125 0.609375q-0.265625 0.234375 -0.65625 0.234375q-0.59375 0 -0.84375 -0.578125l-1.703125 -3.890625l-9.0469055 0l-1.71875 3.890625q-0.25 0.578125 -0.84375 0.578125q-0.390625 0 -0.671875 -0.25q-0.28125 -0.265625 -0.28125 -0.625q0 -0.1875 0.09375 -0.375l6.859375 -15.265625q0.140625 -0.34375 0.421875 -0.5q0.296875 -0.171875 0.640625 -0.171875q0.35940552 0 0.6406555 0.1875q0.28125 0.171875 0.4375 0.484375l6.859375 15.265625zm-11.7187805 -4.84375l7.6094055 0l-3.8125305 -8.625l-3.796875 8.625zm15.604218 5.96875q-0.453125 0 -0.734375 -0.265625q-0.265625 -0.265625 -0.265625 -0.6875l0 -15.0q0 -0.4375 0.265625 -0.703125q0.28125 -0.265625 0.734375 -0.265625l4.6875 0q4.046875 0 6.265625 2.203125q2.21875 2.1875 2.21875 6.25q0 4.046875 -2.234375 6.265625q-2.21875 2.203125 -6.25 2.203125l-4.6875 0zm4.5625 -1.6875q6.578125 0 6.578125 -6.78125q0 -6.765625 -6.578125 -6.765625l-3.59375 0l0 13.546875l3.59375 0zm13.157837 1.8125q-0.46875 0 -0.734375 -0.28125q-0.25 -0.28125 -0.25 -0.734375l0 -15.140625q0 -0.453125 0.25 -0.734375q0.265625 -0.28125 0.734375 -0.28125q0.453125 0 0.71875 0.28125q0.265625 0.28125 0.265625 0.734375l0 15.140625q0 0.453125 -0.265625 0.734375q-0.265625 0.28125 -0.71875 0.28125zm10.550232 0.0625q-1.796875 0 -3.4375 -0.53125q-1.640625 -0.546875 -2.625 -1.453125q-0.359375 -0.34375 -0.359375 -0.84375q0 -0.328125 0.1875 -0.578125q0.1875 -0.265625 0.453125 -0.265625q0.3125 0 0.671875 0.265625q2.234375 1.734375 5.09375 1.734375q2.0625 0 3.15625 -0.796875q1.109375 -0.796875 1.109375 -2.25q0 -0.84375 -0.53125 -1.359375q-0.515625 -0.515625 -1.390625 -0.828125q-0.859375 -0.3125 -2.328125 -0.65625q-1.96875 -0.453125 -3.234375 -0.953125q-1.25 -0.5 -2.03125 -1.4375q-0.78125 -0.9375 -0.78125 -2.453125q0 -1.4375 0.78125 -2.546875q0.78125 -1.125 2.1875 -1.734375q1.40625 -0.609375 3.203125 -0.609375q1.671875 0 3.125 0.515625q1.453125 0.515625 2.4375 1.46875q0.390625 0.390625 0.390625 0.84375q0 0.34375 -0.203125 0.59375q-0.1875 0.25 -0.453125 0.25q-0.265625 0 -0.6875 -0.265625q-1.171875 -0.953125 -2.1875 -1.34375q-1.0 -0.390625 -2.421875 -0.390625q-2.0 0 -3.109375 0.828125q-1.09375 0.828125 -1.09375 2.328125q0 1.265625 0.96875 1.90625q0.984375 0.625 3.0 1.109375q2.171875 0.53125 3.421875 0.984375q1.25 0.4375 2.078125 1.328125q0.828125 0.875 0.828125 2.375q0 1.40625 -0.78125 2.484375q-0.78125 1.078125 -2.203125 1.6875q-1.40625 0.59375 -3.234375 0.59375z" fill-rule="nonzero"/><path fill="#000000" fill-opacity="0.0" d="m614.8609 180.19948l142.17322 0l0 42.551178l-142.17322 0z" fill-rule="evenodd"/><path fill="#000000" d="m627.8378 212.36447q-0.46875 0 -0.734375 -0.28125q-0.25 -0.28125 -0.25 -0.734375l0 -15.0625q0 -0.4375 0.265625 -0.703125q0.28125 -0.265625 0.734375 -0.265625l8.734375 0q0.4375 0 0.671875 0.21875q0.25 0.21875 0.25 0.625q0 0.375 -0.25 0.59375q-0.234375 0.21875 -0.671875 0.21875l-7.796875 0l0 5.828125l7.328125 0q0.421875 0 0.65625 0.21875q0.25 0.21875 0.25 0.625q0 0.390625 -0.25 0.609375q-0.234375 0.203125 -0.65625 0.203125l-7.328125 0l0 6.890625q0 0.453125 -0.25 0.734375q-0.25 0.28125 -0.703125 0.28125zm34.008545 -16.5625q0.09375 -0.3125 0.328125 -0.46875q0.234375 -0.15625 0.53125 -0.15625q0.375 0 0.65625 0.234375q0.28125 0.21875 0.28125 0.609375q0 0.15625 -0.078125 0.375l-5.421875 15.296875q-0.125 0.328125 -0.421875 0.515625q-0.28125 0.171875 -0.640625 0.171875q-0.328125 0 -0.625 -0.171875q-0.28125 -0.1875 -0.40625 -0.515625l-4.703125 -13.296875l-4.75 13.296875q-0.109375 0.328125 -0.40625 0.515625q-0.28125 0.171875 -0.625 0.171875q-0.328125 0 -0.625 -0.171875q-0.28125 -0.1875 -0.40625 -0.515625l-5.453125 -15.296875q-0.0625 -0.1875 -0.0625 -0.359375q0 -0.375 0.296875 -0.609375q0.296875 -0.25 0.6875 -0.25q0.28125 0 0.53125 0.15625q0.25 0.15625 0.359375 0.46875l4.71875 13.625l4.796875 -13.484375q0.125 -0.359375 0.390625 -0.53125q0.265625 -0.1875 0.578125 -0.1875q0.3125 0 0.578125 0.203125q0.265625 0.1875 0.375 0.546875l4.734375 13.5l4.78125 -13.671875zm5.158325 10.84375q-0.4375 0 -0.671875 -0.21875q-0.21875 -0.21875 -0.21875 -0.578125q0 -0.359375 0.21875 -0.578125q0.234375 -0.234375 0.671875 -0.234375l5.28125 0q0.453125 0 0.671875 0.234375q0.234375 0.21875 0.234375 0.578125q0 0.359375 -0.234375 0.578125q-0.21875 0.21875 -0.671875 0.21875l-5.28125 0zm17.012451 5.78125q-2.40625 0 -4.15625 -1.03125q-1.75 -1.046875 -2.703125 -3.0q-0.9375 -1.96875 -0.9375 -4.625q0 -2.640625 0.9375 -4.59375q0.953125 -1.96875 2.703125 -3.0q1.75 -1.046875 4.15625 -1.046875q1.609375 0 3.03125 0.515625q1.4375 0.515625 2.484375 1.46875q0.390625 0.359375 0.390625 0.84375q0 0.34375 -0.203125 0.59375q-0.1875 0.25 -0.453125 0.25q-0.28125 0 -0.6875 -0.265625q-1.234375 -0.953125 -2.234375 -1.34375q-0.984375 -0.390625 -2.28125 -0.390625q-2.78125 0 -4.28125 1.8125q-1.5 1.8125 -1.5 5.15625q0 3.359375 1.5 5.171875q1.5 1.8125 4.28125 1.8125q1.265625 0 2.265625 -0.375q1.015625 -0.390625 2.25 -1.359375q0.40625 -0.265625 0.6875 -0.265625q0.265625 0 0.453125 0.25q0.203125 0.234375 0.203125 0.59375q0 0.484375 -0.390625 0.84375q-1.046875 0.953125 -2.484375 1.46875q-1.421875 0.515625 -3.03125 0.515625zm23.63861 -1.3125q0.09375 0.1875 0.09375 0.40625q0 0.359375 -0.28125 0.609375q-0.265625 0.234375 -0.65625 0.234375q-0.59375 0 -0.84375 -0.578125l-1.703125 -3.890625l-9.046875 0l-1.71875 3.890625q-0.25 0.578125 -0.84375 0.578125q-0.390625 0 -0.671875 -0.25q-0.28125 -0.265625 -0.28125 -0.625q0 -0.1875 0.09375 -0.375l6.859375 -15.265625q0.140625 -0.34375 0.421875 -0.5q0.296875 -0.171875 0.640625 -0.171875q0.359375 0 0.640625 0.1875q0.28125 0.171875 0.4375 0.484375l6.859375 15.265625zm-11.71875 -4.84375l7.609375 0l-3.8125 -8.625l-3.796875 8.625zm15.604187 5.96875q-0.453125 0 -0.734375 -0.265625q-0.265625 -0.265625 -0.265625 -0.6875l0 -15.0q0 -0.4375 0.265625 -0.703125q0.28125 -0.265625 0.734375 -0.265625l4.6875 0q4.046875 0 6.265625 2.203125q2.21875 2.1875 2.21875 6.25q0 4.046875 -2.234375 6.265625q-2.21875 2.203125 -6.25 2.203125l-4.6875 0zm4.5625 -1.6875q6.578125 0 6.578125 -6.78125q0 -6.765625 -6.578125 -6.765625l-3.59375 0l0 13.546875l3.59375 0zm13.157837 1.8125q-0.46875 0 -0.734375 -0.28125q-0.25 -0.28125 -0.25 -0.734375l0 -15.140625q0 -0.453125 0.25 -0.734375q0.265625 -0.28125 0.734375 -0.28125q0.453125 0 0.71875 0.28125q0.265625 0.28125 0.265625 0.734375l0 15.140625q0 0.453125 -0.265625 0.734375q-0.265625 0.28125 -0.71875 0.28125zm10.550232 0.0625q-1.796875 0 -3.4375 -0.53125q-1.640625 -0.546875 -2.625 -1.453125q-0.359375 -0.34375 -0.359375 -0.84375q0 -0.328125 0.1875 -0.578125q0.1875 -0.265625 0.453125 -0.265625q0.3125 0 0.671875 0.265625q2.234375 1.734375 5.09375 1.734375q2.0625 0 3.15625 -0.796875q1.109375 -0.796875 1.109375 -2.25q0 -0.84375 -0.53125 -1.359375q-0.515625 -0.515625 -1.390625 -0.828125q-0.859375 -0.3125 -2.328125 -0.65625q-1.96875 -0.453125 -3.234375 -0.953125q-1.25 -0.5 -2.03125 -1.4375q-0.78125 -0.9375 -0.78125 -2.453125q0 -1.4375 0.78125 -2.546875q0.78125 -1.125 2.1875 -1.734375q1.40625 -0.609375 3.203125 -0.609375q1.671875 0 3.125 0.515625q1.453125 0.515625 2.4375 1.46875q0.390625 0.390625 0.390625 0.84375q0 0.34375 -0.203125 0.59375q-0.1875 0.25 -0.453125 0.25q-0.265625 0 -0.6875 -0.265625q-1.171875 -0.953125 -2.1875 -1.34375q-1.0 -0.390625 -2.421875 -0.390625q-2.0 0 -3.109375 0.828125q-1.09375 0.828125 -1.09375 2.328125q0 1.265625 0.96875 1.90625q0.984375 0.625 3.0 1.109375q2.171875 0.53125 3.421875 0.984375q1.25 0.4375 2.078125 1.328125q0.828125 0.875 0.828125 2.375q0 1.40625 -0.78125 2.484375q-0.78125 1.078125 -2.203125 1.6875q-1.40625 0.59375 -3.234375 0.59375z" fill-rule="nonzero"/><path fill="#000000" fill-opacity="0.0" d="m602.3412 265.3386l167.21265 0l0 42.551178l-167.21265 0z" fill-rule="evenodd"/><path fill="#000000" d="m618.48987 297.50357q-0.46875 0 -0.734375 -0.28125q-0.25 -0.28125 -0.25 -0.734375l0 -15.0625q0 -0.4375 0.265625 -0.703125q0.28125 -0.265625 0.734375 -0.265625l8.734375 0q0.4375 0 0.671875 0.21875q0.25 0.21875 0.25 0.625q0 0.375 -0.25 0.59375q-0.234375 0.21875 -0.671875 0.21875l-7.796875 0l0 5.828125l7.328125 0q0.421875 0 0.65625 0.21875q0.25 0.21875 0.25 0.625q0 0.390625 -0.25 0.609375q-0.234375 0.203125 -0.65625 0.203125l-7.328125 0l0 6.890625q0 0.453125 -0.25 0.734375q-0.25 0.28125 -0.703125 0.28125zm34.008545 -16.5625q0.09375 -0.3125 0.328125 -0.46875q0.234375 -0.15625 0.53125 -0.15625q0.375 0 0.65625 0.234375q0.28125 0.21875 0.28125 0.609375q0 0.15625 -0.078125 0.375l-5.421875 15.296875q-0.125 0.328125 -0.421875 0.515625q-0.28125 0.171875 -0.640625 0.171875q-0.328125 0 -0.625 -0.171875q-0.28125 -0.1875 -0.40625 -0.515625l-4.703125 -13.296875l-4.75 13.296875q-0.109375 0.328125 -0.40625 0.515625q-0.28125 0.171875 -0.625 0.171875q-0.328125 0 -0.625 -0.171875q-0.28125 -0.1875 -0.40625 -0.515625l-5.453125 -15.296875q-0.0625 -0.1875 -0.0625 -0.359375q0 -0.375 0.296875 -0.609375q0.296875 -0.25 0.6875 -0.25q0.28125 0 0.53125 0.15625q0.25 0.15625 0.359375 0.46875l4.71875 13.625l4.796875 -13.484375q0.125 -0.359375 0.390625 -0.53125q0.265625 -0.1875 0.578125 -0.1875q0.3125 0 0.578125 0.203125q0.265625 0.1875 0.375 0.546875l4.734375 13.5l4.78125 -13.671875zm5.158325 10.84375q-0.4375 0 -0.671875 -0.21875q-0.21875 -0.21875 -0.21875 -0.578125q0 -0.359375 0.21875 -0.578125q0.234375 -0.234375 0.671875 -0.234375l5.28125 0q0.453125 0 0.671875 0.234375q0.234375 0.21875 0.234375 0.578125q0 0.359375 -0.234375 0.578125q-0.21875 0.21875 -0.671875 0.21875l-5.28125 0zm17.012451 5.78125q-2.40625 0 -4.15625 -1.03125q-1.75 -1.046875 -2.703125 -3.0q-0.9375 -1.96875 -0.9375 -4.625q0 -2.640625 0.9375 -4.59375q0.953125 -1.96875 2.703125 -3.0q1.75 -1.046875 4.15625 -1.046875q1.609375 0 3.03125 0.515625q1.4375 0.515625 2.484375 1.46875q0.390625 0.359375 0.390625 0.84375q0 0.34375 -0.203125 0.59375q-0.1875 0.25 -0.453125 0.25q-0.28125 0 -0.6875 -0.265625q-1.234375 -0.953125 -2.234375 -1.34375q-0.984375 -0.390625 -2.28125 -0.390625q-2.78125 0 -4.28125 1.8125q-1.5 1.8125 -1.5 5.15625q0 3.359375 1.5 5.171875q1.5 1.8125 4.28125 1.8125q1.265625 0 2.265625 -0.375q1.015625 -0.390625 2.25 -1.359375q0.40625 -0.265625 0.6875 -0.265625q0.265625 0 0.453125 0.25q0.203125 0.234375 0.203125 0.59375q0 0.484375 -0.390625 0.84375q-1.046875 0.953125 -2.484375 1.46875q-1.421875 0.515625 -3.03125 0.515625zm23.63861 -1.3125q0.09375 0.1875 0.09375 0.40625q0 0.359375 -0.28125 0.609375q-0.265625 0.234375 -0.65625 0.234375q-0.59375 0 -0.84375 -0.578125l-1.703125 -3.890625l-9.046875 0l-1.71875 3.890625q-0.25 0.578125 -0.84375 0.578125q-0.390625 0 -0.671875 -0.25q-0.28125 -0.265625 -0.28125 -0.625q0 -0.1875 0.09375 -0.375l6.859375 -15.265625q0.140625 -0.34375 0.421875 -0.5q0.296875 -0.171875 0.640625 -0.171875q0.359375 0 0.640625 0.1875q0.28125 0.171875 0.4375 0.484375l6.859375 15.265625zm-11.71875 -4.84375l7.609375 0l-3.8125 -8.625l-3.796875 8.625zm15.604187 5.96875q-0.453125 0 -0.734375 -0.265625q-0.265625 -0.265625 -0.265625 -0.6875l0 -15.0q0 -0.4375 0.265625 -0.703125q0.28125 -0.265625 0.734375 -0.265625l4.6875 0q4.046875 0 6.265625 2.203125q2.21875 2.1875 2.21875 6.25q0 4.046875 -2.234375 6.265625q-2.21875 2.203125 -6.25 2.203125l-4.6875 0zm4.5625 -1.6875q6.578125 0 6.578125 -6.78125q0 -6.765625 -6.578125 -6.765625l-3.59375 0l0 13.546875l3.59375 0zm13.157837 1.8125q-0.46875 0 -0.734375 -0.28125q-0.25 -0.28125 -0.25 -0.734375l0 -15.140625q0 -0.453125 0.25 -0.734375q0.265625 -0.28125 0.734375 -0.28125q0.453125 0 0.71875 0.28125q0.265625 0.28125 0.265625 0.734375l0 15.140625q0 0.453125 -0.265625 0.734375q-0.265625 0.28125 -0.71875 0.28125zm10.550232 0.0625q-1.796875 0 -3.4375 -0.53125q-1.640625 -0.546875 -2.625 -1.453125q-0.359375 -0.34375 -0.359375 -0.84375q0 -0.328125 0.1875 -0.578125q0.1875 -0.265625 0.453125 -0.265625q0.3125 0 0.671875 0.265625q2.234375 1.734375 5.09375 1.734375q2.0625 0 3.15625 -0.796875q1.109375 -0.796875 1.109375 -2.25q0 -0.84375 -0.53125 -1.359375q-0.515625 -0.515625 -1.390625 -0.828125q-0.859375 -0.3125 -2.328125 -0.65625q-1.96875 -0.453125 -3.234375 -0.953125q-1.25 -0.5 -2.03125 -1.4375q-0.78125 -0.9375 -0.78125 -2.453125q0 -1.4375 0.78125 -2.546875q0.78125 -1.125 2.1875 -1.734375q1.40625 -0.609375 3.203125 -0.609375q1.671875 0 3.125 0.515625q1.453125 0.515625 2.4375 1.46875q0.390625 0.390625 0.390625 0.84375q0 0.34375 -0.203125 0.59375q-0.1875 0.25 -0.453125 0.25q-0.265625 0 -0.6875 -0.265625q-1.171875 -0.953125 -2.1875 -1.34375q-1.0 -0.390625 -2.421875 -0.390625q-2.0 0 -3.109375 0.828125q-1.09375 0.828125 -1.09375 2.328125q0 1.265625 0.96875 1.90625q0.984375 0.625 3.0 1.109375q2.171875 0.53125 3.421875 0.984375q1.25 0.4375 2.078125 1.328125q0.828125 0.875 0.828125 2.375q0 1.40625 -0.78125 2.484375q-0.78125 1.078125 -2.203125 1.6875q-1.40625 0.59375 -3.234375 0.59375zm23.761047 -1.84375q0.40625 0 0.65625 0.234375q0.265625 0.21875 0.265625 0.578125q0 0.390625 -0.265625 0.625q-0.25 0.21875 -0.65625 0.21875l-4.875 0q-0.421875 0 -0.671875 -0.234375q-0.234375 -0.25 -0.234375 -0.609375q0 -0.328125 0.265625 -0.734375q2.546875 -3.828125 3.484375 -5.765625q0.9375 -1.9375 0.9375 -3.40625q0 -2.1875 -1.609375 -3.4375q-1.59375 -1.25 -4.390625 -1.25q-2.796875 0 -4.390625 1.25q-1.59375 1.25 -1.59375 3.4375q0 1.46875 0.9375 3.4375q0.953125 1.953125 3.484375 5.734375q0.234375 0.375 0.234375 0.734375q0 0.359375 -0.25 0.609375q-0.234375 0.234375 -0.65625 0.234375l-4.859375 0q-0.40625 0 -0.65625 -0.21875q-0.25 -0.234375 -0.25 -0.625q0 -0.359375 0.25 -0.578125q0.25 -0.234375 0.65625 -0.234375l3.625 0q-1.890625 -2.65625 -2.859375 -4.21875q-0.953125 -1.5625 -1.3125 -2.65625q-0.359375 -1.09375 -0.359375 -2.265625q0 -1.921875 0.984375 -3.34375q0.984375 -1.4375 2.78125 -2.21875q1.796875 -0.78125 4.234375 -0.78125q2.421875 0 4.234375 0.78125q1.8125 0.78125 2.796875 2.21875q0.984375 1.4375 0.984375 3.34375q0 1.203125 -0.40625 2.375q-0.390625 1.15625 -1.34375 2.71875q-0.953125 1.546875 -2.796875 4.046875l3.625 0z" fill-rule="nonzero"/><path fill="#000000" fill-opacity="0.0" d="m451.90814 265.3386l142.17322 0l0 42.551178l-142.17322 0z" fill-rule="evenodd"/><path fill="#000000" d="m486.72052 297.56607q-2.40625 0 -4.15625 -1.03125q-1.75 -1.046875 -2.703125 -3.0q-0.9375 -1.96875 -0.9375 -4.625q0 -2.640625 0.9375 -4.59375q0.953125 -1.96875 2.703125 -3.0q1.75 -1.046875 4.15625 -1.046875q1.609375 0 3.03125 0.515625q1.4375 0.515625 2.484375 1.46875q0.390625 0.359375 0.390625 0.84375q0 0.34375 -0.203125 0.59375q-0.1875 0.25 -0.453125 0.25q-0.28125 0 -0.6875 -0.265625q-1.234375 -0.953125 -2.234375 -1.34375q-0.984375 -0.390625 -2.28125 -0.390625q-2.78125 0 -4.28125 1.8125q-1.5 1.8125 -1.5 5.15625q0 3.359375 1.5 5.171875q1.5 1.8125 4.28125 1.8125q1.265625 0 2.265625 -0.375q1.015625 -0.390625 2.25 -1.359375q0.40625 -0.265625 0.6875 -0.265625q0.265625 0 0.453125 0.25q0.203125 0.234375 0.203125 0.59375q0 0.484375 -0.390625 0.84375q-1.046875 0.953125 -2.484375 1.46875q-1.421875 0.515625 -3.03125 0.515625zm23.63858 -1.3125q0.09375 0.1875 0.09375 0.40625q0 0.359375 -0.28125 0.609375q-0.265625 0.234375 -0.65625 0.234375q-0.59375 0 -0.84375 -0.578125l-1.703125 -3.890625l-9.046875 0l-1.71875 3.890625q-0.25 0.578125 -0.84375 0.578125q-0.390625 0 -0.671875 -0.25q-0.28125 -0.265625 -0.28125 -0.625q0 -0.1875 0.09375 -0.375l6.859375 -15.265625q0.140625 -0.34375 0.421875 -0.5q0.296875 -0.171875 0.640625 -0.171875q0.359375 0 0.640625 0.1875q0.28125 0.171875 0.4375 0.484375l6.859375 15.265625zm-11.71875 -4.84375l7.609375 0l-3.8125 -8.625l-3.796875 8.625zm15.604218 5.96875q-0.453125 0 -0.734375 -0.265625q-0.265625 -0.265625 -0.265625 -0.6875l0 -15.0q0 -0.4375 0.265625 -0.703125q0.28125 -0.265625 0.734375 -0.265625l4.6875 0q4.046875 0 6.265625 2.203125q2.21875 2.1875 2.21875 6.25q0 4.046875 -2.234375 6.265625q-2.21875 2.203125 -6.25 2.203125l-4.6875 0zm4.5625 -1.6875q6.578125 0 6.578125 -6.78125q0 -6.765625 -6.578125 -6.765625l-3.59375 0l0 13.546875l3.59375 0zm13.157776 1.8125q-0.46875 0 -0.734375 -0.28125q-0.25 -0.28125 -0.25 -0.734375l0 -15.140625q0 -0.453125 0.25 -0.734375q0.265625 -0.28125 0.734375 -0.28125q0.453125 0 0.71875 0.28125q0.265625 0.28125 0.265625 0.734375l0 15.140625q0 0.453125 -0.265625 0.734375q-0.265625 0.28125 -0.71875 0.28125zm10.550232 0.0625q-1.796875 0 -3.4375 -0.53125q-1.640625 -0.546875 -2.625 -1.453125q-0.359375 -0.34375 -0.359375 -0.84375q0 -0.328125 0.1875 -0.578125q0.1875 -0.265625 0.453125 -0.265625q0.3125 0 0.671875 0.265625q2.234375 1.734375 5.09375 1.734375q2.0625 0 3.15625 -0.796875q1.109375 -0.796875 1.109375 -2.25q0 -0.84375 -0.53125 -1.359375q-0.515625 -0.515625 -1.390625 -0.828125q-0.859375 -0.3125 -2.328125 -0.65625q-1.96875 -0.453125 -3.234375 -0.953125q-1.25 -0.5 -2.03125 -1.4375q-0.78125 -0.9375 -0.78125 -2.453125q0 -1.4375 0.78125 -2.546875q0.78125 -1.125 2.1875 -1.734375q1.40625 -0.609375 3.203125 -0.609375q1.671875 0 3.125 0.515625q1.453125 0.515625 2.4375 1.46875q0.390625 0.390625 0.390625 0.84375q0 0.34375 -0.203125 0.59375q-0.1875 0.25 -0.453125 0.25q-0.265625 0 -0.6875 -0.265625q-1.171875 -0.953125 -2.1875 -1.34375q-1.0 -0.390625 -2.421875 -0.390625q-2.0 0 -3.109375 0.828125q-1.09375 0.828125 -1.09375 2.328125q0 1.265625 0.96875 1.90625q0.984375 0.625 3.0 1.109375q2.171875 0.53125 3.421875 0.984375q1.25 0.4375 2.078125 1.328125q0.828125 0.875 0.828125 2.375q0 1.40625 -0.78125 2.484375q-0.78125 1.078125 -2.203125 1.6875q-1.40625 0.59375 -3.234375 0.59375zm23.761108 -1.84375q0.40625 0 0.65625 0.234375q0.265625 0.21875 0.265625 0.578125q0 0.390625 -0.265625 0.625q-0.25 0.21875 -0.65625 0.21875l-4.875 0q-0.421875 0 -0.671875 -0.234375q-0.234375 -0.25 -0.234375 -0.609375q0 -0.328125 0.265625 -0.734375q2.546875 -3.828125 3.484375 -5.765625q0.9375 -1.9375 0.9375 -3.40625q0 -2.1875 -1.609375 -3.4375q-1.59375 -1.25 -4.390625 -1.25q-2.796875 0 -4.390625 1.25q-1.59375 1.25 -1.59375 3.4375q0 1.46875 0.9375 3.4375q0.953125 1.953125 3.484375 5.734375q0.234375 0.375 0.234375 0.734375q0 0.359375 -0.25 0.609375q-0.234375 0.234375 -0.65625 0.234375l-4.859375 0q-0.40625 0 -0.65625 -0.21875q-0.25 -0.234375 -0.25 -0.625q0 -0.359375 0.25 -0.578125q0.25 -0.234375 0.65625 -0.234375l3.625 0q-1.890625 -2.65625 -2.859375 -4.21875q-0.953125 -1.5625 -1.3125 -2.65625q-0.359375 -1.09375 -0.359375 -2.265625q0 -1.921875 0.984375 -3.34375q0.984375 -1.4375 2.78125 -2.21875q1.796875 -0.78125 4.234375 -0.78125q2.421875 0 4.234375 0.78125q1.8125 0.78125 2.796875 2.21875q0.984375 1.4375 0.984375 3.34375q0 1.203125 -0.40625 2.375q-0.390625 1.15625 -1.34375 2.71875q-0.953125 1.546875 -2.796875 4.046875l3.625 0z" fill-rule="nonzero"/><path fill="#f19167" d="m166.70866 199.08136l132.85039 0l0 84.62991l-132.85039 0z" fill-rule="evenodd"/><path stroke="#000000" stroke-width="1.0" stroke-linejoin="round" stroke-linecap="butt" d="m166.70866 199.08136l132.85039 0l0 84.62991l-132.85039 0z" fill-rule="evenodd"/><path fill="#000000" fill-opacity="0.0" d="m944.7913 133.93176l159.62201 0l0 42.551178l-159.62201 0z" fill-rule="evenodd"/><path fill="#000000" d="m1006.8878 148.92488q0.453125 0 0.703125 0.28125q0.265625 0.28125 0.265625 0.734375l0 15.1875q0 0.4375 -0.25 0.703125q-0.234375 0.265625 -0.671875 0.265625q-0.421875 0 -0.640625 -0.265625q-0.21875 -0.265625 -0.21875 -0.703125l0 -12.265625l-5.203125 9.984375q-0.34375 0.703125 -0.984375 0.703125q-0.625 0 -0.984375 -0.703125l-5.234375 -9.859375l0 12.140625q0 0.4375 -0.234375 0.703125q-0.21875 0.265625 -0.65625 0.265625q-0.4375 0 -0.671875 -0.265625q-0.234375 -0.265625 -0.234375 -0.703125l0 -15.1875q0 -0.453125 0.25 -0.734375q0.265625 -0.28125 0.734375 -0.28125q0.59375 0 0.953125 0.703125l6.09375 11.6875l6.03125 -11.6875q0.1875 -0.390625 0.40625 -0.546875q0.234375 -0.15625 0.546875 -0.15625zm12.34021 17.234375q-2.40625 0 -4.15625 -1.03125q-1.75 -1.046875 -2.703125 -3.0q-0.9375 -1.96875 -0.9375 -4.625q0 -2.640625 0.9375 -4.59375q0.953125 -1.96875 2.703125 -3.0q1.75 -1.046875 4.15625 -1.046875q1.609375 0 3.03125 0.515625q1.4375 0.515625 2.484375 1.46875q0.390625 0.359375 0.390625 0.84375q0 0.34375 -0.203125 0.59375q-0.1875 0.25 -0.453125 0.25q-0.28125 0 -0.6875 -0.265625q-1.234375 -0.953125 -2.234375 -1.34375q-0.984375 -0.390625 -2.28125 -0.390625q-2.78125 0 -4.28125 1.8125q-1.5 1.8125 -1.5 5.15625q0 3.359375 1.5 5.171875q1.5 1.8125 4.28125 1.8125q1.265625 0 2.265625 -0.375q1.015625 -0.390625 2.25 -1.359375q0.40625 -0.265625 0.6875 -0.265625q0.265625 0 0.453125 0.25q0.203125 0.234375 0.203125 0.59375q0 0.484375 -0.390625 0.84375q-1.046875 0.953125 -2.484375 1.46875q-1.421875 0.515625 -3.03125 0.515625zm21.716675 -17.234375q0.4375 0 0.671875 0.28125q0.234375 0.28125 0.234375 0.734375l0 15.140625q0 0.453125 -0.25 0.734375q-0.25 0.28125 -0.703125 0.28125q-0.453125 0 -0.796875 -0.40625l-9.953125 -13.328125l0 12.71875q0 0.453125 -0.25 0.734375q-0.25 0.28125 -0.6875 0.28125q-0.4375 0 -0.671875 -0.28125q-0.234375 -0.28125 -0.234375 -0.734375l0 -15.140625q0 -0.453125 0.25 -0.734375q0.25 -0.28125 0.703125 -0.28125q0.484375 0 0.8125 0.421875l9.9375 13.3125l0 -12.71875q0 -0.453125 0.25 -0.734375q0.25 -0.28125 0.6875 -0.28125zm6.079712 17.171875q-0.46875 0 -0.734375 -0.28125q-0.25 -0.28125 -0.25 -0.734375l0 -15.0625q0 -0.4375 0.265625 -0.703125q0.28125 -0.265625 0.734375 -0.265625l5.6875 0q2.671875 0 4.140625 1.296875q1.484375 1.296875 1.484375 3.671875q0 2.375 -1.5 3.703125q-1.484375 1.3125 -4.125 1.3125l-4.71875 0l0 6.046875q0 0.453125 -0.265625 0.734375q-0.265625 0.28125 -0.71875 0.28125zm5.515625 -8.6875q3.859375 0 3.859375 -3.390625q0 -3.328125 -3.859375 -3.328125l-4.53125 0l0 6.71875l4.53125 0z" fill-rule="nonzero"/><path fill="#000000" fill-opacity="0.0" d="m153.32152 214.91864l159.62206 0l0 42.551178l-159.62206 0z" fill-rule="evenodd"/><path fill="#000000" d="m194.73041 246.95863q-0.453125 0 -0.734375 -0.265625q-0.265625 -0.265625 -0.265625 -0.6875l0 -15.0q0 -0.4375 0.265625 -0.703125q0.28125 -0.265625 0.734375 -0.265625l4.6875 0q4.046875 0 6.265625 2.203125q2.21875 2.1875 2.21875 6.25q0 4.046875 -2.234375 6.265625q-2.21875 2.203125 -6.25 2.203125l-4.6875 0zm4.5625 -1.6875q6.578125 0 6.578125 -6.78125q0 -6.765625 -6.578125 -6.765625l-3.59375 0l0 13.546875l3.59375 0zm20.923447 -1.03125q0.265625 0 0.453125 0.21875q0.203125 0.21875 0.203125 0.5625q0 0.59375 -0.84375 1.09375q-0.859375 0.5 -1.828125 0.765625q-0.953125 0.25 -1.875 0.25q-2.703125 0 -4.28125 -1.609375q-1.5625 -1.609375 -1.5625 -4.4375q0 -1.8125 0.6875 -3.1875q0.703125 -1.375 1.953125 -2.140625q1.265625 -0.765625 2.875 -0.765625q2.28125 0 3.625 1.484375q1.34375 1.484375 1.34375 4.03125q0 0.484375 -0.203125 0.703125q-0.1875 0.203125 -0.609375 0.203125l-7.734375 0q0.21875 4.125 3.90625 4.125q0.9375 0 1.609375 -0.25q0.671875 -0.25 1.453125 -0.6875q0.609375 -0.359375 0.828125 -0.359375zm-4.203125 -7.75q-1.53125 0 -2.453125 0.96875q-0.921875 0.953125 -1.09375 2.703125l6.796875 0q-0.046875 -1.765625 -0.890625 -2.71875q-0.84375 -0.953125 -2.359375 -0.953125zm13.6948395 -1.5q4.1875 0 4.1875 4.625l0 6.5q0 0.453125 -0.25 0.71875q-0.25 0.25 -0.703125 0.25q-0.453125 0 -0.71875 -0.25q-0.265625 -0.265625 -0.265625 -0.71875l0 -6.375q0 -1.640625 -0.640625 -2.375q-0.640625 -0.75 -2.03125 -0.75q-1.609375 0 -2.5625 0.984375q-0.953125 0.984375 -0.953125 2.65625l0 5.859375q0 0.453125 -0.265625 0.71875q-0.25 0.25 -0.703125 0.25q-0.453125 0 -0.71875 -0.25q-0.265625 -0.265625 -0.265625 -0.71875l0 -10.125q0 -0.4375 0.265625 -0.6875q0.265625 -0.265625 0.71875 -0.265625q0.4375 0 0.6875 0.265625q0.25 0.25 0.25 0.671875l0 1.21875q0.578125 -1.078125 1.609375 -1.640625q1.03125 -0.5625 2.359375 -0.5625zm12.585083 12.140625q-1.65625 0 -2.921875 -0.734375q-1.25 -0.75 -1.9375 -2.125q-0.671875 -1.390625 -0.671875 -3.21875q0 -1.828125 0.671875 -3.203125q0.6875 -1.375 1.9375 -2.109375q1.265625 -0.75 2.921875 -0.75q1.65625 0 2.921875 0.75q1.28125 0.734375 1.96875 2.109375q0.6875 1.375 0.6875 3.203125q0 1.828125 -0.6875 3.21875q-0.6875 1.375 -1.96875 2.125q-1.265625 0.734375 -2.921875 0.734375zm0 -1.609375q1.734375 0 2.65625 -1.140625q0.921875 -1.140625 0.921875 -3.328125q0 -2.140625 -0.9375 -3.296875q-0.921875 -1.171875 -2.640625 -1.171875q-1.703125 0 -2.640625 1.171875q-0.921875 1.15625 -0.921875 3.296875q0 2.15625 0.921875 3.3125q0.921875 1.15625 2.640625 1.15625zm16.898102 -9.890625q0.265625 -0.578125 0.84375 -0.578125q0.359375 0 0.640625 0.25q0.296875 0.234375 0.296875 0.59375q0 0.21875 -0.09375 0.375l-4.6875 10.09375q-0.140625 0.3125 -0.43751526 0.5q-0.28125 0.171875 -0.609375 0.171875q-0.3125 0 -0.609375 -0.171875q-0.28125 -0.1875 -0.453125 -0.5l-4.65625 -10.09375q-0.09375 -0.15625 -0.09375 -0.359375q0 -0.359375 0.328125 -0.609375q0.328125 -0.265625 0.703125 -0.265625q0.234375 0 0.46875 0.140625q0.234375 0.140625 0.34375 0.40625l4.015625 9.0l4.0000153 -8.953125zm8.757843 11.5q-1.65625 0 -2.921875 -0.734375q-1.25 -0.75 -1.9375 -2.125q-0.671875 -1.390625 -0.671875 -3.21875q0 -1.828125 0.671875 -3.203125q0.6875 -1.375 1.9375 -2.109375q1.265625 -0.75 2.921875 -0.75q1.65625 0 2.921875 0.75q1.28125 0.734375 1.96875 2.109375q0.6875 1.375 0.6875 3.203125q0 1.828125 -0.6875 3.21875q-0.6875 1.375 -1.96875 2.125q-1.265625 0.734375 -2.921875 0.734375zm0 -1.609375q1.734375 0 2.65625 -1.140625q0.921875 -1.140625 0.921875 -3.328125q0 -2.140625 -0.9375 -3.296875q-0.921875 -1.171875 -2.640625 -1.171875q-1.703125 0 -2.640625 1.171875q-0.921875 1.15625 -0.921875 3.296875q0 2.15625 0.921875 3.3125q0.921875 1.15625 2.640625 1.15625z" fill-rule="nonzero"/><path fill="#3d1f1f" fill-opacity="0.4923" d="m43.498688 197.33333l0 0c0 -13.307007 20.79232 -24.094482 46.44095 -24.094482l0 0c25.64862 0 46.44095 10.787476 46.44095 24.094482l0 0c0 13.307022 -20.792328 24.094498 -46.44095 24.094498l0 0c-25.648628 0 -46.44095 -10.787476 -46.44095 -24.094498z" fill-rule="evenodd"/><path stroke="#000000" stroke-width="1.0" stroke-linejoin="round" stroke-linecap="butt" d="m43.498688 197.33333l0 0c0 -13.307007 20.79232 -24.094482 46.44095 -24.094482l0 0c25.64862 0 46.44095 10.787476 46.44095 24.094482l0 0c0 13.307022 -20.792328 24.094498 -46.44095 24.094498l0 0c-25.648628 0 -46.44095 -10.787476 -46.44095 -24.094498z" fill-rule="evenodd"/><path fill="#3d1f1f" fill-opacity="0.6769" d="m43.498688 236.19423l0 0c0 -13.307022 20.79232 -24.094498 46.44095 -24.094498l0 0c25.64862 0 46.44095 10.787476 46.44095 24.094498l0 0c0 13.307022 -20.792328 24.094498 -46.44095 24.094498l0 0c-25.648628 0 -46.44095 -10.787476 -46.44095 -24.094498z" fill-rule="evenodd"/><path stroke="#3d1f1f" stroke-width="1.0" stroke-linejoin="round" stroke-linecap="butt" d="m43.498688 236.19423l0 0c0 -13.307022 20.79232 -24.094498 46.44095 -24.094498l0 0c25.64862 0 46.44095 10.787476 46.44095 24.094498l0 0c0 13.307022 -20.792328 24.094498 -46.44095 24.094498l0 0c-25.648628 0 -46.44095 -10.787476 -46.44095 -24.094498z" fill-rule="evenodd"/><path fill="#3d1f1f" fill-opacity="0.8231" d="m43.498688 272.0l0 0c0 -13.307007 20.79232 -24.094482 46.44095 -24.094482l0 0c25.64862 0 46.44095 10.787476 46.44095 24.094482l0 0c0 13.307007 -20.792328 24.094482 -46.44095 24.094482l0 0c-25.648628 0 -46.44095 -10.787476 -46.44095 -24.094482z" fill-rule="evenodd"/><path stroke="#000000" stroke-width="1.0" stroke-linejoin="round" stroke-linecap="butt" d="m43.498688 272.0l0 0c0 -13.307007 20.79232 -24.094482 46.44095 -24.094482l0 0c25.64862 0 46.44095 10.787476 46.44095 24.094482l0 0c0 13.307007 -20.792328 24.094482 -46.44095 24.094482l0 0c-25.648628 0 -46.44095 -10.787476 -46.44095 -24.094482z" fill-rule="evenodd"/><path fill="#3d1f1f" d="m43.498688 311.97375l0 0c0 -13.307007 20.79232 -24.094482 46.44095 -24.094482l0 0c25.64862 0 46.44095 10.787476 46.44095 24.094482l0 0c0 13.307007 -20.792328 24.094482 -46.44095 24.094482l0 0c-25.648628 0 -46.44095 -10.787476 -46.44095 -24.094482z" fill-rule="evenodd"/><path stroke="#000000" stroke-width="1.0" stroke-linejoin="round" stroke-linecap="butt" d="m43.498688 311.97375l0 0c0 -13.307007 20.79232 -24.094482 46.44095 -24.094482l0 0c25.64862 0 46.44095 10.787476 46.44095 24.094482l0 0c0 13.307007 -20.792328 24.094482 -46.44095 24.094482l0 0c-25.648628 0 -46.44095 -10.787476 -46.44095 -24.094482z" fill-rule="evenodd"/><path fill="#000000" fill-opacity="0.0" d="m865.51447 347.35696l-124.75592 0.5984192" fill-rule="evenodd"/><path stroke="#000000" stroke-width="3.0" stroke-linejoin="round" stroke-linecap="butt" d="m865.51447 347.35696l-114.47479 0.54907227" fill-rule="evenodd"/><path fill="#000000" stroke="#000000" stroke-width="3.0" stroke-linecap="butt" d="m751.0397 347.90607l3.357544 -3.3898926l-9.253052 3.4181824l9.2854 3.3292236z" fill-rule="evenodd"/><path fill="#000000" fill-opacity="0.0" d="m451.0105 330.02625l-170.83466 -60.75589" fill-rule="evenodd"/><path stroke="#000000" stroke-width="3.0" stroke-linejoin="round" stroke-linecap="butt" d="m451.0105 330.02625l-161.14777 -57.310852" fill-rule="evenodd"/><path fill="#000000" stroke="#000000" stroke-width="3.0" stroke-linecap="butt" d="m289.86273 272.7154l4.309204 -2.0482178l-9.863922 0.07272339l7.6029663 6.2846985z" fill-rule="evenodd"/><path fill="#000000" fill-opacity="0.0" d="m279.22833 213.62204l172.97638 -65.82677" fill-rule="evenodd"/><path stroke="#000000" stroke-width="3.0" stroke-linejoin="round" stroke-linecap="butt" d="m279.22833 213.62204l163.3674 -62.17003" fill-rule="evenodd"/><path fill="#000000" stroke="#000000" stroke-width="3.0" stroke-linecap="butt" d="m442.59573 151.45201l-1.953186 4.3530884l7.463257 -6.4499664l-9.863159 0.14367676z" fill-rule="evenodd"/><path fill="#000000" fill-opacity="0.0" d="m748.4488 138.7769l217.10242 -1.7637787" fill-rule="evenodd"/><path stroke="#000000" stroke-width="3.0" stroke-linejoin="round" stroke-linecap="butt" d="m748.4488 138.7769l206.82147 -1.6802521" fill-rule="evenodd"/><path fill="#000000" stroke="#000000" stroke-width="3.0" stroke-linecap="butt" d="m955.27026 137.09665l-3.3462524 3.4010468l9.241638 -3.448944l-9.296448 -3.2983398z" fill-rule="evenodd"/><path fill="#000000" fill-opacity="0.0" d="m830.78217 299.88977l213.9527 0l0 37.322815l-213.9527 0z" fill-rule="evenodd"/><path fill="#000000" d="m867.04663 332.11728q-2.359375 0 -4.09375 -1.046875q-1.734375 -1.0625 -2.671875 -3.0q-0.9375 -1.953125 -0.9375 -4.59375q0 -2.65625 0.921875 -4.609375q0.921875 -1.96875 2.65625 -3.0q1.75 -1.046875 4.125 -1.046875q2.375 0 4.109375 1.046875q1.75 1.03125 2.671875 3.0q0.921875 1.953125 0.921875 4.59375q0 2.640625 -0.9375 4.59375q-0.9375 1.953125 -2.6875 3.015625q-1.734375 1.046875 -4.078125 1.046875zm0 -1.671875q2.6875 0 4.1875 -1.8125q1.5 -1.8125 1.5 -5.171875q0 -3.359375 -1.5 -5.15625q-1.484375 -1.8125 -4.1875 -1.8125q-2.6875 0 -4.1875 1.8125q-1.5 1.8125 -1.5 5.15625q0 3.328125 1.5 5.15625q1.5 1.828125 4.1875 1.828125zm16.742249 -10.4375q1.015625 -0.078125 1.015625 0.8125q0 0.375 -0.21875 0.609375q-0.21875 0.234375 -0.75 0.28125l-0.71875 0.0625q-1.609375 0.140625 -2.390625 1.140625q-0.765625 1.0 -0.765625 2.34375l0 5.828125q0 0.484375 -0.265625 0.734375q-0.265625 0.234375 -0.703125 0.234375q-0.421875 0 -0.703125 -0.25q-0.28125 -0.265625 -0.28125 -0.71875l0 -10.125q0 -0.453125 0.28125 -0.703125q0.296875 -0.25 0.703125 -0.25q0.390625 0 0.65625 0.25q0.265625 0.25 0.265625 0.6875l0 1.34375q0.5 -1.0625 1.421875 -1.609375q0.921875 -0.5625 2.125 -0.65625l0.328125 -0.015625zm3.6750488 12.046875q-0.421875 0 -0.703125 -0.25q-0.28125 -0.265625 -0.28125 -0.71875l0 -10.125q0 -0.453125 0.28125 -0.703125q0.28125 -0.25 0.703125 -0.25q0.4375 0 0.703125 0.25q0.265625 0.25 0.265625 0.703125l0 10.125q0 0.484375 -0.265625 0.734375q-0.265625 0.234375 -0.703125 0.234375zm0.015625 -14.578125q-0.578125 0 -0.9375 -0.328125q-0.359375 -0.34375 -0.359375 -0.890625q0 -0.53125 0.359375 -0.859375q0.359375 -0.34375 0.9375 -0.34375q0.5625 0 0.921875 0.34375q0.375 0.328125 0.375 0.859375q0 0.546875 -0.375 0.890625q-0.359375 0.328125 -0.921875 0.328125zm14.052368 2.53125q0.453125 0 0.71875 0.265625q0.265625 0.25 0.265625 0.6875l0 10.171875q0 2.625 -1.34375 3.953125q-1.34375 1.328125 -3.984375 1.328125q-2.5625 0 -4.28125 -1.0q-0.859375 -0.484375 -0.859375 -1.109375q0 -0.328125 0.171875 -0.546875q0.1875 -0.21875 0.484375 -0.21875q0.234375 0 0.859375 0.328125q0.84375 0.4375 1.65625 0.703125q0.8125 0.265625 1.9375 0.265625q1.703125 0 2.5625 -0.90625q0.875 -0.890625 0.875 -2.625l0 -2.0625q-0.5 1.125 -1.546875 1.734375q-1.046875 0.59375 -2.453125 0.59375q-1.546875 0 -2.734375 -0.71875q-1.1875 -0.71875 -1.84375 -2.03125q-0.65625 -1.328125 -0.65625 -3.0625q0 -1.71875 0.65625 -3.03125q0.65625 -1.328125 1.84375 -2.046875q1.1875 -0.71875 2.734375 -0.71875q1.390625 0 2.421875 0.59375q1.03125 0.59375 1.546875 1.703125l0 -1.296875q0 -0.4375 0.25 -0.6875q0.265625 -0.265625 0.71875 -0.265625zm-4.5625 9.953125q1.6875 0 2.640625 -1.109375q0.953125 -1.125 0.953125 -3.09375q0 -1.9375 -0.953125 -3.046875q-0.9375 -1.125 -2.640625 -1.125q-1.703125 0 -2.671875 1.125q-0.96875 1.109375 -0.96875 3.046875q0 1.96875 0.96875 3.09375q0.96875 1.109375 2.671875 1.109375zm10.126465 2.09375q-0.421875 0 -0.703125 -0.25q-0.28125 -0.265625 -0.28125 -0.71875l0 -10.125q0 -0.453125 0.28125 -0.703125q0.28125 -0.25 0.703125 -0.25q0.4375 0 0.703125 0.25q0.265625 0.25 0.265625 0.703125l0 10.125q0 0.484375 -0.265625 0.734375q-0.265625 0.234375 -0.703125 0.234375zm0.015625 -14.578125q-0.578125 0 -0.9375 -0.328125q-0.359375 -0.34375 -0.359375 -0.890625q0 -0.53125 0.359375 -0.859375q0.359375 -0.34375 0.9375 -0.34375q0.5625 0 0.921875 0.34375q0.375 0.328125 0.375 0.859375q0 0.546875 -0.375 0.890625q-0.359375 0.328125 -0.921875 0.328125zm10.458618 2.484375q4.1875 0 4.1875 4.625l0 6.5q0 0.453125 -0.25 0.71875q-0.25 0.25 -0.703125 0.25q-0.453125 0 -0.71875 -0.25q-0.265625 -0.265625 -0.265625 -0.71875l0 -6.375q0 -1.640625 -0.640625 -2.375q-0.640625 -0.75 -2.03125 -0.75q-1.609375 0 -2.5625 0.984375q-0.953125 0.984375 -0.953125 2.65625l0 5.859375q0 0.453125 -0.265625 0.71875q-0.25 0.25 -0.703125 0.25q-0.453125 0 -0.71875 -0.25q-0.265625 -0.265625 -0.265625 -0.71875l0 -10.125q0 -0.4375 0.265625 -0.6875q0.265625 -0.265625 0.71875 -0.265625q0.4375 0 0.6875 0.265625q0.25 0.25 0.25 0.671875l0 1.21875q0.578125 -1.078125 1.609375 -1.640625q1.03125 -0.5625 2.359375 -0.5625zm12.522583 0q4.390625 0 4.390625 4.59375l0 6.53125q0 0.4375 -0.25 0.703125q-0.25 0.265625 -0.6875 0.265625q-0.4375 0 -0.703125 -0.265625q-0.25 -0.265625 -0.25 -0.703125l0 -1.140625q-0.46875 1.03125 -1.40625 1.59375q-0.921875 0.5625 -2.15625 0.5625q-1.125 0 -2.078125 -0.453125q-0.9375 -0.46875 -1.5 -1.28125q-0.546875 -0.8125 -0.546875 -1.796875q0 -1.328125 0.671875 -2.046875q0.671875 -0.734375 2.203125 -1.0625q1.546875 -0.328125 4.28125 -0.328125l0.53125 0l0 -0.78125q0 -1.453125 -0.59375 -2.125q-0.59375 -0.671875 -1.90625 -0.671875q-1.640625 0 -3.3125 0.890625q-0.65625 0.40625 -0.90625 0.40625q-0.296875 0 -0.484375 -0.203125q-0.1875 -0.21875 -0.1875 -0.5625q0 -0.328125 0.203125 -0.578125q0.203125 -0.265625 0.65625 -0.515625q0.84375 -0.484375 1.90625 -0.75q1.0625 -0.28125 2.125 -0.28125zm-0.796875 10.59375q1.4375 0 2.359375 -0.96875q0.9375 -0.96875 0.9375 -2.5l0 -0.703125l-0.4375 0q-2.109375 0 -3.21875 0.1875q-1.109375 0.171875 -1.578125 0.59375q-0.453125 0.421875 -0.453125 1.234375q0 0.9375 0.671875 1.546875q0.6875 0.609375 1.71875 0.609375zm9.719971 1.5q-0.421875 0 -0.703125 -0.25q-0.28125 -0.265625 -0.28125 -0.71875l0 -15.234375q0 -0.453125 0.28125 -0.703125q0.28125 -0.265625 0.703125 -0.265625q0.40625 0 0.6875 0.265625q0.28125 0.25 0.28125 0.703125l0 15.234375q0 0.453125 -0.28125 0.71875q-0.28125 0.25 -0.6875 0.25zm26.088074 -17.171875q0.453125 0 0.703125 0.28125q0.265625 0.28125 0.265625 0.734375l0 15.1875q0 0.4375 -0.25 0.703125q-0.234375 0.265625 -0.671875 0.265625q-0.421875 0 -0.640625 -0.265625q-0.21875 -0.265625 -0.21875 -0.703125l0 -12.265625l-5.203125 9.984375q-0.34375 0.703125 -0.984375 0.703125q-0.625 0 -0.984375 -0.703125l-5.234375 -9.859375l0 12.140625q0 0.4375 -0.234375 0.703125q-0.21875 0.265625 -0.65625 0.265625q-0.4375 0 -0.671875 -0.265625q-0.234375 -0.265625 -0.234375 -0.703125l0 -15.1875q0 -0.453125 0.25 -0.734375q0.265625 -0.28125 0.734375 -0.28125q0.59375 0 0.953125 0.703125l6.09375 11.6875l6.03125 -11.6875q0.1875 -0.390625 0.40625 -0.546875q0.234375 -0.15625 0.546875 -0.15625zm12.34021 17.234375q-2.40625 0 -4.15625 -1.03125q-1.75 -1.046875 -2.703125 -3.0q-0.9375 -1.96875 -0.9375 -4.625q0 -2.640625 0.9375 -4.59375q0.953125 -1.96875 2.703125 -3.0q1.75 -1.046875 4.15625 -1.046875q1.609375 0 3.03125 0.515625q1.4375 0.515625 2.484375 1.46875q0.390625 0.359375 0.390625 0.84375q0 0.34375 -0.203125 0.59375q-0.1875 0.25 -0.453125 0.25q-0.28125 0 -0.6875 -0.265625q-1.234375 -0.953125 -2.234375 -1.34375q-0.984375 -0.390625 -2.28125 -0.390625q-2.78125 0 -4.28125 1.8125q-1.5 1.8125 -1.5 5.15625q0 3.359375 1.5 5.171875q1.5 1.8125 4.28125 1.8125q1.265625 0 2.265625 -0.375q1.015625 -0.390625 2.25 -1.359375q0.40625 -0.265625 0.6875 -0.265625q0.265625 0 0.453125 0.25q0.203125 0.234375 0.203125 0.59375q0 0.484375 -0.390625 0.84375q-1.046875 0.953125 -2.484375 1.46875q-1.421875 0.515625 -3.03125 0.515625zm21.716675 -17.234375q0.4375 0 0.671875 0.28125q0.234375 0.28125 0.234375 0.734375l0 15.140625q0 0.453125 -0.25 0.734375q-0.25 0.28125 -0.703125 0.28125q-0.453125 0 -0.796875 -0.40625l-9.953125 -13.328125l0 12.71875q0 0.453125 -0.25 0.734375q-0.25 0.28125 -0.6875 0.28125q-0.4375 0 -0.671875 -0.28125q-0.234375 -0.28125 -0.234375 -0.734375l0 -15.140625q0 -0.453125 0.25 -0.734375q0.25 -0.28125 0.703125 -0.28125q0.484375 0 0.8125 0.421875l9.9375 13.3125l0 -12.71875q0 -0.453125 0.25 -0.734375q0.25 -0.28125 0.6875 -0.28125zm6.079712 17.171875q-0.46875 0 -0.734375 -0.28125q-0.25 -0.28125 -0.25 -0.734375l0 -15.0625q0 -0.4375 0.265625 -0.703125q0.28125 -0.265625 0.734375 -0.265625l5.6875 0q2.671875 0 4.140625 1.296875q1.484375 1.296875 1.484375 3.671875q0 2.375 -1.5 3.703125q-1.484375 1.3125 -4.125 1.3125l-4.71875 0l0 6.046875q0 0.453125 -0.265625 0.734375q-0.265625 0.28125 -0.71875 0.28125zm5.515625 -8.6875q3.859375 0 3.859375 -3.390625q0 -3.328125 -3.859375 -3.328125l-4.53125 0l0 6.71875l4.53125 0z" fill-rule="nonzero"/><path fill="#000000" d="m913.1528 361.05478q-0.46875 0 -0.734375 -0.28125q-0.25 -0.28125 -0.25 -0.734375l0 -15.140625q0 -0.453125 0.25 -0.734375q0.265625 -0.28125 0.734375 -0.28125q0.453125 0 0.71875 0.28125q0.265625 0.28125 0.265625 0.734375l0 15.140625q0 0.453125 -0.265625 0.734375q-0.265625 0.28125 -0.71875 0.28125zm10.753357 -12.09375q4.1875 0 4.1875 4.625l0 6.5q0 0.453125 -0.25 0.71875q-0.25 0.25 -0.703125 0.25q-0.453125 0 -0.71875 -0.25q-0.265625 -0.265625 -0.265625 -0.71875l0 -6.375q0 -1.640625 -0.640625 -2.375q-0.640625 -0.75 -2.03125 -0.75q-1.609375 0 -2.5625 0.984375q-0.953125 0.984375 -0.953125 2.65625l0 5.859375q0 0.453125 -0.265625 0.71875q-0.25 0.25 -0.703125 0.25q-0.453125 0 -0.71875 -0.25q-0.265625 -0.265625 -0.265625 -0.71875l0 -10.125q0 -0.4375 0.265625 -0.6875q0.265625 -0.265625 0.71875 -0.265625q0.4375 0 0.6875 0.265625q0.25 0.25 0.25 0.671875l0 1.21875q0.578125 -1.078125 1.609375 -1.640625q1.03125 -0.5625 2.359375 -0.5625zm13.631958 0q1.53125 0 2.703125 0.765625q1.171875 0.765625 1.8125 2.140625q0.65625 1.375 0.65625 3.203125q0 1.828125 -0.65625 3.1875q-0.640625 1.359375 -1.8125 2.109375q-1.15625 0.734375 -2.703125 0.734375q-1.375 0 -2.40625 -0.59375q-1.015625 -0.609375 -1.53125 -1.71875l0 5.640625q0 0.4375 -0.265625 0.6875q-0.25 0.25 -0.703125 0.25q-0.453125 0 -0.71875 -0.265625q-0.265625 -0.265625 -0.265625 -0.671875l0 -14.46875q0 -0.4375 0.265625 -0.6875q0.265625 -0.265625 0.71875 -0.265625q0.453125 0 0.703125 0.265625q0.265625 0.25 0.265625 0.6875l0 1.296875q0.515625 -1.109375 1.53125 -1.703125q1.03125 -0.59375 2.40625 -0.59375zm-0.390625 10.53125q1.703125 0 2.640625 -1.15625q0.9375 -1.15625 0.9375 -3.265625q0 -2.109375 -0.9375 -3.296875q-0.9375 -1.1875 -2.640625 -1.1875q-1.703125 0 -2.625 1.15625q-0.921875 1.140625 -0.921875 3.28125q0 2.140625 0.921875 3.3125q0.921875 1.15625 2.625 1.15625zm17.358582 -10.484375q0.453125 0 0.703125 0.265625q0.25 0.25 0.25 0.6875l0 10.15625q0 0.40625 -0.25 0.671875q-0.25 0.265625 -0.703125 0.265625q-0.4375 0 -0.6875 -0.25q-0.25 -0.265625 -0.25 -0.671875l0 -1.1875q-0.5625 1.046875 -1.5625 1.609375q-0.984375 0.546875 -2.234375 0.546875q-2.09375 0 -3.15625 -1.15625q-1.046875 -1.171875 -1.046875 -3.453125l0 -6.53125q0 -0.4375 0.265625 -0.6875q0.265625 -0.265625 0.71875 -0.265625q0.453125 0 0.703125 0.265625q0.265625 0.25 0.265625 0.6875l0 6.484375q0 1.5625 0.609375 2.296875q0.625 0.71875 1.96875 0.71875q1.546875 0 2.484375 -0.984375q0.9375 -1.0 0.9375 -2.640625l0 -5.875q0 -0.4375 0.25 -0.6875q0.265625 -0.265625 0.734375 -0.265625zm9.979553 10.5q0.84375 0.078125 0.84375 0.78125q0 0.40625 -0.3125 0.609375q-0.296875 0.203125 -0.890625 0.15625l-0.65625 -0.046875q-1.921875 -0.15625 -2.828125 -1.15625q-0.90625 -1.015625 -0.90625 -3.046875l0 -6.03125l-1.609375 0q-0.40625 0 -0.640625 -0.203125q-0.234375 -0.203125 -0.234375 -0.53125q0 -0.359375 0.234375 -0.578125q0.234375 -0.21875 0.640625 -0.21875l1.609375 0l0 -2.71875q0 -0.453125 0.25 -0.703125q0.265625 -0.25 0.734375 -0.25q0.421875 0 0.6875 0.25q0.265625 0.25 0.265625 0.703125l0 2.71875l2.671875 0q0.375 0 0.59375 0.21875q0.234375 0.21875 0.234375 0.578125q0 0.328125 -0.234375 0.53125q-0.21875 0.203125 -0.59375 0.203125l-2.671875 0l0 6.125q0 1.3125 0.53125 1.90625q0.546875 0.59375 1.625 0.65625l0.65625 0.046875z" fill-rule="nonzero"/><path fill="#000000" fill-opacity="0.0" d="m292.27298 314.02625l167.21259 0l0 37.322845l-167.21259 0z" fill-rule="evenodd"/><path fill="#000000" d="m337.47714 346.06625q-0.453125 0 -0.734375 -0.265625q-0.265625 -0.265625 -0.265625 -0.6875l0 -15.0q0 -0.4375 0.265625 -0.703125q0.28125 -0.265625 0.734375 -0.265625l4.6875 0q4.046875 0 6.265625 2.203125q2.21875 2.1875 2.21875 6.25q0 4.046875 -2.234375 6.265625q-2.21875 2.203125 -6.25 2.203125l-4.6875 0zm4.5625 -1.6875q6.578125 0 6.578125 -6.78125q0 -6.765625 -6.578125 -6.765625l-3.59375 0l0 13.546875l3.59375 0zm20.923431 -1.03125q0.265625 0 0.453125 0.21875q0.203125 0.21875 0.203125 0.5625q0 0.59375 -0.84375 1.09375q-0.859375 0.5 -1.828125 0.765625q-0.953125 0.25 -1.875 0.25q-2.703125 0 -4.28125 -1.609375q-1.5625 -1.609375 -1.5625 -4.4375q0 -1.8125 0.6875 -3.1875q0.703125 -1.375 1.953125 -2.140625q1.265625 -0.765625 2.875 -0.765625q2.28125 0 3.625 1.484375q1.34375 1.484375 1.34375 4.03125q0 0.484375 -0.203125 0.703125q-0.1875 0.203125 -0.609375 0.203125l-7.734375 0q0.21875 4.125 3.90625 4.125q0.9375 0 1.609375 -0.25q0.671875 -0.25 1.453125 -0.6875q0.609375 -0.359375 0.828125 -0.359375zm-4.203125 -7.75q-1.53125 0 -2.453125 0.96875q-0.921875 0.953125 -1.09375 2.703125l6.796875 0q-0.046875 -1.765625 -0.890625 -2.71875q-0.84375 -0.953125 -2.359375 -0.953125zm13.694855 -1.5q4.1875 0 4.1875 4.625l0 6.5q0 0.453125 -0.25 0.71875q-0.25 0.25 -0.703125 0.25q-0.453125 0 -0.71875 -0.25q-0.265625 -0.265625 -0.265625 -0.71875l0 -6.375q0 -1.640625 -0.640625 -2.375q-0.640625 -0.75 -2.03125 -0.75q-1.609375 0 -2.5625 0.984375q-0.953125 0.984375 -0.953125 2.65625l0 5.859375q0 0.453125 -0.265625 0.71875q-0.25 0.25 -0.703125 0.25q-0.453125 0 -0.71875 -0.25q-0.265625 -0.265625 -0.265625 -0.71875l0 -10.125q0 -0.4375 0.265625 -0.6875q0.265625 -0.265625 0.71875 -0.265625q0.4375 0 0.6875 0.265625q0.25 0.25 0.25 0.671875l0 1.21875q0.578125 -1.078125 1.609375 -1.640625q1.03125 -0.5625 2.359375 -0.5625zm12.585083 12.140625q-1.65625 0 -2.921875 -0.734375q-1.25 -0.75 -1.9375 -2.125q-0.671875 -1.390625 -0.671875 -3.21875q0 -1.828125 0.671875 -3.203125q0.6875 -1.375 1.9375 -2.109375q1.265625 -0.75 2.921875 -0.75q1.65625 0 2.921875 0.75q1.28125 0.734375 1.96875 2.109375q0.6875 1.375 0.6875 3.203125q0 1.828125 -0.6875 3.21875q-0.6875 1.375 -1.96875 2.125q-1.265625 0.734375 -2.921875 0.734375zm0 -1.609375q1.734375 0 2.65625 -1.140625q0.921875 -1.140625 0.921875 -3.328125q0 -2.140625 -0.9375 -3.296875q-0.921875 -1.171875 -2.640625 -1.171875q-1.703125 0 -2.640625 1.171875q-0.921875 1.15625 -0.921875 3.296875q0 2.15625 0.921875 3.3125q0.921875 1.15625 2.640625 1.15625zm16.898071 -9.890625q0.265625 -0.578125 0.84375 -0.578125q0.359375 0 0.640625 0.25q0.296875 0.234375 0.296875 0.59375q0 0.21875 -0.09375 0.375l-4.6875 10.09375q-0.140625 0.3125 -0.4375 0.5q-0.28125 0.171875 -0.609375 0.171875q-0.3125 0 -0.609375 -0.171875q-0.28125 -0.1875 -0.453125 -0.5l-4.65625 -10.09375q-0.09375 -0.15625 -0.09375 -0.359375q0 -0.359375 0.328125 -0.609375q0.328125 -0.265625 0.703125 -0.265625q0.234375 0 0.46875 0.140625q0.234375 0.140625 0.34375 0.40625l4.015625 9.0l4.0 -8.953125zm8.757843 11.5q-1.65625 0 -2.921875 -0.734375q-1.25 -0.75 -1.9375 -2.125q-0.671875 -1.390625 -0.671875 -3.21875q0 -1.828125 0.671875 -3.203125q0.6875 -1.375 1.9375 -2.109375q1.265625 -0.75 2.921875 -0.75q1.65625 0 2.921875 0.75q1.28125 0.734375 1.96875 2.109375q0.6875 1.375 0.6875 3.203125q0 1.828125 -0.6875 3.21875q-0.6875 1.375 -1.96875 2.125q-1.265625 0.734375 -2.921875 0.734375zm0 -1.609375q1.734375 0 2.65625 -1.140625q0.921875 -1.140625 0.921875 -3.328125q0 -2.140625 -0.9375 -3.296875q-0.921875 -1.171875 -2.640625 -1.171875q-1.703125 0 -2.640625 1.171875q-0.921875 1.15625 -0.921875 3.296875q0 2.15625 0.921875 3.3125q0.921875 1.15625 2.640625 1.15625z" fill-rule="nonzero"/><path fill="#000000" d="m345.5135 375.19125q-0.46875 0 -0.734375 -0.28125q-0.25 -0.28125 -0.25 -0.734375l0 -15.140625q0 -0.453125 0.25 -0.734375q0.265625 -0.28125 0.734375 -0.28125q0.453125 0 0.71875 0.28125q0.265625 0.28125 0.265625 0.734375l0 15.140625q0 0.453125 -0.265625 0.734375q-0.265625 0.28125 -0.71875 0.28125zm10.753357 -12.09375q4.1875 0 4.1875 4.625l0 6.5q0 0.453125 -0.25 0.71875q-0.25 0.25 -0.703125 0.25q-0.453125 0 -0.71875 -0.25q-0.265625 -0.265625 -0.265625 -0.71875l0 -6.375q0 -1.640625 -0.640625 -2.375q-0.640625 -0.75 -2.03125 -0.75q-1.609375 0 -2.5625 0.984375q-0.953125 0.984375 -0.953125 2.65625l0 5.859375q0 0.453125 -0.265625 0.71875q-0.25 0.25 -0.703125 0.25q-0.453125 0 -0.71875 -0.25q-0.265625 -0.265625 -0.265625 -0.71875l0 -10.125q0 -0.4375 0.265625 -0.6875q0.265625 -0.265625 0.71875 -0.265625q0.4375 0 0.6875 0.265625q0.25 0.25 0.25 0.671875l0 1.21875q0.578125 -1.078125 1.609375 -1.640625q1.03125 -0.5625 2.359375 -0.5625zm13.631958 0q1.53125 0 2.703125 0.765625q1.171875 0.765625 1.8125 2.140625q0.65625 1.375 0.65625 3.203125q0 1.828125 -0.65625 3.1875q-0.640625 1.359375 -1.8125 2.109375q-1.15625 0.734375 -2.703125 0.734375q-1.375 0 -2.40625 -0.59375q-1.015625 -0.609375 -1.53125 -1.71875l0 5.640625q0 0.4375 -0.265625 0.6875q-0.25 0.25 -0.703125 0.25q-0.453125 0 -0.71875 -0.265625q-0.265625 -0.265625 -0.265625 -0.671875l0 -14.46875q0 -0.4375 0.265625 -0.6875q0.265625 -0.265625 0.71875 -0.265625q0.453125 0 0.703125 0.265625q0.265625 0.25 0.265625 0.6875l0 1.296875q0.515625 -1.109375 1.53125 -1.703125q1.03125 -0.59375 2.40625 -0.59375zm-0.390625 10.53125q1.703125 0 2.640625 -1.15625q0.9375 -1.15625 0.9375 -3.265625q0 -2.109375 -0.9375 -3.296875q-0.9375 -1.1875 -2.640625 -1.1875q-1.703125 0 -2.625 1.15625q-0.921875 1.140625 -0.921875 3.28125q0 2.140625 0.921875 3.3125q0.921875 1.15625 2.625 1.15625zm17.358582 -10.484375q0.453125 0 0.703125 0.265625q0.25 0.25 0.25 0.6875l0 10.15625q0 0.40625 -0.25 0.671875q-0.25 0.265625 -0.703125 0.265625q-0.4375 0 -0.6875 -0.25q-0.25 -0.265625 -0.25 -0.671875l0 -1.1875q-0.5625 1.046875 -1.5625 1.609375q-0.984375 0.546875 -2.234375 0.546875q-2.09375 0 -3.15625 -1.15625q-1.046875 -1.171875 -1.046875 -3.453125l0 -6.53125q0 -0.4375 0.265625 -0.6875q0.265625 -0.265625 0.71875 -0.265625q0.453125 0 0.703125 0.265625q0.265625 0.25 0.265625 0.6875l0 6.484375q0 1.5625 0.609375 2.296875q0.625 0.71875 1.96875 0.71875q1.546875 0 2.484375 -0.984375q0.9375 -1.0 0.9375 -2.640625l0 -5.875q0 -0.4375 0.25 -0.6875q0.265625 -0.265625 0.734375 -0.265625zm9.979584 10.5q0.84375 0.078125 0.84375 0.78125q0 0.40625 -0.3125 0.609375q-0.296875 0.203125 -0.890625 0.15625l-0.65625 -0.046875q-1.921875 -0.15625 -2.828125 -1.15625q-0.90625 -1.015625 -0.90625 -3.046875l0 -6.03125l-1.609375 0q-0.40625 0 -0.640625 -0.203125q-0.234375 -0.203125 -0.234375 -0.53125q0 -0.359375 0.234375 -0.578125q0.234375 -0.21875 0.640625 -0.21875l1.609375 0l0 -2.71875q0 -0.453125 0.25 -0.703125q0.265625 -0.25 0.734375 -0.25q0.421875 0 0.6875 0.25q0.265625 0.25 0.265625 0.703125l0 2.71875l2.671875 0q0.375 0 0.59375 0.21875q0.234375 0.21875 0.234375 0.578125q0 0.328125 -0.234375 0.53125q-0.21875 0.203125 -0.59375 0.203125l-2.671875 0l0 6.125q0 1.3125 0.53125 1.90625q0.546875 0.59375 1.625 0.65625l0.65625 0.046875zm6.691223 1.59375q-1.109375 0 -2.109375 -0.265625q-0.984375 -0.265625 -1.75 -0.75q-0.4375 -0.28125 -0.625 -0.53125q-0.171875 -0.25 -0.171875 -0.609375q0 -0.3125 0.171875 -0.515625q0.1875 -0.21875 0.484375 -0.21875q0.28125 0 0.828125 0.359375q0.71875 0.4375 1.421875 0.6875q0.71875 0.25 1.78125 0.25q1.296875 0 2.015625 -0.453125q0.71875 -0.453125 0.71875 -1.3125q0 -0.53125 -0.265625 -0.859375q-0.265625 -0.328125 -0.921875 -0.578125q-0.640625 -0.25 -1.890625 -0.515625q-2.109375 -0.453125 -3.03125 -1.21875q-0.90625 -0.765625 -0.90625 -2.09375q0 -1.03125 0.578125 -1.8125q0.578125 -0.796875 1.59375 -1.25q1.03125 -0.453125 2.3125 -0.453125q0.9375 0 1.8125 0.25q0.875 0.25 1.5625 0.703125q0.8125 0.578125 0.8125 1.203125q0 0.3125 -0.203125 0.53125q-0.1875 0.203125 -0.453125 0.203125q-0.28125 0 -0.859375 -0.40625q-0.671875 -0.421875 -1.28125 -0.65625q-0.59375 -0.25 -1.484375 -0.25q-1.125 0 -1.8125 0.5q-0.671875 0.5 -0.671875 1.34375q0 0.53125 0.25 0.859375q0.25 0.3125 0.828125 0.578125q0.59375 0.25 1.703125 0.484375q1.625 0.359375 2.515625 0.796875q0.90625 0.421875 1.296875 1.046875q0.390625 0.625 0.390625 1.59375q0 1.5 -1.28125 2.4375q-1.265625 0.921875 -3.359375 0.921875z" fill-rule="nonzero"/><path fill="#000000" fill-opacity="0.0" d="m302.28873 53.43832l153.44879 0l0 37.322834l-153.44879 0z" fill-rule="evenodd"/><path fill="#000000" d="m356.8375 84.353325q0.09375 0.1875 0.09375 0.40625q0 0.359375 -0.28125 0.609375q-0.265625 0.234375 -0.65625 0.234375q-0.59375 0 -0.84375 -0.578125l-1.703125 -3.890625l-9.046875 0l-1.71875 3.890625q-0.25 0.578125 -0.84375 0.578125q-0.390625 0 -0.671875 -0.25q-0.28125 -0.265625 -0.28125 -0.625q0 -0.1875 0.09375 -0.375l6.859375 -15.265625q0.140625 -0.34375 0.421875 -0.5q0.296875 -0.171875 0.640625 -0.171875q0.359375 0 0.640625 0.1875q0.28125 0.171875 0.4375 0.484375l6.859375 15.265625zm-11.71875 -4.84375l7.609375 0l-3.8125 -8.625l-3.796875 8.625zm23.697968 -11.078125q0.453125 0 0.71875 0.265625q0.265625 0.265625 0.265625 0.671875l0 15.265625q0 0.4375 -0.265625 0.703125q-0.265625 0.265625 -0.71875 0.265625q-0.453125 0 -0.71875 -0.265625q-0.25 -0.265625 -0.25 -0.703125l0 -1.296875q-0.515625 1.109375 -1.546875 1.71875q-1.015625 0.59375 -2.390625 0.59375q-1.53125 0 -2.703125 -0.765625q-1.171875 -0.78125 -1.828125 -2.15625q-0.640625 -1.375 -0.640625 -3.203125q0 -1.796875 0.640625 -3.15625q0.65625 -1.375 1.828125 -2.109375q1.171875 -0.75 2.703125 -0.75q1.375 0 2.390625 0.59375q1.03125 0.59375 1.546875 1.703125l0 -6.4375q0 -0.421875 0.25 -0.671875q0.265625 -0.265625 0.71875 -0.265625zm-4.515625 15.609375q1.703125 0 2.625 -1.15625q0.921875 -1.171875 0.921875 -3.3125q0 -2.140625 -0.921875 -3.28125q-0.921875 -1.15625 -2.625 -1.15625q-1.703125 0 -2.65625 1.15625q-0.9375 1.140625 -0.9375 3.234375q0 2.140625 0.9375 3.328125q0.953125 1.1875 2.65625 1.1875zm6.6710815 5.8125q-0.59375 0.046875 -0.890625 -0.15625q-0.3125 -0.203125 -0.3125 -0.625q0 -0.640625 0.84375 -0.734375l0.671875 -0.046875q1.078125 -0.078125 1.59375 -0.65625q0.515625 -0.578125 0.515625 -1.890625l0 -11.234375q0 -0.453125 0.28125 -0.703125q0.28125 -0.25 0.703125 -0.25q0.4375 0 0.703125 0.25q0.265625 0.25 0.265625 0.703125l0 11.109375q0 2.015625 -0.90625 3.015625q-0.90625 1.015625 -2.796875 1.15625l-0.671875 0.0625zm3.421875 -18.828125q-0.578125 0 -0.9375 -0.328125q-0.359375 -0.34375 -0.359375 -0.890625q0 -0.53125 0.359375 -0.859375q0.359375 -0.34375 0.9375 -0.34375q0.5625 0 0.921875 0.34375q0.375 0.328125 0.375 0.859375q0 0.546875 -0.375 0.890625q-0.359375 0.328125 -0.921875 0.328125zm9.411713 14.625q-1.65625 0 -2.921875 -0.734375q-1.25 -0.75 -1.9375 -2.125q-0.671875 -1.390625 -0.671875 -3.21875q0 -1.828125 0.671875 -3.203125q0.6875 -1.375 1.9375 -2.109375q1.265625 -0.75 2.921875 -0.75q1.65625 0 2.921875 0.75q1.28125 0.734375 1.96875 2.109375q0.6875 1.375 0.6875 3.203125q0 1.828125 -0.6875 3.21875q-0.6875 1.375 -1.96875 2.125q-1.265625 0.734375 -2.921875 0.734375zm0 -1.609375q1.734375 0 2.65625 -1.140625q0.921875 -1.140625 0.921875 -3.328125q0 -2.140625 -0.9375 -3.296875q-0.921875 -1.171875 -2.640625 -1.171875q-1.703125 0 -2.640625 1.171875q-0.921875 1.15625 -0.921875 3.296875q0 2.15625 0.921875 3.3125q0.921875 1.15625 2.640625 1.15625zm9.460602 1.5625q-0.421875 0 -0.703125 -0.25q-0.28125 -0.265625 -0.28125 -0.71875l0 -10.125q0 -0.453125 0.28125 -0.703125q0.28125 -0.25 0.703125 -0.25q0.4375 0 0.703125 0.25q0.265625 0.25 0.265625 0.703125l0 10.125q0 0.484375 -0.265625 0.734375q-0.265625 0.234375 -0.703125 0.234375zm0.015625 -14.578125q-0.578125 0 -0.9375 -0.328125q-0.359375 -0.34375 -0.359375 -0.890625q0 -0.53125 0.359375 -0.859375q0.359375 -0.34375 0.9375 -0.34375q0.5625 0 0.921875 0.34375q0.375 0.328125 0.375 0.859375q0 0.546875 -0.375 0.890625q-0.359375 0.328125 -0.921875 0.328125zm10.458588 2.484375q4.1875 0 4.1875 4.625l0 6.5q0 0.453125 -0.25 0.71875q-0.25 0.25 -0.703125 0.25q-0.453125 0 -0.71875 -0.25q-0.265625 -0.265625 -0.265625 -0.71875l0 -6.375q0 -1.640625 -0.640625 -2.375q-0.640625 -0.75 -2.03125 -0.75q-1.609375 0 -2.5625 0.984375q-0.953125 0.984375 -0.953125 2.65625l0 5.859375q0 0.453125 -0.265625 0.71875q-0.25 0.25 -0.703125 0.25q-0.453125 0 -0.71875 -0.25q-0.265625 -0.265625 -0.265625 -0.71875l0 -10.125q0 -0.4375 0.265625 -0.6875q0.265625 -0.265625 0.71875 -0.265625q0.4375 0 0.6875 0.265625q0.25 0.25 0.25 0.671875l0 1.21875q0.578125 -1.078125 1.609375 -1.640625q1.03125 -0.5625 2.359375 -0.5625zm13.147583 10.546875q0.84375 0.078125 0.84375 0.78125q0 0.40625 -0.3125 0.609375q-0.296875 0.203125 -0.890625 0.15625l-0.65625 -0.046875q-1.921875 -0.15625 -2.828125 -1.15625q-0.90625 -1.015625 -0.90625 -3.046875l0 -6.03125l-1.609375 0q-0.40625 0 -0.640625 -0.203125q-0.234375 -0.203125 -0.234375 -0.53125q0 -0.359375 0.234375 -0.578125q0.234375 -0.21875 0.640625 -0.21875l1.609375 0l0 -2.71875q0 -0.453125 0.25 -0.703125q0.265625 -0.25 0.734375 -0.25q0.421875 0 0.6875 0.25q0.265625 0.25 0.265625 0.703125l0 2.71875l2.671875 0q0.375 0 0.59375 0.21875q0.234375 0.21875 0.234375 0.578125q0 0.328125 -0.234375 0.53125q-0.21875 0.203125 -0.59375 0.203125l-2.671875 0l0 6.125q0 1.3125 0.53125 1.90625q0.546875 0.59375 1.625 0.65625l0.65625 0.046875z" fill-rule="nonzero"/><path fill="#000000" d="m321.58743 114.603325q-0.46875 0 -0.734375 -0.28125q-0.25 -0.28125 -0.25 -0.734375l0 -15.140625q0 -0.453125 0.25 -0.734375q0.265625 -0.28125 0.734375 -0.28125q0.453125 0 0.71875 0.28125q0.265625 0.28125 0.265625 0.734375l0 15.140625q0 0.453125 -0.265625 0.734375q-0.265625 0.28125 -0.71875 0.28125zm17.878357 -12.09375q3.890625 0 3.890625 4.625l0 6.5q0 0.453125 -0.265625 0.71875q-0.265625 0.25 -0.703125 0.25q-0.4375 0 -0.71875 -0.25q-0.265625 -0.265625 -0.265625 -0.71875l0 -6.453125q0 -1.609375 -0.578125 -2.328125q-0.578125 -0.71875 -1.796875 -0.71875q-1.46875 0 -2.3125 0.984375q-0.828125 0.984375 -0.828125 2.65625l0 5.859375q0 0.453125 -0.28125 0.71875q-0.265625 0.25 -0.703125 0.25q-0.4375 0 -0.703125 -0.25q-0.265625 -0.265625 -0.265625 -0.71875l0 -6.453125q0 -1.609375 -0.578125 -2.328125q-0.5625 -0.71875 -1.8125 -0.71875q-1.4375 0 -2.296875 0.984375q-0.84375 0.984375 -0.84375 2.65625l0 5.859375q0 0.453125 -0.265625 0.71875q-0.265625 0.25 -0.703125 0.25q-0.421875 0 -0.703125 -0.25q-0.28125 -0.265625 -0.28125 -0.71875l0 -10.125q0 -0.4375 0.28125 -0.6875q0.28125 -0.265625 0.703125 -0.265625q0.40625 0 0.671875 0.25q0.265625 0.25 0.265625 0.6875l0 1.140625q0.53125 -1.03125 1.46875 -1.578125q0.9375 -0.546875 2.15625 -0.546875q2.734375 0 3.578125 2.296875q0.5 -1.0625 1.53125 -1.671875q1.03125 -0.625 2.359375 -0.625zm13.322937 0q1.53125 0 2.703125 0.765625q1.171875 0.765625 1.8125 2.140625q0.65625 1.375 0.65625 3.203125q0 1.828125 -0.65625 3.1875q-0.640625 1.359375 -1.8125 2.109375q-1.15625 0.734375 -2.703125 0.734375q-1.375 0 -2.40625 -0.59375q-1.015625 -0.609375 -1.53125 -1.71875l0 5.640625q0 0.4375 -0.265625 0.6875q-0.25 0.25 -0.703125 0.25q-0.453125 0 -0.71875 -0.265625q-0.265625 -0.265625 -0.265625 -0.671875l0 -14.46875q0 -0.4375 0.265625 -0.6875q0.265625 -0.265625 0.71875 -0.265625q0.453125 0 0.703125 0.265625q0.265625 0.25 0.265625 0.6875l0 1.296875q0.515625 -1.109375 1.53125 -1.703125q1.03125 -0.59375 2.40625 -0.59375zm-0.390625 10.53125q1.703125 0 2.640625 -1.15625q0.9375 -1.15625 0.9375 -3.265625q0 -2.109375 -0.9375 -3.296875q-0.9375 -1.1875 -2.640625 -1.1875q-1.703125 0 -2.625 1.15625q-0.921875 1.140625 -0.921875 3.28125q0 2.140625 0.921875 3.3125q0.921875 1.15625 2.625 1.15625zm13.311707 1.609375q-1.65625 0 -2.921875 -0.734375q-1.25 -0.75 -1.9375 -2.125q-0.671875 -1.390625 -0.671875 -3.21875q0 -1.828125 0.671875 -3.203125q0.6875 -1.375 1.9375 -2.109375q1.265625 -0.75 2.921875 -0.75q1.65625 0 2.921875 0.75q1.28125 0.734375 1.96875 2.109375q0.6875 1.375 0.6875 3.203125q0 1.828125 -0.6875 3.21875q-0.6875 1.375 -1.96875 2.125q-1.265625 0.734375 -2.921875 0.734375zm0 -1.609375q1.734375 0 2.65625 -1.140625q0.921875 -1.140625 0.921875 -3.328125q0 -2.140625 -0.9375 -3.296875q-0.921875 -1.171875 -2.640625 -1.171875q-1.703125 0 -2.640625 1.171875q-0.921875 1.15625 -0.921875 3.296875q0 2.15625 0.921875 3.3125q0.921875 1.15625 2.640625 1.15625zm14.257477 -10.484375q1.015625 -0.078125 1.015625 0.8125q0 0.375 -0.21875 0.609375q-0.21875 0.234375 -0.75 0.28125l-0.71875 0.0625q-1.609375 0.140625 -2.390625 1.140625q-0.765625 1.0 -0.765625 2.34375l0 5.828125q0 0.484375 -0.265625 0.734375q-0.265625 0.234375 -0.703125 0.234375q-0.421875 0 -0.703125 -0.25q-0.28125 -0.265625 -0.28125 -0.71875l0 -10.125q0 -0.453125 0.28125 -0.703125q0.296875 -0.25 0.703125 -0.25q0.390625 0 0.65625 0.25q0.265625 0.25 0.265625 0.6875l0 1.34375q0.5 -1.0625 1.421875 -1.609375q0.921875 -0.5625 2.125 -0.65625l0.328125 -0.015625zm8.096954 10.5q0.84375 0.078125 0.84375 0.78125q0 0.40625 -0.3125 0.609375q-0.296875 0.203125 -0.890625 0.15625l-0.65625 -0.046875q-1.921875 -0.15625 -2.828125 -1.15625q-0.90625 -1.015625 -0.90625 -3.046875l0 -6.03125l-1.609375 0q-0.40625 0 -0.640625 -0.203125q-0.234375 -0.203125 -0.234375 -0.53125q0 -0.359375 0.234375 -0.578125q0.234375 -0.21875 0.640625 -0.21875l1.609375 0l0 -2.71875q0 -0.453125 0.25 -0.703125q0.265625 -0.25 0.734375 -0.25q0.421875 0 0.6875 0.25q0.265625 0.25 0.265625 0.703125l0 2.71875l2.671875 0q0.375 0 0.59375 0.21875q0.234375 0.21875 0.234375 0.578125q0 0.328125 -0.234375 0.53125q-0.21875 0.203125 -0.59375 0.203125l-2.671875 0l0 6.125q0 1.3125 0.53125 1.90625q0.546875 0.59375 1.625 0.65625l0.65625 0.046875zm7.534973 -10.546875q4.390625 0 4.390625 4.59375l0 6.53125q0 0.4375 -0.25 0.703125q-0.25 0.265625 -0.6875 0.265625q-0.4375 0 -0.703125 -0.265625q-0.25 -0.265625 -0.25 -0.703125l0 -1.140625q-0.46875 1.03125 -1.40625 1.59375q-0.921875 0.5625 -2.15625 0.5625q-1.125 0 -2.078125 -0.453125q-0.9375 -0.46875 -1.5 -1.28125q-0.546875 -0.8125 -0.546875 -1.796875q0 -1.328125 0.671875 -2.046875q0.671875 -0.734375 2.203125 -1.0625q1.546875 -0.328125 4.28125 -0.328125l0.53125 0l0 -0.78125q0 -1.453125 -0.59375 -2.125q-0.59375 -0.671875 -1.90625 -0.671875q-1.640625 0 -3.3125 0.890625q-0.65625 0.40625 -0.90625 0.40625q-0.296875 0 -0.484375 -0.203125q-0.1875 -0.21875 -0.1875 -0.5625q0 -0.328125 0.203125 -0.578125q0.203125 -0.265625 0.65625 -0.515625q0.84375 -0.484375 1.90625 -0.75q1.0625 -0.28125 2.125 -0.28125zm-0.796875 10.59375q1.4375 0 2.359375 -0.96875q0.9375 -0.96875 0.9375 -2.5l0 -0.703125l-0.4375 0q-2.109375 0 -3.21875 0.1875q-1.109375 0.171875 -1.578125 0.59375q-0.453125 0.421875 -0.453125 1.234375q0 0.9375 0.671875 1.546875q0.6875 0.609375 1.71875 0.609375zm14.626221 -10.59375q4.1875 0 4.1875 4.625l0 6.5q0 0.453125 -0.25 0.71875q-0.25 0.25 -0.703125 0.25q-0.453125 0 -0.71875 -0.25q-0.265625 -0.265625 -0.265625 -0.71875l0 -6.375q0 -1.640625 -0.640625 -2.375q-0.640625 -0.75 -2.03125 -0.75q-1.609375 0 -2.5625 0.984375q-0.953125 0.984375 -0.953125 2.65625l0 5.859375q0 0.453125 -0.265625 0.71875q-0.25 0.25 -0.703125 0.25q-0.453125 0 -0.71875 -0.25q-0.265625 -0.265625 -0.265625 -0.71875l0 -10.125q0 -0.4375 0.265625 -0.6875q0.265625 -0.265625 0.71875 -0.265625q0.4375 0 0.6875 0.265625q0.25 0.25 0.25 0.671875l0 1.21875q0.578125 -1.078125 1.609375 -1.640625q1.03125 -0.5625 2.359375 -0.5625zm12.569458 12.140625q-1.640625 0 -2.90625 -0.734375q-1.25 -0.75 -1.9375 -2.125q-0.671875 -1.375 -0.671875 -3.171875q0 -1.796875 0.703125 -3.1875q0.703125 -1.390625 1.96875 -2.15625q1.28125 -0.765625 2.9375 -0.765625q0.90625 0 1.8125 0.25q0.90625 0.25 1.578125 0.734375q0.421875 0.28125 0.59375 0.5625q0.1875 0.265625 0.1875 0.609375q0 0.328125 -0.1875 0.546875q-0.171875 0.21875 -0.453125 0.21875q-0.171875 0 -0.359375 -0.09375q-0.1875 -0.09375 -0.328125 -0.1875q-0.125 -0.109375 -0.171875 -0.125q-0.625 -0.40625 -1.203125 -0.640625q-0.5625 -0.25 -1.375 -0.25q-1.75 0 -2.71875 1.1875q-0.96875 1.1875 -0.96875 3.296875q0 2.109375 0.96875 3.265625q0.96875 1.15625 2.71875 1.15625q0.8125 0 1.40625 -0.234375q0.59375 -0.25 1.1875 -0.65625q0.265625 -0.171875 0.5 -0.28125q0.25 -0.125 0.40625 -0.125q0.265625 0 0.4375 0.21875q0.1875 0.21875 0.1875 0.546875q0 0.3125 -0.171875 0.5625q-0.15625 0.25 -0.609375 0.5625q-0.671875 0.453125 -1.625 0.734375q-0.953125 0.28125 -1.90625 0.28125zm15.714722 -2.890625q0.265625 0 0.453125 0.21875q0.203125 0.21875 0.203125 0.5625q0 0.59375 -0.84375 1.09375q-0.859375 0.5 -1.828125 0.765625q-0.953125 0.25 -1.875 0.25q-2.703125 0 -4.28125 -1.609375q-1.5625 -1.609375 -1.5625 -4.4375q0 -1.8125 0.6875 -3.1875q0.703125 -1.375 1.953125 -2.140625q1.265625 -0.765625 2.875 -0.765625q2.28125 0 3.625 1.484375q1.34375 1.484375 1.34375 4.03125q0 0.484375 -0.203125 0.703125q-0.1875 0.203125 -0.609375 0.203125l-7.734375 0q0.21875 4.125 3.90625 4.125q0.9375 0 1.609375 -0.25q0.671875 -0.25 1.453125 -0.6875q0.609375 -0.359375 0.828125 -0.359375zm-4.203125 -7.75q-1.53125 0 -2.453125 0.96875q-0.921875 0.953125 -1.09375 2.703125l6.796875 0q-0.046875 -1.765625 -0.890625 -2.71875q-0.84375 -0.953125 -2.359375 -0.953125z" fill-rule="nonzero"/><path fill="#000000" d="m372.68658 126.43145q0.453125 0 0.703125 0.28125q0.265625 0.28125 0.265625 0.734375l0 15.187492q0 0.4375 -0.25 0.703125q-0.234375 0.265625 -0.671875 0.265625q-0.421875 0 -0.640625 -0.265625q-0.21875 -0.265625 -0.21875 -0.703125l0 -12.265625l-5.203125 9.984375q-0.34375 0.703125 -0.984375 0.703125q-0.625 0 -0.984375 -0.703125l-5.234375 -9.859375l0 12.140625q0 0.4375 -0.234375 0.703125q-0.21875 0.265625 -0.65625 0.265625q-0.4375 0 -0.671875 -0.265625q-0.234375 -0.265625 -0.234375 -0.703125l0 -15.187492q0 -0.453125 0.25 -0.734375q0.265625 -0.28125 0.734375 -0.28125q0.59375 0 0.953125 0.703125l6.09375 11.687492l6.03125 -11.687492q0.1875 -0.390625 0.40625 -0.546875q0.234375 -0.15625 0.546875 -0.15625zm9.652679 5.0781174q4.390625 0 4.390625 4.59375l0 6.53125q0 0.4375 -0.25 0.703125q-0.25 0.265625 -0.6875 0.265625q-0.4375 0 -0.703125 -0.265625q-0.25 -0.265625 -0.25 -0.703125l0 -1.140625q-0.46875 1.03125 -1.40625 1.59375q-0.921875 0.5625 -2.15625 0.5625q-1.125 0 -2.078125 -0.453125q-0.9375 -0.46875 -1.5 -1.28125q-0.546875 -0.8125 -0.546875 -1.796875q0 -1.328125 0.671875 -2.046875q0.671875 -0.734375 2.203125 -1.0625q1.546875 -0.328125 4.28125 -0.328125l0.53125 0l0 -0.78125q0 -1.453125 -0.59375 -2.125q-0.59375 -0.671875 -1.90625 -0.671875q-1.640625 0 -3.3125 0.890625q-0.65625 0.40625 -0.90625 0.40625q-0.296875 0 -0.484375 -0.203125q-0.1875 -0.21875 -0.1875 -0.5625q0 -0.328125 0.203125 -0.578125q0.203125 -0.265625 0.65625 -0.515625q0.84375 -0.484375 1.90625 -0.75q1.0625 -0.28125 2.125 -0.28125zm-0.796875 10.59375q1.4375 0 2.359375 -0.96875q0.9375 -0.96875 0.9375 -2.5l0 -0.703125l-0.4375 0q-2.109375 0 -3.21875 0.1875q-1.109375 0.171875 -1.578125 0.59375q-0.453125 0.421875 -0.453125 1.234375q0 0.9375 0.671875 1.546875q0.6875 0.609375 1.71875 0.609375zm14.626221 -10.59375q1.53125 0 2.703125 0.765625q1.171875 0.765625 1.8125 2.140625q0.65625 1.375 0.65625 3.203125q0 1.828125 -0.65625 3.1875q-0.640625 1.359375 -1.8125 2.109375q-1.15625 0.734375 -2.703125 0.734375q-1.375 0 -2.40625 -0.59375q-1.015625 -0.609375 -1.53125 -1.71875l0 5.640625q0 0.4375 -0.265625 0.6875q-0.25 0.25 -0.703125 0.25q-0.453125 0 -0.71875 -0.265625q-0.265625 -0.265625 -0.265625 -0.671875l0 -14.46875q0 -0.4375 0.265625 -0.6875q0.265625 -0.265625 0.71875 -0.265625q0.453125 0 0.703125 0.265625q0.265625 0.25 0.265625 0.6875l0 1.296875q0.515625 -1.109375 1.53125 -1.703125q1.03125 -0.59375 2.40625 -0.59375zm-0.390625 10.53125q1.703125 0 2.640625 -1.15625q0.9375 -1.15625 0.9375 -3.265625q0 -2.109375 -0.9375 -3.296875q-0.9375 -1.1875 -2.640625 -1.1875q-1.703125 0 -2.625 1.15625q-0.921875 1.140625 -0.921875 3.28125q0 2.140625 0.921875 3.3125q0.921875 1.15625 2.625 1.15625z" fill-rule="nonzero"/><path fill="#000000" fill-opacity="0.0" d="m767.4252 34.88714l153.44885 0l0 37.322838l-153.44885 0z" fill-rule="evenodd"/><path fill="#000000" d="m795.65515 49.880264q0.453125 0 0.703125 0.28125q0.265625 0.28125 0.265625 0.734375l0 15.1875q0 0.4375 -0.25 0.703125q-0.234375 0.265625 -0.671875 0.265625q-0.421875 0 -0.640625 -0.265625q-0.21875 -0.265625 -0.21875 -0.703125l0 -12.265625l-5.203125 9.984375q-0.34375 0.703125 -0.984375 0.703125q-0.625 0 -0.984375 -0.703125l-5.234375 -9.859375l0 12.140625q0 0.4375 -0.234375 0.703125q-0.21875 0.265625 -0.65625 0.265625q-0.4375 0 -0.671875 -0.265625q-0.234375 -0.265625 -0.234375 -0.703125l0 -15.1875q0 -0.453125 0.25 -0.734375q0.265625 -0.28125 0.734375 -0.28125q0.59375 0 0.953125 0.703125l6.09375 11.6875l6.03125 -11.6875q0.1875 -0.390625 0.40625 -0.546875q0.234375 -0.15625 0.546875 -0.15625zm12.34021 17.234375q-2.40625 0 -4.15625 -1.03125q-1.75 -1.046875 -2.703125 -3.0q-0.9375 -1.96875 -0.9375 -4.625q0 -2.640625 0.9375 -4.59375q0.953125 -1.96875 2.703125 -3.0q1.75 -1.046875 4.15625 -1.046875q1.609375 0 3.03125 0.515625q1.4375 0.515625 2.484375 1.46875q0.390625 0.359375 0.390625 0.84375q0 0.34375 -0.203125 0.59375q-0.1875 0.25 -0.453125 0.25q-0.28125 0 -0.6875 -0.265625q-1.234375 -0.953125 -2.234375 -1.34375q-0.984375 -0.390625 -2.28125 -0.390625q-2.78125 0 -4.28125 1.8125q-1.5 1.8125 -1.5 5.15625q0 3.359375 1.5 5.171875q1.5 1.8125 4.28125 1.8125q1.265625 0 2.265625 -0.375q1.015625 -0.390625 2.25 -1.359375q0.40625 -0.265625 0.6875 -0.265625q0.265625 0 0.453125 0.25q0.203125 0.234375 0.203125 0.59375q0 0.484375 -0.390625 0.84375q-1.046875 0.953125 -2.484375 1.46875q-1.421875 0.515625 -3.03125 0.515625zm21.716736 -17.234375q0.4375 0 0.671875 0.28125q0.234375 0.28125 0.234375 0.734375l0 15.140625q0 0.453125 -0.25 0.734375q-0.25 0.28125 -0.703125 0.28125q-0.453125 0 -0.796875 -0.40625l-9.953125 -13.328125l0 12.71875q0 0.453125 -0.25 0.734375q-0.25 0.28125 -0.6875 0.28125q-0.4375 0 -0.671875 -0.28125q-0.234375 -0.28125 -0.234375 -0.734375l0 -15.140625q0 -0.453125 0.25 -0.734375q0.25 -0.28125 0.703125 -0.28125q0.484375 0 0.8125 0.421875l9.9375 13.3125l0 -12.71875q0 -0.453125 0.25 -0.734375q0.25 -0.28125 0.6875 -0.28125zm6.079651 17.171875q-0.46875 0 -0.734375 -0.28125q-0.25 -0.28125 -0.25 -0.734375l0 -15.0625q0 -0.4375 0.265625 -0.703125q0.28125 -0.265625 0.734375 -0.265625l5.6875 0q2.671875 0 4.140625 1.296875q1.484375 1.296875 1.484375 3.671875q0 2.375 -1.5 3.703125q-1.484375 1.3125 -4.125 1.3125l-4.71875 0l0 6.046875q0 0.453125 -0.265625 0.734375q-0.265625 0.28125 -0.71875 0.28125zm5.515625 -8.6875q3.859375 0 3.859375 -3.390625q0 -3.328125 -3.859375 -3.328125l-4.53125 0l0 6.71875l4.53125 0zm16.156311 8.6875q-0.46875 0 -0.734375 -0.28125q-0.25 -0.28125 -0.25 -0.734375l0 -15.140625q0 -0.453125 0.25 -0.734375q0.265625 -0.28125 0.734375 -0.28125q0.453125 0 0.71875 0.28125q0.265625 0.28125 0.265625 0.734375l0 15.140625q0 0.453125 -0.265625 0.734375q-0.265625 0.28125 -0.71875 0.28125zm10.753357 -12.09375q4.1875 0 4.1875 4.625l0 6.5q0 0.453125 -0.25 0.71875q-0.25 0.25 -0.703125 0.25q-0.453125 0 -0.71875 -0.25q-0.265625 -0.265625 -0.265625 -0.71875l0 -6.375q0 -1.640625 -0.640625 -2.375q-0.640625 -0.75 -2.03125 -0.75q-1.609375 0 -2.5625 0.984375q-0.953125 0.984375 -0.953125 2.65625l0 5.859375q0 0.453125 -0.265625 0.71875q-0.25 0.25 -0.703125 0.25q-0.453125 0 -0.71875 -0.25q-0.265625 -0.265625 -0.265625 -0.71875l0 -10.125q0 -0.4375 0.265625 -0.6875q0.265625 -0.265625 0.71875 -0.265625q0.4375 0 0.6875 0.265625q0.25 0.25 0.25 0.671875l0 1.21875q0.578125 -1.078125 1.609375 -1.640625q1.03125 -0.5625 2.359375 -0.5625zm13.631958 0q1.53125 0 2.703125 0.765625q1.171875 0.765625 1.8125 2.140625q0.65625 1.375 0.65625 3.203125q0 1.828125 -0.65625 3.1875q-0.640625 1.359375 -1.8125 2.109375q-1.15625 0.734375 -2.703125 0.734375q-1.375 0 -2.40625 -0.59375q-1.015625 -0.609375 -1.53125 -1.71875l0 5.640625q0 0.4375 -0.265625 0.6875q-0.25 0.25 -0.703125 0.25q-0.453125 0 -0.71875 -0.265625q-0.265625 -0.265625 -0.265625 -0.671875l0 -14.46875q0 -0.4375 0.265625 -0.6875q0.265625 -0.265625 0.71875 -0.265625q0.453125 0 0.703125 0.265625q0.265625 0.25 0.265625 0.6875l0 1.296875q0.515625 -1.109375 1.53125 -1.703125q1.03125 -0.59375 2.40625 -0.59375zm-0.390625 10.53125q1.703125 0 2.640625 -1.15625q0.9375 -1.15625 0.9375 -3.265625q0 -2.109375 -0.9375 -3.296875q-0.9375 -1.1875 -2.640625 -1.1875q-1.703125 0 -2.625 1.15625q-0.921875 1.140625 -0.921875 3.28125q0 2.140625 0.921875 3.3125q0.921875 1.15625 2.625 1.15625zm17.358582 -10.484375q0.453125 0 0.703125 0.265625q0.25 0.25 0.25 0.6875l0 10.15625q0 0.40625 -0.25 0.671875q-0.25 0.265625 -0.703125 0.265625q-0.4375 0 -0.6875 -0.25q-0.25 -0.265625 -0.25 -0.671875l0 -1.1875q-0.5625 1.046875 -1.5625 1.609375q-0.984375 0.546875 -2.234375 0.546875q-2.09375 0 -3.15625 -1.15625q-1.046875 -1.171875 -1.046875 -3.453125l0 -6.53125q0 -0.4375 0.265625 -0.6875q0.265625 -0.265625 0.71875 -0.265625q0.453125 0 0.703125 0.265625q0.265625 0.25 0.265625 0.6875l0 6.484375q0 1.5625 0.609375 2.296875q0.625 0.71875 1.96875 0.71875q1.546875 0 2.484375 -0.984375q0.9375 -1.0 0.9375 -2.640625l0 -5.875q0 -0.4375 0.25 -0.6875q0.265625 -0.265625 0.734375 -0.265625zm9.979614 10.5q0.84375 0.078125 0.84375 0.78125q0 0.40625 -0.3125 0.609375q-0.296875 0.203125 -0.890625 0.15625l-0.65625 -0.046875q-1.921875 -0.15625 -2.828125 -1.15625q-0.90625 -1.015625 -0.90625 -3.046875l0 -6.03125l-1.609375 0q-0.40625 0 -0.640625 -0.203125q-0.234375 -0.203125 -0.234375 -0.53125q0 -0.359375 0.234375 -0.578125q0.234375 -0.21875 0.640625 -0.21875l1.609375 0l0 -2.71875q0 -0.453125 0.25 -0.703125q0.265625 -0.25 0.734375 -0.25q0.421875 0 0.6875 0.25q0.265625 0.25 0.265625 0.703125l0 2.71875l2.671875 0q0.375 0 0.59375 0.21875q0.234375 0.21875 0.234375 0.578125q0 0.328125 -0.234375 0.53125q-0.21875 0.203125 -0.59375 0.203125l-2.671875 0l0 6.125q0 1.3125 0.53125 1.90625q0.546875 0.59375 1.625 0.65625l0.65625 0.046875z" fill-rule="nonzero"/><path fill="#000000" d="m818.527 84.630264q0.25 -0.578125 0.796875 -0.578125q0.359375 0 0.640625 0.234375q0.296875 0.234375 0.296875 0.59375q0 0.171875 -0.078125 0.359375l-3.984375 10.09375q-0.140625 0.3125 -0.421875 0.5q-0.265625 0.171875 -0.609375 0.171875q-0.3125 0 -0.59375 -0.171875q-0.265625 -0.1875 -0.40625 -0.5l-3.3125 -8.4375l-3.296875 8.4375q-0.109375 0.3125 -0.40625 0.5q-0.28125 0.171875 -0.625 0.171875q-0.3125 0 -0.609375 -0.171875q-0.28125 -0.1875 -0.421875 -0.5l-3.984375 -10.0625q-0.0625 -0.1875 -0.0625 -0.328125q0 -0.390625 0.3125 -0.65625q0.328125 -0.265625 0.71875 -0.265625q0.5625 0 0.8125 0.578125l3.28125 8.859375l3.390625 -8.78125q0.140625 -0.3125 0.390625 -0.484375q0.25 -0.171875 0.546875 -0.171875q0.3125 0 0.5625 0.171875q0.25 0.171875 0.375 0.484375l3.375 8.75l3.3125 -8.796875zm5.207947 11.421875q-0.421875 0 -0.703125 -0.25q-0.28125 -0.265625 -0.28125 -0.71875l0 -10.125q0 -0.453125 0.28125 -0.703125q0.28125 -0.25 0.703125 -0.25q0.4375 0 0.703125 0.25q0.265625 0.25 0.265625 0.703125l0 10.125q0 0.484375 -0.265625 0.734375q-0.265625 0.234375 -0.703125 0.234375zm0.015625 -14.578125q-0.578125 0 -0.9375 -0.328125q-0.359375 -0.34375 -0.359375 -0.890625q0 -0.53125 0.359375 -0.859375q0.359375 -0.34375 0.9375 -0.34375q0.5625 0 0.921875 0.34375q0.375 0.328125 0.375 0.859375q0 0.546875 -0.375 0.890625q-0.359375 0.328125 -0.921875 0.328125zm9.974243 13.03125q0.84375 0.078125 0.84375 0.78125q0 0.40625 -0.3125 0.609375q-0.296875 0.203125 -0.890625 0.15625l-0.65625 -0.046875q-1.921875 -0.15625 -2.828125 -1.15625q-0.90625 -1.015625 -0.90625 -3.046875l0 -6.03125l-1.609375 0q-0.40625 0 -0.640625 -0.203125q-0.234375 -0.203125 -0.234375 -0.53125q0 -0.359375 0.234375 -0.578125q0.234375 -0.21875 0.640625 -0.21875l1.609375 0l0 -2.71875q0 -0.453125 0.25 -0.703125q0.265625 -0.25 0.734375 -0.25q0.421875 0 0.6875 0.25q0.265625 0.25 0.265625 0.703125l0 2.71875l2.671875 0q0.375 0 0.59375 0.21875q0.234375 0.21875 0.234375 0.578125q0 0.328125 -0.234375 0.53125q-0.21875 0.203125 -0.59375 0.203125l-2.671875 0l0 6.125q0 1.3125 0.53125 1.90625q0.546875 0.59375 1.625 0.65625l0.65625 0.046875zm8.659973 -10.546875q2.0625 0 3.109375 1.171875q1.0625 1.15625 1.0625 3.453125l0 6.5q0 0.453125 -0.265625 0.71875q-0.25 0.25 -0.6875 0.25q-0.453125 0 -0.71875 -0.25q-0.265625 -0.265625 -0.265625 -0.71875l0 -6.453125q0 -1.5625 -0.640625 -2.296875q-0.640625 -0.75 -2.03125 -0.75q-1.609375 0 -2.5625 0.984375q-0.953125 0.984375 -0.953125 2.65625l0 5.859375q0 0.453125 -0.265625 0.71875q-0.25 0.25 -0.703125 0.25q-0.453125 0 -0.71875 -0.25q-0.265625 -0.265625 -0.265625 -0.71875l0 -15.265625q0 -0.40625 0.28125 -0.671875q0.28125 -0.265625 0.703125 -0.265625q0.453125 0 0.703125 0.265625q0.265625 0.25 0.265625 0.671875l0 6.296875q0.5625 -1.0625 1.59375 -1.609375q1.046875 -0.546875 2.359375 -0.546875zm26.620789 -4.5625q0.109375 -0.265625 0.34375 -0.40625q0.234375 -0.15625 0.5 -0.15625q0.375 0 0.671875 0.265625q0.296875 0.25 0.296875 0.609375q0 0.1875 -0.09375 0.375l-6.875 15.3125q-0.15625 0.3125 -0.453125 0.484375q-0.28125 0.171875 -0.609375 0.171875q-0.34375 0 -0.625 -0.171875q-0.28125 -0.171875 -0.4375 -0.484375l-6.859375 -15.3125q-0.078125 -0.1875 -0.078125 -0.359375q0 -0.375 0.3125 -0.625q0.3125 -0.265625 0.703125 -0.265625q0.578125 0 0.84375 0.5625l6.1875 13.984375l6.171875 -13.984375zm17.083984 15.3125q0.171875 0.265625 0.171875 0.546875q0 0.359375 -0.28125 0.59375q-0.28125 0.21875 -0.640625 0.21875q-0.546875 0 -0.859375 -0.484375l-3.21875 -5.078125q-0.625 -0.984375 -1.296875 -1.359375q-0.671875 -0.375 -1.8125 -0.375l-3.03125 0l0 6.265625q0 0.453125 -0.265625 0.734375q-0.265625 0.28125 -0.6875 0.28125q-0.46875 0 -0.734375 -0.28125q-0.25 -0.28125 -0.25 -0.734375l0 -15.0625q0 -0.4375 0.265625 -0.703125q0.28125 -0.265625 0.734375 -0.265625l5.953125 0q2.765625 0 4.21875 1.234375q1.453125 1.21875 1.453125 3.59375q0 2.015625 -1.171875 3.25q-1.15625 1.21875 -3.328125 1.46875q0.609375 0.203125 1.078125 0.640625q0.484375 0.421875 0.96875 1.1875l2.734375 4.328125zm-6.125 -7.5625q1.96875 0 2.9375 -0.8125q0.984375 -0.828125 0.984375 -2.484375q0 -1.625 -0.96875 -2.40625q-0.953125 -0.796875 -2.953125 -0.796875l-4.84375 0l0 6.5l4.84375 0z" fill-rule="nonzero"/><path fill="#000000" d="m785.5839 125.05214q-0.46875 0 -0.734375 -0.28125q-0.25 -0.28125 -0.25 -0.734375l0 -15.0625q0 -0.4375 0.265625 -0.703125q0.28125 -0.265625 0.734375 -0.265625l5.6875 0q2.671875 0 4.140625 1.296875q1.484375 1.296875 1.484375 3.671875q0 2.375 -1.5 3.703125q-1.484375 1.3125 -4.125 1.3125l-4.71875 0l0 6.046875q0 0.453125 -0.265625 0.734375q-0.265625 0.28125 -0.71875 0.28125zm5.515625 -8.6875q3.859375 0 3.859375 -3.390625q0 -3.328125 -3.859375 -3.328125l-4.53125 0l0 6.71875l4.53125 0zm13.464355 -3.40625q4.390625 0 4.390625 4.59375l0 6.53125q0 0.4375 -0.25 0.703125q-0.25 0.265625 -0.6875 0.265625q-0.4375 0 -0.703125 -0.265625q-0.25 -0.265625 -0.25 -0.703125l0 -1.140625q-0.46875 1.03125 -1.40625 1.59375q-0.921875 0.5625 -2.15625 0.5625q-1.125 0 -2.078125 -0.453125q-0.9375 -0.46875 -1.5 -1.28125q-0.546875 -0.8125 -0.546875 -1.796875q0 -1.328125 0.671875 -2.046875q0.671875 -0.734375 2.203125 -1.0625q1.546875 -0.328125 4.28125 -0.328125l0.53125 0l0 -0.78125q0 -1.453125 -0.59375 -2.125q-0.59375 -0.671875 -1.90625 -0.671875q-1.640625 0 -3.3125 0.890625q-0.65625 0.40625 -0.90625 0.40625q-0.296875 0 -0.484375 -0.203125q-0.1875 -0.21875 -0.1875 -0.5625q0 -0.328125 0.203125 -0.578125q0.203125 -0.265625 0.65625 -0.515625q0.84375 -0.484375 1.90625 -0.75q1.0625 -0.28125 2.125 -0.28125zm-0.796875 10.59375q1.4375 0 2.359375 -0.96875q0.9375 -0.96875 0.9375 -2.5l0 -0.703125l-0.4375 0q-2.109375 0 -3.21875 0.1875q-1.109375 0.171875 -1.578125 0.59375q-0.453125 0.421875 -0.453125 1.234375q0 0.9375 0.671875 1.546875q0.6875 0.609375 1.71875 0.609375zm14.516785 -10.546875q1.015625 -0.078125 1.015625 0.8125q0 0.375 -0.21875 0.609375q-0.21875 0.234375 -0.75 0.28125l-0.71875 0.0625q-1.609375 0.140625 -2.390625 1.140625q-0.765625 1.0 -0.765625 2.34375l0 5.828125q0 0.484375 -0.265625 0.734375q-0.265625 0.234375 -0.703125 0.234375q-0.421875 0 -0.703125 -0.25q-0.28125 -0.265625 -0.28125 -0.71875l0 -10.125q0 -0.453125 0.28125 -0.703125q0.296875 -0.25 0.703125 -0.25q0.390625 0 0.65625 0.25q0.265625 0.25 0.265625 0.6875l0 1.34375q0.5 -1.0625 1.421875 -1.609375q0.921875 -0.5625 2.125 -0.65625l0.328125 -0.015625zm7.471985 -0.046875q4.390625 0 4.390625 4.59375l0 6.53125q0 0.4375 -0.25 0.703125q-0.25 0.265625 -0.6875 0.265625q-0.4375 0 -0.703125 -0.265625q-0.25 -0.265625 -0.25 -0.703125l0 -1.140625q-0.46875 1.03125 -1.40625 1.59375q-0.921875 0.5625 -2.15625 0.5625q-1.125 0 -2.078125 -0.453125q-0.9375 -0.46875 -1.5 -1.28125q-0.546875 -0.8125 -0.546875 -1.796875q0 -1.328125 0.671875 -2.046875q0.671875 -0.734375 2.203125 -1.0625q1.546875 -0.328125 4.28125 -0.328125l0.53125 0l0 -0.78125q0 -1.453125 -0.59375 -2.125q-0.59375 -0.671875 -1.90625 -0.671875q-1.640625 0 -3.3125 0.890625q-0.65625 0.40625 -0.90625 0.40625q-0.296875 0 -0.484375 -0.203125q-0.1875 -0.21875 -0.1875 -0.5625q0 -0.328125 0.203125 -0.578125q0.203125 -0.265625 0.65625 -0.515625q0.84375 -0.484375 1.90625 -0.75q1.0625 -0.28125 2.125 -0.28125zm-0.796875 10.59375q1.4375 0 2.359375 -0.96875q0.9375 -0.96875 0.9375 -2.5l0 -0.703125l-0.4375 0q-2.109375 0 -3.21875 0.1875q-1.109375 0.171875 -1.578125 0.59375q-0.453125 0.421875 -0.453125 1.234375q0 0.9375 0.671875 1.546875q0.6875 0.609375 1.71875 0.609375zm21.75122 -10.59375q3.890625 0 3.890625 4.625l0 6.5q0 0.453125 -0.265625 0.71875q-0.265625 0.25 -0.703125 0.25q-0.4375 0 -0.71875 -0.25q-0.265625 -0.265625 -0.265625 -0.71875l0 -6.453125q0 -1.609375 -0.578125 -2.328125q-0.578125 -0.71875 -1.796875 -0.71875q-1.46875 0 -2.3125 0.984375q-0.828125 0.984375 -0.828125 2.65625l0 5.859375q0 0.453125 -0.28125 0.71875q-0.265625 0.25 -0.703125 0.25q-0.4375 0 -0.703125 -0.25q-0.265625 -0.265625 -0.265625 -0.71875l0 -6.453125q0 -1.609375 -0.578125 -2.328125q-0.5625 -0.71875 -1.8125 -0.71875q-1.4375 0 -2.296875 0.984375q-0.84375 0.984375 -0.84375 2.65625l0 5.859375q0 0.453125 -0.265625 0.71875q-0.265625 0.25 -0.703125 0.25q-0.421875 0 -0.703125 -0.25q-0.28125 -0.265625 -0.28125 -0.71875l0 -10.125q0 -0.4375 0.28125 -0.6875q0.28125 -0.265625 0.703125 -0.265625q0.40625 0 0.671875 0.25q0.265625 0.25 0.265625 0.6875l0 1.140625q0.53125 -1.03125 1.46875 -1.578125q0.9375 -0.546875 2.15625 -0.546875q2.734375 0 3.578125 2.296875q0.5 -1.0625 1.53125 -1.671875q1.03125 -0.625 2.359375 -0.625zm16.479187 9.25q0.265625 0 0.453125 0.21875q0.203125 0.21875 0.203125 0.5625q0 0.59375 -0.84375 1.09375q-0.859375 0.5 -1.828125 0.765625q-0.953125 0.25 -1.875 0.25q-2.703125 0 -4.28125 -1.609375q-1.5625 -1.609375 -1.5625 -4.4375q0 -1.8125 0.6875 -3.1875q0.703125 -1.375 1.953125 -2.140625q1.265625 -0.765625 2.875 -0.765625q2.28125 0 3.625 1.484375q1.34375 1.484375 1.34375 4.03125q0 0.484375 -0.203125 0.703125q-0.1875 0.203125 -0.609375 0.203125l-7.734375 0q0.21875 4.125 3.90625 4.125q0.9375 0 1.609375 -0.25q0.671875 -0.25 1.453125 -0.6875q0.609375 -0.359375 0.828125 -0.359375zm-4.203125 -7.75q-1.53125 0 -2.453125 0.96875q-0.921875 0.953125 -1.09375 2.703125l6.796875 0q-0.046875 -1.765625 -0.890625 -2.71875q-0.84375 -0.953125 -2.359375 -0.953125zm13.210449 9.046875q0.84375 0.078125 0.84375 0.78125q0 0.40625 -0.3125 0.609375q-0.296875 0.203125 -0.890625 0.15625l-0.65625 -0.046875q-1.921875 -0.15625 -2.828125 -1.15625q-0.90625 -1.015625 -0.90625 -3.046875l0 -6.03125l-1.609375 0q-0.40625 0 -0.640625 -0.203125q-0.234375 -0.203125 -0.234375 -0.53125q0 -0.359375 0.234375 -0.578125q0.234375 -0.21875 0.640625 -0.21875l1.609375 0l0 -2.71875q0 -0.453125 0.25 -0.703125q0.265625 -0.25 0.734375 -0.25q0.421875 0 0.6875 0.25q0.265625 0.25 0.265625 0.703125l0 2.71875l2.671875 0q0.375 0 0.59375 0.21875q0.234375 0.21875 0.234375 0.578125q0 0.328125 -0.234375 0.53125q-0.21875 0.203125 -0.59375 0.203125l-2.671875 0l0 6.125q0 1.3125 0.53125 1.90625q0.546875 0.59375 1.625 0.65625l0.65625 0.046875zm11.800598 -1.296875q0.265625 0 0.453125 0.21875q0.203125 0.21875 0.203125 0.5625q0 0.59375 -0.84375 1.09375q-0.859375 0.5 -1.828125 0.765625q-0.953125 0.25 -1.875 0.25q-2.703125 0 -4.28125 -1.609375q-1.5625 -1.609375 -1.5625 -4.4375q0 -1.8125 0.6875 -3.1875q0.703125 -1.375 1.953125 -2.140625q1.265625 -0.765625 2.875 -0.765625q2.28125 0 3.625 1.484375q1.34375 1.484375 1.34375 4.03125q0 0.484375 -0.203125 0.703125q-0.1875 0.203125 -0.609375 0.203125l-7.734375 0q0.21875 4.125 3.90625 4.125q0.9375 0 1.609375 -0.25q0.671875 -0.25 1.453125 -0.6875q0.609375 -0.359375 0.828125 -0.359375zm-4.203125 -7.75q-1.53125 0 -2.453125 0.96875q-0.921875 0.953125 -1.09375 2.703125l6.796875 0q-0.046875 -1.765625 -0.890625 -2.71875q-0.84375 -0.953125 -2.359375 -0.953125zm13.585449 -1.453125q1.015625 -0.078125 1.015625 0.8125q0 0.375 -0.21875 0.609375q-0.21875 0.234375 -0.75 0.28125l-0.71875 0.0625q-1.609375 0.140625 -2.390625 1.140625q-0.765625 1.0 -0.765625 2.34375l0 5.828125q0 0.484375 -0.265625 0.734375q-0.265625 0.234375 -0.703125 0.234375q-0.421875 0 -0.703125 -0.25q-0.28125 -0.265625 -0.28125 -0.71875l0 -10.125q0 -0.453125 0.28125 -0.703125q0.296875 -0.25 0.703125 -0.25q0.390625 0 0.65625 0.25q0.265625 0.25 0.265625 0.6875l0 1.34375q0.5 -1.0625 1.421875 -1.609375q0.921875 -0.5625 2.125 -0.65625l0.328125 -0.015625zm6.628235 12.09375q-1.109375 0 -2.109375 -0.265625q-0.984375 -0.265625 -1.75 -0.75q-0.4375 -0.28125 -0.625 -0.53125q-0.171875 -0.25 -0.171875 -0.609375q0 -0.3125 0.171875 -0.515625q0.1875 -0.21875 0.484375 -0.21875q0.28125 0 0.828125 0.359375q0.71875 0.4375 1.421875 0.6875q0.71875 0.25 1.78125 0.25q1.296875 0 2.015625 -0.453125q0.71875 -0.453125 0.71875 -1.3125q0 -0.53125 -0.265625 -0.859375q-0.265625 -0.328125 -0.921875 -0.578125q-0.640625 -0.25 -1.890625 -0.515625q-2.109375 -0.453125 -3.03125 -1.21875q-0.90625 -0.765625 -0.90625 -2.09375q0 -1.03125 0.578125 -1.8125q0.578125 -0.796875 1.59375 -1.25q1.03125 -0.453125 2.3125 -0.453125q0.9375 0 1.8125 0.25q0.875 0.25 1.5625 0.703125q0.8125 0.578125 0.8125 1.203125q0 0.3125 -0.203125 0.53125q-0.1875 0.203125 -0.453125 0.203125q-0.28125 0 -0.859375 -0.40625q-0.671875 -0.421875 -1.28125 -0.65625q-0.59375 -0.25 -1.484375 -0.25q-1.125 0 -1.8125 0.5q-0.671875 0.5 -0.671875 1.34375q0 0.53125 0.25 0.859375q0.25 0.3125 0.828125 0.578125q0.59375 0.25 1.703125 0.484375q1.625 0.359375 2.515625 0.796875q0.90625 0.421875 1.296875 1.046875q0.390625 0.625 0.390625 1.59375q0 1.5 -1.28125 2.4375q-1.265625 0.921875 -3.359375 0.921875z" fill-rule="nonzero"/></g></svg>