<svg version="1.1" viewBox="0.0 0.0 238.06299212598427 608.0" fill="none" stroke="none" stroke-linecap="square" stroke-miterlimit="10" xmlns:xlink="http://www.w3.org/1999/xlink" xmlns="http://www.w3.org/2000/svg"><clipPath id="p.0"><path d="m0 0l238.06299 0l0 608.0l-238.06299 0l0 -608.0z" clip-rule="nonzero"/></clipPath><g clip-path="url(#p.0)"><path fill="#000000" fill-opacity="0.0" d="m0 0l238.06299 0l0 608.0l-238.06299 0z" fill-rule="evenodd"/><path fill="#ffffff" d="m28.929134 176.00787l181.19685 0l0 178.99213l-181.19685 0z" fill-rule="evenodd"/><path stroke="#000000" stroke-width="1.0" stroke-linejoin="round" stroke-linecap="butt" d="m28.929134 176.00787l181.19685 0l0 178.99213l-181.19685 0z" fill-rule="evenodd"/><path fill="#f19167" d="m27.868767 175.34645l36.472443 0l0 36.063004l-36.472443 0z" fill-rule="evenodd"/><path stroke="#000000" stroke-width="1.0" stroke-linejoin="round" stroke-linecap="butt" d="m27.868767 175.34645l36.472443 0l0 36.063004l-36.472443 0z" fill-rule="evenodd"/><path fill="#f19167" fill-opacity="0.8538" d="m64.34121 175.34645l36.472443 0l0 36.063004l-36.472443 0z" fill-rule="evenodd"/><path stroke="#000000" stroke-width="1.0" stroke-linejoin="round" stroke-linecap="butt" d="m64.34121 175.34645l36.472443 0l0 36.063004l-36.472443 0z" fill-rule="evenodd"/><path fill="#f19167" fill-opacity="0.7462" d="m100.81365 175.34645l36.472435 0l0 36.063004l-36.472435 0z" fill-rule="evenodd"/><path stroke="#000000" stroke-width="1.0" stroke-linejoin="round" stroke-linecap="butt" d="m100.81365 175.34645l36.472435 0l0 36.063004l-36.472435 0z" fill-rule="evenodd"/><path fill="#f19167" fill-opacity="0.6462" d="m137.28609 175.34645l36.472443 0l0 36.063004l-36.472443 0z" fill-rule="evenodd"/><path stroke="#000000" stroke-width="1.0" stroke-linejoin="round" stroke-linecap="butt" d="m137.28609 175.34645l36.472443 0l0 36.063004l-36.472443 0z" fill-rule="evenodd"/><path fill="#f19167" fill-opacity="0.5538" d="m173.75853 175.34645l36.472443 0l0 36.063004l-36.472443 0z" fill-rule="evenodd"/><path stroke="#000000" stroke-width="1.0" stroke-linejoin="round" stroke-linecap="butt" d="m173.75853 175.34645l36.472443 0l0 36.063004l-36.472443 0z" fill-rule="evenodd"/><path fill="#f19167" fill-opacity="0.8538" d="m27.868767 211.40945l36.472443 0l0 36.06299l-36.472443 0z" fill-rule="evenodd"/><path stroke="#000000" stroke-width="1.0" stroke-linejoin="round" stroke-linecap="butt" d="m27.868767 211.40945l36.472443 0l0 36.06299l-36.472443 0z" fill-rule="evenodd"/><path fill="#f19167" fill-opacity="0.7462" d="m64.34121 211.40945l36.472443 0l0 36.06299l-36.472443 0z" fill-rule="evenodd"/><path stroke="#000000" stroke-width="1.0" stroke-linejoin="round" stroke-linecap="butt" d="m64.34121 211.40945l36.472443 0l0 36.06299l-36.472443 0z" fill-rule="evenodd"/><path fill="#f19167" fill-opacity="0.6462" d="m100.81365 211.40945l36.472435 0l0 36.06299l-36.472435 0z" fill-rule="evenodd"/><path stroke="#000000" stroke-width="1.0" stroke-linejoin="round" stroke-linecap="butt" d="m100.81365 211.40945l36.472435 0l0 36.06299l-36.472435 0z" fill-rule="evenodd"/><path fill="#f19167" fill-opacity="0.5538" d="m137.28609 211.40945l36.472443 0l0 36.06299l-36.472443 0z" fill-rule="evenodd"/><path stroke="#000000" stroke-width="1.0" stroke-linejoin="round" stroke-linecap="butt" d="m137.28609 211.40945l36.472443 0l0 36.06299l-36.472443 0z" fill-rule="evenodd"/><path fill="#f19167" fill-opacity="0.5308" d="m173.75853 211.40945l36.472443 0l0 36.06299l-36.472443 0z" fill-rule="evenodd"/><path stroke="#000000" stroke-width="1.0" stroke-linejoin="round" stroke-linecap="butt" d="m173.75853 211.40945l36.472443 0l0 36.06299l-36.472443 0z" fill-rule="evenodd"/><path fill="#f19167" fill-opacity="0.7462" d="m27.867455 247.47244l36.472443 0l0 36.06299l-36.472443 0z" fill-rule="evenodd"/><path stroke="#000000" stroke-width="1.0" stroke-linejoin="round" stroke-linecap="butt" d="m27.867455 247.47244l36.472443 0l0 36.06299l-36.472443 0z" fill-rule="evenodd"/><path fill="#f19167" fill-opacity="0.6462" d="m27.868767 283.53543l36.472443 0l0 36.06299l-36.472443 0z" fill-rule="evenodd"/><path stroke="#000000" stroke-width="1.0" stroke-linejoin="round" stroke-linecap="butt" d="m27.868767 283.53543l36.472443 0l0 36.06299l-36.472443 0z" fill-rule="evenodd"/><path fill="#f19167" fill-opacity="0.5538" d="m27.868767 319.59842l36.472443 0l0 36.06299l-36.472443 0z" fill-rule="evenodd"/><path stroke="#000000" stroke-width="1.0" stroke-linejoin="round" stroke-linecap="butt" d="m27.868767 319.59842l36.472443 0l0 36.06299l-36.472443 0z" fill-rule="evenodd"/><path fill="#f19167" fill-opacity="0.6462" d="m64.34121 247.47244l36.472443 0l0 36.06299l-36.472443 0z" fill-rule="evenodd"/><path stroke="#000000" stroke-width="1.0" stroke-linejoin="round" stroke-linecap="butt" d="m64.34121 247.47244l36.472443 0l0 36.06299l-36.472443 0z" fill-rule="evenodd"/><path fill="#f19167" fill-opacity="0.5538" d="m64.34121 283.53543l36.472443 0l0 36.06299l-36.472443 0z" fill-rule="evenodd"/><path stroke="#000000" stroke-width="1.0" stroke-linejoin="round" stroke-linecap="butt" d="m64.34121 283.53543l36.472443 0l0 36.06299l-36.472443 0z" fill-rule="evenodd"/><path fill="#f19167" fill-opacity="0.5308" d="m64.34121 319.59842l36.472443 0l0 36.06299l-36.472443 0z" fill-rule="evenodd"/><path stroke="#000000" stroke-width="1.0" stroke-linejoin="round" stroke-linecap="butt" d="m64.34121 319.59842l36.472443 0l0 36.06299l-36.472443 0z" fill-rule="evenodd"/><path fill="#f19167" fill-opacity="0.5538" d="m100.81365 247.47244l36.472435 0l0 36.06299l-36.472435 0z" fill-rule="evenodd"/><path stroke="#000000" stroke-width="1.0" stroke-linejoin="round" stroke-linecap="butt" d="m100.81365 247.47244l36.472435 0l0 36.06299l-36.472435 0z" fill-rule="evenodd"/><path fill="#f19167" fill-opacity="0.5308" d="m100.81365 283.53543l36.472435 0l0 36.06299l-36.472435 0z" fill-rule="evenodd"/><path stroke="#000000" stroke-width="1.0" stroke-linejoin="round" stroke-linecap="butt" d="m100.81365 283.53543l36.472435 0l0 36.06299l-36.472435 0z" fill-rule="evenodd"/><path fill="#f19167" fill-opacity="0.3462" d="m100.81365 319.59842l36.472435 0l0 36.06299l-36.472435 0z" fill-rule="evenodd"/><path stroke="#000000" stroke-width="1.0" stroke-linejoin="round" stroke-linecap="butt" d="m100.81365 319.59842l36.472435 0l0 36.06299l-36.472435 0z" fill-rule="evenodd"/><path fill="#f19167" fill-opacity="0.5308" d="m137.28609 247.47244l36.472443 0l0 36.06299l-36.472443 0z" fill-rule="evenodd"/><path stroke="#000000" stroke-width="1.0" stroke-linejoin="round" stroke-linecap="butt" d="m137.28609 247.47244l36.472443 0l0 36.06299l-36.472443 0z" fill-rule="evenodd"/><path fill="#f19167" fill-opacity="0.3462" d="m137.28609 283.53543l36.472443 0l0 36.06299l-36.472443 0z" fill-rule="evenodd"/><path stroke="#000000" stroke-width="1.0" stroke-linejoin="round" stroke-linecap="butt" d="m137.28609 283.53543l36.472443 0l0 36.06299l-36.472443 0z" fill-rule="evenodd"/><path fill="#f19167" fill-opacity="0.2231" d="m137.28609 319.59842l36.472443 0l0 36.06299l-36.472443 0z" fill-rule="evenodd"/><path stroke="#000000" stroke-width="1.0" stroke-linejoin="round" stroke-linecap="butt" d="m137.28609 319.59842l36.472443 0l0 36.06299l-36.472443 0z" fill-rule="evenodd"/><path fill="#f19167" fill-opacity="0.3462" d="m173.75853 247.47244l36.472443 0l0 36.06299l-36.472443 0z" fill-rule="evenodd"/><path stroke="#000000" stroke-width="1.0" stroke-linejoin="round" stroke-linecap="butt" d="m173.75853 247.47244l36.472443 0l0 36.06299l-36.472443 0z" fill-rule="evenodd"/><path fill="#f19167" fill-opacity="0.2231" d="m173.75853 283.53543l36.472443 0l0 36.06299l-36.472443 0z" fill-rule="evenodd"/><path stroke="#000000" stroke-width="1.0" stroke-linejoin="round" stroke-linecap="butt" d="m173.75853 283.53543l36.472443 0l0 36.06299l-36.472443 0z" fill-rule="evenodd"/><path fill="#f19167" fill-opacity="0.1462" d="m173.75853 319.59842l36.472443 0l0 36.06299l-36.472443 0z" fill-rule="evenodd"/><path stroke="#000000" stroke-width="1.0" stroke-linejoin="round" stroke-linecap="butt" d="m173.75853 319.59842l36.472443 0l0 36.06299l-36.472443 0z" fill-rule="evenodd"/><path fill="#d56b5c" d="m77.01921 221.4012l82.91193 71.938705l3.7795258 -4.3543396l1.151062 16.266022l-16.26918 1.1513062l3.7795258 -4.3543396l-82.91191 -71.938705z" fill-rule="evenodd"/><path stroke="#000000" stroke-width="1.0" stroke-linejoin="round" stroke-linecap="butt" d="m77.01921 221.4012l82.91193 71.938705l3.7795258 -4.3543396l1.151062 16.266022l-16.26918 1.1513062l3.7795258 -4.3543396l-82.91191 -71.938705z" fill-rule="evenodd"/><path fill="#000000" fill-opacity="0.0" d="m52.031498 366.57742l134.99213 0l0 36.06299l-134.99213 0z" fill-rule="evenodd"/><path fill="#000000" d="m75.59787 398.93805l2.859375 -0.25q0.203125 1.71875 0.9375 2.828125q0.75 1.09375 2.3125 1.78125q1.5625 0.671875 3.515625 0.671875q1.734375 0 3.0625 -0.515625q1.328125 -0.515625 1.96875 -1.40625q0.65625 -0.90625 0.65625 -1.96875q0 -1.078125 -0.625 -1.875q-0.625 -0.8125 -2.0625 -1.359375q-0.921875 -0.359375 -4.078125 -1.109375q-3.15625 -0.765625 -4.421875 -1.4375q-1.640625 -0.859375 -2.453125 -2.125q-0.796875 -1.28125 -0.796875 -2.859375q0 -1.734375 0.984375 -3.234375q0.984375 -1.515625 2.875 -2.296875q1.890625 -0.78125 4.203125 -0.78125q2.546875 0 4.484375 0.828125q1.953125 0.8125 3.0 2.40625q1.046875 1.59375 1.125 3.609375l-2.90625 0.21875q-0.234375 -2.171875 -1.59375 -3.28125q-1.34375 -1.109375 -3.984375 -1.109375q-2.75 0 -4.015625 1.015625q-1.25 1.0 -1.25 2.421875q0 1.234375 0.890625 2.03125q0.875 0.796875 4.5625 1.640625q3.703125 0.828125 5.078125 1.453125q2.0 0.921875 2.953125 2.34375q0.953125 1.40625 0.953125 3.25q0 1.828125 -1.046875 3.453125q-1.046875 1.609375 -3.015625 2.515625q-1.953125 0.890625 -4.40625 0.890625q-3.109375 0 -5.21875 -0.90625q-2.09375 -0.90625 -3.296875 -2.71875q-1.1875 -1.828125 -1.25 -4.125zm22.015625 13.71875l0 -22.953125l2.5625 0l0 2.15625q0.90625 -1.265625 2.046875 -1.890625q1.140625 -0.640625 2.765625 -0.640625q2.125 0 3.75 1.09375q1.625 1.09375 2.453125 3.09375q0.828125 1.984375 0.828125 4.359375q0 2.546875 -0.921875 4.59375q-0.90625 2.03125 -2.65625 3.125q-1.734375 1.078125 -3.65625 1.078125q-1.40625 0 -2.53125 -0.59375q-1.109375 -0.59375 -1.828125 -1.5l0 8.078125l-2.8125 0zm2.546875 -14.5625q0 3.203125 1.296875 4.734375q1.296875 1.53125 3.140625 1.53125q1.875 0 3.203125 -1.578125q1.34375 -1.59375 1.34375 -4.921875q0 -3.171875 -1.3125 -4.75q-1.296875 -1.578125 -3.109375 -1.578125q-1.796875 0 -3.1875 1.6875q-1.375 1.671875 -1.375 4.875zm26.078125 6.15625q-1.5625 1.328125 -3.015625 1.875q-1.4375 0.546875 -3.09375 0.546875q-2.734375 0 -4.203125 -1.328125q-1.46875 -1.34375 -1.46875 -3.421875q0 -1.21875 0.546875 -2.21875q0.5625 -1.015625 1.453125 -1.625q0.90625 -0.609375 2.03125 -0.921875q0.828125 -0.21875 2.5 -0.421875q3.40625 -0.40625 5.015625 -0.96875q0.015625 -0.578125 0.015625 -0.734375q0 -1.71875 -0.796875 -2.421875q-1.078125 -0.953125 -3.203125 -0.953125q-1.984375 0 -2.9375 0.703125q-0.9375 0.6875 -1.390625 2.453125l-2.75 -0.375q0.375 -1.765625 1.234375 -2.84375q0.859375 -1.09375 2.484375 -1.671875q1.625 -0.59375 3.765625 -0.59375q2.125 0 3.453125 0.5q1.328125 0.5 1.953125 1.265625q0.625 0.75 0.875 1.90625q0.140625 0.71875 0.140625 2.59375l0 3.75q0 3.921875 0.171875 4.96875q0.1875 1.03125 0.71875 1.984375l-2.9375 0q-0.4375 -0.875 -0.5625 -2.046875zm-0.234375 -6.28125q-1.53125 0.625 -4.59375 1.0625q-1.734375 0.25 -2.453125 0.5625q-0.71875 0.3125 -1.109375 0.921875q-0.390625 0.59375 -0.390625 1.328125q0 1.125 0.84375 1.875q0.859375 0.75 2.5 0.75q1.625 0 2.890625 -0.703125q1.265625 -0.71875 1.859375 -1.953125q0.453125 -0.953125 0.453125 -2.8125l0 -1.03125zm18.03125 2.25l2.765625 0.359375q-0.453125 2.859375 -2.328125 4.484375q-1.859375 1.609375 -4.578125 1.609375q-3.40625 0 -5.484375 -2.21875q-2.0625 -2.234375 -2.0625 -6.390625q0 -2.6875 0.890625 -4.703125q0.890625 -2.015625 2.703125 -3.015625q1.828125 -1.015625 3.96875 -1.015625q2.703125 0 4.421875 1.375q1.71875 1.359375 2.203125 3.875l-2.734375 0.421875q-0.390625 -1.671875 -1.390625 -2.515625q-0.984375 -0.84375 -2.390625 -0.84375q-2.125 0 -3.453125 1.53125q-1.328125 1.515625 -1.328125 4.8125q0 3.34375 1.28125 4.859375q1.28125 1.515625 3.34375 1.515625q1.65625 0 2.765625 -1.015625q1.109375 -1.015625 1.40625 -3.125zm16.53125 0.734375l2.90625 0.359375q-0.6875 2.546875 -2.546875 3.953125q-1.859375 1.40625 -4.75 1.40625q-3.640625 0 -5.78125 -2.234375q-2.125 -2.25 -2.125 -6.296875q0 -4.1875 2.15625 -6.5q2.15625 -2.3125 5.59375 -2.3125q3.328125 0 5.4375 2.265625q2.109375 2.265625 2.109375 6.375q0 0.25 -0.015625 0.75l-12.375 0q0.15625 2.734375 1.546875 4.1875q1.390625 1.453125 3.46875 1.453125q1.546875 0 2.640625 -0.8125q1.09375 -0.8125 1.734375 -2.59375zm-9.234375 -4.546875l9.265625 0q-0.1875 -2.09375 -1.0625 -3.140625q-1.34375 -1.625 -3.484375 -1.625q-1.9375 0 -3.265625 1.296875q-1.3125 1.296875 -1.453125 3.46875z" fill-rule="nonzero"/></g></svg>