<svg version="1.1" viewBox="0.0 0.0 541.5931758530184 429.4514435695538" fill="none" stroke="none" stroke-linecap="square" stroke-miterlimit="10" xmlns:xlink="http://www.w3.org/1999/xlink" xmlns="http://www.w3.org/2000/svg"><clipPath id="p.0"><path d="m0 0l541.5932 0l0 429.45145l-541.5932 0l0 -429.45145z" clip-rule="nonzero"/></clipPath><g clip-path="url(#p.0)"><path fill="#000000" fill-opacity="0.0" d="m0 0l541.5932 0l0 429.45145l-541.5932 0z" fill-rule="evenodd"/><path fill="#f19167" d="m81.55643 47.149605l405.22836 0l0 330.04724l-405.22836 0z" fill-rule="evenodd"/><path stroke="#000000" stroke-width="1.0" stroke-linejoin="round" stroke-linecap="butt" d="m81.55643 47.149605l405.22836 0l0 330.04724l-405.22836 0z" fill-rule="evenodd"/><path fill="#000000" fill-opacity="0.0" d="m284.1706 47.149605l0 330.04724" fill-rule="evenodd"/><path stroke="#000000" stroke-width="1.0" stroke-linejoin="round" stroke-linecap="butt" d="m284.1706 47.149605l0 330.04724" fill-rule="evenodd"/><path fill="#000000" fill-opacity="0.0" d="m390.6483 47.149605l0 330.04724" fill-rule="evenodd"/><path stroke="#000000" stroke-width="1.0" stroke-linejoin="round" stroke-linecap="butt" d="m390.6483 47.149605l0 330.04724" fill-rule="evenodd"/><path fill="#000000" fill-opacity="0.0" d="m177.69292 47.149605l0 330.04724" fill-rule="evenodd"/><path stroke="#000000" stroke-width="1.0" stroke-linejoin="round" stroke-linecap="butt" d="m177.69292 47.149605l0 330.04724" fill-rule="evenodd"/><path fill="#000000" fill-opacity="0.0" d="m81.55643 212.17323l405.22836 0" fill-rule="evenodd"/><path stroke="#000000" stroke-width="1.0" stroke-linejoin="round" stroke-linecap="butt" d="m81.55643 212.17323l405.22836 0" fill-rule="evenodd"/><path fill="#000000" fill-opacity="0.0" d="m81.55643 295.71127l405.22836 0" fill-rule="evenodd"/><path stroke="#000000" stroke-width="1.0" stroke-linejoin="round" stroke-linecap="butt" d="m81.55643 295.71127l405.22836 0" fill-rule="evenodd"/><path fill="#000000" fill-opacity="0.0" d="m81.55643 128.63518l405.22836 0" fill-rule="evenodd"/><path stroke="#000000" stroke-width="1.0" stroke-linejoin="round" stroke-linecap="butt" d="m81.55643 128.63518l405.22836 0" fill-rule="evenodd"/><path fill="#000000" fill-opacity="0.0" d="m234.04462 47.149605l0 330.04724" fill-rule="evenodd"/><path stroke="#000000" stroke-width="1.0" stroke-linejoin="round" stroke-linecap="butt" d="m234.04462 47.149605l0 330.04724" fill-rule="evenodd"/><path fill="#000000" fill-opacity="0.0" d="m338.2152 47.149605l0 330.04724" fill-rule="evenodd"/><path stroke="#000000" stroke-width="1.0" stroke-linejoin="round" stroke-linecap="butt" d="m338.2152 47.149605l0 330.04724" fill-rule="evenodd"/><path fill="#000000" fill-opacity="0.0" d="m437.82416 47.149605l0 330.04724" fill-rule="evenodd"/><path stroke="#000000" stroke-width="1.0" stroke-linejoin="round" stroke-linecap="butt" d="m437.82416 47.149605l0 330.04724" fill-rule="evenodd"/><path fill="#000000" fill-opacity="0.0" d="m129.87401 47.149605l0 330.04724" fill-rule="evenodd"/><path stroke="#000000" stroke-width="1.0" stroke-linejoin="round" stroke-linecap="butt" d="m129.87401 47.149605l0 330.04724" fill-rule="evenodd"/><path fill="#000000" fill-opacity="0.0" d="m81.55643 168.12599l405.22836 0" fill-rule="evenodd"/><path stroke="#000000" stroke-width="1.0" stroke-linejoin="round" stroke-linecap="butt" d="m81.55643 168.12599l405.22836 0" fill-rule="evenodd"/><path fill="#000000" fill-opacity="0.0" d="m81.55643 333.10236l405.22836 0" fill-rule="evenodd"/><path stroke="#000000" stroke-width="1.0" stroke-linejoin="round" stroke-linecap="butt" d="m81.55643 333.10236l405.22836 0" fill-rule="evenodd"/><path fill="#000000" fill-opacity="0.0" d="m81.55643 254.09186l405.22836 0" fill-rule="evenodd"/><path stroke="#000000" stroke-width="1.0" stroke-linejoin="round" stroke-linecap="butt" d="m81.55643 254.09186l405.22836 0" fill-rule="evenodd"/><path fill="#000000" fill-opacity="0.0" d="m81.55643 82.1601l405.22836 0" fill-rule="evenodd"/><path stroke="#000000" stroke-width="1.0" stroke-linejoin="round" stroke-linecap="butt" d="m81.55643 82.1601l405.22836 0" fill-rule="evenodd"/></g></svg>